<svg xmlns="http://www.w3.org/2000/svg" version="1.1" width="32" height="32"><desc>Created with Raphaël</desc><defs/><path fill="#333333" stroke="none" d="M21.77,8.895C19.391,8.895,17.291,10.068999999999999,16,11.863999999999999C14.711,10.068999999999999,12.61,8.895,10.23,8.895C6.306000000000001,8.895,3.125,12.076,3.125,16C3.125,19.924,6.306,23.105,10.23,23.105C12.609,23.105,14.71,21.93,16,20.135C17.29,21.93,19.391,23.105,21.77,23.105C25.695,23.105,28.875,19.923000000000002,28.875,16C28.875,12.075,25.694,8.895,21.77,8.895ZM21.769,21.822C18.558,21.822,15.947999999999999,19.212,15.947999999999999,16.000999999999998C15.947999999999999,12.787999999999997,18.558,10.176999999999998,21.769,10.176999999999998C24.982,10.176999999999998,27.592999999999996,12.787999999999998,27.592999999999996,16.000999999999998C27.593,19.212,24.981,21.822,21.769,21.822Z"/></svg>
