<?xml version="1.0" standalone="no"?>
<!DOCTYPE svg PUBLIC "-//W3C//DTD SVG 1.1//EN" "http://www.w3.org/Graphics/SVG/1.1/DTD/svg11.dtd" >
<svg xmlns="http://www.w3.org/2000/svg" xmlns:xlink="http://www.w3.org/1999/xlink" version="1.1">
<metadata>
Created by FontForge 20201107 at Fri Jun  3 07:58:00 2011
 By 
Copyright (c) 2010, Kimberly Geswein (kimberlygeswein.com)
</metadata>
<defs>
<font id="Cedarville-Cursive" horiz-adv-x="551" >
  <font-face 
    font-family="Cedarville Cursive"
    font-weight="400"
    font-stretch="normal"
    units-per-em="1024"
    panose-1="2 0 0 0 0 0 0 0 0 0"
    ascent="819"
    descent="-205"
    x-height="356"
    cap-height="751"
    bbox="-236 -663 1355 1279"
    underline-thickness="51"
    underline-position="-101"
    unicode-range="U+0020-FB02"
  />
<missing-glyph horiz-adv-x="461" 
 />
    <glyph glyph-name=".notdef" horiz-adv-x="461" 
 />
    <glyph glyph-name=".null" horiz-adv-x="0" 
 />
    <glyph glyph-name="nonmarkingreturn" horiz-adv-x="461" 
 />
    <glyph glyph-name="space" unicode=" " horiz-adv-x="461" 
 />
    <glyph glyph-name="exclam" unicode="!" horiz-adv-x="116" 
d="M33 25q-2 6 0 12.5t7 11t11 7t12 2.5q5 0 11.5 -3t12 -7.5t9.5 -10.5t4 -12q0 -15 -13.5 -20t-24.5 -5h-4q-2 2 -6 5.5t-8 7.5l-7.5 7.5t-3.5 4.5zM16 780q0 21 0.5 37.5t1.5 33.5t2.5 35t4.5 44q5 12 12 15.5t17 3.5q14 0 21.5 -8t7.5 -28v-506l-16 -150q0 -1 -2.5 -1
h-4.5q-11 0 -18.5 34t-12 86.5t-7.5 116t-4 121.5t-1.5 103.5t-0.5 62.5z" />
    <glyph glyph-name="quotedbl" unicode="&#x22;" horiz-adv-x="356" 
d="M24 738v38.5t1 34t3 33t5 36.5q2 7 8.5 8t12.5 1t12.5 -1t8.5 -8v-9t0.5 -13.5t0.5 -13.5v-9q0 -32 -4.5 -64t-4.5 -65q0 -57 12.5 -87t27.5 -45.5t28 -23.5t13 -20q-46 0 -71 19.5t-36.5 49.5t-14 67t-2.5 72zM199 761q0 7 3.5 26t10.5 40.5t17 37.5t24 16l2 -1h1
q3 -1 9 -7t8 -10q-8 -21 -12.5 -36t-8 -28.5t-5 -27.5t-1.5 -31q0 -24 5.5 -41.5t14.5 -33.5t21.5 -32t26.5 -35q2 -3 5 -6.5t6 -8.5q3 -4 6 -10l-9 -8q-6 -6 -17 -0.5t-24 18t-26 29t-24 31.5t-18 25.5t-7 12.5q0 3 -1.5 11.5t-2.5 19.5t-2 20.5t-2 14.5v14z" />
    <glyph glyph-name="numbersign" unicode="#" horiz-adv-x="772" 
d="M332 41q-1 7 -4.5 22t-7.5 32t-7.5 32.5t-5.5 21.5q-1 4 -3.5 13.5t-4.5 12.5h-12.5h-19h-19h-11.5q-46 0 -90.5 -5t-90.5 -5q-10 0 -20.5 0.5t-19.5 9.5l9 8l240 41q7 -2 14 2t12 6v22q0 9 -0.5 34.5t-2.5 53.5t-5 49.5t-9 23.5q-3 0 -15 0.5t-14 0.5q-20 0 -39.5 -4
t-39 -9t-39 -9t-39.5 -4q0 11 6 18.5t15 11.5t19.5 6t20.5 5q7 3 25 8t37.5 10t37 9.5t25.5 6.5v202q19 0 31 -11.5t18 -29t8 -39t3 -43t2 -40.5t4 -31h8h8q7 1 24 3.5t35.5 5t34.5 5.5t22 3q9 3 13.5 13t5 21t0 22.5t-0.5 18.5q0 9 1 32.5t2.5 50t3 50t2.5 33.5l4.5 0.5
t6.5 0.5q18 0 24 -12.5t6 -30.5v-190h157q8 0 8.5 -7t0.5 -11q0 -7 -5.5 -12.5t-13.5 -10t-17 -7t-14 -3.5q-6 0 -23 -1.5t-35.5 -3t-35 -3t-22.5 -1.5l-8 -32v-167h199q2 0 8.5 -5.5t7.5 -10.5q3 -9 -4 -15t-16 -10t-18 -6t-12 -2q-9 -1 -32.5 -2t-49.5 -2.5t-50 -2.5
t-33 -1v-8t-0.5 -12.5t-0.5 -12.5v-9q0 -27 8.5 -49t8.5 -46v-5l-4 -4l-4 -4h-5h-3q-1 0 -5 2t-8.5 4t-8 5t-3.5 5l-26 134h-112q0 -20 3 -39.5t7 -39t8 -37.5t4 -37q0 -10 -1 -16.5t-8 -13.5q-8 2 -15.5 7.5t-14 11.5t-12 12.5t-8.5 9.5zM339 365v-12t0.5 -16.5t0.5 -14.5
v-7q0 -8 1.5 -20.5l3 -25t2.5 -21l1 -8.5h124l10 183l-10 8h-9q-5 0 -9.5 0.5t-6.5 0.5q-8 0 -25 1t-34 0t-31 -5t-17 -13v-9.5t-0.5 -15t-0.5 -15.5v-10z" />
    <glyph glyph-name="dollar" unicode="$" horiz-adv-x="631" 
d="M390 191h-8t-12.5 0.5t-12.5 0.5h-9q-29 0 -57.5 -9t-53.5 -9q-11 0 -12 0.5t-1 2.5t-4 5t-21 9q-28 9 -59 17t-57 21t-43.5 34.5t-17.5 59.5h11q21 -41 54.5 -66.5t82.5 -25.5q6 0 12.5 1t8.5 8q-3 52 0.5 103.5t9 103t10.5 102.5t5 103v12q-16 22 -26.5 38.5t-16 32.5
t-7 34.5t-1.5 44.5v9.5t0.5 15t0.5 14.5v10q8 17 16.5 31.5t18.5 27t21.5 24.5t25.5 25q5 37 8 82t1 85q0 1 3.5 4.5t4.5 3.5q15 0 19.5 -12t6.5 -22q1 -5 3.5 -19t5 -30t5 -30.5t2.5 -20.5l8 -8l83 26v6q0 3 0.5 5.5t0.5 4.5q0 26 -1.5 54.5t-7 57t-15.5 55.5t-27 49
q6 10 11 13.5t14 3.5q17 0 29.5 -16t22.5 -39.5t16.5 -53.5t10 -57.5t4.5 -50t0 -32.5q27 -9 54 -21t48.5 -30.5t35 -42.5t13.5 -57q0 -12 -5.5 -17t-20.5 -15l-1 -1h-3q-1 0 -2 0.5t-2 0.5q4 20 -4 42t-23 40t-35.5 30t-41.5 12h-5q-9 -22 -14 -56t-6.5 -74.5t-1 -84.5
t1.5 -85t2.5 -75t1.5 -56v-41q23 -11 46.5 -30.5t43 -44t32 -51.5t12.5 -54q0 -24 -10 -38t-24.5 -24t-32 -17t-32.5 -16.5t-25 -24t-10 -36.5q0 -40 8.5 -79.5t8.5 -79.5q-29 0 -44 22t-21.5 52t-7.5 61.5t-2 51.5zM265 565q-4 -37 -9 -78.5t-9 -85.5t-6.5 -87.5
t-2.5 -83.5q35 0 76 1.5t76 16.5v18.5t0.5 26t0.5 26v18.5v22t-0.5 27.5t-0.5 24.5v12q0 9 -1 23t-2.5 27.5t-3 23t-1.5 10.5l-100 91q-8 -5 -11.5 -16t-5.5 -17zM448 274q0 -2 3 -5.5t5 -3.5q14 0 26 6t21.5 15t15.5 21t6 24q0 10 -6 28.5t-15.5 36t-22 30.5t-25.5 13h-8
v-165zM281 664q0 -3 1 -8l91 -91q1 -1 2 -1h3q6 0 9 3.5t3.5 9t0 11.5t-0.5 10q2 100 5.5 189.5t3.5 186.5q-23 0 -43 -3.5t-41 -15.5q-1 -10 -3.5 -29.5t-6.5 -44t-7.5 -51.5t-6.5 -52t-5.5 -44t-3.5 -28q0 -2 -0.5 -13.5t-0.5 -15.5v-13zM198 801q0 -5 1 -15t3.5 -21
t6.5 -19t11 -8q1 0 2 0.5t2 0.5q4 22 7.5 40t5 34.5t3 32t1.5 34.5q0 3 -0.5 12.5t-0.5 12.5q-11 -8 -19.5 -20.5t-13.5 -26.5t-7 -29t-2 -28z" />
    <glyph glyph-name="percent" unicode="%" horiz-adv-x="565" 
d="M165 43q0 5 0.5 14t0.5 10l207 772q1 2 5 11t8.5 17.5t11 15t13.5 6.5t11.5 -5t6 -11.5t2.5 -14.5t1 -12q0 -3 -0.5 -8.5t-0.5 -6.5l-132 -458q-2 -40 -12.5 -87.5t-24.5 -95.5t-28.5 -91t-26.5 -74q3 -13 -5 -15.5t-14 -2.5q-19 0 -21 9.5t-2 26.5zM373 218
q0 34 12.5 59t29.5 48t33.5 46t23.5 52q3 1 11 2.5t11 1.5q4 0 12 -1.5t9 -2.5q3 -3 7 -8.5t6.5 -12.5t4 -13t-0.5 -7l-17 -17q-7 -6 -9 -24.5t-2 -44v-55t-2.5 -58.5t-9 -55.5t-20.5 -44.5q-1 0 -9 -0.5t-10 -0.5q-24 0 -39 14t-24.5 34.5t-13 44.5t-3.5 43zM407 191
q0 -6 1.5 -15.5t5.5 -19.5t9 -17.5t13 -7.5h1q1 0 2 1q2 1 5.5 4t3.5 5q6 16 9 39.5t3.5 47.5t0 44t-0.5 29q-18 0 -28.5 -13t-16 -30.5t-7 -36.5t-1.5 -30zM15 639q0 35 13 68t35.5 58.5t53.5 41.5t67 16q7 0 15.5 -1.5t8.5 -12.5q0 -8 -6.5 -12t-15 -7t-17 -7.5
t-12.5 -10.5q11 -15 18 -25t10.5 -19t5 -18.5t1.5 -22.5q0 -21 -7.5 -41.5t-21 -36.5t-32 -26.5t-40.5 -10.5q-15 0 -28.5 5t-24 14t-17 21.5t-6.5 26.5zM49 633q0 -13 9 -16t21 -3q31 0 50.5 21t19.5 50q0 8 -3 20t-8.5 23.5t-13 20t-16.5 8.5q-2 0 -4.5 -0.5t-3.5 -0.5
q-11 -15 -20.5 -29t-16 -28.5t-10.5 -30.5t-4 -35z" />
    <glyph glyph-name="ampersand" unicode="&#x26;" horiz-adv-x="689" 
d="M15 291q0 32 11.5 49t45.5 17q27 0 48.5 -11.5t40 -29.5t33.5 -38.5t29 -38.5t27 -29.5t27 -11.5q12 0 19.5 2t18.5 7v25q0 69 -4.5 138t-4.5 139q21 0 30.5 -6.5t11.5 -29.5l25 -257q2 0 8.5 -0.5t8.5 -0.5q38 0 77 15t74 38.5t64.5 53.5t50.5 60h11q0 -25 -16 -49.5
t-41 -47.5t-56.5 -43.5t-63 -36t-60.5 -26t-48 -13.5q-9 -4 -12 -11t-4 -15.5t-1 -17v-14.5q-1 -5 -2 -18.5t-2.5 -28t-2.5 -27t-2 -18.5q-1 -3 -7 -8.5t-9 -7.5q-1 -1 -2 -1h-1q-16 0 -23 10.5t-12.5 26.5t-11 35t-16.5 37t-30.5 31.5t-52.5 17.5q-30 5 -61.5 12.5
t-56.5 22.5t-41.5 39t-16.5 60zM299 149q0 -1 3 -8t5 -9q2 1 4.5 4t3.5 5v2q0 1 0.5 1.5t0.5 1.5l-1 2v1q-1 2 -3.5 5t-4.5 3t-5 -3t-3 -5zM66 283q0 -22 15 -38t37.5 -26.5t47.5 -15.5t43 -5q0 16 -14.5 36.5t-35 39t-43 30.5t-37.5 12q-6 0 -9 -3.5t-3.5 -8.5t-0.5 -11
v-10z" />
    <glyph glyph-name="quotesingle" unicode="'" horiz-adv-x="91" 
d="M41 499q-9 56 -17.5 106.5t-8.5 105.5q0 3 0.5 14t0.5 14q3 9 9.5 9h12.5q14 0 21.5 -12t11 -27.5t4 -32t0.5 -26.5q0 -13 -0.5 -41t-3 -56t-6.5 -50t-11 -22h-3q-1 0 -2 1q-1 2 -4 8.5t-4 8.5z" />
    <glyph glyph-name="parenleft" unicode="(" horiz-adv-x="257" 
d="M15 228q0 47 5 94.5t21 92.5l150 399q2 2 8 12t8 13h2q1 0 1.5 0.5t1.5 0.5l2 -1h2q4 -3 10 -9.5t6 -7.5v-66q-5 -14 -16.5 -42.5t-25 -64.5t-29 -76t-29 -76t-25 -65t-16.5 -42q-2 -5 -4.5 -14t-5.5 -18.5t-4.5 -16.5t-1.5 -9v-183q0 -15 5 -31t14 -31.5t18.5 -29.5
t19.5 -24q0 -2 0.5 -6.5l0.5 -4.5q0 -16 -6 -19.5t-21 -3.5q-21 0 -35 13.5t-24.5 34.5t-16.5 47.5t-9.5 51.5t-4.5 47t-1 35z" />
    <glyph glyph-name="parenright" unicode=")" horiz-adv-x="382" 
d="M74 41q0 11 2 18.5t15 7.5q9 0 15 -4.5t15 -4.5q16 0 34.5 13.5t37.5 35t36.5 47t32.5 50.5t24.5 45.5t12.5 32.5q0 5 0.5 19t0.5 29.5t0.5 29t0.5 18.5q0 29 -0.5 58.5t-4.5 59t-13 57.5t-26 54q-5 8 -17 24t-25 33t-25 31.5t-15 19.5q-9 8 -35 20.5t-53.5 27.5
t-49 32.5t-21.5 35.5q0 1 7 7t10 9h5q37 0 73.5 -17t69.5 -45.5t62.5 -66t52.5 -77t38.5 -78.5t21.5 -73v-20t0.5 -30t0.5 -30v-20q0 -52 -6.5 -96t-23 -83t-44 -74.5t-67.5 -69.5q-7 -7 -20.5 -18t-30 -22.5t-34 -19.5t-32.5 -8q-8 0 -13 4.5t-7.5 11t-3.5 14t-1 12.5z" />
    <glyph glyph-name="asterisk" unicode="*" horiz-adv-x="482" 
d="M244 299q-38 -24 -76 -33.5t-82 -9.5h-9.5t-15 0.5t-14.5 0.5h-10q-9 2 -9 11v14q0 21 13.5 35t34 23.5t44 16t44 12.5t34 13.5t13.5 18.5q0 22 -8 47.5t-19 51t-22.5 47t-16.5 33.5v28q14 0 20.5 -7.5t10 -18t7 -20.5t11.5 -15l67 -149q4 -7 9 -8t13 -1q9 0 16 2.5
t11 15.5q-6 5 -18.5 16t-25 24.5t-22 28t-9.5 26.5q0 9 5 19.5t17 10.5l2 -1h2l58 -59h1h3q8 0 13.5 7.5t10.5 17.5t10 19.5t12 14.5h2q1 0 1.5 0.5l0.5 0.5l2 -1h2q2 -1 8 -3.5t8 -4.5q0 -2 0.5 -12t0.5 -13q0 -19 -5 -36t-5 -35q0 -16 12.5 -26t26 -18.5t26 -18
t12.5 -24.5q0 -12 -8 -19t-20 -7q-19 0 -37 9.5t-36 9.5q-1 0 -4 -0.5t-4 -0.5q-6 -14 -12.5 -32.5t-13 -39t-11 -40.5t-5.5 -37q-1 -1 -7.5 -1.5t-8.5 -0.5q-16 0 -24.5 14.5t-11.5 33t-4 36.5t-2 26zM145 306q16 0 36.5 5.5t29.5 20.5v2v1.5v1.5v1v2l-66 -25v-9z" />
    <glyph glyph-name="plus" unicode="+" horiz-adv-x="499" 
d="M207 291q-2 0 -11.5 0.5t-14.5 0.5q-42 0 -81.5 -9t-78.5 -9h-5q-2 0 -4.5 3.5t-3.5 4.5l8 9q10 2 35 9t52.5 15t52.5 15t35 10q7 2 12 6q5 2 9 5t4 5v159q0 15 13 20.5t25 5.5q7 0 14.5 -2.5t5.5 -14.5q0 -6 -0.5 -19t-0.5 -27.5t0.5 -28t0.5 -18.5q0 -9 1 -23
t2.5 -27.5t2.5 -23t2 -9.5l182 -25q1 0 4.5 -6t4.5 -10v-4q0 -10 -12 -15.5t-21 -5.5q-34 0 -68.5 9t-68.5 9q-2 0 -10.5 -0.5t-10.5 -0.5l-17 -291q0 -2 -3 -4.5t-5 -3.5l-1 -1h-2q-12 0 -18.5 11.5t-9 25t-2.5 25.5v14q-1 11 -2 40.5t-2 62.5t-2.5 62.5t-1.5 41.5z" />
    <glyph glyph-name="comma" unicode="," horiz-adv-x="340" 
d="M199 -183q26 52 46.5 107t20.5 115q0 10 -2.5 24t-8.5 27.5t-15.5 23.5t-23.5 10q-19 0 -31 -18t-22 -40t-19 -40t-20 -18h-75q-1 0 -5 4.5t-8.5 10t-7.5 11t-3 7.5q5 26 25 48.5t47 40t57 27t53 9.5q25 0 45.5 -9t34.5 -25t21.5 -37.5t7.5 -46.5q0 -38 -12 -76t-30 -72
q-6 -11 -15.5 -27.5t-19 -32.5t-16 -27.5t-7.5 -11.5h-17v16z" />
    <glyph glyph-name="hyphen" unicode="-" horiz-adv-x="607" 
d="M16 356q3 8 14.5 16t18.5 10q47 2 96.5 6t99.5 8t99 7.5t95 3.5q34 0 68.5 -3t65.5 -14l-17 -17l-17 -2t-44.5 -5t-61.5 -7t-69.5 -7.5t-67.5 -6.5t-56 -5q-45 -4 -92 -6t-91 -2q-5 0 -12 1t-14.5 3.5t-12 7.5t-2.5 12z" />
    <glyph glyph-name="period" unicode="." horiz-adv-x="240" 
d="M24 38q0 19 13.5 31t33 19t40 10.5t35.5 3.5q9 0 19.5 -0.5t20 -4t16.5 -10t7 -19.5q0 -18 -8 -31t-20 -21.5t-27 -12.5t-31 -4q-11 0 -28 -0.5t-32.5 2.5t-27 11.5t-11.5 25.5zM132 53h-6.5t-9.5 -1t-10 -3.5t-6 -7.5h32v12z" />
    <glyph glyph-name="slash" unicode="/" horiz-adv-x="532" 
d="M7 25q0 18 4 34t14 32l282 474q12 14 21 29t18 31t19.5 30.5t24.5 25.5l74 133q6 8 16 13t19 5q12 0 14 -9t2 -19v-15l-415 -657l-67 -132l-2 -1h-4q-14 0 -17 7t-3 19z" />
    <glyph glyph-name="zero" unicode="0" horiz-adv-x="565" 
d="M24 298q0 42 8 94t25 105t42.5 102.5t59.5 88t77.5 62t95.5 23.5q14 0 38 -2t46.5 -10t39 -22.5t16.5 -37.5v-4q0 -2 -3 -8t-5 -8l-1 -1h-2h-3q-1 0 -2 1q-2 1 -7.5 6t-12.5 10.5t-13 10.5t-8 7h-2h-2h-2h-2q63 -95 94 -194.5t31 -213.5q0 -55 -11.5 -110t-38 -99
t-69.5 -71.5t-108 -27.5q-59 0 -110.5 25t-89.5 67t-59.5 95.5t-21.5 111.5zM57 278q0 -53 19.5 -97.5t54.5 -76.5t82 -48.5t102 -14.5q47 3 79 26.5t51.5 58.5t27.5 77.5t8 81.5q0 32 -2.5 76t-11 91.5t-23 94.5t-38.5 84.5t-57.5 60.5t-80.5 23q-33 0 -61.5 -26t-52 -67
t-42 -91t-31 -99t-18.5 -90t-6 -64z" />
    <glyph glyph-name="one" unicode="1" horiz-adv-x="177" 
d="M161 744q7 -2 12.5 -4t10.5 -9q-5 -52 -9 -90t-8.5 -72t-9.5 -69.5t-12 -81.5q-2 -9 -5 -26l-6 -34t-5 -30.5t-2 -16.5q-3 -13 -9.5 -47.5t-14 -74t-14.5 -74t-10 -48.5q-1 -3 -4 -11t-7 -16.5l-8 -17t-6 -10.5q-2 -1 -5 -4t-5 -4l-4 1h-2q-1 0 -2 1q-3 2 -8.5 5.5
t-5.5 4.5l110 707q2 9 11.5 16t17.5 5z" />
    <glyph glyph-name="two" unicode="2" horiz-adv-x="439" 
d="M23 30q0 1 1 5.5t1 5.5l249 483q16 29 21 52.5t5 52.5q0 15 -1 27t-8 25q-3 0 -11 0.5t-10 0.5q-34 0 -63.5 -12t-55 -31.5t-48.5 -43.5t-45 -47q-9 3 -17.5 8.5t-8.5 16.5q0 19 13 37t32.5 34.5t44.5 30t48.5 25t44.5 19t33 12.5q3 0 7.5 0.5t10 0.5t10 0.5t6.5 0.5
q16 0 31.5 -1.5t26.5 -16.5q2 -5 4.5 -16t5.5 -22.5t4.5 -22.5t1.5 -14q0 -6 -1.5 -18.5t-4.5 -25.5t-5.5 -24.5t-4.5 -15.5l-108 -233q-2 -2 -8 -11.5t-8 -12.5q-9 -16 -20.5 -39t-25 -48t-26 -49t-22.5 -43.5t-16 -32l-6 -12.5v-8q36 0 77 3t82.5 9.5t81.5 19.5t74 33
q1 -2 1.5 -6.5l0.5 -4.5q0 -19 -17.5 -32.5t-41.5 -23t-48 -15.5l-36 -9q-12 -2 -41.5 -8.5t-62 -13t-62.5 -12t-41 -7.5q-2 0 -7 -0.5t-6 -0.5q-14 0 -22.5 8t-8.5 23z" />
    <glyph glyph-name="three" unicode="3" horiz-adv-x="515" 
d="M25 67q6 -4 14 -8.5t17.5 -8t18.5 -6.5t16 -3q55 0 102 22t82 59t54.5 85.5t19.5 100.5q0 12 1 28t-1.5 29.5t-10.5 23t-27 9.5h-4q-8 -2 -21.5 -6t-26.5 -7.5t-23.5 -7t-11.5 -4.5q-9 -4 -30.5 -15.5t-45.5 -24.5t-44.5 -25t-28.5 -17q-1 0 -1 -0.5t-1 -0.5h-2
q-11 0 -16.5 8.5t-5.5 16.5q0 13 7 18t19 15q6 6 26 22t46.5 37t56 45.5t56 45.5t46.5 37t26 21q14 12 29.5 26.5t29 31.5t22 35.5t8.5 37.5q-26 0 -46.5 -8.5t-40 -19.5t-40 -19.5t-46.5 -8.5v17q0 15 13 28t33.5 24t45 20t48 15.5t42.5 9.5t28 3q11 0 21.5 -5.5
t10.5 -19.5q0 -41 -20 -78t-49.5 -70t-62.5 -60.5t-59 -49.5v-9q34 -2 55 -13t33.5 -29.5t16.5 -43.5t4 -57q0 -54 -20.5 -109.5t-56 -101t-85 -74.5t-107.5 -29q-3 0 -15 2.5t-29 6t-34 9t-30 12t-18 14t3 15.5z" />
    <glyph glyph-name="four" unicode="4" horiz-adv-x="373" 
d="M240 412q-27 0 -52.5 -5t-51 -10.5t-51.5 -10t-53 -4.5q-10 0 -17.5 7t-7.5 18v4q0 2 1 4q4 8 10.5 26.5t15 41.5t17 48t17 48t14.5 41.5t9 27.5q2 4 4.5 16t5 25t5 25t2.5 17q4 7 12.5 11.5t17.5 4.5h3q2 -1 8.5 -3.5t7.5 -4.5q0 -3 0.5 -10.5t0.5 -10.5q0 -37 -11 -70
t-25 -65.5t-25.5 -65t-11.5 -67.5q41 0 82 9.5t81 13.5l43 358q1 11 11.5 18t20.5 7t17.5 -5.5t7.5 -15.5v-4q-9 -80 -21.5 -155t-12.5 -152q0 -18 4.5 -32.5t4.5 -30.5v-5q-1 -3 -7 -16t-9 -17q-5 -101 -5.5 -203.5t-10.5 -203.5q-1 -3 -7.5 -9t-9.5 -7q-5 -2 -10.5 2
t-11 9.5t-9 12t-3.5 9.5v379z" />
    <glyph glyph-name="five" unicode="5" horiz-adv-x="473" 
d="M141 58q1 2 4 5l4 4q8 -13 21.5 -15.5t25.5 -2.5q43 0 78 24t58.5 60.5t36.5 79t13 78.5v9.5v15v14.5v10q-9 20 -18.5 35.5t-22 26.5t-29 16.5t-38.5 5.5q-28 0 -52 -11.5t-44.5 -28t-37 -36.5t-29 -36.5t-22 -27.5t-14.5 -11q-8 0 -17 3.5t-9 14.5v216q0 12 -4 24
t-8.5 23t-8.5 22.5t-4 22.5q0 17 12.5 23t27.5 8t30.5 1t21.5 0q27 3 49 5.5t42.5 6t40 8.5t43.5 13q12 5 22 15t24 10q20 0 20 -20q0 -15 -7 -25.5t-18.5 -18t-25 -12t-24.5 -6.5q-10 -3 -36 -8t-55 -10.5t-55 -10t-36 -5.5v-175q1 -2 3 -4q3 -3 5 -4h4h4q17 15 35.5 30.5
t38.5 27t42 18.5t46 7q41 0 71 -14t50 -38t30.5 -57.5t10.5 -71.5q0 -27 -8.5 -59t-24 -65.5t-36.5 -65t-47 -55.5t-56 -37.5t-61 -9.5q-12 1 -23.5 4.5t-21 9.5t-15.5 16t-6 24v4z" />
    <glyph glyph-name="six" unicode="6" horiz-adv-x="532" 
d="M25 146q0 60 19.5 125.5t48 129t62 123t61.5 107.5q3 20 6.5 34.5t11 24.5t19.5 15.5t32 5.5q0 -24 -4.5 -53.5t-15.5 -50.5l-149 -300q-8 -15 -14.5 -33.5t-11 -39t-6.5 -41t-2 -37.5q0 -30 12 -49t31.5 -29t43 -13.5t45.5 -3.5q0 16 -4 31.5t-8.5 31t-8.5 31.5t-4 34
q0 35 9.5 74.5t29 73.5t51 56.5t75.5 22.5q33 0 61.5 -14t48.5 -37t31.5 -52.5t11.5 -62.5q0 -62 -22 -107.5t-60 -75.5t-88.5 -45t-107.5 -15h-16t-24 0.5t-24 0.5h-16q-21 8 -43 20.5t-40 30t-29.5 39t-11.5 48.5zM239 213q0 -11 1.5 -37t6.5 -52.5t15 -46.5t27 -20
q42 0 73.5 14.5t52.5 39.5t31.5 58t10.5 71q0 22 -4.5 44.5t-15 40.5t-28.5 29t-44 11q-31 0 -54.5 -14t-39 -36t-24 -49t-8.5 -53z" />
    <glyph glyph-name="seven" unicode="7" horiz-adv-x="431" 
d="M240 16v12t-0.5 17.5t-0.5 17.5v12q0 144 20 283t73 273v17l-12 2t-30.5 5t-41 6t-43.5 6t-39 4.5t-25 1.5q-16 0 -27 -19.5t-21.5 -43t-22.5 -43.5t-30 -20q-12 0 -18.5 9.5t-6.5 20.5q0 6 15 31.5t35 52.5t40.5 49t31.5 22q26 0 61 -5t71 -11t68 -12t53 -7q7 2 11 -0.5
t6 -6.5t2 -9v-8t-0.5 -9t-1.5 -8q-25 -55 -43 -110t-31 -110t-21 -112.5t-13 -116.5q-1 -9 -0.5 -28t0.5 -42t-1 -47t-4 -44t-8.5 -33t-15.5 -13q-8 0 -16.5 4.5t-13.5 11.5z" />
    <glyph glyph-name="eight" unicode="8" horiz-adv-x="598" 
d="M99 60q0 27 12 56.5t31 58.5t40 56.5t40 50.5t31 40t12 26v8l-66 51h-8q-6 3 -21 12.5t-32 20.5t-33 20.5t-22 12.5q-22 13 -41.5 25.5t-25.5 41.5q-3 22 15.5 38.5t49.5 27t69.5 18t73 11t60.5 5t34 1.5q29 0 52.5 -0.5t46.5 -3t48 -7.5t59 -15q6 -2 13 -6t13.5 -9.5
t10.5 -12.5t4 -13q0 -19 -10 -38.5t-25.5 -37t-35 -28t-38.5 -10.5v13l51 51v41q0 1 -9.5 3.5t-15.5 4.5q-37 7 -56.5 11t-36 5t-37 1h-57.5h-25t-30.5 -0.5t-27 -0.5h-13.5q-6 0 -18.5 -2t-27 -4.5t-27.5 -5.5t-18 -4q-5 -2 -12 -5.5t-13.5 -7.5t-11 -7.5t-4.5 -4.5v-24
q0 -2 11 -9.5t28.5 -18t38.5 -23t40 -24t34 -21t21 -13.5q12 -7 28 -16t31 -9h8q3 4 13 16t20.5 25.5t20 25t12.5 16.5q7 9 10.5 19.5t7.5 19.5t10.5 14.5t18.5 5.5q13 0 16.5 -7t3.5 -18q0 -18 -12 -40t-28.5 -43.5t-33.5 -39.5t-26 -28v-8q19 -16 37 -36.5t32 -44
t22.5 -49t8.5 -52.5q0 -35 -18 -60t-44.5 -44t-56.5 -33.5t-56 -28.5h-9.5t-15 -0.5t-14.5 -0.5h-10q-15 0 -35.5 1.5t-38.5 7t-30.5 18.5t-12.5 34zM149 67q5 -7 11.5 -11t14.5 -7h8.5h14h14h8.5q27 0 57.5 7t55 22t41.5 38t17 54q0 16 -4.5 41.5t-14.5 48.5t-25 39.5
t-36 16.5q-1 0 -1 -0.5t-1 -0.5h-2q-2 -1 -8.5 -7.5t-7.5 -8.5q-4 -5 -12.5 -17t-20 -28t-24 -34t-24 -35.5t-21 -31.5t-14.5 -21q-5 -5 -9 -15t-7 -20.5t-6 -19t-4 -10.5z" />
    <glyph glyph-name="nine" unicode="9" horiz-adv-x="373" 
d="M274 25v23v35.5v34.5v23q-1 12 -2 36.5t-2.5 56t-3 65.5t-3.5 65t-3.5 56t-2.5 36h-9q-7 -12 -19.5 -36t-29 -47.5t-37 -41t-42.5 -17.5t-41.5 12.5t-33.5 31.5t-22 41t-8 41q0 47 22 81.5t57.5 57t78.5 34t85 11.5q8 0 19 -1.5t22 -4t20 -7.5t13 -13v-29q0 -41 -4.5 -81
t-4.5 -80q0 -68 5 -133.5t5 -133.5v-18t-0.5 -28t-0.5 -27.5v-18.5q0 -4 -2 -12t-5 -16t-8.5 -14.5t-13.5 -6.5q-10 0 -19 7t-10 18zM66 443q0 -13 4.5 -26.5t12.5 -24.5t19.5 -19t26.5 -8q2 0 12.5 12t24 29.5t28.5 38t27.5 39.5t20.5 33.5t8 17.5q0 5 -3.5 7.5t-8.5 5
t-9 6.5t-5 11q-28 -3 -56 -10.5t-51 -22t-37 -36.5t-14 -53z" />
    <glyph glyph-name="colon" unicode=":" horiz-adv-x="299" 
d="M86 133q0 32 17.5 56t51.5 24q13 0 25 -5.5t21.5 -15t14.5 -22t5 -24.5q0 -34 -14.5 -52.5t-52.5 -22.5q-40 -4 -54 12t-14 50zM65 472q0 28 16 51.5t34 45.5q5 3 12.5 4.5l17.5 3.5q26 -17 52.5 -37.5t38.5 -41t2.5 -41.5t-56.5 -38q-35 -10 -57.5 -4.5t-36 17.5
t-18.5 24.5t-5 15.5z" />
    <glyph glyph-name="semicolon" unicode=";" horiz-adv-x="232" 
d="M139 27q-7 0 -13 3t-2 11q-5 0 -21.5 1t-33.5 5t-30.5 12t-13.5 23q0 21 4.5 37.5t12.5 29.5t20.5 24.5t28.5 26.5h21q27 0 43.5 -24.5t26.5 -57.5t13.5 -67.5t3.5 -54.5q0 -37 -8 -67t-23 -56t-36.5 -49.5t-48.5 -47.5q-6 -5 -15 -11.5t-18 -13.5t-16.5 -12t-8.5 -5h-9
q4 17 18.5 25t23.5 17q30 30 46.5 57t24 56.5t9 62.5t1.5 75zM22 395q0 42 21 67.5t64 25.5q25 0 46.5 -15t21.5 -41q0 -22 -9 -37t-23.5 -24.5t-33.5 -14t-38 -4.5q-6 0 -18 0.5t-13 1.5l-16 17q-1 2 -1.5 11t-0.5 13z" />
    <glyph glyph-name="less" unicode="&#x3c;" horiz-adv-x="664" 
d="M16 91q24 22 48.5 47.5t43.5 52.5l315 308q0 9 6.5 15.5t15.5 10.5t19 5.5t18 1.5t17 -1.5t8 -15.5q0 -3 -2.5 -7.5t-5 -10t-5.5 -10t-4 -5.5l-382 -366q-11 -10 -18.5 -19.5t-7.5 -21.5q0 -2 0.5 -5l0.5 -3q16 -5 38 -7.5l44 -5t42 -4t33 -1.5h42.5h64.5h76h76h64.5
h43.5q3 0 15.5 -3t17.5 -5q2 -1 5 -3.5t3 -4.5q0 -4 -6 -12.5t-11 -12.5q-29 -4 -61.5 -6.5t-65 -3t-64 0t-58.5 0.5h-133t-133 9q-11 2 -28 4.5t-33 5.5t-27.5 5l-11.5 2v66z" />
    <glyph glyph-name="equal" unicode="=" horiz-adv-x="556" 
d="M75 141q0 1 16 6t38.5 12t46.5 13t40 11q33 8 73.5 15.5t83 13.5t83.5 10t76 4v-43l-416 -59l-41 8v9zM464 415q-50 -4 -105.5 -9.5t-112.5 -11.5t-113.5 -10t-109.5 -4q0 7 5 13.5t12 11t14.5 7t12.5 3.5q98 29 197.5 37.5t199.5 8.5v-46z" />
    <glyph glyph-name="greater" unicode="&#x3e;" horiz-adv-x="607" 
d="M116 16q8 7 23.5 23t34.5 35.5t38.5 41t36 41t28.5 35.5t14 24l140 140q2 1 7.5 4.5t11.5 7.5t10.5 9t4.5 9q0 1 -0.5 1.5t-0.5 1.5v1q-1 1 -7 4.5t-9 3.5q-5 1 -26 6t-44.5 10.5t-44.5 10.5t-26 6q-9 3 -35 9t-59.5 14.5t-70 19.5t-66.5 22.5t-49.5 24t-19.5 23.5
q0 12 10.5 17t20.5 5q2 0 6.5 -0.5l4.5 -0.5l108 -41l408 -101q7 -2 8 -6.5t1 -8.5q0 -10 -2 -17.5t-7 -17.5q-31 -15 -58 -34t-52.5 -39.5t-49 -44t-49.5 -48.5q-24 -24 -49.5 -59t-54.5 -67t-62 -54t-74 -22v11z" />
    <glyph glyph-name="question" unicode="?" horiz-adv-x="515" 
d="M114 46q0 31 21 44t48 13q4 0 16 -1t17 -2t7.5 -6.5t2.5 -11.5t-0.5 -11.5t-0.5 -6.5q0 -12 -4.5 -23.5t-12.5 -20.5t-19 -14.5t-23 -5.5q-52 0 -52 46zM33 473q0 4 1 11.5t3.5 14.5t7.5 12t13 4q36 -27 73.5 -34.5t80.5 -7.5q53 0 93.5 21t68.5 55t43 79.5t15 94.5v11
t-0.5 17.5t-0.5 18v10.5q-4 11 -10.5 21.5t-13.5 20.5h-8t-11 0.5t-11 0.5h-7q-43 0 -88 -12.5t-87.5 -34t-80 -50.5t-65.5 -62q-3 1 -9 4t-12 8t-10 10.5t-2 10.5q4 20 27.5 41t57 40.5t75 36.5t82 30t76.5 20.5t60 7.5q5 0 19 -0.5t18 -0.5q14 -8 24.5 -22t18 -31
t12 -34.5t4.5 -33.5q0 -45 -12.5 -100t-39 -104t-67.5 -82.5t-97 -33.5h-158q4 -7 11.5 -25.5t15.5 -39.5t14.5 -40t8.5 -27v-4.5v-10.5v-12.5v-9.5q0 -6 0.5 -14.5t0.5 -17.5t-2 -17.5t-8 -13.5q0 -1 -1 -1h-2q-1 0 -2.5 0.5t-2.5 0.5q-6 10 -17 33.5t-24.5 54t-26.5 63
t-23.5 59.5l-17.5 45t-7 19z" />
    <glyph glyph-name="at" unicode="@" horiz-adv-x="656" 
d="M191 8q-5 10 -15 11.5t-19 5.5q-33 18 -57.5 38.5t-41.5 45t-25.5 54.5t-8.5 69q0 81 35 160.5t94 142t135.5 101t160.5 38.5q42 0 77.5 -19.5t60.5 -51t39 -71t14 -79.5q0 -41 -11.5 -82t-34 -73.5t-56.5 -53.5t-79 -21q-25 0 -33.5 17t-11.5 37.5t-5 37.5t-15 17
q-8 0 -18 -6.5t-19 -15.5t-15.5 -17.5t-9.5 -10.5q-1 0 -6 -0.5t-7 -0.5q-12 0 -18 6.5t-10 19.5q0 3 -0.5 12t-0.5 19t-0.5 19t-0.5 13q0 28 2.5 54t13 46t30 32.5t51.5 12.5q15 0 46 -10.5t62.5 -26t55 -33.5t23.5 -34q0 -7 -5.5 -18t-15.5 -11q-8 0 -20 7.5t-23 17
t-19.5 17l-8.5 7.5h-17q-2 0 -4 -13.5t-3 -30t-1 -32.5v-20v-20t3 -20.5t8.5 -15.5t18.5 -6q26 0 46 18.5t33 44t19 54t6 47.5q0 35 -9 68t-27.5 59t-47 42.5t-67.5 16.5q-4 0 -19.5 -3.5t-21.5 -4.5q-64 -26 -124 -60.5t-106.5 -81t-74 -106t-27.5 -135.5q0 -50 21.5 -85
t53.5 -58.5t69.5 -36.5t70 -20.5t54 -10t21.5 -5.5q-5 -3 -14.5 -5.5t-19 -4.5t-18 -4t-13.5 -2q-6 0 -20.5 1t-30.5 2t-30 2.5t-19 2.5zM391 465q-24 0 -35 -10.5t-15 -27t-4 -35.5v-37q17 0 30 11t21.5 27t13.5 33t5 30q0 7 -6 8t-10 1z" />
    <glyph glyph-name="A" unicode="A" horiz-adv-x="719" 
d="M20 212q0 42 3 78t10 70.5t16.5 70t23.5 76.5q9 28 28.5 68t47 75.5t62 60.5t72.5 25h83q1 0 6.5 -1.5t8.5 -2.5q39 -19 61 -46.5t30 -70.5q9 -41 19.5 -78.5t10.5 -78.5q0 -49 -2.5 -97t-2.5 -97v-10.5t0.5 -16.5t0.5 -17v-10q1 -8 2 -23t4 -33t6 -37t7.5 -34.5
t10.5 -25.5t14 -10q27 0 56.5 7t53.5 22q2 2 9.5 7.5t16 12t16 12t11.5 8.5q7 5 11.5 7.5t11.5 2.5q6 0 11 -3.5t5 -10.5q0 -23 -25.5 -43t-59.5 -36t-68.5 -25.5t-51.5 -9.5q-22 0 -37.5 22.5t-27 53t-20 63t-16.5 53.5q-14 -40 -41.5 -74.5t-62.5 -60.5t-76 -41t-83 -15
q-46 0 -76.5 18.5t-48 48t-24 68t-6.5 78.5zM82 220q0 -30 1.5 -60.5t11 -55.5t30 -40.5t58.5 -15.5q50 0 89 22.5t68 59t49 84t32 97t17.5 96.5t5.5 84q-26 0 -26 24q0 15 6 26.5t6 29.5q0 22 -7.5 43t-22 38t-34 26.5t-42.5 9.5q-47 0 -82.5 -25.5t-62.5 -66.5
t-45.5 -92.5t-30 -104t-16.5 -100t-5 -79.5z" />
    <glyph glyph-name="B" unicode="B" horiz-adv-x="571" 
d="M53 156q-6 1 -12.5 3.5t-11.5 6.5q2 76 -1.5 146.5t-3.5 146.5q0 40 5 76t13.5 71t20.5 69t24 71q3 9 3 23t2 27.5t7.5 23t21.5 9.5q9 0 15.5 -5.5t14.5 -5.5q9 0 19.5 4t22.5 9t24.5 9t25.5 4q57 0 87.5 -36t30.5 -91q0 -10 -3.5 -25t-2.5 -24q-8 -45 -25.5 -86.5
t-42.5 -79.5q56 -4 103 -26t82 -57.5t54.5 -84t19.5 -105.5q0 -49 -14.5 -91.5t-42 -73t-67.5 -48t-91 -17.5q-48 0 -87 10.5t-72.5 30.5t-62.5 49t-56 67zM99 182l2 -4t2 -3q1 -3 5.5 -9l9 -12t8.5 -11t4 -6q37 -42 82.5 -65t101.5 -23q86 0 127.5 49.5t41.5 132.5
q0 49 -14.5 89t-42.5 69t-67 44.5t-85 15.5q-12 0 -20.5 -5t-16 -10.5t-15.5 -10.5t-18 -5q-12 0 -18 9t-6 21q0 15 7 24.5t17.5 17.5l21 16t17.5 20q4 7 9.5 17l11 20t9.5 18l4 8q2 7 6.5 23t9.5 33.5t9 34t5 22.5v7q0 33 -16 57t-51 24q-10 0 -24 -4.5t-28 -11.5t-25 -17
t-12 -21l-39 -282v-10q0 -6 -2 -21.5t-4 -37t-4.5 -44.5t-4.5 -44.5t-3.5 -37t-1.5 -21.5v-2q0 -7 7.5 -13.5t7.5 -16.5v-6q-1 -2 -5 -7.5t-5 -7.5zM63 444q-4 0 -4 -5t4 -5t4 5t-4 5z" />
    <glyph glyph-name="C" unicode="C" horiz-adv-x="616" 
d="M28 392q-10 54 3.5 113.5t43.5 118.5t74 113.5t94.5 98.5t106 74t108.5 41q16 0 28.5 -10t21.5 -25t13.5 -32t4.5 -31v-97q0 -10 -8 -12.5t-14 -2.5q-7 0 -17 2t-10 13q0 4 -1 13t-2 20t-1.5 21t-0.5 13q0 2 -0.5 13.5t-2.5 23.5t-6 22t-10 10h-35l-9 -4.5l-21 -10.5
t-24 -12.5t-18 -11.5q-3 -2 -9.5 -7t-13.5 -10t-13 -10t-9 -7q-54 -52 -94 -96.5t-67 -92.5t-40.5 -103.5t-13.5 -131.5q0 -30 3.5 -66.5t11 -74.5t21.5 -74.5t35 -64.5t51 -45t71 -17h22q45 15 79.5 27.5t62 25.5t50 28.5t44 37.5t44.5 53t52 73q1 0 3 0.5t4 0.5
q18 0 18 -18q0 -23 -11.5 -51.5t-42 -62.5t-85 -71.5t-139.5 -75.5q-16 -7 -28 -11.5t-23 -6.5t-22.5 -2.5t-25.5 -0.5q-52 0 -90.5 18t-66.5 48.5t-46.5 70t-29.5 84t-15.5 89t-4.5 83.5z" />
    <glyph glyph-name="D" unicode="D" horiz-adv-x="532" 
d="M199 36q0 5 0.5 9t4.5 8q2 0 6.5 0.5t6.5 0.5q18 0 34.5 -3t34.5 -3q33 0 63 9t53.5 26.5t37.5 44t14 62.5q0 21 -6.5 42t-17.5 41t-25 37.5t-30 30.5l-224 185q-2 3 -9.5 10.5t-11.5 9.5l-1 -2h-2h-1v-393l-5 -73q0 -9 -9 -13.5t-15 -6.5q-12 -1 -17.5 4t-8.5 14t-3 19
v17v507q-20 31 -32.5 63t-12.5 69q0 9 1 24t4.5 29.5t12 25t23.5 10.5q10 0 14.5 -8t4.5 -17q0 -15 -3 -28t-3 -28q0 -9 -0.5 -23t5.5 -24q1 12 1.5 32t4.5 39t13.5 33t29.5 14q8 0 14 -3.5t6 -12.5v-102q-12 -13 -13.5 -29.5t-1.5 -32.5v-13q0 -3 1 -8q1 -3 4.5 -8t8 -11.5
t8.5 -12t7 -8.5l225 -184q51 -43 84 -96.5t33 -120.5q0 -44 -18 -78.5t-48 -59t-68.5 -37.5t-79.5 -13q-8 0 -24 1t-31.5 4t-27 10t-11.5 21z" />
    <glyph glyph-name="E" unicode="E" 
d="M48 39q-2 3 -5.5 11.5t-7.5 19t-7 19.5t-4 14l-0.5 9.5t-0.5 15.5q0 21 2 43t9 44q3 5 11 20.5t17.5 32.5t17.5 32.5t12 20.5q25 44 63.5 78t78.5 64q4 3 17.5 14t30.5 23t31.5 23t17.5 13l3 3t3 2v3v2q-30 6 -58.5 13.5t-50.5 22t-35 37t-13 57.5q0 43 24 73.5t59.5 51
t76.5 30t76 9.5q18 0 37.5 -2.5t36 -10t27 -21t10.5 -36.5q0 -14 -8.5 -21.5t-21.5 -7.5q-12 0 -16 6.5t-9.5 15t-17 15.5t-37.5 7q-22 0 -43.5 -3.5t-42.5 -1.5q-17 -5 -34.5 -15.5t-31.5 -24.5t-23 -31.5t-9 -37.5q0 -28 14 -42.5t35.5 -21t46 -7.5t46 -3.5t35.5 -10
t14 -26.5v-9l-30 -29q-5 -5 -17.5 -13.5t-27 -19t-31 -23t-31 -23.5t-27 -20t-17.5 -14q-28 -23 -57 -52.5t-53.5 -64t-40 -72t-15.5 -76.5q0 -46 18 -66t60 -20q41 0 82.5 12t81.5 31.5t76.5 44t67.5 49.5h4q8 0 14.5 -4.5t6.5 -12.5q0 -5 -5.5 -12.5t-12 -13.5
t-11.5 -10.5l-5 -4.5q-33 -25 -70.5 -48.5t-77 -42.5t-81 -30.5t-84.5 -11.5h-19h-19q-33 9 -55 35z" />
    <glyph glyph-name="F" unicode="F" horiz-adv-x="649" 
d="M165 22q0 15 3.5 24.5t8.5 17t11 15.5t12 19q15 32 30 65t26.5 67.5t19 70t7.5 72.5q0 9 -5 10.5t-13 1.5q-47 0 -93.5 -2t-93.5 -2h-15.5t-13 0.5l-13 1t-16.5 2.5q-9 3 -10.5 8t-1.5 12q0 4 1.5 10t10.5 4q30 -1 65 0t70 4t69 6t63 5q6 11 9 29t3.5 37.5t-0.5 38.5
t-1 32q0 14 1 31.5t0 35t-4 34.5t-12 30q-7 9 -13.5 15t-12.5 11t-10 11t-4 17q0 5 0.5 9.5t4.5 9.5q2 0 7.5 0.5t7.5 0.5q13 0 26.5 -3.5t26.5 -7t26.5 -6.5t29.5 -3q46 0 94.5 2.5t94.5 11.5q5 1 5.5 7t0 12.5t1.5 11t12 4.5q8 0 15.5 -5t14 -12t11 -13t7.5 -9
q0 -1 0.5 -3.5t0.5 -3.5q0 -13 -14 -22.5t-26 -10.5l-243 -20v-7q0 -24 2.5 -48t2.5 -49q0 -40 -2.5 -78.5t-2.5 -78.5q0 -4 0.5 -8.5t8.5 -2.5h162h19t26.5 -2.5t23.5 -8t10 -17.5q0 -15 -13.5 -23t-26.5 -8q-40 0 -81.5 5.5t-83.5 5.5q-6 0 -14.5 -0.5t-16.5 -0.5h-19
l-10 -78l-58 -190l-58 -107q-4 -6 -14.5 -6h-13.5h-17q-4 5 -4.5 8.5t-0.5 9.5z" />
    <glyph glyph-name="G" unicode="G" horiz-adv-x="926" 
d="M258 190q-1 0 -1.5 0.5l-0.5 0.5l-2 -1l-8 -4t-8 -5q-7 -6 -25 -21.5t-38 -32.5t-38 -32.5t-25 -21.5q-2 -2 -8 -10l-13.5 -18t-15.5 -17.5t-14 -7.5q-11 0 -24 6.5t-13 19.5q0 8 12.5 23t31 33t42 37t45.5 37t40.5 33.5t28.5 24.5q-29 41 -55.5 74t-56.5 73v11
q0 17 7 22.5t23 5.5q11 0 18 -2t20 -9q48 -8 87.5 -13.5t82.5 -5.5h25q3 2 8.5 8t11.5 13t11.5 13.5t7.5 9.5q5 6 5 15q0 7 -3 15t-7 16.5t-7 17t-3 17.5v7l59 244q5 22 21 46.5t37 44.5t46.5 32.5t49.5 12.5q12 0 19 -6t11 -14.5t5.5 -18.5t1.5 -19q0 -24 -3 -47t-13 -46
l-78 -190q-2 -8 -7.5 -17t-12 -18.5t-13 -18.5t-11.5 -15h8q17 0 31 7t30 13q100 41 167.5 106.5t110.5 166.5q4 4 9.5 5t10.5 1q10 0 17 -6.5t7 -16.5v-4t-1 -4q-4 -8 -11.5 -26t-17 -40.5t-19.5 -47t-19 -47t-15.5 -40.5t-9.5 -27q-4 -13 -9.5 -33t-11.5 -43.5t-12 -48.5
t-10.5 -45.5t-7 -35.5t-2.5 -19v-9q0 -3 -3 -18t-7 -33.5t-8.5 -37t-6.5 -28.5q-7 -26 -18.5 -58t-29.5 -59.5t-43 -46t-59 -18.5q-47 0 -93 16.5t-88 43.5t-78 61.5t-64 69.5zM292 229l2.5 -3.5t6.5 -8.5l8 -10t7 -7q24 -26 54 -52.5t63.5 -49t70 -36t74.5 -13.5
q26 0 41 17t24 40.5t16.5 48.5t18.5 40l38 180v6q4 25 8.5 46t11 42t13.5 44.5t16 52.5q-11 -9 -26 -20t-30 -21t-30 -18.5t-26 -14.5q-10 -5 -29.5 -12.5t-39 -15.5t-34.5 -13.5t-19 -6.5l-59 -10l-4 -4t-5 -6q-2 -2 -6 -8t-9 -11.5t-9 -11.5t-6 -8q3 0 12.5 1t20 -0.5
t18.5 -6t8 -13.5q0 -10 -9 -14.5t-16 -5.5q-4 0 -14 -0.5t-22 -1.5t-22 -2t-15 -1zM260 265l71 72v4q-11 1 -25 3t-30 3t-31.5 2.5t-27.5 1.5h-3q-2 -1 -7.5 -2.5t-7.5 -2.5zM600 840q-17 0 -32 -8.5t-27.5 -21t-21.5 -28t-12 -31.5l-44 -171q-2 -6 -3 -17t-2 -23.5t-1 -24
v-17.5h6q22 40 46.5 80t44.5 82t33 86t13 94z" />
    <glyph glyph-name="H" unicode="H" horiz-adv-x="752" 
d="M147 278q0 1 1.5 6t4 11t4.5 12t3 10v2v2q-13 1 -35 4t-42 10.5t-35 19.5t-15 33q0 20 14 32.5t34 20t41 10.5t35 3q19 0 32 -0.5t33 -4.5v14l149 289l-137 -30h-30q-11 0 -29 1t-35 5.5t-29.5 13.5t-12.5 27q0 23 6.5 41.5t32.5 18.5q11 0 15.5 -8t6 -18t4.5 -19.5
t12 -13.5h8.5t12 -0.5t12.5 -0.5h9q21 0 38.5 2t34 5.5t33 9.5t37.5 14q13 5 26 16.5t25.5 23t25.5 20t27 8.5q19 0 19 -21q0 -8 -1 -14t-5 -14l-200 -370v-15q55 -19 98 -53h6l164 24l10 4q3 9 10.5 28t16.5 40.5t17 41t10 27.5q2 2 5 10t5 10l87 224q4 7 13.5 13t16.5 6
q13 0 16.5 -11.5t3.5 -20.5v-7l-103 -263q-4 -8 -9.5 -20.5t-10.5 -24.5t-8.5 -23t-5.5 -15q3 0 9 1.5t13 2.5t13.5 3t7.5 3q7 2 23 8t34 13.5t34 13.5t22 9q5 8 14.5 14t19.5 6q6 0 10.5 -4t4.5 -11q0 -11 -8 -20t-19 -17.5t-23 -13.5t-18 -8l-155 -54l-94 -258l-5.5 -27.5
t-10 -34.5t-16.5 -29t-24 -12q-15 0 -23 20t-11.5 50.5t-6 67.5t-8 73t-16.5 64t-31 42q-1 0 -9 1t-9 1q-4 0 -11.5 -1t-8.5 -1q-10 -1 -26 -2.5t-30.5 -3t-25.5 -2.5l-11 -1l-4 -5l-103 -219q-4 -27 -18 -46t-26 -43q-3 0 -12.5 -2t-11.5 -2q-1 0 -6.5 2t-8.5 2l-6 3t-4 3
v24zM415 334q0 -10 7 -31.5t16.5 -47.5t18 -50.5t11.5 -38.5q1 4 4.5 15.5t7.5 24t7 23t5 15.5q1 1 3 5t3 5q3 10 9 25t11.5 30t9.5 26l4 11v10h-5t-5 -1q-6 0 -21.5 -3t-32.5 -6t-32.5 -6t-20.5 -3v-3zM103 390q14 -11 34.5 -15t38.5 -4q8 0 13 9.5t5 16.5v3q-2 0 -14 2.5
t-14 2.5q-1 0 -10 -0.5t-20.5 -2.5t-21.5 -5t-11 -7zM260 386q-13 0 -13 -15h40l5 4q-7 5 -15 8t-17 3z" />
    <glyph glyph-name="I" unicode="I" horiz-adv-x="722" 
d="M454 127q-27 -18 -57 -35.5t-62.5 -31t-65.5 -22t-67 -8.5q-40 0 -65 21t-40 52t-24 66.5t-19 64.5q-4 12 -11 19t-14.5 14t-13 16t-5.5 22q0 10 11.5 18.5t19.5 8.5q9 0 17.5 -8t20.5 -17.5t27 -17t35 -7.5q13 0 30 0.5t29 4.5q9 4 10 6.5t0.5 4.5t1.5 3t13 1
q8 0 18.5 -1.5t19.5 -6t14.5 -12t5.5 -17.5q0 -18 -12 -22t-27 -5h-26t-40 -1t-39.5 -2t-26.5 -1q4 -19 10 -45.5t16 -50t27.5 -40t43.5 -16.5q31 0 61 7.5t58 20t54.5 28.5t51.5 32q4 4 4.5 6t0.5 7q0 37 -7.5 75t-7.5 78q0 26 4 67t13 86.5t24 92.5t37.5 85t52.5 61t70 23
q18 0 29.5 -10t19 -27t11.5 -37t6 -40t2 -36.5v-25.5q0 -42 -6.5 -86t-19 -86t-32 -81.5t-45.5 -73.5q-20 -26 -42.5 -44.5t-45.5 -42.5q11 -43 30 -74.5t53 -56.5q4 -4 4.5 -6t0.5 -8q0 -10 -5.5 -13.5t-14.5 -3.5q-17 0 -27.5 5.5t-19 13.5t-16.5 17.5t-18 17.5zM477 342
v-29t1 -25t2 -25t3 -29q1 -5 3 -12t3 -7h4q1 0 7 5.5t13.5 13t15.5 16t13 14.5q56 64 79.5 142.5t23.5 164.5v12t-0.5 19.5t-0.5 19.5v12q-1 3 -2.5 11.5t-4.5 17.5t-5 17.5t-3 11.5l-2.5 5t-1.5 5q-30 -3 -52 -24.5t-39 -54.5t-27.5 -73t-17.5 -79t-9.5 -73t-2.5 -56z" />
    <glyph glyph-name="J" unicode="J" horiz-adv-x="474" 
d="M136 -363q0 58 19.5 108t49 96t63 91t60.5 91h-4q-23 0 -45 -3t-45 -3q-47 0 -84 34t-62.5 85.5t-39.5 110.5t-14 108q4 30 9.5 63.5t14.5 65.5t22.5 61.5t33.5 52.5t48 36.5t67 14.5q19 0 35 -10t27.5 -25.5t19 -34.5t10.5 -38l34 -362q10 6 24.5 5.5t22.5 -0.5h32
q7 -7 11 -8t11 -1h7q8 5 18.5 12t20 11.5t15.5 4t4.5 -9.5t-12.5 -28.5t-37 -53.5q-6 -14 -19 -25t-26 -23t-23 -24.5t-10 -27.5q0 -2 0.5 -6.5t0.5 -5.5l39 -195l0.5 -11t1 -26t1.5 -30.5t1 -25.5v-5q0 -35 -10 -76.5t-30 -77.5t-51 -60.5t-73 -24.5q-34 0 -59.5 16
t-43 40.5t-26.5 54.5t-9 59zM185 -369q0 -17 6 -37t17.5 -37.5t27 -29t35.5 -11.5q35 0 56 22.5t33.5 54t16.5 66t4 57.5q0 34 -2.5 63.5t-6.5 58.5t-10.5 58t-15.5 63l-4 -4q-3 -3 -13 -17t-23 -32t-25 -36t-17 -28q-15 -24 -29 -49t-25 -51.5t-18 -54t-7 -56.5zM87 367
q0 -45 7.5 -97.5t24.5 -97.5t46 -75t74 -30q5 0 17.5 -1t26 0t24.5 4.5t11 12.5q0 1 -0.5 1.5t-0.5 2.5v4l-49 440q-2 11 -7 22t-12 20.5t-16.5 16t-20.5 6.5q-37 0 -61 -26t-38.5 -62t-20 -75.5t-5.5 -65.5zM360 150q0 -1 0.5 -2t0.5 -3q0 -3 1.5 -9.5t3 -14.5t3.5 -14.5
t2 -9.5q1 0 2.5 -1t2.5 -1q4 0 10.5 4t13.5 9.5t11.5 12t4.5 11.5q0 4 -0.5 8t-5.5 5q-2 1 -8.5 2t-13 1t-13 1t-9.5 1h-6z" />
    <glyph glyph-name="K" unicode="K" horiz-adv-x="653" 
d="M234 44q-2 -7 -12 -13.5t-18 -6.5q-10 0 -17 7t-7 17q0 1 0.5 5t0.5 5l61 244h-8q-37 -15 -70 -27t-71 -12q-16 0 -29.5 6.5t-23 18t-15 26t-5.5 30.5q0 31 11 60.5t31.5 52.5t48 37t60.5 14q26 0 51 -6.5t46 -23.5l9 20l44 282q2 8 11 16.5t16 8.5q18 0 25.5 -14.5
t7.5 -30.5v-4l-55 -318v-22q2 0 3.5 -1t2.5 0q1 0 4.5 2.5t8 5.5l9 6t6.5 5q1 0 3 1.5t3 2.5q63 46 125.5 95t117.5 106q7 7 21 28.5t30.5 44.5t31.5 41t25 18t17.5 -7t7.5 -18q0 -2 -0.5 -3t-0.5 -2q0 -2 -2 -7.5t-3 -7.5q-3 -6 -9.5 -16.5t-13 -20.5t-11.5 -17.5t-5 -8.5
l-126 -127l-230 -170q-4 -4 -4.5 -5.5t-0.5 -6.5v-5q0 -2 1 -3l189 -285q2 -9 7 -15t10 -11.5t8.5 -12t3.5 -15.5q0 -11 -3.5 -12.5t-14.5 -1.5t-21 6t-19 15.5t-15.5 21t-9.5 20.5l-174 217zM68 358q0 -18 8 -32.5t28 -14.5t40 5t39 13t37 18t34 19q0 2 0.5 8.5t0.5 7.5
q0 17 -8.5 30.5t-21 23t-28 14t-30.5 4.5q-20 0 -38 -7t-31.5 -20t-21.5 -30.5t-8 -38.5z" />
    <glyph glyph-name="L" unicode="L" horiz-adv-x="691" 
d="M405 49q-3 6 -9 22t-13 34t-13.5 34t-9.5 22q-2 4 -3.5 8t-5.5 6q-22 -21 -48.5 -44t-56 -41.5t-61.5 -30t-64 -11.5q-35 0 -55 24.5t-31 59t-14 70.5t-3 59q0 46 15 83.5t42.5 64t65.5 40.5t85 14q33 0 58 -15.5t42.5 -40t29 -53.5t19.5 -56q9 5 21.5 23.5t26 41t26 45
t19.5 36.5q3 5 13.5 25.5t23 44.5t23 45t13.5 26q1 2 5 7.5t5 7.5q-1 0 -1 1v2v3q-46 0 -88.5 7t-74.5 26t-51.5 52t-19.5 87q0 3 0.5 15t0.5 16q3 10 11 16.5t18 8.5q9 2 13.5 -10t8 -32t9 -43t19 -43.5t36 -35.5t60.5 -17q2 0 13.5 -0.5t19.5 -0.5h14.5t19 0.5t18 3
t12.5 7.5q6 7 20.5 24.5t29.5 36.5t29 36.5t20 24.5q17 17 38 34t44 30t48 21t51 8q18 0 30.5 -7t19.5 -18.5t9.5 -26t2.5 -29.5q0 -29 -14.5 -51t-37.5 -39t-49.5 -29t-50.5 -20q-8 -3 -29 -9t-45.5 -13.5t-46 -13.5t-30.5 -7q-7 -7 -15.5 -17t-12.5 -18l-123 -225
q-1 0 -2.5 -1.5l-2.5 -2.5q0 -2 -3 -7.5t-6 -12t-6 -12.5t-3 -7q-3 -4 -10.5 -15.5t-16.5 -24t-16.5 -23.5t-10.5 -15v-3v-2q7 -26 12.5 -44.5t11 -35.5t13.5 -36t21 -45q4 -7 11 -13t14.5 -12t13 -12.5t5.5 -13.5q0 -18 -18 -18q-26 0 -46 15t-33 35zM68 271q0 -12 2 -39.5
t8.5 -56t20 -50.5t36.5 -22q27 0 48.5 12t45.5 22l103 97v4q0 18 -8.5 47t-23.5 57t-35 47.5t-43 19.5q-33 0 -61.5 -8t-48.5 -25t-32 -43t-12 -62zM860 824q-24 0 -48 -10t-46 -26t-41 -35t-33 -36q-4 -4 -9.5 -12t-11 -14.5t-9.5 -12l-4 -5.5v-5h4q1 0 14 4t30.5 9.5
t35.5 11t28 9.5q15 5 34.5 13.5t37 20.5t29.5 27t12 34q0 16 -4.5 21.5t-18.5 5.5z" />
    <glyph glyph-name="M" unicode="M" horiz-adv-x="1380" 
d="M594 68q3 11 9.5 39.5t13.5 60.5t13 60t9 40q3 15 3.5 37l1 44t0 41t-0.5 31v86q0 3 -2 16t-4.5 29t-5 31t-3.5 22q-2 11 -5.5 25t-9.5 27t-16 22t-25 9q-18 0 -46 -13.5t-55 -34t-48 -43.5t-24 -42l-28 -160v-5q-2 -10 -5 -27t-7 -33t-6 -28.5t-3 -14.5q-2 -6 -5.5 -20
t-8.5 -30t-9 -29.5t-6 -17.5q-2 -5 -9 -21t-15 -35t-15.5 -35.5t-8.5 -20.5q-6 -14 -10.5 -26.5t-11 -22t-16.5 -15t-27 -5.5q-3 0 -8 0.5t-6 0.5l-4 10q0 1 -0.5 5t-0.5 9.5v10v7.5q0 133 45 260v5q0 2 4.5 16t10.5 31.5t12.5 35.5t11.5 29q3 8 12.5 27.5t20.5 41t21 41
t14 27.5q5 14 5 31v32v8.5v11.5v11.5v7.5q-3 24 -27 24h-3q-4 -1 -11 -2.5t-8 -1.5l-185 -88q-16 -8 -23 -9.5t-21 -1.5q-19 0 -31.5 9t-12.5 31q0 10 9.5 17.5t18.5 7.5q11 0 17.5 -5.5t15.5 -5.5q35 0 66 16.5t61.5 35.5t62.5 35t69 16q13 0 22.5 -7t17 -18t12 -22.5
t9.5 -20.5q-2 -8 -0.5 -15.5t4.5 -13.5q18 16 37.5 32.5t41.5 29.5t46 22t48 9q31 0 51.5 -16.5t33 -42.5t19 -58.5t10 -65.5t5.5 -63.5t5 -51.5q13 29 32.5 63t43.5 67t53 63t61 53t66.5 37t70.5 14q43 0 66.5 -19t33.5 -48.5t11.5 -65t1.5 -68.5v-62l-35 -371v-7.5v-9.5
v-18t5 -19q3 0 13.5 -0.5t13.5 -0.5q42 0 79 13t75 33q7 4 11 7.5t8 6t9 4.5t13 2q9 0 13 -2t4 -12q0 -13 -13.5 -25.5t-35 -23.5t-47.5 -20.5t-50.5 -16t-44.5 -10.5t-29 -4q-46 0 -64.5 18.5t-18.5 66.5v28l34 390v6.5t0.5 13t0.5 15v11.5q0 17 1 40t-3 44t-16 36t-36 15
q-10 0 -24 -4.5t-28 -10t-27 -11.5t-19 -9q-49 -24 -87 -65.5t-67 -92t-48.5 -104.5t-31.5 -104q-1 -11 -4.5 -37.5t-8 -57t-9 -57t-6.5 -37.5q-3 -16 -5.5 -33.5t-7.5 -32t-15 -23.5t-29 -9q-7 0 -14.5 3t-7.5 11v54zM258 200q-2 1 -2 -2.5t2 -2.5t2 2.5t-2 2.5zM311 395
q-7 -11 -15.5 -34t-15.5 -50t-12 -53t-5 -43v-5q20 40 34 88.5t14 93.5v3z" />
    <glyph glyph-name="N" unicode="N" horiz-adv-x="1141" 
d="M726 53v10t-0.5 14.5t-0.5 15v10.5q0 69 10.5 138t15.5 140q4 72 6.5 144.5t2.5 145.5q0 15 0.5 38t-3.5 44.5t-15.5 36.5t-35.5 15q-43 0 -76.5 -16.5t-60.5 -43.5t-48.5 -62t-39.5 -71t-34 -71t-33 -63l-29 -157v-4q-2 -8 -5 -22.5t-6 -28.5t-6 -25t-3 -12
q-1 -4 -8.5 -25.5t-17 -47.5t-18.5 -52.5t-14 -39.5q-7 -18 -16 -21.5t-26 -3.5q-8 0 -15 1.5t-7 11.5q0 56 13.5 107.5t31.5 101t36 99.5t26 103l44 259v100l-195 -100q-26 -14 -60.5 -22t-62.5 -8q-26 0 -39 8.5t-13 35.5q0 13 8 19t19 6q8 0 12.5 -3t8.5 -7t8.5 -7
t12.5 -3q33 0 67 11t66.5 27.5t63.5 35t60 34.5q14 7 27.5 15.5t29.5 8.5q15 0 25 -10t16 -24.5t8 -30t2 -26.5v-2q-1 -4 -3 -19t-4.5 -32t-4.5 -32.5t-2 -18.5q0 -1 -0.5 -7t-0.5 -8t0.5 -7t0.5 -7q20 38 48 75.5t62.5 67.5t76 48.5t88.5 18.5q35 0 56 -21.5t31.5 -51.5
t13.5 -63.5t3 -58.5q0 -70 -6 -140t-13.5 -139.5t-13.5 -139.5t-6 -139q0 -8 -0.5 -23t6.5 -25h2h3q2 1 8.5 2.5l13 3t13 2.5t9.5 2q6 4 23.5 14.5t37 22t36.5 22t24 14.5q8 6 21 20t27.5 32t29.5 37.5t27.5 36t22.5 26.5t14 10q9 0 12 -6.5t3 -13.5q0 -29 -19.5 -61
t-51 -63t-70.5 -60t-78 -51t-74.5 -35t-58.5 -13q-9 0 -16 6t-11.5 14t-7.5 17t-4 16z" />
    <glyph glyph-name="O" unicode="O" horiz-adv-x="658" 
d="M23 174v7.5t0.5 12.5t0.5 12.5v8.5q12 92 27 169t41 145.5t68 131.5t108 129q13 12 32.5 11t36.5 -1q32 0 65.5 -11t60.5 -29h9q18 0 36 7.5t35.5 15.5t35 15t35.5 7q10 0 17.5 -4.5t7.5 -16.5q0 -7 -16.5 -15.5t-38.5 -17t-42 -15t-26 -10.5q19 -23 31.5 -45t20 -46
t10 -49.5t2.5 -55.5q0 -76 -19 -145.5t-55.5 -130.5t-89 -112t-119.5 -89q-38 -20 -80 -37t-86 -17q-34 0 -55 17t-33 43t-16 56.5t-4 58.5zM82 185q0 -18 0.5 -41t6 -43t18.5 -34t39 -14q32 0 64 12t61.5 30t56.5 40t52 40q37 33 65.5 76t51.5 86q18 41 24 84.5t6 87.5
q0 26 -0.5 55.5t-7.5 56.5t-22.5 49.5t-42.5 35.5q-6 0 -18.5 -2t-26.5 -4.5t-26 -4.5l-18 -3q-1 0 -8.5 -2t-16 -4.5t-15.5 -4.5t-9 -3h-2q-10 0 -15 4.5t-9 9.5t-9.5 9.5t-15.5 4.5h-2q-32 -24 -56 -61t-42.5 -78t-31 -83.5t-21.5 -78.5q-3 -10 -7.5 -36.5t-9 -56
t-8.5 -56t-5 -36.5v-35zM380 746q-4 0 -4 -5t4 -5t4 5t-4 5z" />
    <glyph glyph-name="P" unicode="P" 
d="M160 605l6 10l24 111q3 12 10.5 14t15.5 2q20 0 24 -9t4 -28q0 -4 -0.5 -10.5l-0.5 -6.5l-83 -317v-9q0 -6 2.5 -10t12.5 -1q27 1 58.5 2.5t65.5 6t66 14t57 26t40.5 42t15.5 62.5q0 47 -25.5 94t-64.5 86t-87 63t-94 24q-23 0 -40.5 -9.5t-31.5 -20t-27 -20t-25 -9.5
q-20 0 -20 20q0 1 0.5 2t0.5 2q8 21 23 37t33.5 28t40 17.5t42.5 5.5h30.5t30.5 -5q49 -22 97.5 -51.5t87.5 -68t63 -88t24 -108.5q0 -47 -19 -79.5t-51 -54.5t-72.5 -34t-83.5 -17.5t-84.5 -6t-74.5 0.5l-4 -5l-74 -283q-3 -11 -13 -17.5t-21 -6.5q-7 0 -11 5t-6 11
t-2.5 13t0.5 10z" />
    <glyph glyph-name="Q" unicode="Q" horiz-adv-x="634" 
d="M39 147q-1 13 -3.5 48.5t-4.5 75t-4 75t-3 49.5v8t-0.5 16.5t-0.5 19v15.5q0 54 13.5 114t43.5 109.5t77 81.5t114 32q15 0 30 -2t30 -9q12 4 21 6t17 3t17 1.5t20 0.5q57 0 94.5 -26.5t61 -68t33.5 -92.5t10 -99q0 -87 -28 -163.5t-85 -141.5q0 -1 -0.5 -1.5t-0.5 -1.5
l1 -2q2 -2 7.5 -10t7.5 -10q2 -3 10.5 -11.5t17.5 -18t18 -17.5t12 -11v-3q0 -9 -7 -13t-15 -4t-16.5 4.5t-16.5 10.5t-15 12.5t-13 12.5q-3 2 -8 6l-10 8l-10 10l-10 -5q-32 -26 -65.5 -53.5t-70 -50.5t-76 -38t-84.5 -15q-31 0 -50 14t-30.5 35.5t-17.5 47.5t-11 51z
M77 463q0 -18 -0.5 -55t0 -83.5t5 -95t14 -89t26.5 -66t43 -25.5q29 0 59 11.5t53 26.5q7 6 25 20t38.5 29.5t39 29.5t25.5 19l5 5t4 5l1 2l-1 2v1q0 2 -2 5t-3 5l-72 97q-6 7 -8.5 16.5t-2.5 18.5q0 7 3 13t11 6q11 0 22 -9t21.5 -22.5t20.5 -30t19 -30t17 -22.5t15 -9h3
q22 18 37 42t27 50.5t20 54.5t13 53q-2 21 2 41t4 41q0 33 -8 71t-25 72t-44.5 56.5t-66.5 22.5q-2 0 -9.5 -0.5t-8.5 -0.5q1 -3 3.5 -8.5t5 -12t4.5 -13t2 -10.5q0 -7 -4 -17t-10.5 -19t-14 -15.5t-14.5 -6.5q-10 0 -13 3t-3 10q0 13 8 22.5t8 20.5q0 8 -7 14t-15.5 10
t-18 6t-14.5 2q-18 0 -30 -9t-28 -16l-54 -53q-5 -6 -15 -6q-14 0 -14 15q0 9 5 19t13 19.5t16.5 17.5t14.5 12v6q-45 -7 -74 -36t-45 -68.5t-22 -84t-6 -80.5z" />
    <glyph glyph-name="R" unicode="R" horiz-adv-x="624" 
d="M107 24q8 20 15.5 44.5t14 50t10.5 50t4 46.5v9q-16 2 -31.5 6t-26.5 11.5t-18.5 20t-7.5 30.5q0 20 6 32.5t30 12.5q17 0 32.5 -7.5t29.5 -17.5l5 9l54 205q-2 26 2.5 52.5t20.5 45.5q-1 0 -6 0.5t-7 0.5q-16 0 -32 -4.5t-30.5 -11t-29.5 -12t-30 -8.5q-2 0 -7.5 2
t-7.5 5q-3 -1 -10 -3t-15 -3t-15 -2.5t-9 -2.5h-5q-20 0 -20 20q0 10 13 16t31 11.5t36 10t27 10.5q23 8 40 12t33 6t31.5 2.5t36.5 0.5q40 0 80.5 -9.5t73 -30.5t53 -55t20.5 -81q0 -44 -20.5 -79.5t-51 -63.5t-66 -49.5t-66 -36t-51 -23t-20.5 -9.5v-2q0 -1 1 -1
q21 -39 43.5 -69.5t50 -52t62.5 -33t81 -11.5q15 0 30 4t29.5 8.5t28.5 8.5t29 4q6 0 13.5 -3.5t7.5 -11.5q0 -16 -22.5 -27t-50.5 -18t-55 -10t-35 -3q-72 0 -133.5 33t-98.5 98h-5q-2 -12 -5.5 -36.5t-11 -49t-19 -43t-27.5 -18.5q-12 0 -20.5 3t-8.5 17zM229 292h5
q2 1 7.5 3t5.5 3q33 15 68 33.5t64 43.5t47.5 56.5t18.5 73.5q0 27 -14.5 49t-37 37.5t-48.5 24t-50 8.5h-13q10 -8 10.5 -17t0.5 -20q0 -3 -0.5 -9.5l-0.5 -6.5l-63 -254v-25z" />
    <glyph glyph-name="S" unicode="S" horiz-adv-x="751" 
d="M248 166l-195 -127h-6q-10 0 -19.5 5t-9.5 17q0 8 4.5 14.5t11.5 11.5q8 6 29 18t44 26.5t44.5 26.5t29.5 17q4 4 12 9.5t14.5 11t11.5 9.5t5 5l-77 156q-5 7 -5.5 11.5t-0.5 12.5q0 30 29 30q4 0 18.5 -5.5t35.5 -15t44 -20.5t42 -20t32 -15.5l13 -6.5l89 92
q3 12 17.5 29t30.5 36t28 38.5t12 35.5v3l-69 161q-10 23 -12.5 49.5t-2.5 52.5q0 22 7 44.5t20.5 40.5t32.5 29.5t45 11.5q27 0 44.5 -15.5t28 -38.5t14.5 -48.5t4 -46.5q0 -60 -13.5 -114.5t-36.5 -111.5v-14q23 -43 47 -89t43 -95.5t31 -99t12 -99.5q0 -39 -12.5 -72.5
t-35.5 -58.5t-55.5 -39t-72.5 -14q-45 0 -85.5 13.5t-78 36t-71 51.5t-62.5 61h-6zM298 200q0 -1 5.5 -7t13 -13.5l15.5 -15.5t14 -13q3 -3 10.5 -8.5t15 -12t14 -12t8.5 -6.5q6 -3 18 -10l24 -14t23 -13t13 -7q23 -10 42.5 -12.5t39.5 -2.5q30 0 51.5 11.5t35.5 31t20.5 45
t6.5 51.5q0 28 -4.5 58t-14.5 57l-87 209l-79 -111l-185 -201v-4zM220 332q0 -2 1.5 -7.5t2.5 -7.5q4 -7 10.5 -19t13 -22.5t11 -19t5.5 -8.5h4q3 0 12 8.5t19 18t18 18t9 9.5l-5 5l-87 25h-14zM501 835q0 -56 17 -101.5t43 -94.5q5 3 9 12.5t7 21t5 21.5t3 12q0 2 1.5 10
t2.5 18.5t2.5 20.5t2.5 15v3q0 4 -0.5 25t-3.5 45.5t-11 44t-24 19.5t-27 -6t-16.5 -16t-8 -23t-2.5 -27z" />
    <glyph glyph-name="T" unicode="T" horiz-adv-x="526" 
d="M238 112l49 585l6 9l-254 20q-9 1 -17.5 6.5t-8.5 15.5q0 7 2.5 10.5t9.5 7.5h43q134 0 268.5 -5.5t268.5 -9.5q6 -5 10.5 -11.5t4.5 -13.5t-8.5 -15.5t-15.5 -8.5h-257q0 -53 -7 -101.5t-11 -102.5q-1 -8 -2 -33.5t-3 -59t-4 -71.5t-4 -71.5t-4 -59t-2 -33.5
q-1 -8 0.5 -24t2.5 -34t-0.5 -37.5t-6 -36t-14.5 -26t-26 -9.5q-2 0 -7.5 0.5t-6.5 0.5l-6 10v98z" />
    <glyph glyph-name="U" unicode="U" horiz-adv-x="1081" 
d="M341 68q0 23 3 46.5t6.5 46.5t5.5 46.5t-1 46.5l27 191l-84 -113l-215 -211q-10 -15 -17.5 -27t-26.5 -12q-13 0 -16 6t-3 18q0 16 5.5 26.5t18.5 23.5l224 215l83 112l9.5 19t12.5 21.5t13 19t9 12.5q17 59 41 118.5t57 111.5q6 11 21 11q9 0 18.5 -5t9.5 -15
q0 -1 -0.5 -3t-0.5 -3t-2 -9t-3 -10q-13 -26 -27.5 -59.5t-27.5 -69.5t-23 -72t-13 -67l-45 -362v-63q9 4 30 15.5t44.5 25t43.5 25.5t28 17q7 6 26 20t40 30.5t39.5 31.5t27.5 21q2 3 13 13.5t24 25t25.5 28t19.5 21.5q11 12 23 27t22.5 32.5t19 34.5t13.5 32l92 342
q1 5 4.5 14t8 18t11 15t15.5 6q13 0 19.5 -11.5t6.5 -21.5q0 -3 -1 -8.5t-1 -6.5l-34 -176v-5l-68 -190l-29 -249q-1 -2 -1 -5v-9q0 -21 1 -40t7 -32.5t18.5 -22.5t35.5 -9q75 52 119.5 70.5t63 15t12 -22t-33.5 -41.5t-72.5 -45t-104.5 -31q-31 0 -51 13t-31.5 34t-16 47.5
t-4.5 53.5q0 37 4.5 73t4.5 73v14l-2 -1.5t-3 -2.5q-18 -22 -33.5 -41.5t-33 -38t-37.5 -36.5t-47 -35l-234 -152q-10 -7 -24 -11t-27 -4q-11 0 -19.5 7t-12.5 18v44zM819 337q-4 0 -4 -5.5t4 -5.5t4 5.5t-4 5.5z" />
    <glyph glyph-name="V" unicode="V" horiz-adv-x="452" 
d="M98 326l-78 371q0 1 -1 5.5t-1 6.5q0 12 7 19.5t18 7.5q6 0 15 -4t10 -10l35 -107l67 -381l5 -10q12 20 21.5 44t18 48.5t16 49t17.5 43.5q3 5 15 28t28 51.5t31 57t24 43.5q9 18 27 43t39 48t42.5 39.5t38.5 16.5q7 0 15.5 -5.5t8.5 -13.5q0 -2 -0.5 -10t-2.5 -17
t-5.5 -15.5t-10.5 -6.5q-2 0 -7.5 1.5t-7.5 3.5q-32 -27 -58.5 -59.5t-48.5 -67.5t-41.5 -72.5t-36.5 -73.5q-2 -3 -7 -16t-11 -28t-10.5 -28t-5.5 -16q-1 -2 -3 -5t-3 -5l-58 -190l-10 -98q0 -5 -5 -8t-12 -4.5t-13 -2t-10 -0.5q-5 0 -11.5 1.5t-7.5 9.5l-33 307v9z" />
    <glyph glyph-name="W" unicode="W" horiz-adv-x="846" 
d="M390 273q-49 -62 -109 -117t-121 -103q-3 -2 -11.5 -5.5t-11.5 -3.5q-10 0 -20 5t-10 17v2l63 293v10q5 25 10 45t8.5 37.5t5 35.5t1.5 38q0 12 -0.5 22.5t-4.5 21.5h-7.5h-7.5q-21 0 -39 -13t-34 -28.5t-30 -28.5t-29 -13q-11 0 -18 8t-7 19q0 16 20 36t48 37.5t57 29
t46 11.5q20 0 32.5 -8.5t19.5 -21.5t10 -29.5t3 -33.5v-19l-79 -380h6q1 0 9.5 6.5t19.5 16t23.5 19.5t20.5 16q20 19 35 34.5t28 31.5t25.5 35t28.5 45q1 3 6 12.5t11 21t12.5 23t8.5 17.5q7 11 12 20.5t20 9.5q13 0 20 -9t7 -21q0 -43 -7.5 -86t-7.5 -87v-14.5t0.5 -18.5
t0.5 -16v-8t1 -10t2.5 -18.5t3 -19.5t2.5 -16q0 -1 2 -9.5t5 -18t7.5 -18t10.5 -8.5h2q1 0 2 1q15 4 40 25t53 52t54.5 67t43.5 71q1 2 7.5 25t15.5 53t17.5 61.5t12.5 49.5q1 3 3 15t4 25.5t4.5 27t3.5 21.5v10v10t-6 8v30q0 11 0.5 24.5t4 25.5t11.5 20t24 8
q15 0 21.5 -11.5t7.5 -27t0 -31t-1 -22.5q37 0 75 0.5t75 4.5t73 14t71 29h29q0 -19 -19.5 -34t-50 -27.5t-68.5 -21.5t-75 -15t-68.5 -8.5t-49.5 -0.5l-5 -10l-55 -229q-16 -39 -33.5 -74.5t-43.5 -70.5t-63.5 -71.5t-93.5 -76.5q-14 -15 -38 -15q-15 0 -27 13t-21 31
t-14 37.5t-6 31.5z" />
    <glyph glyph-name="X" unicode="X" horiz-adv-x="766" 
d="M20 24q1 3 2 8.5t2 6.5l191 244q1 0 2.5 1.5l2.5 2.5q0 2 5.5 8.5t11 14.5t10.5 14t7 8q4 5 16.5 17.5l26.5 26.5l26.5 26.5t17.5 16.5l10 15v102q0 3 -4 9t-8 6h-2q-47 -12 -96.5 -32t-89.5 -36q-22 -6 -35.5 -8.5t-32.5 -2.5q-15 0 -22.5 4.5t-7.5 21.5q0 10 6 16.5
t15 9.5t19 3t19 -1q12 5 42 15.5t63 22t63 22t41 14.5q2 1 10 3t10 2h5q23 0 36.5 -12.5t20 -31t7 -40t-0.5 -38.5l234 205q3 1 10.5 5t8.5 4q13 0 19.5 -7t6.5 -17v-10t-5 -10l-278 -248v-5q0 -29 1.5 -66.5t6 -75.5t13.5 -74t24 -63t37.5 -44.5t55.5 -17.5q47 0 82 11.5
t60 27.5t41.5 36t28.5 36t20 27.5t17 11.5q2 0 6 -0.5t6 -0.5q1 -2 3 -7.5t2 -7.5l-1.5 -4.5t-2.5 -9t-3 -9t-3 -5.5q-22 -48 -45 -78.5t-53 -48t-69 -25t-94 -7.5q-34 0 -60 17t-46 44t-34.5 63t-24 74.5t-16.5 76.5t-11 70l-63 -64l-191 -234q-6 -4 -11.5 -13t-12 -18
t-13.5 -15.5t-16 -6.5q-19 0 -19 20v4z" />
    <glyph glyph-name="Y" unicode="Y" horiz-adv-x="1015" 
d="M375 -386q0 14 1 25.5t2.5 22t4 23.5t7.5 32q10 17 17 34.5t13.5 34.5t14 34t19.5 34q39 58 86.5 108.5t98.5 96.5l41 312l-139 -317q-5 -11 -14.5 -27.5t-22 -32.5t-27 -27t-29.5 -11q-12 0 -20 12t-12 28.5t-5.5 33t-1.5 24.5q0 2 0.5 7.5t0.5 6.5q1 17 4.5 46t6.5 57
t5 49t3 24l103 453v22q0 16 -1.5 32t-7 27.5t-16.5 19t-32 7.5q-17 0 -41.5 -9.5t-38.5 -19.5q-8 -6 -24 -17t-31 -23t-27 -21.5t-15 -12.5l-225 -219q-7 -7 -15 -9t-17 -2q-12 0 -16.5 5.5t-4.5 18.5q0 9 1 22.5t5.5 26t11.5 22t18 9.5q5 0 8.5 -3t6 -7t4.5 -7.5t5 -3.5h2
q1 0 1 1l215 205q18 17 41 35t48.5 31.5t53 22.5t54.5 9q22 0 41 -11.5t32.5 -29t19.5 -39t1 -43.5l-117 -579q-2 -16 -3 -27.5t-1 -22.5t1 -23t1 -29q4 0 3.5 -1.5t4.5 5.5q3 6 9 14.5t11.5 17t9.5 15l4 6.5l234 537q5 9 9.5 9.5t11.5 0.5q10 0 21.5 -4.5t11.5 -17.5v-8
l-83 -385q-7 -28 -9 -52t-2 -50v-25q16 12 40 26t53 27.5t61 26.5t61.5 22.5t55.5 15.5t44 6q6 0 15.5 -1.5t18 -5t14.5 -9.5t6 -15q0 -6 -3.5 -15t-11.5 -7q-2 0 -10 4.5t-10 4.5t-7.5 -1t-12 -2t-12 -3t-7.5 -3q-40 -4 -84 -15.5t-85.5 -29.5t-75.5 -42.5t-54 -56.5
l-5 -14l-1 -22t-2.5 -51.5t-3.5 -61t-2 -51.5v-24l-30 -210q-5 -30 -17.5 -62t-32.5 -58.5t-48 -44t-62 -17.5q-4 0 -15 0.5t-15 0.5q-27 8 -44.5 29t-28.5 48.5t-15.5 56t-4.5 51.5zM428 -383q0 -13 3 -36t10.5 -44.5t20 -37.5t33.5 -16q22 0 40 13.5t31.5 33.5t22.5 43
t11 42l34 308v57q-37 -33 -74.5 -74t-66.5 -87.5t-47 -97t-18 -104.5z" />
    <glyph glyph-name="Z" unicode="Z" horiz-adv-x="729" 
d="M39 -527q1 6 4 20t7 29t8 29t6 20q24 56 59.5 107t77 97.5t88 88.5t92.5 82q11 6 32 20.5t40.5 32t34 34.5t14.5 28q0 24 -4.5 46t-15 39.5t-28 28t-43.5 10.5q-35 0 -69.5 -8.5t-67 -23t-62.5 -34.5t-56 -42q-2 0 -6 -0.5t-6 -0.5q-9 0 -18 5t-9 16q0 2 2 7.5t2 7.5
l190 316q24 38 29.5 73t5.5 78q-30 0 -67.5 -13t-74 -33t-69 -45t-52.5 -50q-6 -6 -8 -16t-5 -19.5t-7.5 -16t-14.5 -6.5q-8 0 -13 5.5t-9 13t-6 15.5t-2 13q0 20 10.5 34t24.5 27q28 20 64 45.5t75 48t79.5 37.5t79.5 15q32 0 45.5 -13.5t13.5 -47.5q0 -18 -1 -33.5
t-9 -32.5l-113 -234q-2 -4 -7.5 -13t-11.5 -19t-11.5 -19.5t-8.5 -12.5q-1 -1 -2.5 -4.5t-2.5 -4.5q1 0 2.5 -0.5t2.5 -0.5q9 0 16 5q43 13 81.5 23.5t82.5 10.5q43 0 63.5 -13t31.5 -33t18.5 -45.5t24.5 -49.5l190 150l4 7q2 -10 11 -11t16 -2t6 -6t-21 -23.5t-63 -54.5
t-120 -99l-23 -24q5 -120 -14.5 -224t-66 -191t-122 -157t-182.5 -121q-3 0 -9 -1t-13 -1.5t-13.5 -1t-8.5 -0.5q-24 0 -42.5 10.5t-31 27.5t-18.5 38t-6 42v18zM98 -571q3 -10 8.5 -19t14.5 -16h23q21 0 42 6.5t41 17t38 24t33 26.5q58 57 98 110.5t65 111.5t36 124t11 149
q0 3 -0.5 13.5t-0.5 13.5q-172 -130 -313 -298q-19 -24 -36.5 -50.5t-31 -55t-21.5 -59t-8 -62.5q0 -4 0.5 -18t0.5 -18z" />
    <glyph glyph-name="bracketleft" unicode="[" horiz-adv-x="465" 
d="M16 785q0 8 10.5 13.5t14.5 6.5l349 75q1 0 7 0.5t10 0.5q13 0 19 -3.5t6 -18.5q0 -5 -1 -11.5t-8 -8.5l-332 -75q-8 -2 -8 -7.5v-12.5v-13q1 -11 3.5 -43.5t6 -76t7.5 -92.5t7.5 -92.5t5.5 -76t3 -42.5q1 -15 1.5 -45t0.5 -67.5v-79v-79t-0.5 -67.5t-1.5 -45l8 -41h59
l398 61v-12q-4 -1 -12.5 -3t-18.5 -5.5t-19.5 -7.5t-15.5 -8l-399 -92q-1 0 -3.5 -0.5t-4.5 -0.5q-10 0 -17 4.5t-12 12.5t-8.5 17t-3.5 18q-11 84 -12 169t0.5 170t2 170.5t-8.5 170.5q0 5 -2.5 23t-6 42t-7 51t-7.5 51t-6.5 42t-3.5 23v5z" />
    <glyph glyph-name="backslash" unicode="\" horiz-adv-x="515" 
d="M7 676q0 12 5 17t18 5q15 0 30 -10.5t23 -23.5l407 -606q8 -11 8.5 -16.5t0.5 -18.5q0 -14 -6 -19t-20 -5q-7 0 -9.5 1t-7.5 8l-389 590q-5 6 -15 16t-20 20.5t-17.5 22t-7.5 19.5z" />
    <glyph glyph-name="bracketright" unicode="]" horiz-adv-x="697" 
d="M151 -95q0 10 12 16t20 4q5 0 17.5 1t27.5 1.5t27.5 1t18.5 0.5q9 0 23.5 -0.5l29 -1t26 -1.5t12.5 -1q12 -2 43 -9t65.5 -16.5t65 -18.5t42.5 -13h22q0 55 -3 113t-7 116.5t-5 116t1 110.5l-49 423q-1 4 -4 13l-4 12h-4q-67 0 -133.5 -4t-134.5 -4h-29.5t-52.5 1
t-61.5 3t-57 6.5t-40.5 12.5t-11 18q1 2 4 5.5t7 8t8 8t6 4.5h7q67 0 133.5 -8.5t134.5 -8.5q56 0 110 4.5t108 4.5h12t21 -0.5t20.5 -4.5t9.5 -13l59 -464q-5 -57 -1 -116t10 -118t11.5 -118t5.5 -117v-16t-0.5 -20.5t-0.5 -18v-8.5l-9 -16h-41q-55 22 -113.5 42.5
t-118.5 36t-120 24.5t-120 9z" />
    <glyph glyph-name="asciicircum" unicode="^" horiz-adv-x="507" 
d="M224 822q-14 0 -31.5 -25t-35.5 -62t-36 -80t-32.5 -80t-26 -61.5t-16.5 -24.5q-13 0 -21.5 7.5t-8.5 22.5q0 1 4 16t11.5 37.5t16.5 48.5t18 49.5t18 39.5t16 20l107 175l4.5 4.5l7.5 7.5l7.5 7.5l5.5 5.5h5h3q3 -2 7 -6t8 -7.5t7 -7t3 -4.5l217 -490v-4v-4
q-1 -2 -4.5 -5t-5.5 -4q-13 11 -28 26t-28.5 32t-24.5 34.5t-18 32.5l-133 290q-2 7 -6.5 8t-9.5 1z" />
    <glyph glyph-name="underscore" unicode="_" horiz-adv-x="1228" 
d="M16 33q2 3 8.5 9t8.5 7q142 11 284.5 20t284.5 18t284 20t284 25q20 -3 27 -9t7 -24v-9t-1.5 -9t-5 -6t-10.5 0q-265 -25 -531 -46.5t-532 -21.5h-18t-27.5 0.5t-27.5 0.5h-18q-2 2 -8.5 8t-8.5 9q-1 1 -1 2v3z" />
    <glyph glyph-name="grave" unicode="`" horiz-adv-x="447" 
d="M169 715q0 27 7 32.5t19 -3t28 -27.5t35.5 -39t40.5 -37.5t44 -24.5q20 -7 17.5 -12.5t-17.5 -8t-39 0t-49.5 12.5t-47.5 30.5t-32 53.5l-1 3t-2 7l-2 8t-1 5z" />
    <glyph glyph-name="a" unicode="a" horiz-adv-x="545" 
d="M22 30v15v16q-17 60 -4.5 118t45 104.5t83 78t110.5 38.5h18q22 0 36.5 -9.5t23 -24.5t12 -34t3.5 -38q0 -26 -5.5 -50.5t-12 -49.5t-12 -49.5t-5.5 -51.5v-6q1 -2 2.5 -11.5t2.5 -11.5q2 0 10 -0.5t10 -0.5q10 0 19.5 0.5t19.5 4.5l190 88q1 0 3.5 0.5t3.5 0.5
q10 0 16.5 -6t6.5 -16q0 -5 -0.5 -9.5t-5.5 -8.5q-7 -5 -25.5 -14t-39.5 -20t-39.5 -21t-26.5 -13q-14 -8 -31 -14.5t-35 -12.5t-35.5 -9.5t-31.5 -3.5q-22 0 -36 7.5t-21 20t-9.5 30t-0.5 36.5q-20 -16 -43 -34t-48 -33t-51 -26t-53 -11q-15 0 -27 7.5t-17 23.5zM76 51
q23 0 51 13.5t55 33.5t49 42.5t34 40.5q1 30 8.5 57.5t7.5 56.5q0 2 -0.5 6t-0.5 6q-13 11 -22 13t-24 2h-8.5t-8.5 -1q-6 -5 -20 -18.5t-29.5 -29.5t-29 -30t-18.5 -19q-1 0 -4 -3.5t-6.5 -8.5t-6 -9.5t-3.5 -7.5l-24 -117v-27z" />
    <glyph glyph-name="b" unicode="b" horiz-adv-x="522" 
d="M101 137q-1 0 -2.5 -2.5t-3.5 -3.5q-12 -21 -19 -41t-14 -46q-7 -10 -14.5 -12.5t-17.5 -2.5q-23 0 -23 20q11 44 19 71.5t14 47t10.5 34.5t9.5 30.5t10.5 36.5t13 52.5t17.5 77.5t24 113l34 84q4 9 9.5 11.5t12.5 2.5q9 0 17 -5.5t10 -15.5v-8t0.5 -12.5t0.5 -12v-8.5
q0 -53 -8.5 -91t-23 -71t-32 -66t-34.5 -76q27 31 62 53t77 22q4 0 15.5 -1t15.5 -1q21 -6 36.5 -23t24.5 -38.5t13 -45t4 -42.5q0 -20 -4 -42.5t-10 -42.5h10l145 38q20 6 40.5 21t33.5 28h2q1 0 1.5 0.5t1.5 0.5q9 0 14.5 -5.5t5.5 -14.5q0 -18 -14.5 -33t-34.5 -25.5
t-41 -18t-33 -10.5q-10 -3 -34.5 -9.5t-52.5 -13.5t-53.5 -13t-34.5 -8q-15 -8 -28 -14.5t-29 -6.5q-23 0 -50.5 11.5t-50 30t-36 43.5t-6.5 53zM125 152q15 0 24.5 -12.5t21.5 -27.5t30.5 -27t53.5 -12h21q9 9 14.5 23t8 28.5t2.5 29.5v28q0 14 -3 29.5t-10 28.5t-19.5 21
t-29.5 8q-20 0 -41.5 -12.5t-39.5 -31.5t-32 -40t-20 -38q5 4 9.5 4.5t9.5 0.5z" />
    <glyph glyph-name="c" unicode="c" horiz-adv-x="522" 
d="M20 137q5 51 23.5 97t43 79t50 51t44.5 11q5 3 8.5 5.5t6 5t6 4t10.5 1.5q14 0 25 -9t19.5 -22t13 -27.5t4.5 -26.5q0 -13 -10 -18t-23 -5q-8 0 -14 3.5t-10.5 8.5t-9.5 10t-13 7h-1h-3l-4.5 -4.5t-4.5 -5.5q-21 -25 -39 -44.5t-31.5 -39.5t-21 -43t-7.5 -55v-9t0.5 -12
t0.5 -12v-9q2 -10 11.5 -15t17.5 -10q3 0 15 -0.5t14 -0.5q36 0 85 11.5t98.5 30.5t93.5 45.5t70 55.5q6 8 10.5 22t10 27.5t12.5 23.5t21 10q13 0 16.5 -10.5t3.5 -20.5q0 -32 -15.5 -58t-38.5 -47t-50.5 -37t-52.5 -27q-7 -2 -30.5 -11t-50.5 -19t-52.5 -19.5t-37.5 -14.5
q-16 -5 -27 -7.5t-20 -4.5t-18.5 -2.5t-22.5 -0.5q-36 0 -59.5 9t-37.5 26.5t-20.5 43t-8.5 59.5z" />
    <glyph glyph-name="d" unicode="d" horiz-adv-x="569" 
d="M258 151q-5 -5 -19 -17t-29.5 -25.5t-29.5 -25t-20 -15.5q-2 -1 -11.5 -6.5t-21.5 -13t-24.5 -14t-19.5 -10.5l-17 -8.5t-15 -2.5q-16 0 -33.5 10.5t-17.5 29.5v108l14 73q11 42 25 68.5t35 44t50.5 26.5t69.5 17q2 1 13 5t13 5h14q16 0 28.5 -7t24.5 -18l50 214
q-2 11 0 30.5t7.5 39.5t14.5 34t21 14q15 0 23.5 -11t5.5 -28l-54 -327q-18 -43 -26.5 -86t-8.5 -89q0 -21 3 -42t11.5 -38t23.5 -27.5t39 -10.5q53 0 105 19.5t92 53.5q2 0 3 0.5t3 0.5q8 0 14 -5q0 -2 0.5 -6t0.5 -6q0 -16 -13 -30t-33.5 -26t-45 -21t-49 -16t-45.5 -10
t-33 -3q-35 0 -58.5 11.5t-39 32.5t-23.5 48.5t-12 59.5h-5zM63 190q0 -6 -1.5 -20t-3 -30.5t-3 -31t-2.5 -21.5q0 -2 -0.5 -10t-0.5 -10q14 0 36 11.5t46 30t49 42t44.5 46.5t32.5 45.5t13 38.5q0 5 -7.5 14t-17 17t-19 14t-16.5 6q-21 7 -48.5 -3.5t-51.5 -32t-39 -49.5
t-11 -57z" />
    <glyph glyph-name="e" unicode="e" horiz-adv-x="370" 
d="M16 156q2 6 6.5 21.5t9 33.5t8 34.5t5.5 22.5q6 24 14.5 52t23.5 52t38.5 39.5t58.5 15.5q13 0 18.5 -9.5t9.5 -20.5q0 -4 0.5 -14.5t0.5 -14.5q0 -43 -8.5 -76t-26 -61t-42.5 -52.5t-57 -51.5q-1 -3 -3 -10t-2 -10v-2q0 -18 6 -29t16.5 -17.5t24 -8t29.5 -1.5
q47 0 90 13t79 42q5 5 12.5 14.5t15.5 19.5t17 17.5t19 7.5t12 -8t2 -16q0 -22 -13.5 -41.5t-35 -35t-49 -27.5t-54.5 -20t-51.5 -12t-41.5 -4q-53 0 -88.5 17.5t-48.5 70.5zM159 353q-20 -18 -31.5 -32.5t-18 -30t-11 -33.5t-9.5 -42q19 15 31.5 30t20.5 31t12 34.5t6 42.5
z" />
    <glyph glyph-name="f" unicode="f" horiz-adv-x="499" 
d="M-14 -322v9.5v13v11v5.5l35 313q7 37 12 58.5t8 32.5q4 12 8 16l73 234q4 12 15 34.5t25.5 44.5t31.5 37.5t34 15.5q7 0 12 -5t8.5 -12t5 -15t1.5 -13q0 -46 -12.5 -94t-32.5 -94.5t-48 -88.5t-59 -74l-15 -54q113 2 219.5 37t204.5 86h5q9 0 12.5 -6.5t3.5 -13.5
q0 -8 -3 -14t-13 -11q-79 -49 -169 -80t-182 -47q18 -20 30 -33t19.5 -26.5t11 -31.5t3.5 -49q0 -78 -36.5 -136.5t-95.5 -108.5q-14 -11 -34.5 -23t-39.5 -12q-17 0 -25 11t-11 25.5t-2.5 30.5t0.5 27zM68 -39q-4 -31 -9 -70t-9 -80t-7 -82t-3 -77q27 0 52.5 23.5t45.5 57
t33 68.5t14 58q2 28 -3.5 47.5t-17.5 33t-31 22.5t-45 18h-5q-7 0 -10 -6t-5 -13zM191 390q-1 0 -4 -7.5t-7.5 -16.5t-8 -19t-5.5 -15q-3 -8 -7 -20.5t-7.5 -25t-6.5 -22t-3 -10.5v-6q19 34 35 71.5t18 75.5z" />
    <glyph glyph-name="g" unicode="g" horiz-adv-x="531" 
d="M88 -488q-5 15 -8.5 28t-4.5 24.5t-1.5 23t-0.5 27.5v7.5v12t0.5 12t0.5 7.5q11 49 24.5 96.5t32.5 92t46 84t67 73.5q1 5 3 20t5 31t4.5 30.5t2.5 21.5q0 2 -0.5 9.5t-0.5 9.5h-3q-35 -18 -67 -31.5t-70 -13.5q-21 0 -35.5 7t-23.5 19t-13.5 28t-5.5 35l24 73
q9 25 22.5 53.5t31 54.5t40.5 47.5t52 30.5q39 6 72.5 -2t58.5 -23t40.5 -32.5t18.5 -30.5q-2 -15 -9 -31.5t-15.5 -33t-17 -30t-12.5 -22.5q-8 -18 -14 -38t-10.5 -41t-7 -42.5t-2.5 -39.5v-15q51 30 110 47t117 17h18.5t22 -2.5t18.5 -9t8 -18.5q0 -19 -21 -19
q-3 0 -14 1.5t-15 3.5q-7 -1 -24 -4t-37 -7t-37 -8t-24 -5q-3 -1 -11.5 -4.5t-18.5 -7.5t-19.5 -7.5t-12.5 -6.5q-8 -2 -18.5 -7.5t-20.5 -11t-17.5 -10t-7.5 -5.5l-10 -14l-24 -253q-3 -26 -14.5 -63t-30.5 -71t-46.5 -57.5t-62.5 -23.5q-10 0 -17.5 2.5t-14.5 11.5z
M122 -390q1 -9 2.5 -26t6.5 -28q19 5 35 27.5t27 50.5t18 55.5t9 42.5q4 23 6.5 43.5t4.5 39t3 36.5t1 39q0 3 -0.5 13.5t-0.5 13.5q-27 -35 -45 -71t-30.5 -73.5t-21 -78t-15.5 -84.5zM98 147q3 -8 8.5 -14t15.5 -6q41 0 73.5 17.5t57.5 45.5t43.5 61t31.5 66v4
q-16 33 -36.5 42.5t-43 3t-45.5 -26t-43.5 -44t-36.5 -51.5t-25 -49.5t-10 -36.5t10 -12z" />
    <glyph glyph-name="h" unicode="h" horiz-adv-x="504" 
d="M229 225q-2 4 -6.5 11.5t-10.5 7.5q-19 0 -38.5 -16.5t-37 -39t-30 -45.5t-15.5 -36q-4 -13 -4 -31t-2.5 -34t-11 -27t-29.5 -11q-13 0 -17.5 5.5t-4.5 18.5q7 48 12.5 79t10 54.5t9 46t10.5 54.5t13 78.5t17 118.5q0 15 2 42.5t7.5 59t14.5 64t22.5 58.5t31.5 42.5
t42 16.5q17 0 27.5 -11.5t16 -27.5t6.5 -33.5t1 -28.5q0 -25 -4 -47.5t-10 -45t-13 -45t-12 -44.5l-64 -122l-36 -78l5 -11q21 25 43 38.5t55 15.5q15 1 25.5 -9t17.5 -25.5t10.5 -31.5t4.5 -26q0 -6 -1 -19t-2 -30t-1.5 -35.5t1.5 -34.5t8.5 -27.5t17.5 -13.5
q39 5 69.5 13.5t53.5 24t38.5 39.5t23.5 59q7 10 20 10q15 0 19.5 -11t4.5 -24q0 -40 -25.5 -70.5t-64.5 -50.5t-84 -30.5t-83 -10.5q-24 0 -33 16.5t-10.5 40t-0.5 47.5t0 39q0 5 -1 16.5t-2.5 24.5t-3.5 25t-2 17zM147 465v-10t0.5 -13t0.5 -11v-6l5 -5q10 6 18.5 21
t15.5 36t12.5 44.5t9.5 46.5t6.5 42t2.5 31q0 4 -0.5 15t-1.5 13l-5 10q-24 -19 -37 -45t-19 -54t-7 -58t-1 -57z" />
    <glyph glyph-name="i" unicode="i" horiz-adv-x="357" 
d="M22 210q1 5 6 18t10.5 28t10.5 28t7 18q6 16 11.5 21t20.5 5q16 0 21 -11t5 -26q0 -26 -7.5 -47.5t-16.5 -43t-16.5 -46t-7.5 -56.5v-11.5t1 -15t4 -13t8 -5.5q26 0 52.5 10.5t52 25t49 32t42.5 30.5q7 5 10.5 10t6.5 9.5t7.5 8t14.5 3.5q13 0 21.5 -5.5t8.5 -19.5
q0 -6 -0.5 -11t-5.5 -9q-1 -3 -7.5 -8t-13.5 -10.5t-13 -10t-9 -5.5q-1 0 -5.5 -2.5t-5.5 -2.5l-2.5 -2.5t-1.5 -2.5q-21 -16 -45.5 -32.5t-51.5 -30t-55.5 -22.5t-56.5 -9q-24 0 -36.5 12.5t-18.5 31.5t-7 40t-1 38zM70 473q0 18 7 24t25 6q9 0 18 -3.5t9 -16.5t-12.5 -24
t-24.5 -11t-17 7.5t-5 17.5z" />
    <glyph glyph-name="j" unicode="j" horiz-adv-x="277" 
d="M-236 -372q0 60 23 118.5t59.5 111.5t82 98t89.5 78q4 15 7.5 29.5t7.5 30.5v4q-6 20 -6.5 49.5t3 58t9.5 48.5t13 20q13 0 20.5 -8t7.5 -22q0 -34 7.5 -72.5t7.5 -71.5v-13q49 26 98 43t106 17q5 0 12.5 -0.5t13.5 -2.5t10.5 -7t4.5 -13q0 -12 -10.5 -16t-19.5 -5
q-11 -2 -33 -7t-48.5 -12.5t-53.5 -17t-50 -22.5t-39 -27t-19 -31q-5 -30 -4.5 -63.5t-2 -66t-11 -64t-31.5 -56.5l-127 -136q-6 -7 -16.5 -16t-22.5 -16t-25.5 -12t-25.5 -5q-13 0 -21 9.5t-11 22t-4 25.5t-1 20zM-187 -371q1 -3 2.5 -8t2.5 -6l2 -1q5 0 13 5.5t15.5 11.5
t13.5 12l6 6q31 30 56.5 56.5t43 54.5t27 62t9.5 80v49q-32 -19 -65.5 -57.5t-61.5 -84.5t-46 -93t-18 -85v-2zM51 358q0 13 10 23t23 10q10 0 19 -6t9 -16q0 -13 -11.5 -25t-24.5 -12q-12 0 -18.5 8t-6.5 18z" />
    <glyph glyph-name="k" unicode="k" horiz-adv-x="465" 
d="M18 4q-1 3 -1 13v13q0 32 11.5 62.5t28.5 58.5l54 141l53 196l44 87q2 5 7.5 5h10.5q21 0 26 -15.5t5 -31.5q0 -60 -18 -112.5t-46 -103.5q18 11 36.5 18t39.5 7q26 0 42 -9.5t34 -30.5q1 -2 1 -13v-14q0 -30 -14 -57t-36 -49t-49 -39.5t-54 -26.5v-5q0 -10 6 -17.5
t14 -13t17 -8t17 -2.5q22 0 46 2t47.5 7.5t44.5 14t38 22.5q8 6 17 19t17.5 26t16 23t11.5 10q12 0 17.5 -10.5t5.5 -20.5q0 -1 -0.5 -4.5t-0.5 -4.5q-19 -40 -43.5 -66.5t-55.5 -42t-69.5 -22t-85.5 -6.5q-40 0 -67.5 14.5t-45.5 49.5q-1 4 -3.5 10.5l-5 13t-6.5 12.5
t-10 8l-48 -102q-3 -7 -11.5 -9t-15.5 -2q-6 0 -11.5 0.5t-10.5 4.5zM150 193q0 -3 3 -10t7 -14t8.5 -12.5t8.5 -5.5t10 2.5t12.5 5t11.5 5.5t8 6q3 4 11 13t17.5 19t18 19t10.5 13l3.5 7l5 10t4.5 10t3 7v2.5v2.5q0 3 -0.5 5.5t-5.5 4.5h-19q-12 0 -22.5 -1.5t-21.5 -8.5
q-3 -3 -12 -10.5t-18 -16t-18 -16.5t-11 -10q-2 -3 -8 -13t-6 -14z" />
    <glyph glyph-name="l" unicode="l" horiz-adv-x="294" 
d="M22 181l1.5 1.5l2.5 2.5q2 9 8 31t13 47.5t13.5 47.5t9.5 30q1 4 6.5 17.5t12.5 29.5l14 32t10 24q7 14 21.5 37t33 43.5t38.5 36t37 15.5q9 0 14.5 -5t8 -11.5t3.5 -14.5t1 -14q0 -52 -14.5 -103.5t-39.5 -98.5t-59.5 -88.5t-72.5 -74.5q-1 -3 -2.5 -12t-2.5 -13v-2
q0 -20 10.5 -32t25.5 -17.5t33.5 -7.5t35.5 -2q9 0 26.5 9t36 20.5t36.5 20.5t27 9t14 -6t5 -15q0 -15 -23 -32t-53 -31.5t-57.5 -24.5t-36.5 -10q-30 -6 -56 -0.5t-45 19t-31.5 33t-15.5 40.5zM211 479q-9 0 -20.5 -14.5t-22.5 -33.5t-19.5 -36.5t-9.5 -23.5q-3 -7 -9 -23
t-12 -33.5t-11.5 -33.5t-7.5 -23h5l6 7.5t13.5 17.5t16 20.5t12.5 17.5q4 6 11 18.5t9 15.5q4 11 11 29.5t13 36.5l10.5 31.5t4.5 15.5v11z" />
    <glyph glyph-name="m" unicode="m" horiz-adv-x="687" 
d="M18 24q3 25 8 47.5t11 44.5t13.5 45.5t16.5 53.5v5q-40 -23 -56.5 -23t-17 12t11 32t28 37t34 27t27.5 3q12 0 19.5 -4t16.5 -12q23 18 43 29t48 11q44 0 66.5 -20t32.5 -64q17 17 31 31.5t30.5 25t35.5 16t43 5.5q20 0 39 -15t27 -33v-18v-19q0 -34 -8 -65.5t-8 -64.5
q0 -14 3.5 -28.5t21.5 -14.5q24 0 43.5 10t36 24.5t30 31.5t25 31.5t21.5 24.5t20 10q7 0 15.5 -5.5t8.5 -13.5q0 -1 -0.5 -3t-0.5 -3q-10 -31 -29 -59t-44 -49.5t-55.5 -34t-64.5 -12.5q-32 0 -54 8.5t-34 39.5q0 3 -0.5 13.5t-0.5 12.5q0 38 7.5 73t7.5 71q0 3 -0.5 13
t-0.5 13q-4 5 -12.5 5h-15.5q-21 0 -40 -15t-35 -38t-28.5 -51.5t-21.5 -57t-14.5 -53t-6.5 -40.5l-11 -10h-34q-9 0 -9.5 9.5t-0.5 14.5q0 24 3.5 48.5t8 49t8.5 49.5t5 49q-1 8 -2 17.5t-4 17.5t-9 13.5t-17 5.5q-16 0 -31 -6t-27.5 -15.5t-22 -23t-13.5 -29.5l-60 -194
l-9 -10l-6 -0.5t-9 -0.5q-11 0 -22.5 2.5t-11.5 18.5v4z" />
    <glyph glyph-name="n" unicode="n" horiz-adv-x="461" 
d="M9 20l34 200v28l20 133q3 4 11 4.5t11 0.5q8 0 18.5 -5.5t10.5 -14.5v-68q4 3 14 12t21.5 19t21.5 19t13 13q11 10 26.5 17t29.5 7q29 0 45.5 -18t16.5 -46q0 -2 -0.5 -2.5t-0.5 -2.5v-4l-38 -171v-81q31 0 64.5 12.5t64.5 31.5t58 43.5t47 47.5h4q7 0 11.5 -4.5
t4.5 -11.5q0 -22 -14.5 -43.5t-37 -40.5t-52 -36t-58 -29t-55.5 -19t-46 -7t-30 7t-16.5 18.5t-7 25.5t-1.5 30v13l39 194v33q-24 0 -47.5 -21t-42 -51t-32 -61t-19.5 -51q-2 -7 -6 -25t-7.5 -38t-6.5 -38t-4 -26q1 -6 -3.5 -9t-10.5 -4.5t-12.5 -1.5h-10.5q-9 0 -18 3
t-9 15v3z" />
    <glyph glyph-name="o" unicode="o" horiz-adv-x="484" 
d="M16 78q0 1 1 7t2 12.5t2 12t1 7.5v4v6l14 63q17 36 35.5 69t42.5 58t55.5 40t76.5 15q9 0 22.5 -5.5t27 -13.5t25 -16.5t17.5 -15.5q31 5 45 5.5t24 1t21.5 3.5t35.5 13q17 5 33 5q7 0 13.5 -6t6.5 -14q0 -10 -7 -18t-17 -10l-125 -28l-11 -5q-1 -54 -24 -103t-61 -86
t-88 -58.5t-104 -21.5q-4 0 -13 0.5t-12 0.5q-22 9 -30.5 33t-8.5 45zM80 58q1 -5 8 -5h10q36 0 74 18.5t68.5 48t50 67t19.5 75.5q-32 0 -64 5.5t-62 5.5h-1l-83 -88q-7 -7 -11 -19t-6 -26t-3 -28t-1 -25v-14t1 -15z" />
    <glyph glyph-name="p" unicode="p" horiz-adv-x="418" 
d="M-31 -213q0 29 7 64.5t15 71t15 69.5t7 64v8l24 67q13 29 30 60t38.5 57.5t49.5 45t63 23.5q12 2 26 -4.5t26.5 -16.5t20.5 -23t10 -25v-8v-13v-13v-9q0 -28 -8 -54t-8 -50v-3q3 2 14 7t25.5 11t32 13t33.5 13t28.5 9.5t17.5 3.5q12 0 14.5 -3.5t2.5 -11.5q0 -11 -13 -22
t-33.5 -21t-45 -18.5t-47 -15.5t-39.5 -13.5t-23 -9.5q-11 -8 -20.5 -17t-19.5 -16t-21 -12t-25 -5q-21 0 -40.5 11.5t-35.5 23.5l-5 -4q0 -1 -6.5 -27t-15 -60.5t-17 -68.5t-13.5 -53q-2 -11 -3 -22.5t-4.5 -22t-11.5 -17.5t-22 -7h-13q-6 12 -8 21.5t-2 22.5zM103 82
q11 -7 23 -8t23.5 0.5t23 4.5t22.5 3q2 0 9 0.5t8 0.5q12 6 19 22t10.5 34t4.5 35.5t1 27.5q0 9 -1 19t-4.5 18.5t-9.5 14.5t-17 6q-2 0 -6.5 -0.5t-6.5 -0.5q-4 -12 -16.5 -32.5t-26 -42.5t-24.5 -42.5t-11 -31.5z" />
    <glyph glyph-name="q" unicode="q" horiz-adv-x="511" 
d="M154 -268q-4 56 -5 114t0 115q-16 13 -23 21.5t-7 26.5q0 22 10 27t30 5q0 17 2 32.5t2 32.5q-12 0 -24 -5.5t-25 -11t-26.5 -11t-28.5 -5.5t-24.5 7.5t-14.5 19.5t-6 25.5t-1 24.5q0 16 2 34t2 40q53 81 93.5 123t70.5 56.5t49.5 8t31.5 -22.5t17 -35t6 -30
q0 -38 -11 -73t-25 -70t-25.5 -72.5t-11.5 -78.5v-6q40 9 82.5 18.5t84.5 24t80 34.5t67 50l1.5 0.5t2.5 0.5q9 0 14.5 -6.5t5.5 -15.5q0 -18 -20 -34.5t-51.5 -32t-69.5 -29.5t-75 -27t-68 -24.5t-48 -21.5q2 -7 5.5 -18.5t5.5 -24t3 -23t0 -17.5l-25 -146q-1 -7 -12 -11.5
t-19 -4.5t-14 3.5t-8 12.5zM71 126q1 -1 4.5 -3t5.5 -2q28 0 51.5 20t41.5 48t30 58t18 51q1 2 1.5 6t0.5 6q8 31 4 44t-30 -3h-7q-7 0 -5.5 -1t-4.5 -7q-5 -4 -18 -14.5t-27.5 -23t-28 -23t-17.5 -14.5q-8 -11 -12 -24.5t-6 -28t-2 -29.5v-28q0 -3 0.5 -15.5t0.5 -16.5z
" />
    <glyph glyph-name="r" unicode="r" horiz-adv-x="454" 
d="M-22 119q28 21 41.5 41t21.5 40t13 42.5t16 49.5q-4 7 -4.5 12.5t-0.5 13.5t2.5 19t7.5 20.5t12 16.5t17 7q-1 -4 11.5 -9t31 -11t39.5 -13t37 -15q18 -10 25.5 -21.5t7.5 -32.5q0 -19 -4.5 -43t-9 -48.5l-9 -49t-4.5 -44.5v-26q-1 -9 4.5 -9.5t10.5 -0.5q12 0 22 4
t20.5 9t20.5 9.5t21 6.5l88 54q4 7 10.5 11.5t12.5 8.5q10 6 24 17q7 6 15 12h30q3 0 4 -6t1 -9q0 -12 -17 -30t-44 -37t-60 -37.5t-64.5 -33.5t-58 -24t-40.5 -9q-18 0 -29 9t-18 22t-9.5 28.5t-2.5 30.5q0 11 7 31t16 41t16 41t7 32q0 1 -14.5 8t-31.5 15.5t-31.5 15
t-14.5 7.5q-22 -23 -30.5 -49t-17 -54t-25 -56t-55.5 -55q-1 0 -4.5 1t-7 5.5t-5.5 14t-1 27.5z" />
    <glyph glyph-name="s" unicode="s" horiz-adv-x="465" 
d="M57 141q-8 -4 -17 -4.5t-18 -0.5t-18 -0.5t-18 -4.5q-17 -2 -22 2.5t-3 12.5t11 18t20.5 17t25 10t24.5 -1q-5 18 1 31t24 13q9 0 16.5 -1.5t11.5 -8.5q15 9 40 30.5t51.5 44t48.5 40t30 17.5q3 0 8 -0.5t10.5 -2.5t9 -4.5t3.5 -7.5v-43q-7 -28 -13.5 -52.5t-11 -48
t-6.5 -47.5t-2 -51q16 0 38.5 7t45.5 17t43 20.5t32 17.5q2 1 9 7t15 12.5t15.5 12t9.5 7.5t10 5.5t9 4.5q4 1 7.5 -2.5t6.5 -8t4.5 -9t1.5 -5.5q0 -10 -8 -20t-19 -18.5t-22.5 -16t-17.5 -13.5q-8 -4 -27.5 -13t-41.5 -19t-41.5 -19t-27.5 -13q-2 -1 -9 -2.5t-15 -4.5
t-15.5 -4.5t-9.5 -2.5q-9 -3 -13.5 -10l-9 -14t-11 -12t-20.5 -3q-1 1 -8.5 4.5t-9.5 5.5q-24 17 -41 32t-31 29.5t-26.5 31.5t-28.5 38zM120 181q7 -15 13.5 -29t15.5 -26.5t20.5 -21.5t28.5 -11q2 15 5 36t7 44t9.5 45.5t12.5 39.5h-10q-16 -11 -30 -22q-13 -10 -26 -19.5
t-21 -16.5l-3 -3t-3 -2q-1 -2 -9 -7t-10 -7zM232 273q-3 0 -3 -4.5t3 -4.5q4 0 4 4.5t-4 4.5z" />
    <glyph glyph-name="t" unicode="t" horiz-adv-x="282" 
d="M31 268q2 4 8 12.5t6 14.5v3q0 1 -2 2.5t-3 1.5h-18q-26 -8 -58.5 -11t-63 -2t-52.5 5.5t-26 10.5t15 14.5t72 17.5q3 0 13.5 2.5t23 4.5t23.5 4.5t14 2.5q4 1 17 1.5t26.5 1.5t26 1h17.5l5 6l78 131q4 7 14.5 11t16.5 4q13 0 18 -10.5t5 -20.5q0 -1 -0.5 -2t-0.5 -2v-4
l-44 -107v-6q2 6 7.5 6h8.5q15 0 29 -10t14 -27q0 -8 -5 -13t-12 -8t-15 -4.5t-14 -1.5q-12 0 -22.5 3t-22.5 3q-11 0 -20 -11.5t-16.5 -30t-12.5 -41.5t-9 -45t-5.5 -41t-1.5 -29q0 -4 0.5 -16t0.5 -16q1 -6 5 -10.5t8 -9.5h23q40 0 79.5 18t74.5 41q2 1 9.5 9.5t16.5 17
t16.5 15.5t10.5 7q7 0 13 -7t6 -15q0 -19 -13.5 -37t-34.5 -33.5t-48 -28.5t-53.5 -22t-50 -14t-38.5 -5q-14 0 -29 3.5t-27 11.5t-20 20t-8 30v111z" />
    <glyph glyph-name="u" unicode="u" horiz-adv-x="640" 
d="M5 108q4 14 5.5 29t4 32t9 38.5t20.5 48.5t37.5 62.5t61.5 81.5q4 6 10 10.5t13 4.5q12 0 21 -9.5t9 -20.5q0 -1 -1.5 -6.5t-2.5 -7.5q-11 -23 -21 -41t-21 -34.5t-24.5 -34.5t-31.5 -41q-12 -30 -21 -56t-9 -58q0 -16 1.5 -26t9.5 -27h11q29 0 66.5 23.5t74 56
t66.5 66.5t44 55q2 2 5.5 9.5t4.5 9.5q2 6 7 20.5t10.5 30.5t10.5 30.5t7 20.5q2 9 8 10t12 1q18 0 23 -7.5t5 -24.5v-17q-10 -27 -17.5 -50t-14 -45t-9.5 -44t-3 -48q0 -3 -0.5 -14t1 -22.5t6 -21t13.5 -9.5q24 0 49.5 6.5t51.5 17t49.5 23.5t44.5 26q5 2 12 9t15 13.5
t16 11.5t15 5q20 0 20 -20q0 -15 -18 -31.5t-45.5 -32.5t-61.5 -30t-65.5 -24.5t-56.5 -17t-36 -6.5q-4 0 -14.5 0.5t-14.5 0.5q-16 4 -25 18t-13.5 31.5t-5.5 35t-1 28.5q-3 -2 -7.5 -4.5t-5.5 -5.5q-8 -7 -26.5 -21.5t-40 -31t-40 -30.5t-25.5 -20q-20 -15 -44 -25
t-49 -10q-26 0 -41 8.5t-23.5 23t-11.5 34.5t-3 43z" />
    <glyph glyph-name="v" unicode="v" horiz-adv-x="541" 
d="M21 107l30 138q4 33 11.5 65.5t18 57.5t22.5 41t25 16q15 0 22 -12.5t7 -25.5v-12l-68 -219q-6 -21 -8.5 -37t-2.5 -36q0 -3 -0.5 -8t0.5 -10t3.5 -8.5t6.5 -3.5q10 0 22.5 5t25.5 11.5t24 13t17 10.5q23 14 42 29t36 31t32 34.5t31 41.5q5 9 12 26.5t15 40t16 45.5
t16 43t16 32.5t16 12.5q10 0 14.5 -3.5t7 -9.5t4 -13t4.5 -13q1 -1 5 -2.5t6 -2.5q10 -3 10.5 -5t-0.5 -4.5t0 -3t11 -0.5h3q12 1 30.5 3.5t35.5 4.5t29.5 4l12.5 2l20 -43q-29 -8 -49 -12.5t-38.5 -6.5t-39 -1t-49.5 3l-6 -5q-19 -47 -38.5 -86.5t-45.5 -73t-58.5 -63
t-76.5 -54.5q-28 -16 -57 -30.5t-60 -14.5q-19 0 -31.5 7t-19.5 18.5t-9.5 27t-2.5 31.5v24z" />
    <glyph glyph-name="w" unicode="w" horiz-adv-x="757" 
d="M14 57q0 35 8 68t22 65q9 34 20 63.5t22.5 51t23.5 34t25 12.5t19.5 -7.5t6.5 -20.5v-6l-49 -117q-1 -2 -5 -7.5t-4 -7.5v-4q-2 -5 -5.5 -16t-7.5 -23.5t-7.5 -23.5t-4.5 -15q-2 -5 -3 -16t-1 -14q0 -2 1 -7.5t3 -7.5q38 15 81.5 45.5t83.5 68.5t71.5 79.5t46.5 80.5
q2 1 10 3t10 2h2.5h2.5q10 0 17.5 -9t7.5 -18q0 -1 -0.5 -4t-0.5 -4q-18 -43 -31 -82t-13 -84q0 -19 1.5 -30.5t8.5 -32.5q1 -5 4.5 -5h6.5q30 0 60 23t54.5 56.5t39.5 70.5t15 65q0 15 -2.5 28.5t-2.5 27.5q0 13 7 23t20 10q9 0 17 -5.5t15.5 -12.5t15.5 -13t18 -9h37.5h21
t12.5 1.5t12 5t19.5 9.5t33.5 16q1 1 4 1h4q9 0 16 -6t7 -16q0 -11 -5.5 -17.5t-13.5 -11t-17.5 -8t-17.5 -5.5q-23 -9 -35.5 -12.5t-19 -5t-10.5 -2t-11.5 -0.5t-20 -0.5t-35.5 -2.5q-2 0 -5.5 -2t-4.5 -3q-6 -45 -27.5 -91.5t-55.5 -85t-78.5 -62.5t-92.5 -24
q-10 0 -18.5 8.5t-15 19.5t-10.5 22.5t-5 17.5q-1 4 -2.5 15t-3 24t-3 23.5t-1.5 15.5q-18 -19 -47 -45.5t-63 -51t-68.5 -42t-62.5 -17.5q-26 0 -36.5 18t-10.5 39z" />
    <glyph glyph-name="x" unicode="x" horiz-adv-x="588" 
d="M7 20v9.5t5 9.5q25 28 47 50.5t44.5 41t46.5 36t52 37.5q2 1 5.5 5t4.5 6q2 9 5 24.5t5 33.5t4 36.5t2 33.5q0 6 -0.5 13.5t-9.5 9.5q-1 0 -5 -2l-6 -3l-146 -117l-5 -6l5 74q16 12 37 31.5t44.5 37.5t48 31t47.5 13q17 0 26.5 -8t14 -20.5t5.5 -27t1 -27.5
q0 -23 -2.5 -45t-2.5 -43v-6q8 4 26 14t38 20.5t38 20t26 14.5q2 1 7.5 5t11.5 9t11.5 9.5t7.5 5.5h6q5 0 11 -3.5t11 -8.5t8.5 -10.5t3.5 -11.5q0 -3 -1 -7.5t-4 -6.5l-201 -113q-6 -3 -5.5 -6.5t0.5 -10.5q0 -25 8.5 -40.5t22 -24.5t33 -12.5t41.5 -3.5q15 0 33 3.5
t33 2.5q5 1 16.5 4t25 7t25.5 7.5t16 5.5q8 4 19 12.5t22.5 18t23 16.5t21.5 7q17 0 17 -17q0 -19 -15.5 -35t-39 -29.5t-52 -23.5t-56.5 -17.5t-50.5 -11t-34.5 -3.5q-32 0 -60.5 5t-51 18t-38 34.5t-22.5 55.5q-51 -27 -98 -67t-87 -80q-1 -1 -2 -1h-3q-9 0 -12 6.5
t-3 14.5z" />
    <glyph glyph-name="y" unicode="y" horiz-adv-x="513" 
d="M-33 -252q0 65 28.5 119.5t73 99t99 79.5t106.5 61l29 93q-5 -6 -19.5 -20t-30.5 -29.5t-31 -29t-21 -18.5q-12 -10 -29 -23t-36.5 -24.5t-39.5 -19t-36 -7.5q-22 0 -28.5 10.5t-6.5 30.5q0 16 2.5 33t-1.5 34l39 106q9 9 17.5 28l17 38t18 33t20.5 14q12 0 20.5 -7
t8.5 -20q0 -10 -2.5 -17.5t-7.5 -19.5q-13 -27 -25.5 -51t-23 -48t-17 -49.5t-6.5 -56.5h4l6 3.5t13.5 8t15.5 9.5t14 9q55 36 97 84.5t83 100.5q4 6 7 9t5 4.5t5 1.5h9q14 0 22.5 -5.5t10.5 -24.5q1 -13 -2 -31.5t-8 -36.5t-10.5 -35.5t-9.5 -27.5v-15q2 1 9.5 3t10.5 3
q6 1 33 11t58.5 21.5t58.5 21.5t34 13h2q7 0 12.5 -5t5.5 -12t-4.5 -12t-10.5 -8.5t-13 -6.5t-12 -5q-7 -4 -20 -9.5t-29.5 -12t-34.5 -14.5t-35 -15q-41 -17 -89 -36l-88 -332q-6 -24 -22.5 -50t-38.5 -48t-48.5 -35.5t-53.5 -13.5q-28 0 -48 14.5t-33 37t-18.5 48.5
t-5.5 49zM21 -252q0 -13 2.5 -29t9.5 -31t17.5 -25t27.5 -10q22 0 40.5 13.5t33 33t24.5 41.5t16 39q3 12 9 33.5t11.5 42.5t9.5 37.5t4 19.5v4l29 126q-40 -13 -81.5 -44t-75.5 -72t-55.5 -88t-21.5 -91z" />
    <glyph glyph-name="z" unicode="z" horiz-adv-x="667" 
d="M151 -468q-1 4 -1.5 14.5t-0.5 15.5q0 24 5.5 49.5t15 51t21 49t24.5 45.5q23 40 46 77t48.5 72t53.5 68t61 66q0 1 0.5 6t0.5 7q0 13 -2.5 30t-8 32t-16.5 26t-27 11q-24 0 -42.5 -6.5t-34.5 -18.5t-30.5 -27t-29.5 -32q-7 -3 -12.5 -3.5t-12.5 -0.5q-12 0 -15.5 7
t-3.5 18v9l93 189q6 13 7.5 27t1.5 27q-14 0 -32.5 -5.5t-25.5 -18.5l-151 -122q-7 -2 -13.5 -6.5t-12 -9.5t-11.5 -9t-13 -4t-11 5t-4 12q0 14 8.5 35t22.5 30q8 7 29.5 22.5t45.5 32.5t45.5 32.5t30.5 20.5q20 14 49.5 29t57.5 15q21 0 32.5 -18t11.5 -37q0 -39 -14.5 -75
t-29.5 -70h3h1q3 0 11.5 1.5t19 3t19 3.5t10.5 2h4q26 0 43.5 -10.5t30 -26.5t20 -37.5t14.5 -42.5q27 23 44 37t28.5 22.5t20.5 15t21.5 14t30.5 20t47 34.5q7 4 18 9.5t22 5.5q7 0 12.5 -9t5.5 -16q0 -11 -9 -20l-117 -83l-115 -93l-4 -10q-1 -11 -3 -40t-4.5 -61t-5 -60
t-3.5 -40q-2 -31 -12.5 -67t-26.5 -72t-38.5 -70t-50 -60t-60.5 -42t-70 -16q-22 0 -39 8.5t-24 31.5zM394 -73q-5 -7 -16.5 -22l-23 -30t-21 -28.5t-12.5 -16.5q-20 -34 -41.5 -68t-38.5 -70t-28 -73.5t-11 -78.5q48 0 81 32q79 73 110.5 164t31.5 200q0 3 -0.5 10.5
t-0.5 10.5z" />
    <glyph glyph-name="braceleft" unicode="{" horiz-adv-x="323" 
d="M40 99q0 40 13.5 74t34.5 62t45 50.5t44.5 38.5t34 27t13.5 15q0 1 -0.5 4t-0.5 4q-4 3 -17.5 11t-28.5 18.5t-27 22t-12 23.5q0 2 0.5 8t1.5 8q25 7 46.5 22t36.5 37v7.5t0.5 12.5t0.5 12.5v8.5q0 41 -16 72t-38.5 56.5t-50 49t-50.5 49t-39 55.5t-16 70q0 33 17 60
t43 46.5t58 30t62 10.5h9t9.5 -1t8 -3.5t3.5 -9.5t-11.5 -13t-29.5 -12.5t-38.5 -15t-38.5 -21.5t-29.5 -32.5t-11.5 -47.5q0 -31 15 -57.5t38.5 -50t50.5 -47t50.5 -51t38.5 -60t15 -73.5v-9.5v-13.5v-13.5v-8.5q-1 -2 -4 -9t-5 -8q-2 -4 -9 -12t-15 -17.5t-15 -17.5
t-10 -11q3 -4 15 -13t25.5 -20t24.5 -22t11 -16q0 -19 -14 -34t-35.5 -30t-46.5 -33t-47 -44t-38.5 -61.5t-19.5 -84.5q-3 -47 21.5 -79.5t61.5 -54t80 -35t78 -22.5v-2q0 -1 1 -2q0 -6 -6 -9t-13 -4t-14 -0.5t-9 0.5q-49 0 -94.5 15t-80 42.5t-55.5 67.5t-21 91z" />
    <glyph glyph-name="bar" unicode="|" horiz-adv-x="175" 
d="M41 1046q-1 17 -7 24t-23 7q0 17 9 34t21 27h2.5h2.5q4 0 9 -4t9 -9t7 -11t4 -10t3.5 -16t5 -25.5t4.5 -25t3 -16.5q1 -14 3 -44t5 -67.5t5.5 -79.5t5 -79t4 -67t2.5 -44q0 -4 0.5 -12t0.5 -17.5t-0.5 -17.5t-0.5 -12l41 -597v-84q0 -7 -6 -8t-11 -1q-10 0 -16.5 10.5
t-9.5 23.5t-4.5 25t-1.5 17q0 6 -0.5 21.5t-0.5 33t0.5 32.5t0.5 21z" />
    <glyph glyph-name="braceright" unicode="}" horiz-adv-x="548" 
d="M152 -90q43 0 85.5 -9.5t85.5 -9.5h10t15 0.5t15.5 0.5h9.5q46 33 68.5 75.5t22.5 99.5q0 49 -15 84.5t-38.5 62.5t-50 48t-50 41t-39 41t-15.5 50q0 23 6 37t16.5 23.5t24.5 17.5t29 18v1q0 1 0.5 1t0.5 1q0 8 -9.5 16.5t-20.5 20t-20.5 26.5t-9.5 36q0 29 9.5 54.5
t20.5 51t20.5 51t9.5 54.5q0 16 -1 28t-3.5 24t-7.5 26t-14 32q-28 24 -48.5 42t-38 31t-34.5 20.5t-39 11.5t-51 4.5t-71 -1.5q-2 1 -8.5 4t-8.5 5q-1 0 -1 1v3v2q0 1 1 2q2 2 8 8.5t9 7.5h12.5t19 0.5t19 0.5h11.5q59 0 113.5 -16t96.5 -47.5t68 -79.5t26 -114
q0 -28 -9.5 -52t-20.5 -47t-20.5 -46t-9.5 -50q0 -25 16 -41.5t34.5 -30t34 -27.5t15.5 -35v-4q0 -2 -3 -5t-5 -3l-83 -17q-5 -2 -11.5 -7.5t-11.5 -12.5t-8 -15t-3 -14v-5q0 -2 1 -4q33 -39 71.5 -69.5t70.5 -64t53.5 -75t21.5 -100.5q0 -30 -7 -64.5t-22 -66.5t-39 -57
t-58 -34h-11t-17.5 -0.5t-17.5 -0.5h-12h-47t-62.5 5t-55 17.5t-23.5 37.5z" />
    <glyph glyph-name="asciitilde" unicode="~" horiz-adv-x="648" 
d="M95 553q0 5 1 15.5t4 20.5t7 18t10 8l4 -1l4 -4t5 -4q2 -24 8.5 -48t19.5 -43.5t33 -32t49 -12.5q25 -1 39.5 10t24.5 28t18.5 37t20.5 37t30 29t49 13q16 0 38 -6.5t42 -18t34 -28t14 -35.5q0 -1 -0.5 -1t-0.5 -1v-2l-25 -25q-11 11 -21 23.5t-20.5 22t-23 15.5t-28.5 6
q-21 -3 -34.5 -12.5t-24 -23.5t-20.5 -31t-23.5 -31.5t-32.5 -27t-48 -19.5q-28 0 -55.5 9t-49.5 25.5t-35 39.5t-13 50z" />
    <glyph glyph-name="nonbreakingspace" unicode="&#xa0;" horiz-adv-x="461" 
 />
    <glyph glyph-name="exclamdown" unicode="&#xa1;" horiz-adv-x="184" 
d="M91.7676 554.664q-2.28906 -4.64062 0 -9.66797t8.01172 -8.50781q5.72168 -3.48047 12.5889 -5.41406q6.86621 -1.93359 13.7334 -1.93359q5.72266 0 13.1611 2.32031q7.43945 2.32031 13.7344 5.80078q6.29395 3.48047 10.8721 8.12109t4.57812 9.28125
q0 11.6016 -15.4502 15.4688q-15.4512 3.86719 -28.04 3.86719h-4.57812q-2.28906 -1.54688 -6.86621 -4.25391q-4.57812 -2.70703 -9.15625 -5.80078q-4.57715 -3.09375 -8.58301 -5.80078t-4.00586 -3.48047zM72.3115 -29.2812q0 -16.2422 0.572266 -29.0039
t1.7168 -25.9102t2.86133 -27.0703t5.14941 -34.0312q5.72266 -9.28125 13.7344 -11.9883q8.01074 -2.70703 19.4561 -2.70703q16.0225 0 24.6055 6.1875q8.58398 6.1875 8.58398 21.6562v391.359l-18.3115 116.016q0 0.773438 -2.86133 0.773438h-5.15039
q-12.5889 0 -21.1729 -26.2969q-8.58301 -26.2969 -13.7334 -66.9023t-8.58301 -89.7188q-3.43359 -49.1133 -4.57812 -93.9727t-1.7168 -80.0508t-0.572266 -48.3398z" />
    <glyph glyph-name="cent" unicode="&#xa2;" horiz-adv-x="565" 
d="M32 220q0 31 4 69.5t13.5 78.5t25 76.5t39.5 65.5t56 46t74 17q11 0 24 -2v1q6 78 20 115t25 41t13.5 -20t-12.5 -68q0 -4 0.5 -12t0.5 -17.5t-0.5 -17.5t-0.5 -12l1 -20q19 -6 36 -14q28 -12 47.5 -29.5t19.5 -38.5q0 -12 -8 -14t-20 -2t-32 12q-19 11 -39 24l31 -434
q32 8 63.5 21.5t57 32t42 42.5t19.5 55h2l1 1l1 -1h4l4 -5q3 -2 4 -4v-3q0 -35 -15.5 -64t-41 -51.5t-58.5 -40t-69 -27.5l-11 -4l2 -33v-84q0 -7 -6 -8t-11 -1q-10 0 -16.5 10.5t-9.5 23.5t-4.5 25t-1.5 17q0 6 -1 22v17l-11 -2q-34 -5 -63 -5q-53 0 -90.5 15.5t-61.5 44
t-35.5 69.5t-11.5 92zM306 75q-31 175 -38 298q-4 91 -3 158q-13 6 -22 6q-33 0 -58 -16.5t-43 -44t-29.5 -61.5t-18.5 -69t-9.5 -67t-2.5 -55q0 -40 7.5 -72t25 -55t47 -35.5t72.5 -12.5q23 0 54 3q8 2 17 3q1 14 1 20z" />
    <glyph glyph-name="sterling" unicode="&#xa3;" horiz-adv-x="423" 
d="M303 311q-43 -3 -90 -7.5t-97 -10.5q1 -28 1 -53t1.5 -50.5t6.5 -54.5t17 -65l249 32l-7 -94q-3 -1 -1.5 2t-1.5 6t-14.5 6t-40 2.5t-79 -5t-131.5 -15.5h-3.5h-4.5q-10 0 -17 4.5t-12 12t-8.5 16.5t-3.5 18q-5 34 -7.5 55t-4 35t-1.5 25t0.5 25.5t1 35.5t1.5 56
q-26 -3 -37 -7.5t-19 -9t-18.5 -7.5t-32.5 -3q0 7 -5 15t-10 15t-7.5 11.5t2.5 5.5q19 5 33.5 10.5t29 10.5t30 8.5t34.5 6.5q0 25 0.5 43t0.5 34v33.5t-3 43.5q-8 20 -11.5 43.5t3.5 45t24 38t50 21.5t82 -4t119 -39q24 -4 32 -10t5.5 -13.5t-11.5 -14t-19 -11t-18.5 -5.5
t-8.5 4q0 4 -12 11.5t-31 14.5t-42 10t-45.5 -1.5t-41 -18.5t-28 -41.5t-8.5 -71t19 -106.5q48 5 95.5 6.5t94.5 1.5v-46z" />
    <glyph glyph-name="currency" unicode="&#xa4;" horiz-adv-x="683" 
d="M223 200q1 -6 8 -6h10q36 0 74 18.5t68.5 48.5t50 67t19.5 75q-24 12 -47.5 24t-49.5 9.5t-54 -26.5t-59 -83q-7 -8 -11 -20t-6 -26t-3 -28t-1 -24v-15t1 -14zM69 148v10.5t5 8.5q29 35 55 59.5t54 46.5q1 10 4.5 23.5t7.5 28.5q9 19 18.5 37.5t19.5 34.5
q-40 56 -56.5 95t-18 64t7.5 38.5t18.5 17.5t16.5 -0.5t2 -13.5l8.5 -12t22 -31t29 -42t30.5 -46q22 16 49 25t62 9q25 -4 44.5 -16.5t33.5 -30.5q14 8 36.5 22.5t45 28.5t39.5 25.5t19 13.5h5q6 0 11.5 -4t10.5 -9t8.5 -10.5t3.5 -11.5q0 -3 -0.5 -7.5t-4.5 -6.5l-150 -86
q7 -23 8 -48t-6 -50.5t-21.5 -49.5t-36.5 -46q12 -1 28.5 -12t33 -24.5t30.5 -25t21 -12.5q-6 -37 -10.5 -55.5t-8.5 -23.5t-8.5 0t-12 16.5t-19 26.5t-28.5 29t-40.5 23.5t-54.5 11.5q-29 -13 -63.5 -22t-78.5 -13q-3 0 -12 0.5t-13 0.5q-21 8 -29.5 30t-9.5 43
q-23 -19 -44.5 -39t-41.5 -40q-1 -1 -2 -1h-2q-9 0 -12.5 6t-3.5 14z" />
    <glyph glyph-name="yen" unicode="&#xa5;" horiz-adv-x="427" 
d="M346 277q-22 -1 -35.5 -0.5t-26 1t-27.5 0t-39 -2.5l-2 -65q28 3 47.5 5t37 2.5t35 0t40.5 -0.5v-33l-162 -12l-3 -155q0 -4 -5 -6.5t-12 -3.5t-13 -1.5t-9 -0.5q-6 0 -12 1t-7 7l6 153l-71 -5l-40 5v8q0 1 23 8t54 13q8 2 17 3.5t19 3.5l3 69q-25 -2 -40 -2t-28 0.5
t-27 1.5t-37 1q0 5 5 10t12 8t14 5.5t12 3.5q19 4 28 6.5t16.5 3.5t17.5 2t29 3l1 33l-9 17.5t-22 42.5t-28.5 54.5t-28.5 55t-22 42.5t-9 18q0 9 6.5 15t17.5 6q6 0 14 -3.5t10 -7.5l93 -159l5 -8q10 4 18 19t22 38.5t38 54.5t66 68q15 -27 22 -37t6 -14.5t-10.5 -11
t-27.5 -25.5t-45 -56t-63 -104v-33q22 1 36.5 0.5t26.5 -2t26 -3.5t37 -2v-35z" />
    <glyph glyph-name="brokenbar" unicode="&#xa6;" horiz-adv-x="175" 
d="M73 497l-32 549q-1 17 -7 24t-23 7q0 17 9 34t21 27h2.5h2.5q4 0 9 -4t9 -9t7 -11t4 -10t3.5 -16t5 -25.5t4.5 -25t3 -16.5q1 -14 3 -44t5 -67.5t5.5 -79.5t5 -79t4 -67t2.5 -44q0 -4 0.5 -12t0.5 -17.5t-0.5 -17.5t-0.5 -12v-80zM132 411l25 -427v-84q0 -7 -6 -8t-11 -1
q-10 0 -16.5 10.5t-9.5 23.5t-4.5 25t-1.5 17q0 6 -0.5 21.5t-0.5 33t0.5 32.5t0.5 21l-26 329z" />
    <glyph glyph-name="section" unicode="&#xa7;" horiz-adv-x="602" 
d="M427 416q63 -66 83.5 -105.5t11.5 -61.5t-41.5 -30t-75 -10.5t-90.5 -3t-87 -6.5l-6 -1q-2 -1 -11 -3t-11 -4v-10t1 -10q3 -13 5.5 -26.5t9.5 -27t23.5 -25t50.5 -20t88.5 -12.5t138.5 -2l0.5 -3t0.5 -4q1 -10 -4.5 -17t-14.5 -8q-31 -4 -68.5 -8t-76.5 -3.5t-76 7.5
t-66 25.5t-47 50t-19 80.5q-4 34 12.5 51t44.5 22q-31 18 -56.5 43t-43.5 58q-1 3 -3 6t-3 5l-2 4q-9 23 -2 41.5t23.5 33.5t39.5 26t47 17t45.5 8.5t34.5 -0.5q24 4 40 13.5t39 19.5h3t2 1q2 2 10 7t10 8q-2 2 -4 9.5t-3 9.5q-7 19 -13.5 31t-17.5 20t-28.5 13t-47.5 8
t-76 5.5t-112 5.5q0 1 -1 4t-1 4q-5 8 -2 17t12 12q5 2 9.5 3t9.5 -1q52 0 100 2t89.5 -6.5t75 -32t57.5 -75.5q8 -19 3.5 -35t-16.5 -28.5t-29.5 -22t-34.5 -15.5q8 -4 17.5 -10.5t19 -14.5t18 -16t15.5 -13zM229 437q-15 -4 -30 -7.5t-28 -11.5q-2 0 -6 -2.5t-5 -3.5
q-4 -7 -4 -13q14 -35 30 -54.5t35.5 -31.5t43.5 -20.5t55 -21.5q1 -1 6 -2.5t12 -3t13 -2.5t10 -1q63 -7 87 2t23 26.5t-22 40.5t-47 43.5t-51.5 35.5t-37.5 17z" />
    <glyph glyph-name="dieresis" unicode="&#xa8;" horiz-adv-x="768" 
d="M188 645q0 19 10 30.5t25 18t32 9t31 2.5q38 0 38 -48q0 -36 -14.5 -45t-44.5 -9h-24.5t-25.5 3.5t-19.5 12.5t-7.5 26zM274 657h-7t-10.5 -1t-10.5 -3.5t-6 -7.5h34v12zM436 644q0 19 9 31t22.5 18.5t29.5 9t30 2.5q9 0 20 -0.5t20.5 -4t16 -10t6.5 -19.5
q0 -18 -7.5 -31t-19.5 -21t-27.5 -12t-30.5 -4h-23t-22.5 3.5t-17 12t-6.5 25.5zM514 657h-6.5t-10 -1t-10.5 -3.5t-6 -7.5h33v12z" />
    <glyph glyph-name="copyright" unicode="&#xa9;" horiz-adv-x="700" 
d="M151 300q6 51 24 97t42.5 79t50 50.5t44.5 11.5q6 3 9 5.5t5.5 5t6.5 3.5t11 1q13 0 24.5 -8.5t19.5 -21.5t12.5 -27.5t4.5 -26.5q0 -13 -10 -18.5t-22 -5.5q-9 0 -14.5 4t-10 9t-10 9.5t-12.5 7.5h-2h-3l-4.5 -4.5t-4.5 -5.5q-20 -25 -38 -44.5t-31.5 -39.5t-21.5 -43
t-8 -55v-9t0.5 -12t0.5 -12v-9q2 -10 12 -15.5t18 -9.5q3 0 14.5 -0.5t14.5 -0.5q33 -6 72.5 5t77 28t69.5 33.5t50 21.5t19 -7.5t-25 -54.5q-7 -3 -30.5 -12t-50.5 -18.5t-52.5 -19t-37.5 -14.5q-16 -5 -26.5 -8t-19.5 -4.5t-18.5 -2t-23.5 -0.5q-36 0 -59.5 9t-37.5 26.5
t-20.5 43t-8.5 59.5zM43 281q-9 44 -9 97.5t12 107t38 103t69.5 86t105.5 55.5t147 12q14 0 38 -2.5t46.5 -10t39 -22t16.5 -37.5v-4q0 -3 -3 -8.5t-5 -7.5q-1 -1 -2 -1h-1h-3q-1 0 -2 1q-2 1 -7.5 6t-12.5 10t-13.5 10t-7.5 7h-2q-1 0 -2 1q-1 0 -2.5 -0.5l-1.5 -0.5
q31 -47 63 -90t57.5 -87t42 -92.5t16.5 -104.5q0 -55 -11.5 -110t-38 -99t-69.5 -71.5t-108 -27.5q-40 0 -84 10t-87.5 28.5t-83 44t-69.5 56.5t-48 66.5t-18 74.5zM76 261q18 -46 60.5 -85.5t95.5 -69t109.5 -46t101.5 -17.5q47 3 78.5 26.5t51.5 58.5t28 77t8 82
q0 32 -10.5 74t-31 88t-49 90.5t-64.5 80t-78 57t-89 21.5q-41 -4 -75.5 -33t-60.5 -70.5t-43.5 -92t-27.5 -98t-11 -86t7 -57.5z" />
    <glyph glyph-name="ordfeminine" unicode="&#xaa;" horiz-adv-x="334" 
d="M20.8242 199.999v9v9.59961q-8.36426 35.998 -2.21387 70.7969q6.14941 34.7988 22.1396 62.6973q15.9902 27.8994 40.8369 46.7988q24.8457 18.8984 54.3662 23.0986h8.85645q10.8232 0 17.958 -5.7002q7.13379 -5.69922 11.3154 -14.6992
q4.18262 -8.99902 5.9043 -20.3994q1.72266 -11.3994 1.72266 -22.7988q0 -15.5996 -2.70605 -30.2988t-5.9043 -29.6982q-3.19824 -15 -5.9043 -29.6992t-2.70605 -30.8984v-3.59961q0.492188 -1.2002 1.23047 -6.90039q0.737305 -5.69922 1.22949 -6.89941
q0.984375 0 4.91992 -0.299805q3.93652 -0.299805 4.91992 -0.299805q4.9209 0 9.59473 0.299805t9.59375 2.7002l93.4814 52.7969q0.491211 0 1.72168 0.300781q1.22949 0.299805 1.72168 0.299805q4.91992 0 8.11816 -3.59961q3.19824 -3.60059 3.19824 -9.59961
q0 -3 -0.246094 -5.7002t-2.70605 -5.09961q-3.44434 -3 -12.5459 -8.39941q-9.10254 -5.40039 -19.4346 -12t-19.4336 -12.5996q-9.10254 -5.99902 -13.0381 -7.7998q-6.88867 -4.7998 -15.2529 -8.69922q-8.36328 -3.90039 -17.2197 -7.5t-17.4658 -5.69922
q-8.61035 -2.10059 -15.499 -2.10059q-10.8232 0 -17.7119 4.5q-6.8877 4.5 -10.332 12q-3.44434 7.49902 -4.67383 17.999q-1.23047 10.5 -0.246094 21.8994q-9.83984 -9.59961 -21.1562 -20.3994t-23.6162 -19.7988q-12.2998 -9 -25.0918 -15.5996t-26.0762 -6.59961
q-7.38086 0 -13.2842 4.49902q-5.9043 4.5 -8.36426 14.0996zM47.3926 212.599q11.3154 0 25.0918 8.09961t27.0605 20.0996q13.2842 11.999 24.1084 25.499q10.8242 13.499 16.7275 24.2988q0.492188 17.999 4.18262 34.498q3.68945 16.5 3.68945 33.8994
q0 1.19922 -0.246094 3.59961q-0.245117 2.39941 -0.245117 3.59961q-6.39648 6.59961 -10.8242 7.7998q-4.42871 1.2002 -11.8086 1.2002h-4.18164q-3.19824 0 -4.18262 -0.600586q-2.95215 -3 -9.83984 -11.0996t-14.5137 -17.6992t-14.2686 -17.999
q-6.6416 -8.39941 -9.10156 -11.3994q-0.492188 0 -1.96875 -2.09961q-1.47559 -2.10059 -3.19824 -5.09961q-1.72168 -3 -2.95117 -5.7002q-1.23047 -2.7002 -1.72266 -4.5l-11.8076 -70.1973v-16.1992z" />
    <glyph glyph-name="guillemotleft" unicode="&#xab;" horiz-adv-x="990" 
d="M31 252q-17 15 -4 36.5t49 46t93.5 52.5t130.5 57.5t160.5 60.5t182.5 62q4 -2 8 -3.5t7.5 -4t4.5 -6.5t-2 -10q-2 -2 -5.5 -6t-8 -8t-8.5 -7.5t-5 -4.5q-128 -56 -216.5 -94.5t-146 -63t-89.5 -39t-47.5 -23.5t-20 -15t-6.5 -14q46 -30 107 -56t127 -49.5t131 -46
t120 -45.5q4 -2 14.5 -9t14.5 -10q2 -1 3.5 -4.5t0.5 -5.5q-1 -4 -9.5 -10t-14.5 -8q-74 23 -147 46t-145 50t-142 59t-137 73zM319 247q-17 17 -4 37.5t49 45.5t93.5 52.5t130.5 57.5t160.5 61t182.5 61q4 -1 8 -2.5t7.5 -4t4.5 -7t-2 -10.5q-2 -2 -5.5 -6t-8 -8t-8.5 -7
t-5 -4q-128 -57 -216.5 -95t-146 -63t-89.5 -39.5t-47.5 -23.5t-20 -14.5t-6.5 -13.5q46 -30 107 -56t127 -50t131 -46.5t120 -44.5q4 -2 14.5 -9.5t14.5 -9.5q2 -1 3.5 -4.5t0.5 -5.5q-1 -5 -9.5 -10.5t-14.5 -7.5q-74 22 -147 45t-145 50t-142 59.5t-137 72.5z" />
    <glyph glyph-name="logicalnot" unicode="&#xac;" horiz-adv-x="547" 
d="M74 350q-5 4 -9 15t-4 16q52 10 108 9t107.5 -5.5t95.5 -8t73 3.5q1 1 6 0t8 -1q4 -1 12.5 -3.5t4.5 -9.5q-1 -8 -1 -28t0.5 -47t0.5 -57.5v-58t-0.5 -49t-2.5 -31.5q-22 -7 -30.5 2.5t-10 30t1.5 48.5t6.5 58t3 58t-10.5 48l-13 2q-45 -2 -76 -2.5t-53.5 0t-40 1
t-36 1.5t-41.5 1t-55 -1q-3 1 -9 2t-13 2t-13.5 2.5t-8.5 1.5z" />
    <glyph glyph-name="hyphen_" unicode="&#xad;" horiz-adv-x="607" 
d="M16 356q3 8 14.5 16t18.5 10q47 2 96.5 6t99.5 8t99 7.5t95 3.5q34 0 68.5 -3t65.5 -14l-17 -17l-17 -2t-44.5 -5t-61.5 -7t-69.5 -7.5t-67.5 -6.5t-56 -5q-45 -4 -92 -6t-91 -2q-5 0 -12 1t-14.5 3.5t-12 7.5t-2.5 12z" />
    <glyph glyph-name="registered" unicode="&#xae;" horiz-adv-x="768" 
d="M73 299q-9 44 -9 97.5t12 107t37.5 103t69.5 86t106 55.5t147 12q14 0 38 -2.5t46.5 -10t39 -22t16.5 -37.5v-4q0 -3 -3 -8.5t-5 -7.5q-1 -1 -2 -1h-2h-2q-1 0 -2 1q-2 1 -8 6t-12.5 10l-13 10t-8.5 7h-1q-1 0 -2 1q-1 0 -2.5 -0.5t-2.5 -0.5q32 -47 64 -90t57.5 -87
t41.5 -92.5t16 -104.5q0 -55 -11 -110t-37.5 -99t-70 -71.5t-107.5 -27.5q-40 0 -84 10t-88 28.5t-83 44t-69 56.5t-48 66.5t-18 74.5zM105 279q18 -46 61 -85.5t96 -69t109 -46t101 -17.5q47 3 79 26.5t52 58.5t28 77t8 82q0 32 -11 74t-31 88t-49 90.5t-65 80t-77.5 57
t-88.5 21.5q-43 -4 -76.5 -33t-59.5 -70.5t-43.5 -92t-27.5 -98t-11 -86t6 -57.5zM231 201q7 12 16.5 24.5l19 25t16.5 27t8 31.5q-12 1 -27 4.5t-28.5 9t-23 13.5t-9.5 19q0 12 4.5 19.5t21.5 7.5q11 0 25 -5.5t35 -9.5l36 114q-2 14 1 29.5t15 25.5q-1 0 -4.5 0.5
t-4.5 0.5q-12 0 -20 -2t-15.5 -5l-15 -6t-18.5 -4q-2 0 -5.5 1t-4.5 3q-3 -1 -8 -2t-10.5 -2t-10 -2t-6.5 -1h-4q-13 0 -13 11q0 6 9.5 15t23 18t27 16.5t20.5 11.5q16 3 27.5 6t22.5 3.5l22 1t26 0.5q29 0 59 -10.5t55 -29t41 -43.5t16 -53q0 -24 -12.5 -45.5t-32.5 -39
t-44 -31t-47 -22t-42.5 -12t-29.5 -0.5q14 -22 30 -40t35.5 -30t44 -18.5t56.5 -6.5q21 0 41.5 7t40.5 7q25 0 16 -10.5t-33 -23.5t-52 -23t-41 -10q-26 0 -48 9t-40.5 22.5t-35 31.5t-28.5 37h-4q-1 -7 -5.5 -21.5t-11 -28.5t-16 -24.5t-21.5 -10.5q-5 0 -11 1.5t-12.5 4
t-11 6t-4.5 8.5zM345 348h4q2 0 5 1.5t4 1.5q23 9 47.5 20t45 24.5t33.5 32t13 43.5q0 15 -10.5 27.5t-26 21.5t-34 14t-35.5 5h-9q8 -4 8.5 -9t0.5 -12q0 -1 -0.5 -5t-0.5 -5l-45 -146v-14z" />
    <glyph glyph-name="macron" unicode="&#xaf;" horiz-adv-x="471" 
d="M21 620q2 7 14 15t19 10q47 3 72 4t45.5 0.5t45 -1t70.5 -0.5q34 0 68.5 -2.5t65.5 -14.5l-17 -16q-2 -2 -45.5 -3.5t-113.5 -7.5q-45 -5 -92.5 -6.5t-91.5 -1.5q-4 0 -11.5 1t-14.5 3.5t-11.5 7.5t-2.5 12z" />
    <glyph glyph-name="degree" unicode="&#xb0;" horiz-adv-x="342" 
d="M38 418q0 56 23.5 96.5t71.5 78.5q1 1 5.5 4t10.5 6.5t11.5 6t9.5 2.5q7 0 13 -5.5t6 -11.5v-2q0 -2 -2.5 -5.5t-2.5 -4.5v-3q0 -3 9 -6.5t22 -7.5t24.5 -8.5t16.5 -7.5q23 -20 34 -45.5t11 -51.5q0 -30 -16 -53.5t-41 -39.5t-56.5 -24.5t-62.5 -8.5q-4 0 -18 0.5
t-19 0.5q-18 3 -28 13.5t-15 23.5t-6 27t-1 26zM88 447q9 -18 11.5 -28t4.5 -16.5t8.5 -12t22.5 -12.5q50 0 72 17t22 63q0 23 -1.5 34t-9 17.5t-21 10.5t-38.5 13q-23 -5 -37 -13t-21.5 -19.5t-10 -25t-2.5 -28.5z" />
    <glyph glyph-name="plusminus" unicode="&#xb1;" horiz-adv-x="499" 
d="M91 22q3 8 14.5 16t18.5 10q33 1 49 2t24.5 1t13 -0.5t14.5 -0.5q-1 10 -1 16.5v8.5q-1 11 -2 40.5t-2 62.5t-2.5 62.5t-1.5 41.5l-9 9q-2 0 -11.5 0.5t-14.5 0.5q-42 0 -81.5 -9t-78.5 -9h-5q-2 0 -4.5 3.5t-3.5 4.5l8 9q10 2 35 9t52.5 15t52.5 15t35 10q7 2 12 6
q5 2 9 5t4 5v159q0 15 13 20.5t25 5.5q7 0 14.5 -2.5t5.5 -14.5q0 -6 -0.5 -19t-0.5 -27.5t0.5 -28t0.5 -18.5q0 -9 1 -23t2.5 -27.5t2.5 -23t2 -9.5l182 -25q1 0 4.5 -6t4.5 -10v-4q0 -10 -12 -15.5t-21 -5.5q-34 0 -68.5 9t-68.5 9q-2 0 -10.5 -0.5t-10.5 -0.5l-15 -249
h25q34 0 68 -2.5t66 -14.5l-17 -16q-1 -1 -2.5 -1.5t-10 -1.5t-27.5 -3t-54 -5q-14 -2 -27.5 -2t-26.5 -2l-4 -2l-1 -1h-2q-4 0 -9 2q-59 -3 -114 -3q-4 0 -11.5 1t-14.5 3.5t-11.5 7.5t-2.5 12z" />
    <glyph glyph-name="twosuperior" unicode="&#xb2;" horiz-adv-x="367" 
d="M22.8223 195.458q0 0.449219 0.861328 2.46777t0.861328 2.4668l214.593 216.678q13.7891 13.0098 18.0986 23.5527q4.30859 10.542 4.30859 23.5518q0 6.72949 -0.861328 12.1123q-0.862305 5.38281 -6.89453 11.2148q-2.58594 0 -9.48047 0.224609t-8.61816 0.224609
q-29.3018 0 -54.7256 -5.38379q-25.4238 -5.38281 -47.3994 -14.1309q-21.9766 -8.74805 -41.7979 -19.5146q-19.8223 -10.7666 -38.7822 -21.084q-7.75684 1.3457 -15.082 3.8125q-7.3252 2.46777 -7.3252 7.40234q0 8.52344 11.2031 16.5986
q11.2041 8.0752 28.0098 15.4766q16.8047 7.40234 38.3506 13.458q21.5459 6.05664 41.7979 11.2158q20.2529 5.15918 38.3516 8.52344q18.0977 3.36426 28.4395 5.60742q2.58594 0 6.46387 0.224609q3.87793 0.223633 8.61816 0.223633t8.61816 0.224609t5.60156 0.224609
q13.7891 0 27.1475 -0.672852q13.3574 -0.672852 22.8379 -7.40234q1.72363 -2.24316 3.87793 -7.17773q2.15527 -4.93457 4.74023 -10.0938t3.87793 -10.0938t1.29297 -6.28027q0 -2.69141 -1.29297 -8.29883q-1.29297 -5.6084 -3.87793 -11.4395
q-2.58496 -5.83203 -4.74023 -10.9912q-2.1543 -5.15918 -3.87793 -6.9541l-93.0762 -104.525q-1.72363 -0.897461 -6.89453 -5.15918t-6.89453 -5.60742q-7.75586 -7.17773 -17.667 -17.4951q-9.91113 -10.3184 -21.5459 -21.5332q-11.6348 -11.2158 -22.4072 -21.9824
t-19.3906 -19.5146q-8.61816 -8.74707 -13.7891 -14.3555l-5.1709 -5.60742v-3.58887q31.0254 0 66.3594 1.3457q35.335 1.3457 71.1006 4.26172q35.7646 2.91602 70.2373 8.74805t63.7754 14.8047q0.861328 -0.897461 1.29199 -2.91602l0.430664 -2.01953
q0 -8.52344 -15.0811 -14.5791q-15.082 -6.05664 -35.7656 -10.3184t-41.3672 -6.95312q-20.6836 -2.69238 -31.0254 -4.03809q-10.3418 -0.896484 -35.7656 -3.8125q-25.4229 -2.91602 -53.4326 -5.83203q-28.0088 -2.91602 -53.8633 -5.38379
q-25.8545 -2.4668 -35.334 -3.36426q-1.72461 0 -6.0332 -0.224609q-4.30859 -0.223633 -5.1709 -0.223633q-12.0654 0 -19.3906 3.58887t-7.3252 10.3174z" />
    <glyph glyph-name="threesuperior" unicode="&#xb3;" horiz-adv-x="376" 
d="M16.2266 221.734q4.37402 -2.3125 10.207 -4.91406q5.83203 -2.60156 12.7588 -4.625q6.92578 -2.02344 13.4873 -3.75781t11.665 -1.73438q40.0986 0 74.3652 12.7188q34.2656 12.7188 59.7832 34.1094q25.5166 21.3906 39.7334 49.4297t14.2168 58.1016
q0 6.9375 0.729492 16.1875q0.728516 9.25 -1.09375 17.0547t-7.65527 13.2969q-5.83203 5.49219 -19.6846 5.49219h-2.91602q-5.83301 -1.15625 -15.6748 -3.46875q-9.84277 -2.3125 -19.3203 -4.33594q-9.47852 -2.02344 -17.1338 -4.04688
q-7.6543 -2.02344 -8.38379 -2.60156q-6.56152 -2.3125 -22.2363 -8.96094t-33.1729 -14.1641q-17.4971 -7.51562 -32.4434 -14.4531q-14.9453 -6.9375 -20.7783 -9.82812q-0.728516 0 -0.728516 -0.289062t-0.729492 -0.289062h-1.45801q-8.01953 0 -12.0293 4.91406
t-4.00977 9.53906q0 7.51562 5.10352 10.4062q5.10254 2.89062 13.8516 8.67188q4.375 3.46875 18.9561 12.7188t33.9014 21.3906t40.8271 26.3047q21.5078 14.1641 40.8281 26.3047t33.9014 21.3906t18.9561 12.1406q10.207 6.9375 21.5068 15.3203
q11.3008 8.38281 21.1436 18.2109q9.8418 9.82812 16.0391 20.5234t6.19727 21.6797q-18.9561 0 -33.9014 -4.91406q-14.9463 -4.91406 -29.1631 -11.2734t-29.1621 -11.2734q-14.9463 -4.91406 -33.9014 -4.91406v9.82812q0 8.67188 9.47754 16.1875t24.4238 13.875
q14.9453 6.35938 32.8076 11.5625t34.9951 8.96094t30.9854 5.49219t20.4141 1.73438q8.01953 0 15.6748 -3.17969t7.65527 -11.2734q0 -23.7031 -14.582 -45.0938q-14.5811 -21.3906 -36.0879 -40.4688q-21.5078 -19.0781 -45.5674 -34.9766
q-24.0586 -15.8984 -43.0146 -28.6172v-5.20312q24.7881 -1.15625 40.0986 -7.51562t24.4238 -17.0547t12.0293 -25.1484q2.91699 -14.4531 2.91699 -32.9531q0 -31.2188 -14.9463 -63.3047t-40.8281 -58.3906t-61.9697 -43.0703q-36.0889 -16.7656 -78.375 -16.7656
q-2.1875 0 -10.9355 1.44531q-8.74902 1.44531 -21.1436 3.46875q-12.3936 2.02344 -24.7881 5.20312q-12.3936 3.17969 -21.8721 6.9375q-9.47754 3.75781 -13.123 8.09375t2.1875 8.96094z" />
    <glyph glyph-name="acute" unicode="&#xb4;" horiz-adv-x="423" 
d="M310 716v-5t-1 -8t-1.5 -7.5t-0.5 -4.5q-10 -37 -29.5 -59t-42 -33.5t-44 -14.5t-35 0.5t-15.5 9.5t16 13q19 8 38 27.5t36 42t31.5 43t25.5 30.5t16.5 3.5t5.5 -37.5z" />
    <glyph glyph-name="mu" unicode="&#xb5;" horiz-adv-x="490" 
d="M42 -233q9 8 10.5 43t0.5 87.5t-1 117.5t6.5 134.5t21 138t44.5 128.5q4 6 9.5 10.5t13.5 4.5q10 0 19 -9.5t9 -15.5t-2 -11.5t-3 -8.5q-45 -66 -60 -125t-8 -102.5t32 -66.5t61 -16t79 48t85 125q2 2 5 9.5t4 10.5l7 21t10 31.5t9.5 31.5t5.5 21q3 9 8.5 10t10.5 1
q18 0 22 -7.5t4 -25.5v-17q-9 -29 -16.5 -52t-13 -45.5t-8.5 -45t-3 -49.5q0 -4 1 -22t4 -39.5t22 -54.5l-72 -7q1 29 -1.5 47t-5 30.5t-5 21.5t-2.5 20q-8 -3 -13 -10l-20 -20l-27.5 -27.5l-28 -28t-19.5 -18.5q-16 -16 -38 -18.5t-43.5 3t-39 15.5t-22.5 19q6 -50 7.5 -86
t-0.5 -76t-8.5 -72t-18.5 -48.5t-32 -4.5z" />
    <glyph glyph-name="paragraph" unicode="&#xb6;" horiz-adv-x="493" 
d="M364 6q9 54 10.5 100.5t0 88t-4.5 79.5t-4.5 76.5t0 79t10.5 85.5v17q-38 14 -48.5 -4t-1.5 -56q-3 -33 -3 -64q0 -68 5 -133.5t5 -133.5v-18t-0.5 -28t-0.5 -27.5v-18.5q0 -4 -2 -12t-5 -16t-8.5 -14.5t-13.5 -6.5q-10 0 -19 7t-10 18v23v35.5v34.5v23q-1 12 -2 36.5
t-2.5 56t-3 65.5t-3.5 65t-3.5 56t-2.5 36q-10 -12 -24 -36t-32 -47.5t-38.5 -41t-42.5 -17.5t-41.5 12.5t-33.5 31.5t-22 41t-8 41q0 47 22 81.5t57.5 57t78.5 34t85 11.5q25 0 44 -3.5t38 -8.5t40.5 -13t53.5 -18q7 2 11 -0.5t6 -6.5t2 -9v-8t-0.5 -9t-1.5 -8
q-5 -9 -8 -37.5t-5 -67.5t-4.5 -86.5t-4.5 -96t-3.5 -93.5t-4 -79.5t-4.5 -55.5t-6 -21t-11 -1t-14 -1t-13 1t-9 4z" />
    <glyph glyph-name="periodcentered" unicode="&#xb7;" horiz-adv-x="240" 
d="M34 239q0 19 13.5 31.5t33 19.5t40 10t35.5 3q9 0 19.5 -0.5t20 -3.5t16.5 -9.5t7 -19.5q0 -18 -8 -31t-20 -21.5t-27.5 -12.5t-30.5 -4q-11 0 -28 -0.5t-32.5 2.5t-27 11t-11.5 25zM142 255h-6.5t-9.5 -1t-10 -4t-6 -7h32v12z" />
    <glyph glyph-name="cedilla" unicode="&#xb8;" horiz-adv-x="644" 
d="M229 -391q-9 5 -20.5 11t-21.5 14.5t-17 18.5t-7 23q0 2 3 4.5t5 3.5h3q1 0 1 0.5t1 0.5l4 -1q3 -2 8.5 -8t7.5 -9q23 -7 37.5 -12t27.5 -8t25 -4t28 -1q10 0 30.5 -3.5t46 -6.5t51.5 -4.5t47.5 1.5t35 12t13.5 28q0 2 -0.5 5t-1.5 3l-240 148q-10 7 -24.5 20.5
t-27.5 29.5t-22.5 33.5t-9.5 32.5q-9 57 -4 83.5t16 32t24.5 -5.5t22.5 -29t10.5 -38.5t-11.5 -33.5q0 -35 24.5 -60.5t60.5 -45.5t78 -37.5t78 -36t60.5 -40t24.5 -50.5q0 -44 -21.5 -62.5t-54 -24t-70.5 -3.5t-71 2q-8 0 -29.5 2.5t-45 5t-45 5.5t-30.5 4z" />
    <glyph glyph-name="onesuperior" unicode="&#xb9;" horiz-adv-x="116" 
d="M113.188 589.151q8.3125 -1.08398 14.8438 -2.16699q6.53125 -1.08398 12.4688 -4.87695q-5.9375 -28.1777 -10.6875 -48.7686t-10.0938 -39.0146t-11.2812 -37.6602t-14.25 -44.1621q-2.375 -4.87695 -5.9375 -14.0889l-7.125 -18.4238t-5.9375 -16.5264
q-2.375 -7.31543 -2.375 -8.94141q-3.5625 -7.04395 -11.2812 -25.7383q-7.71875 -18.6953 -16.625 -40.0986q-8.90625 -21.4043 -17.2188 -40.0986t-11.875 -26.2803q-1.1875 -1.62598 -4.75 -5.96094t-8.3125 -8.94043q-4.75 -4.60645 -9.5 -9.21191
q-4.75 -4.60645 -7.125 -5.69043q-2.375 -0.541016 -5.9375 -2.16699t-5.9375 -2.16699l-4.75 0.541016h-2.375q-1.1875 0 -2.375 0.541992q-3.5625 1.08398 -10.0938 2.98047t-6.53125 2.43848l130.625 383.103q2.375 4.87598 13.6562 8.66992
q11.2812 3.79297 20.7812 2.70898z" />
    <glyph glyph-name="ordmasculine" unicode="&#xba;" horiz-adv-x="233" 
d="M18.4111 237.766q0 0.548828 0.462891 3.83789q0.463867 3.29004 0.926758 6.85352q0.462891 3.56445 0.926758 6.5791q0.462891 3.01562 0.462891 4.1123v2.19336v3.29004l6.48438 34.541q7.875 19.7383 16.4434 37.8311q8.56934 18.0938 19.6865 31.8008
q11.1162 13.707 25.707 21.9307q14.5908 8.22461 35.4346 8.22461q4.16895 0 10.4219 -3.01562t12.5059 -7.40234q6.25391 -4.38574 11.5801 -9.0459q5.32715 -4.66016 8.10645 -8.49902q14.3584 2.74219 20.8438 3.01562q6.48438 0.274414 11.1162 0.548828
t9.95898 1.91895t16.4434 7.12695q7.87402 2.74219 15.2852 2.74219q3.24316 0 6.25391 -3.29004t3.01074 -7.67578q0 -5.48242 -3.24316 -9.86914q-3.24219 -4.38574 -7.87402 -5.48242l-57.8994 -15.3525l-5.09473 -2.74121q-0.463867 -29.6064 -11.1172 -56.4727
q-10.6533 -26.8652 -28.2549 -47.1514q-17.6016 -20.2871 -40.7607 -32.0752q-23.1602 -11.7871 -48.1729 -11.7871q-1.85254 0 -6.02148 0.273438q-4.16895 0.274414 -5.55859 0.274414q-10.1904 4.93457 -14.127 18.0928q-3.9375 13.1592 -3.9375 24.6729zM48.0557 226.8
q0.462891 -2.74121 3.70605 -2.74121h4.63184q16.6748 0 34.2764 10.1436q17.6016 10.1426 31.7285 26.3174q14.1279 16.1738 23.1602 36.7344t9.03223 41.3955q-14.8223 0 -29.6445 3.01562q-14.8223 3.01465 -28.7178 3.01465h-0.463867l-38.4453 -48.248
q-3.24219 -3.83789 -5.09473 -10.417q-1.85254 -6.58008 -2.7793 -14.2559t-1.38965 -15.3516t-0.462891 -13.707v-7.67578t0.462891 -8.22461z" />
    <glyph glyph-name="guillemotright" unicode="&#xbb;" horiz-adv-x="881" 
d="M108 68q7 5 28 22t50 43.5t65.5 59.5t76.5 69t81.5 72.5t80.5 70.5q0 1 -0.5 1.5t-0.5 1.5v1q-1 1 -7 5t-9 4q-5 2 -25 9t-43 14.5t-43.5 14.5t-25.5 8q-9 4 -34.5 12.5t-58 20t-67.5 25.5t-64 28.5t-47 28.5t-17 25q1 12 11.5 16.5t20.5 2.5q2 0 6.5 -1t5.5 -1l103 -51
l397 -137q7 -2 7.5 -7t0.5 -9q-64 -32 -114 -76.5t-100.5 -95.5t-109 -104t-138.5 -100zM355 106q8 5 28.5 22t50 43.5t65.5 59.5t76.5 69t81.5 72.5t80 70.5q0 1 -0.5 1.5l-0.5 0.5v1q-1 2 -6.5 6t-8.5 4q-6 2 -25.5 9t-43 15t-43.5 14t-26 8q-9 4 -34 12.5t-57.5 20
t-67.5 25.5t-64.5 28.5t-47.5 28.5t-17 25q1 12 12 16t21 3q1 0 5.5 -0.5t5.5 -1.5l104 -51l397 -137q7 -2 7.5 -7t0.5 -10q-64 -31 -114 -75.5t-101 -95.5t-109.5 -104t-138.5 -100z" />
    <glyph glyph-name="onequarter" unicode="&#xbc;" horiz-adv-x="649" 
d="M113.188 574.484q8.3125 -1.04492 14.8438 -2.08887q6.53125 -1.04492 12.4688 -4.69922q-5.9375 -27.1523 -10.6875 -46.9941t-10.0938 -37.5957q-5.34375 -17.7529 -11.2812 -36.29q-5.9375 -18.5361 -14.25 -42.5557q-2.375 -4.69922 -5.9375 -13.5752
l-7.125 -17.7539t-5.9375 -15.9258t-2.375 -8.61523q-3.5625 -6.78809 -11.2812 -24.8027t-16.625 -38.6396t-17.2188 -38.6396q-8.3125 -18.0137 -11.875 -25.3242q-1.1875 -1.56641 -4.75 -5.74414q-3.5625 -4.17676 -8.3125 -8.61523l-9.5 -8.87695
q-4.75 -4.4375 -7.125 -5.48242q-2.375 -0.521484 -5.9375 -2.08789q-3.5625 -1.56738 -5.9375 -2.08887l-4.75 0.521484h-2.375q-1.1875 0 -2.375 0.522461q-3.5625 1.04492 -10.0938 2.87207t-6.53125 2.34961l130.625 369.164q2.375 4.69922 13.6562 8.35449
t20.7812 2.61133zM3 3q0 18 4 34t14 32l282 474q12 14 21 29t18 31t19.5 30.5t24.5 25.5l74 133q6 8 16 13t19 5q12 0 14 -9t2 -19v-15l-415 -657l-67 -132l-2 -1h-4q-14 0 -17 7t-3 19zM468.562 225.717q-26.0508 0 -50.6543 -3.05566q-24.6035 -3.05469 -49.207 -6.41504
t-49.6895 -6.10938t-51.1367 -2.74902q-9.64844 0 -16.8848 4.27637q-7.23633 4.27734 -7.23633 10.9971v2.44434q0 1.22168 0.964844 2.44336q3.85938 4.8877 10.1309 16.1904q6.27148 11.3037 14.4727 25.3555t16.4023 29.3262t16.4023 29.3262t13.9902 25.3545
t8.68359 16.8018q1.92969 2.44434 4.3418 9.77539t4.82422 15.2744q2.41211 7.94238 4.82422 15.2734q2.41211 7.33203 2.41211 10.3867q3.85938 4.27637 12.0605 7.02637q8.20117 2.74902 16.8848 2.74902h2.89453q1.92969 -0.611328 8.20117 -2.13867t7.23633 -2.74902
q0 -1.83301 0.482422 -6.41504t0.482422 -6.41504q0 -22.6055 -10.6133 -42.7676t-24.1211 -40.0176q-13.5078 -19.8564 -24.6035 -39.7129t-11.0957 -41.2402q39.5586 0 79.1172 5.80469q39.5586 5.80371 78.1523 8.24805l41.4883 218.724q0.964844 6.7207 11.0957 10.998
q10.1309 4.27637 19.7793 4.27637t16.8848 -3.36035t7.23633 -9.46973v-2.44434q-8.68359 -48.877 -20.7441 -94.6992q-12.0605 -45.8213 -12.0605 -92.8652q0 -10.998 4.3418 -19.8564q4.3418 -8.85938 4.3418 -18.6348v-3.05469q-0.964844 -1.83301 -6.75391 -9.77539
t-8.68359 -10.3867q-4.82422 -61.707 -5.30664 -124.33q-0.482422 -62.624 -10.1309 -124.331q-0.964844 -1.83301 -7.23633 -5.49902q-6.27148 -3.66504 -9.16602 -4.27637q-4.82422 -1.22168 -10.1309 1.22168q-5.30664 2.44434 -10.6133 5.80469t-8.68359 7.33105
q-3.37695 3.97168 -3.37695 5.80469v231.555z" />
    <glyph glyph-name="onehalf" unicode="&#xbd;" horiz-adv-x="635" 
d="M99.25 645.811q8.75 -1.27148 15.625 -2.54199t13.125 -5.71973q-6.25 -33.0459 -11.25 -57.1943q-5 -24.1494 -10.625 -45.7559q-5.625 -21.6074 -11.875 -44.167q-6.25 -22.5605 -15 -51.793q-2.5 -5.71973 -6.25 -16.5234l-7.5 -21.6074
q-3.75 -10.8027 -6.25 -19.3818t-2.5 -10.4863q-3.75 -8.26074 -11.875 -30.1855t-17.5 -47.0273t-18.125 -47.0264q-8.75 -21.9248 -12.5 -30.8223q-1.25 -1.90625 -5 -6.99023t-8.75 -10.4854q-5 -5.40234 -10 -10.8037q-5 -5.40234 -7.5 -6.67285
q-2.5 -0.635742 -6.25 -2.54199t-6.25 -2.54199l-5 0.635742h-2.5q-1.25 0 -2.5 0.634766q-3.75 1.27148 -10.625 3.49609q-6.875 2.22363 -6.875 2.85938l137.5 449.297q2.5 5.71973 14.375 10.168q11.875 4.44922 21.875 3.17773zM11 13q0 18 4 34t14 32l282 474
q12 14 21 29t18 31t19.5 30.5t24.5 25.5l74 133q6 8 16 13t19 5q12 0 14 -9t2 -19v-15l-415 -657l-67 -132l-2 -1h-4q-14 0 -17 7t-3 19zM218.452 22.5645q0 0.518555 0.758789 2.85254q0.758789 2.33496 0.758789 2.85352l188.938 250.58q12.1406 15.0449 15.9346 27.2373
q3.79395 12.1914 3.79395 27.2363q0 7.78223 -0.758789 14.0078t-6.07031 12.9697q-2.27637 0 -8.34668 0.259766q-6.07031 0.258789 -7.58789 0.258789q-25.7988 0 -48.1836 -6.22461q-22.3838 -6.22656 -41.7324 -16.3428q-19.3496 -10.1162 -36.8018 -22.5674
t-34.1455 -24.3838q-6.8291 1.55664 -13.2793 4.41016q-6.44922 2.85254 -6.44922 8.55957q0 9.85742 9.86426 19.1953q9.86426 9.33887 24.6611 17.8994q14.7959 8.55957 33.7656 15.5635t36.8008 12.9697q17.832 5.9668 33.7666 9.85742q15.9346 3.8916 25.04 6.48535
q2.27637 0 5.69141 0.258789q3.41406 0.259766 7.58789 0.259766q4.17285 0 7.58789 0.259766q3.41406 0.258789 4.93164 0.258789q12.1406 0 23.9023 -0.77832q11.7607 -0.77832 20.1074 -8.55957q1.51758 -2.59375 3.41406 -8.30078q1.89746 -5.70703 4.17383 -11.6729
q2.27637 -5.9668 3.41406 -11.6729q1.13867 -5.70703 1.13867 -7.26367q0 -3.11328 -1.13867 -9.59766q-1.1377 -6.48535 -3.41406 -13.2295t-4.17383 -12.7109q-1.89648 -5.96582 -3.41406 -8.04102l-81.9492 -120.88q-1.51758 -1.03809 -6.07031 -5.9668
q-4.55273 -4.92773 -6.07031 -6.48438q-6.8291 -8.30078 -15.5547 -20.2334q-8.72656 -11.9326 -18.9707 -24.9023q-10.2432 -12.9697 -19.7285 -25.4209q-9.48438 -12.4512 -17.0723 -22.5684q-7.58789 -10.1162 -12.1406 -16.6016l-4.55273 -6.48438v-4.15039
q27.3164 0 58.4268 1.55664q31.1104 1.55566 62.6006 4.92773q31.4893 3.37305 61.8408 10.1172t56.1504 17.1201q0.758789 -1.03809 1.1377 -3.37207l0.379883 -2.33496q0 -9.85645 -13.2783 -16.8604q-13.2793 -7.00391 -31.4902 -11.9326t-36.4219 -8.04199
q-18.2109 -3.1123 -27.3164 -4.66895q-9.10547 -1.03711 -31.4902 -4.40918q-22.3838 -3.37305 -47.0449 -6.74512q-24.6602 -3.37207 -47.4238 -6.22559t-31.1104 -3.89062q-1.51758 0 -5.31152 -0.259766q-3.79395 -0.258789 -4.55273 -0.258789
q-10.623 0 -17.0723 4.15039q-6.4502 4.15039 -6.4502 11.9326z" />
    <glyph glyph-name="threequarters" unicode="&#xbe;" horiz-adv-x="917" 
d="M18.0459 222.261q4.81055 -2.16504 11.2246 -4.60059q6.41504 -2.43555 14.0322 -4.33008q7.61719 -1.89355 14.834 -3.51758q7.21582 -1.62305 12.8291 -1.62305q44.0996 0 81.7852 11.9062t65.749 31.9307t43.6992 46.2725t15.6357 54.3906q0 6.49414 0.801758 15.1533
t-1.20312 15.9658q-2.00391 7.30566 -8.41895 12.4473q-6.41406 5.1416 -21.6494 5.1416h-3.20703q-6.41406 -1.08301 -17.2393 -3.24707q-10.8242 -2.16504 -21.248 -4.05957t-18.8428 -3.78809q-8.41895 -1.89453 -9.2207 -2.43555q-7.2168 -2.16504 -24.4551 -8.38867
q-17.2393 -6.22363 -36.4834 -13.2598q-19.2432 -7.03516 -35.6807 -13.5293t-22.8516 -9.2002q-0.801758 0 -0.801758 -0.271484q0 -0.270508 -0.801758 -0.270508h-1.60449q-8.81934 0 -13.2295 4.60059t-4.41016 8.92969q0 7.03613 5.61328 9.74121
q5.6123 2.70605 15.2344 8.11816q4.81055 3.24707 20.8467 11.9062q16.0371 8.65918 37.2852 20.0244t44.9014 24.625q23.6543 13.2588 44.9023 24.624t37.2842 20.0244t20.8477 11.3652q11.2256 6.49414 23.6533 14.3418q12.4287 7.84766 23.2529 17.0479t17.6396 19.2129
q6.81543 10.0117 6.81543 20.2949q-20.8467 0 -37.2842 -4.60059q-16.4375 -4.59961 -32.0732 -10.5527q-15.6348 -5.95312 -32.0723 -10.5537t-37.2842 -4.60059v9.20117q0 8.11719 10.4229 15.1533q10.4238 7.03516 26.8613 12.9883t36.082 10.8242t38.4873 8.38867
t34.0771 5.1416q15.2344 1.62305 22.4512 1.62305q8.81934 0 17.2383 -2.97656q8.41992 -2.97656 8.41992 -10.5527q0 -22.1895 -16.0371 -42.2139q-16.0361 -20.0244 -39.6895 -37.8838q-23.6543 -17.8594 -50.1143 -32.7432q-26.46 -14.8828 -47.3066 -26.7891v-4.87012
q27.2617 -1.08301 44.0996 -7.03613t26.8613 -15.9648q10.0225 -10.0127 13.2295 -23.543q3.20801 -13.5293 3.20801 -30.8477q0 -29.2246 -16.4375 -59.2617q-16.4375 -30.0361 -44.9023 -54.6611q-28.4648 -24.624 -68.1543 -40.3193q-39.6904 -15.6943 -86.1953 -15.6943
q-2.40625 0 -12.0273 1.35254q-9.62207 1.35352 -23.2529 3.24707q-13.6309 1.89453 -27.2617 4.87109t-24.0547 6.49414q-10.4238 3.51855 -14.4326 7.57715q-4.00977 4.05859 2.40527 8.38867zM174 22q0 18 4 34t14 32l282 474q12 14 21 29t18 31t19.5 30.5t24.5 25.5
l74 133q6 8 16 13t19 5q12 0 14 -9t2 -19v-15l-415 -657l-67 -132l-2 -1h-4q-14 0 -17 7t-3 19zM747.757 269.01q-29.335 0 -57.041 -3.30176q-27.7051 -3.30078 -55.4102 -6.93164q-27.7061 -3.63184 -55.9541 -6.60254q-28.249 -2.9707 -57.584 -2.9707
q-10.8652 0 -19.0137 4.62109q-8.14844 4.62207 -8.14844 11.8838v2.6416q0 1.32031 1.08594 2.64062q4.34668 5.28125 11.4082 17.4961q7.0625 12.2139 16.2979 27.3984q9.23535 15.1855 18.4697 31.6904q9.23535 16.5059 18.4707 31.6904q9.23535 15.1855 15.7539 27.3994
q6.51953 12.2139 9.77832 18.1553q2.17285 2.6416 4.88965 10.5645q2.71582 7.92188 5.43262 16.5049q2.71582 8.58301 5.43164 16.5059q2.7168 7.92188 2.7168 11.2236q4.3457 4.62109 13.5811 7.5918q9.23535 2.97168 19.0137 2.97168h3.25879
q2.17285 -0.660156 9.23535 -2.31152q7.0625 -1.65039 8.14844 -2.9707q0 -1.98047 0.543945 -6.93164q0.542969 -4.95215 0.542969 -6.93262q0 -24.4277 -11.9512 -46.2158q-11.9521 -21.7871 -27.1621 -43.2441q-15.2109 -21.457 -27.7061 -42.9141
q-12.4941 -21.457 -12.4941 -44.5645q44.5459 0 89.0918 6.27246q44.5459 6.27148 88.0059 8.91309l46.7188 236.357q1.08594 7.2627 12.4941 11.8838q11.4082 4.62207 22.2734 4.62207q10.8643 0 19.0137 -3.63184q8.14844 -3.63086 8.14844 -10.2334v-2.64062
q-9.77832 -52.8174 -23.3594 -102.334q-13.5811 -49.5156 -13.5811 -100.353q0 -11.8838 4.88867 -21.457q4.88965 -9.57324 4.88965 -20.1367v-3.30176q-1.08691 -1.98047 -7.60547 -10.5625q-6.51953 -8.58301 -9.77832 -11.2246q-5.43262 -66.6816 -5.97559 -134.354
q-0.543945 -67.6729 -11.4082 -134.354q-1.08691 -1.98047 -8.14941 -5.94238q-7.06152 -3.96094 -10.3213 -4.62109q-5.43262 -1.32031 -11.4082 1.32031t-11.9512 6.27246q-5.97559 3.63086 -9.77832 7.92188q-3.80273 4.29199 -3.80273 6.27246v250.223z" />
    <glyph glyph-name="questiondown" unicode="&#xbf;" horiz-adv-x="515" 
d="M107.281 960.974q0 -33.7129 21.9727 -47.8506t50.2236 -14.1377q4.18555 0 16.7412 1.08691q12.5557 1.08789 17.7871 2.17578q5.23242 1.08691 7.84766 7.06836q2.61621 5.98145 2.61621 12.5068q0 6.52441 -0.523438 12.5059t-0.523438 7.06934
q0 13.0508 -4.70801 25.5566q-4.70898 12.5068 -13.0791 22.2949q-8.37012 9.78711 -19.8799 15.7686t-24.0654 5.98145q-54.4092 0 -54.4092 -50.0264zM22.5283 496.601q0 -4.34961 1.04688 -12.5059q1.0459 -8.15723 3.66211 -15.7695t7.84766 -13.0498t13.6016 -4.35059
q37.668 29.3633 76.9053 37.5195t84.2295 8.15625q55.4551 0 97.8311 -22.8379t71.6738 -59.8135q29.2969 -36.9756 44.9912 -86.458q15.6953 -49.4824 15.6953 -102.771v-11.9629t-0.523438 -19.0312q-0.522461 -10.332 -0.522461 -19.5752v-11.4199
q-4.18555 -11.9619 -10.9873 -23.3809q-6.80078 -11.4199 -14.125 -22.2949h-8.37012q-5.23242 0 -11.5098 -0.543945q-6.27832 -0.542969 -11.5098 -0.542969h-7.32422q-44.9922 0 -92.0771 13.5938q-47.084 13.5938 -91.5527 36.9756q-44.4697 23.3818 -83.7061 54.9199
q-39.2373 31.5381 -68.5352 67.4268q-3.13867 -1.08789 -9.41602 -4.35059q-6.27832 -3.26172 -12.5566 -8.69922q-6.27734 -5.43848 -10.4629 -11.4199q-4.18555 -5.98047 -2.09277 -11.4189q4.18555 -21.75 28.7744 -44.5879q24.5879 -22.8379 59.6396 -44.0449
q35.0527 -21.207 78.4746 -39.6943q43.4229 -18.4883 85.7988 -32.626t80.0439 -22.2939q37.668 -8.15723 62.7793 -8.15723q5.23242 0 19.8809 0.543945t18.834 0.543945q14.6484 8.7002 25.6348 23.9258t18.834 33.7129q7.84668 18.4883 12.5557 37.5195
q4.70801 19.0322 4.70801 36.4326q0 48.9385 -13.0791 108.752q-13.0791 59.8145 -40.8066 113.103q-27.7275 53.2891 -70.627 89.7207q-42.8994 36.4326 -101.493 36.4326h-165.319q4.18457 7.6123 12.0322 27.7314t16.2188 42.957q8.37012 22.8379 15.1709 43.501
q6.80176 20.6631 8.89453 29.3633v4.89355v11.4189v13.5947v10.3311q0 6.52539 0.522461 15.7695q0.523438 9.24414 0.523438 19.0312q0 9.78809 -2.09277 19.0322q-2.09277 9.24316 -8.37012 14.6816q0 1.08691 -1.04688 1.08691h-2.09277q-1.0459 0 -2.61523 -0.543945
q-1.56934 -0.542969 -2.61621 -0.542969q-6.27734 -10.876 -17.7871 -36.4326t-25.6348 -58.7266q-14.126 -33.1689 -27.7285 -68.5137q-13.6016 -35.3447 -24.5879 -64.708q-10.9863 -29.3623 -18.3105 -48.9385q-7.3252 -19.5752 -7.3252 -20.6631z" />
    <glyph glyph-name="Agrave" unicode="&#xc0;" horiz-adv-x="719" 
d="M20 212q0 42 3 78t10 70.5t16.5 70t23.5 76.5q9 28 28.5 68t47 75.5t62 60.5t72.5 25h83q1 0 6.5 -1.5t8.5 -2.5q39 -19 61 -46.5t30 -70.5q9 -41 19.5 -78.5t10.5 -78.5q0 -49 -2.5 -97t-2.5 -97v-10.5t0.5 -16.5t0.5 -17v-10q1 -8 2 -23t4 -33t6 -37t7.5 -34.5
t10.5 -25.5t14 -10q27 0 56.5 7t53.5 22q2 2 9.5 7.5t16 12t16 12t11.5 8.5q7 5 11.5 7.5t11.5 2.5q6 0 11 -3.5t5 -10.5q0 -23 -25.5 -43t-59.5 -36t-68.5 -25.5t-51.5 -9.5q-22 0 -37.5 22.5t-27 53t-20 63t-16.5 53.5q-14 -40 -41.5 -74.5t-62.5 -60.5t-76 -41t-83 -15
q-46 0 -76.5 18.5t-48 48t-24 68t-6.5 78.5zM82 220q0 -30 1.5 -60.5t11 -55.5t30 -40.5t58.5 -15.5q50 0 89 22.5t68 59t49 84t32 97t17.5 96.5t5.5 84q-26 0 -26 24q0 15 6 26.5t6 29.5q0 22 -7.5 43t-22 38t-34 26.5t-42.5 9.5q-47 0 -82.5 -25.5t-62.5 -66.5
t-45.5 -92.5t-30 -104t-16.5 -100t-5 -79.5zM233 1016q0 27 7 32.5t19 -3t28 -27.5t35.5 -39t40.5 -37.5t44 -24.5q20 -7 17.5 -12.5t-17.5 -8t-39 0t-49.5 12.5t-47.5 30.5t-32 53.5l-1 3t-2 7l-2 8t-1 5z" />
    <glyph glyph-name="Aacute" unicode="&#xc1;" horiz-adv-x="719" 
d="M20 212q0 42 3 78t10 70.5t16.5 70t23.5 76.5q9 28 28.5 68t47 75.5t62 60.5t72.5 25h83q1 0 6.5 -1.5t8.5 -2.5q39 -19 61 -46.5t30 -70.5q9 -41 19.5 -78.5t10.5 -78.5q0 -49 -2.5 -97t-2.5 -97v-10.5t0.5 -16.5t0.5 -17v-10q1 -8 2 -23t4 -33t6 -37t7.5 -34.5
t10.5 -25.5t14 -10q27 0 56.5 7t53.5 22q2 2 9.5 7.5t16 12t16 12t11.5 8.5q7 5 11.5 7.5t11.5 2.5q6 0 11 -3.5t5 -10.5q0 -23 -25.5 -43t-59.5 -36t-68.5 -25.5t-51.5 -9.5q-22 0 -37.5 22.5t-27 53t-20 63t-16.5 53.5q-14 -40 -41.5 -74.5t-62.5 -60.5t-76 -41t-83 -15
q-46 0 -76.5 18.5t-48 48t-24 68t-6.5 78.5zM82 220q0 -30 1.5 -60.5t11 -55.5t30 -40.5t58.5 -15.5q50 0 89 22.5t68 59t49 84t32 97t17.5 96.5t5.5 84q-26 0 -26 24q0 15 6 26.5t6 29.5q0 22 -7.5 43t-22 38t-34 26.5t-42.5 9.5q-47 0 -82.5 -25.5t-62.5 -66.5
t-45.5 -92.5t-30 -104t-16.5 -100t-5 -79.5zM470 1017v-5t-1 -8t-1.5 -7.5t-0.5 -4.5q-10 -37 -29.5 -59t-42 -33.5t-44 -14.5t-35 0.5t-15.5 9.5t16 13q19 8 38 27.5t36 42t31.5 43t25.5 30.5t16.5 3.5t5.5 -37.5z" />
    <glyph glyph-name="Acircumflex" unicode="&#xc2;" horiz-adv-x="719" 
d="M20 212q0 42 3 78t10 70.5t16.5 70t23.5 76.5q9 28 28.5 68t47 75.5t62 60.5t72.5 25h83q1 0 6.5 -1.5t8.5 -2.5q39 -19 61 -46.5t30 -70.5q9 -41 19.5 -78.5t10.5 -78.5q0 -49 -2.5 -97t-2.5 -97v-10.5t0.5 -16.5t0.5 -17v-10q1 -8 2 -23t4 -33t6 -37t7.5 -34.5
t10.5 -25.5t14 -10q27 0 56.5 7t53.5 22q2 2 9.5 7.5t16 12t16 12t11.5 8.5q7 5 11.5 7.5t11.5 2.5q6 0 11 -3.5t5 -10.5q0 -23 -25.5 -43t-59.5 -36t-68.5 -25.5t-51.5 -9.5q-22 0 -37.5 22.5t-27 53t-20 63t-16.5 53.5q-14 -40 -41.5 -74.5t-62.5 -60.5t-76 -41t-83 -15
q-46 0 -76.5 18.5t-48 48t-24 68t-6.5 78.5zM82 220q0 -30 1.5 -60.5t11 -55.5t30 -40.5t58.5 -15.5q50 0 89 22.5t68 59t49 84t32 97t17.5 96.5t5.5 84q-26 0 -26 24q0 15 6 26.5t6 29.5q0 22 -7.5 43t-22 38t-34 26.5t-42.5 9.5q-47 0 -82.5 -25.5t-62.5 -66.5
t-45.5 -92.5t-30 -104t-16.5 -100t-5 -79.5zM299 971q-14 0 -26.5 -12t-22 -30t-18 -38t-15.5 -38t-13 -30t-11 -12q-13 0 -21.5 8.5t-8.5 22.5q0 1 -2 5t-2.5 9.5t2.5 11.5t14 11l107 175l4.5 4.5l7.5 7.5l7.5 7.5l5.5 5.5h5h3q3 -2 7 -6t8 -7.5t7 -7t3 -4.5l102 -235v-3
v-5q-1 -1 -4.5 -4t-5.5 -4q-13 11 -21.5 16.5t-15.5 10t-12.5 11.5t-11.5 23l-56 98q-2 7 -6.5 8t-9.5 1z" />
    <glyph glyph-name="Atilde" unicode="&#xc3;" horiz-adv-x="719" 
d="M20 212q0 42 3 78t10 70.5t16.5 70t23.5 76.5q9 28 28.5 68t47 75.5t62 60.5t72.5 25h83q1 0 6.5 -1.5t8.5 -2.5q39 -19 61 -46.5t30 -70.5q9 -41 19.5 -78.5t10.5 -78.5q0 -49 -2.5 -97t-2.5 -97v-10.5t0.5 -16.5t0.5 -17v-10q1 -8 2 -23t4 -33t6 -37t7.5 -34.5
t10.5 -25.5t14 -10q27 0 56.5 7t53.5 22q2 2 9.5 7.5t16 12t16 12t11.5 8.5q7 5 11.5 7.5t11.5 2.5q6 0 11 -3.5t5 -10.5q0 -23 -25.5 -43t-59.5 -36t-68.5 -25.5t-51.5 -9.5q-22 0 -37.5 22.5t-27 53t-20 63t-16.5 53.5q-14 -40 -41.5 -74.5t-62.5 -60.5t-76 -41t-83 -15
q-46 0 -76.5 18.5t-48 48t-24 68t-6.5 78.5zM82 220q0 -30 1.5 -60.5t11 -55.5t30 -40.5t58.5 -15.5q50 0 89 22.5t68 59t49 84t32 97t17.5 96.5t5.5 84q-26 0 -26 24q0 15 6 26.5t6 29.5q0 22 -7.5 43t-22 38t-34 26.5t-42.5 9.5q-47 0 -82.5 -25.5t-62.5 -66.5
t-45.5 -92.5t-30 -104t-16.5 -100t-5 -79.5zM138 1007q0 4 1 13.5t2.5 19t5 16.5t7.5 7l3 -1q1 -1 3 -3.5t4 -3.5q2 -21 8.5 -49t19 -53.5t29 -42.5t39.5 -17q24 0 44.5 13t39.5 33t36.5 43t34 42.5t34 32.5t35.5 13q11 0 28 -5.5t31.5 -16.5t25 -26t10.5 -32q0 -1 -0.5 -1
t-0.5 -1v-2q-2 -2 -9 -11.5t-9 -12.5q-8 12 -15.5 23t-15.5 20t-17 14.5t-21 5.5q-7 0 -11 -0.5t-7 -3.5t-7 -7.5t-12 -12.5q-5 -6 -18.5 -21t-28 -32t-27.5 -32.5t-19 -21.5q-21 -15 -45.5 -26.5t-49.5 -11.5q-22 0 -44.5 14t-41.5 36t-30.5 48.5t-11.5 52.5z" />
    <glyph glyph-name="Adieresis" unicode="&#xc4;" horiz-adv-x="719" 
d="M20 212q0 42 3 78t10 70.5t16.5 70t23.5 76.5q9 28 28.5 68t47 75.5t62 60.5t72.5 25h83q1 0 6.5 -1.5t8.5 -2.5q39 -19 61 -46.5t30 -70.5q9 -41 19.5 -78.5t10.5 -78.5q0 -49 -2.5 -97t-2.5 -97v-10.5t0.5 -16.5t0.5 -17v-10q1 -8 2 -23t4 -33t6 -37t7.5 -34.5
t10.5 -25.5t14 -10q27 0 56.5 7t53.5 22q2 2 9.5 7.5t16 12t16 12t11.5 8.5q7 5 11.5 7.5t11.5 2.5q6 0 11 -3.5t5 -10.5q0 -23 -25.5 -43t-59.5 -36t-68.5 -25.5t-51.5 -9.5q-22 0 -37.5 22.5t-27 53t-20 63t-16.5 53.5q-14 -40 -41.5 -74.5t-62.5 -60.5t-76 -41t-83 -15
q-46 0 -76.5 18.5t-48 48t-24 68t-6.5 78.5zM82 220q0 -30 1.5 -60.5t11 -55.5t30 -40.5t58.5 -15.5q50 0 89 22.5t68 59t49 84t32 97t17.5 96.5t5.5 84q-26 0 -26 24q0 15 6 26.5t6 29.5q0 22 -7.5 43t-22 38t-34 26.5t-42.5 9.5q-47 0 -82.5 -25.5t-62.5 -66.5
t-45.5 -92.5t-30 -104t-16.5 -100t-5 -79.5zM160 946q0 19 10 30.5t25 18t32 9t31 2.5q38 0 38 -48q0 -36 -14.5 -45t-44.5 -9h-24.5t-25.5 3.5t-19.5 12.5t-7.5 26zM246 958h-7t-10.5 -1t-10.5 -3.5t-6 -7.5h34v12zM408 945q0 19 9 31t22.5 18.5t29.5 9t30 2.5q9 0 20 -0.5
t20.5 -4t16 -10t6.5 -19.5q0 -18 -7.5 -31t-19.5 -21t-27.5 -12t-30.5 -4h-23t-22.5 3.5t-17 12t-6.5 25.5zM486 958h-6.5t-10 -1t-10.5 -3.5t-6 -7.5h33v12z" />
    <glyph glyph-name="Aring" unicode="&#xc5;" horiz-adv-x="719" 
d="M190 806q0 56 23.5 96.5t71.5 78.5q1 1 5.5 4t10.5 6t11.5 6t9.5 3q7 0 13 -5.5t6 -11.5v-2q0 -2 -2 -5.5t-3 -4.5v-3q0 -3 9.5 -6.5t22 -8t24 -8.5t16.5 -7q23 -20 34.5 -45.5t11.5 -51.5q0 -30 -16.5 -53.5t-41.5 -39.5l-24 -14h1l8 -2q39 -19 61 -46.5t30 -70.5
q9 -41 19.5 -78.5t10.5 -78.5q0 -49 -2.5 -97t-2.5 -97v-11q0 -7 0.5 -16t0.5 -17v-10q1 -8 2 -23t4 -33t6 -37t7.5 -34.5t10.5 -25.5t14 -10q27 0 56.5 7t53.5 22q2 2 9.5 7.5t16 12t16 12t11.5 8.5q7 5 11.5 7.5t11.5 2.5q6 0 11 -3.5t5 -10.5q0 -23 -25.5 -43t-59.5 -36
t-68.5 -25.5t-51.5 -9.5q-22 0 -37.5 22.5t-27 53t-20 63t-16.5 53.5q-14 -40 -41.5 -74.5t-62.5 -60.5t-76 -41t-83 -15q-46 0 -76.5 18.5t-48 48t-24 68t-6.5 78.5q0 42 3 78t10 70.5t16.5 70t23.5 76.5q9 28 28.5 68t47 75.5t62.5 60.5q7 5 13 9q-7 4 -12 9
q-10 11 -14.5 24t-6 27t-1.5 26zM82 220q0 -30 1.5 -60.5t11 -55.5t30 -40.5t58.5 -15.5q50 0 89 22.5t68 59t49 84t32 97t17.5 96.5t5.5 84q-26 0 -26 24q0 15 6 26.5t6 29.5q0 22 -7.5 43t-22 38t-34 26.5t-42.5 9.5q-47 0 -82.5 -25.5t-62.5 -66.5t-45.5 -92.5t-30 -104
t-16.5 -100t-5 -79.5zM240 835q9 -18 11.5 -28t4.5 -16.5t8.5 -12t22.5 -12.5q50 0 72.5 17t22.5 63q0 22 -2 33.5t-9 18t-21 10.5t-39 13q-23 -5 -37 -13t-21.5 -19.5t-10 -25t-2.5 -28.5z" />
    <glyph glyph-name="AE" unicode="&#xc6;" horiz-adv-x="928" 
d="M20 212q0 42 3 78t10 70.5t16.5 70t23.5 76.5q9 28 28.5 68t47 75.5t62 60.5t72.5 25q31 0 50 -0.5t29 -1.5t13.5 -1.5t5.5 -0.5q36 -18 57 -42.5t31 -60.5q9 34 34.5 59t59 41t70.5 23.5t68 7.5q18 0 38 -2t36 -9.5t27 -21t11 -36.5q0 -14 -8.5 -22t-22.5 -8
q-12 0 -16 7t-9.5 15.5t-17 15.5t-37.5 7t-58 -4.5t-60 -16.5t-47 -34.5t-19 -58.5q0 -29 18.5 -42.5t45.5 -18.5t57.5 -4t55 0t37.5 -6t6 -22l-20 -45q-92 -93 -134.5 -163.5t-50.5 -117.5t12 -71t53 -24q15 0 40 7.5t55.5 19t63 26.5t62 30t53 29t34.5 25h5q8 0 14 -4.5
t6 -12.5q0 -5 -5 -12.5t-11.5 -13.5t-12 -10.5l-5.5 -4.5q-63 -52 -116 -80.5t-96 -40t-77 -8.5t-58.5 12.5t-40.5 24t-24 27.5q-1 1 -4 -13t-7 -29t-9.5 -24t-10.5 1.5t-9 47.5t-7 115q-14 -40 -41.5 -74.5t-62.5 -60.5t-76 -41t-83 -15q-46 0 -76.5 18.5t-48 48t-24 68
t-6.5 78.5zM82 220q0 -30 1.5 -60.5t11 -55.5t30 -40.5t58.5 -15.5q50 0 89 22.5t68 59t49 84t32 97t17.5 96.5t5.5 84q-26 0 -26 24q0 15 6 26.5t6 29.5q0 22 -7.5 43t-22 38t-34 26.5t-42.5 9.5q-47 0 -82.5 -25.5t-62.5 -66.5t-45.5 -92.5t-30 -104t-16.5 -100t-5 -79.5z
M635 471q-17 0 -36 2.5t-37.5 8t-36 14.5t-30.5 22q7 -31 7 -60q0 -49 -2.5 -94t-2.5 -94q11 21 22.5 42.5t15.5 28.5q9 17 20 36t23.5 36.5t26.5 32.5t30 25z" />
    <glyph glyph-name="Ccedilla" unicode="&#xc7;" horiz-adv-x="616" 
d="M159 -391q-9 5 -20.5 11t-21.5 14.5t-17 18.5t-7 23q0 2 3 4.5t5 3.5h2l3 1l4 -1l8 -8t8 -9q22 -7 37 -12t27.5 -8t25 -4t28.5 -1q10 0 30.5 -3.5t46 -6.5t51.5 -4.5t47.5 1.5t35 12t13.5 28q0 2 -0.5 5t-1.5 3l-240 148q-10 7 -24.5 20.5t-27.5 29.5t-22.5 33.5
t-9.5 32.5q-9 57 -4 83q2 14 6 22q-11 9 -20 20q-28 30 -46.5 69.5t-29.5 84t-15.5 89t-4.5 83.5q-10 54 3.5 113.5t43.5 118.5t74 113.5t94.5 98.5t106 74t108.5 41q16 0 28.5 -10t21.5 -25t13.5 -32t4.5 -31v-97q0 -10 -8 -12.5t-14 -2.5q-7 0 -17 2t-10 13q0 4 -1 13
t-2 20t-1.5 21t-0.5 13q0 2 -0.5 13.5t-2.5 23.5t-6 22t-10 10h-35l-9 -5l-21 -10q-12 -6 -24 -12.5t-18 -11.5q-3 -2 -9.5 -7t-13.5 -10t-13 -10t-9 -7q-54 -52 -94 -96.5t-67 -92.5t-40.5 -103.5t-13.5 -131.5q0 -30 3.5 -66.5t11 -74.5t21.5 -74.5t35 -64.5t51 -45
t71 -17h22q45 15 79.5 27.5t62 25.5t50 28.5t44 37.5t44.5 53t52 73q1 0 3 0.5t4 0.5q18 0 18 -18q0 -23 -11.5 -51.5t-42 -62.5t-85 -71.5t-139.5 -75.5q-16 -7 -28 -11.5t-23 -6.5t-22.5 -2.5t-25.5 -0.5q-42 0 -76 12q5 -13 6 -27q2 -21 -11 -34q0 -35 24 -60.5t60 -45.5
t78.5 -37.5t78.5 -36t60.5 -40t24.5 -50.5q0 -44 -22 -62.5t-54 -24t-70 -3.5t-71 2q-8 0 -30 2.5t-45 5t-45 5.5t-30 4z" />
    <glyph glyph-name="Egrave" unicode="&#xc8;" 
d="M48 39q-2 3 -5.5 11.5t-7.5 19t-7 19.5t-4 14l-0.5 9.5t-0.5 15.5q0 21 2 43t9 44q3 5 11 20.5t17.5 32.5t17.5 32.5t12 20.5q25 44 63.5 78t78.5 64q4 3 17.5 14t30.5 23t31.5 23t17.5 13l3 3t3 2v3v2q-30 6 -58.5 13.5t-50.5 22t-35 37t-13 57.5q0 43 24 73.5t59.5 51
t76.5 30t76 9.5q18 0 37.5 -2.5t36 -10t27 -21t10.5 -36.5q0 -14 -8.5 -21.5t-21.5 -7.5q-12 0 -16 6.5t-9.5 15t-17 15.5t-37.5 7q-22 0 -43.5 -3.5t-42.5 -1.5q-17 -5 -34.5 -15.5t-31.5 -24.5t-23 -31.5t-9 -37.5q0 -28 14 -42.5t35.5 -21t46 -7.5t46 -3.5t35.5 -10
t14 -26.5v-9l-30 -29q-5 -5 -17.5 -13.5t-27 -19t-31 -23t-31 -23.5t-27 -20t-17.5 -14q-28 -23 -57 -52.5t-53.5 -64t-40 -72t-15.5 -76.5q0 -46 18 -66t60 -20q41 0 82.5 12t81.5 31.5t76.5 44t67.5 49.5h4q8 0 14.5 -4.5t6.5 -12.5q0 -5 -5.5 -12.5t-12 -13.5
t-11.5 -10.5l-5 -4.5q-33 -25 -70.5 -48.5t-77 -42.5t-81 -30.5t-84.5 -11.5h-19h-19q-33 9 -55 35zM151 1016q0 27 7 32.5t19 -3t28 -27.5t35.5 -39t40.5 -37.5t44 -24.5q20 -7 17.5 -12.5t-17.5 -8t-39 0t-49.5 12.5t-47.5 30.5t-32 53.5l-1 3t-2 7l-2 8t-1 5z" />
    <glyph glyph-name="Eacute" unicode="&#xc9;" 
d="M48 39q-2 3 -5.5 11.5t-7.5 19t-7 19.5t-4 14l-0.5 9.5t-0.5 15.5q0 21 2 43t9 44q3 5 11 20.5t17.5 32.5t17.5 32.5t12 20.5q25 44 63.5 78t78.5 64q4 3 17.5 14t30.5 23t31.5 23t17.5 13l3 3t3 2v3v2q-30 6 -58.5 13.5t-50.5 22t-35 37t-13 57.5q0 43 24 73.5t59.5 51
t76.5 30t76 9.5q18 0 37.5 -2.5t36 -10t27 -21t10.5 -36.5q0 -14 -8.5 -21.5t-21.5 -7.5q-12 0 -16 6.5t-9.5 15t-17 15.5t-37.5 7q-22 0 -43.5 -3.5t-42.5 -1.5q-17 -5 -34.5 -15.5t-31.5 -24.5t-23 -31.5t-9 -37.5q0 -28 14 -42.5t35.5 -21t46 -7.5t46 -3.5t35.5 -10
t14 -26.5v-9l-30 -29q-5 -5 -17.5 -13.5t-27 -19t-31 -23t-31 -23.5t-27 -20t-17.5 -14q-28 -23 -57 -52.5t-53.5 -64t-40 -72t-15.5 -76.5q0 -46 18 -66t60 -20q41 0 82.5 12t81.5 31.5t76.5 44t67.5 49.5h4q8 0 14.5 -4.5t6.5 -12.5q0 -5 -5.5 -12.5t-12 -13.5
t-11.5 -10.5l-5 -4.5q-33 -25 -70.5 -48.5t-77 -42.5t-81 -30.5t-84.5 -11.5h-19h-19q-33 9 -55 35zM386 1017v-5t-1 -8t-1.5 -7.5t-0.5 -4.5q-10 -37 -29.5 -59t-42 -33.5t-44 -14.5t-35 0.5t-15.5 9.5t16 13q19 8 38 27.5t36 42t31.5 43t25.5 30.5t16.5 3.5t5.5 -37.5z
" />
    <glyph glyph-name="Ecircumflex" unicode="&#xca;" 
d="M48 39q-2 3 -5.5 11.5t-7.5 19t-7 19.5t-4 14l-0.5 9.5t-0.5 15.5q0 21 2 43t9 44q3 5 11 20.5t17.5 32.5t17.5 32.5t12 20.5q25 44 63.5 78t78.5 64q4 3 17.5 14t30.5 23t31.5 23t17.5 13l3 3t3 2v3v2q-30 6 -58.5 13.5t-50.5 22t-35 37t-13 57.5q0 43 24 73.5t59.5 51
t76.5 30t76 9.5q18 0 37.5 -2.5t36 -10t27 -21t10.5 -36.5q0 -14 -8.5 -21.5t-21.5 -7.5q-12 0 -16 6.5t-9.5 15t-17 15.5t-37.5 7q-22 0 -43.5 -3.5t-42.5 -1.5q-17 -5 -34.5 -15.5t-31.5 -24.5t-23 -31.5t-9 -37.5q0 -28 14 -42.5t35.5 -21t46 -7.5t46 -3.5t35.5 -10
t14 -26.5v-9l-30 -29q-5 -5 -17.5 -13.5t-27 -19t-31 -23t-31 -23.5t-27 -20t-17.5 -14q-28 -23 -57 -52.5t-53.5 -64t-40 -72t-15.5 -76.5q0 -46 18 -66t60 -20q41 0 82.5 12t81.5 31.5t76.5 44t67.5 49.5h4q8 0 14.5 -4.5t6.5 -12.5q0 -5 -5.5 -12.5t-12 -13.5
t-11.5 -10.5l-5 -4.5q-33 -25 -70.5 -48.5t-77 -42.5t-81 -30.5t-84.5 -11.5h-19h-19q-33 9 -55 35zM280 1123q-14 0 -26.5 -12t-22 -30t-18 -38t-15.5 -38t-13 -30t-11 -12q-13 0 -21.5 8.5t-8.5 22.5q0 1 -2 5t-2.5 9.5t2.5 11.5t14 11l107 175l4.5 4.5l7.5 7.5l7.5 7.5
l5.5 5.5h5h3q3 -2 7 -6t8 -7.5t7 -7t3 -4.5l102 -235v-3v-5q-1 -1 -4.5 -4t-5.5 -4q-13 11 -21.5 16.5t-15.5 10t-12.5 11.5t-11.5 23l-56 98q-2 7 -6.5 8t-9.5 1z" />
    <glyph glyph-name="Edieresis" unicode="&#xcb;" 
d="M48 39q-2 3 -5.5 11.5t-7.5 19t-7 19.5t-4 14l-0.5 9.5t-0.5 15.5q0 21 2 43t9 44q3 5 11 20.5t17.5 32.5t17.5 32.5t12 20.5q25 44 63.5 78t78.5 64q4 3 17.5 14t30.5 23t31.5 23t17.5 13l3 3t3 2v3v2q-30 6 -58.5 13.5t-50.5 22t-35 37t-13 57.5q0 43 24 73.5t59.5 51
t76.5 30t76 9.5q18 0 37.5 -2.5t36 -10t27 -21t10.5 -36.5q0 -14 -8.5 -21.5t-21.5 -7.5q-12 0 -16 6.5t-9.5 15t-17 15.5t-37.5 7q-22 0 -43.5 -3.5t-42.5 -1.5q-17 -5 -34.5 -15.5t-31.5 -24.5t-23 -31.5t-9 -37.5q0 -28 14 -42.5t35.5 -21t46 -7.5t46 -3.5t35.5 -10
t14 -26.5v-9l-30 -29q-5 -5 -17.5 -13.5t-27 -19t-31 -23t-31 -23.5t-27 -20t-17.5 -14q-28 -23 -57 -52.5t-53.5 -64t-40 -72t-15.5 -76.5q0 -46 18 -66t60 -20q41 0 82.5 12t81.5 31.5t76.5 44t67.5 49.5h4q8 0 14.5 -4.5t6.5 -12.5q0 -5 -5.5 -12.5t-12 -13.5
t-11.5 -10.5l-5 -4.5q-33 -25 -70.5 -48.5t-77 -42.5t-81 -30.5t-84.5 -11.5h-19h-19q-33 9 -55 35zM175 946q0 19 10 30.5t25 18t32 9t31 2.5q38 0 38 -48q0 -36 -14.5 -45t-44.5 -9h-24.5t-25.5 3.5t-19.5 12.5t-7.5 26zM261 958h-7t-10.5 -1t-10.5 -3.5t-6 -7.5h34v12z
M423 945q0 19 9 31t22.5 18.5t29.5 9t30 2.5q9 0 20 -0.5t20.5 -4t16 -10t6.5 -19.5q0 -18 -7.5 -31t-19.5 -21t-27.5 -12t-30.5 -4h-23t-22.5 3.5t-17 12t-6.5 25.5zM501 958h-6.5t-10 -1t-10.5 -3.5t-6 -7.5h33v12z" />
    <glyph glyph-name="Igrave" unicode="&#xcc;" horiz-adv-x="722" 
d="M454 127q-27 -18 -57 -35.5t-62.5 -31t-65.5 -22t-67 -8.5q-40 0 -65 21t-40 52t-24 66.5t-19 64.5q-4 12 -11 19t-14.5 14t-13 16t-5.5 22q0 10 11.5 18.5t19.5 8.5q9 0 17.5 -8t20.5 -17.5t27 -17t35 -7.5q13 0 30 0.5t29 4.5q9 4 10 6.5t0.5 4.5t1.5 3t13 1
q8 0 18.5 -1.5t19.5 -6t14.5 -12t5.5 -17.5q0 -18 -12 -22t-27 -5h-26t-40 -1t-39.5 -2t-26.5 -1q4 -19 10 -45.5t16 -50t27.5 -40t43.5 -16.5q31 0 61 7.5t58 20t54.5 28.5t51.5 32q4 4 4.5 6t0.5 7q0 37 -7.5 75t-7.5 78q0 26 4 67t13 86.5t24 92.5t37.5 85t52.5 61t70 23
q18 0 29.5 -10t19 -27t11.5 -37t6 -40t2 -36.5v-25.5q0 -42 -6.5 -86t-19 -86t-32 -81.5t-45.5 -73.5q-20 -26 -42.5 -44.5t-45.5 -42.5q11 -43 30 -74.5t53 -56.5q4 -4 4.5 -6t0.5 -8q0 -10 -5.5 -13.5t-14.5 -3.5q-17 0 -27.5 5.5t-19 13.5t-16.5 17.5t-18 17.5zM477 342
v-29t1 -25t2 -25t3 -29q1 -5 3 -12t3 -7h4q1 0 7 5.5t13.5 13t15.5 16t13 14.5q56 64 79.5 142.5t23.5 164.5v12t-0.5 19.5t-0.5 19.5v12q-1 3 -2.5 11.5t-4.5 17.5t-5 17.5t-3 11.5l-2.5 5t-1.5 5q-30 -3 -52 -24.5t-39 -54.5t-27.5 -73t-17.5 -79t-9.5 -73t-2.5 -56z
M503 926q0 27 7 32.5t19 -3t28 -27.5t35.5 -39t40.5 -37.5t44 -24.5q20 -7 17.5 -12.5t-17.5 -8t-39 0t-49.5 12.5t-47.5 30.5t-32 53.5l-1 3t-2 7l-2 8t-1 5z" />
    <glyph glyph-name="Iacute" unicode="&#xcd;" horiz-adv-x="722" 
d="M454 127q-27 -18 -57 -35.5t-62.5 -31t-65.5 -22t-67 -8.5q-40 0 -65 21t-40 52t-24 66.5t-19 64.5q-4 12 -11 19t-14.5 14t-13 16t-5.5 22q0 10 11.5 18.5t19.5 8.5q9 0 17.5 -8t20.5 -17.5t27 -17t35 -7.5q13 0 30 0.5t29 4.5q9 4 10 6.5t0.5 4.5t1.5 3t13 1
q8 0 18.5 -1.5t19.5 -6t14.5 -12t5.5 -17.5q0 -18 -12 -22t-27 -5h-26t-40 -1t-39.5 -2t-26.5 -1q4 -19 10 -45.5t16 -50t27.5 -40t43.5 -16.5q31 0 61 7.5t58 20t54.5 28.5t51.5 32q4 4 4.5 6t0.5 7q0 37 -7.5 75t-7.5 78q0 26 4 67t13 86.5t24 92.5t37.5 85t52.5 61t70 23
q18 0 29.5 -10t19 -27t11.5 -37t6 -40t2 -36.5v-25.5q0 -42 -6.5 -86t-19 -86t-32 -81.5t-45.5 -73.5q-20 -26 -42.5 -44.5t-45.5 -42.5q11 -43 30 -74.5t53 -56.5q4 -4 4.5 -6t0.5 -8q0 -10 -5.5 -13.5t-14.5 -3.5q-17 0 -27.5 5.5t-19 13.5t-16.5 17.5t-18 17.5zM477 342
v-29t1 -25t2 -25t3 -29q1 -5 3 -12t3 -7h4q1 0 7 5.5t13.5 13t15.5 16t13 14.5q56 64 79.5 142.5t23.5 164.5v12t-0.5 19.5t-0.5 19.5v12q-1 3 -2.5 11.5t-4.5 17.5t-5 17.5t-3 11.5l-2.5 5t-1.5 5q-30 -3 -52 -24.5t-39 -54.5t-27.5 -73t-17.5 -79t-9.5 -73t-2.5 -56z
M641 941v-5t-1 -8t-1.5 -7.5t-0.5 -4.5q-10 -37 -29.5 -59t-42 -33.5t-44 -14.5t-35 0.5t-15.5 9.5t16 13q19 8 38 27.5t36 42t31.5 43t25.5 30.5t16.5 3.5t5.5 -37.5z" />
    <glyph glyph-name="Icircumflex" unicode="&#xce;" horiz-adv-x="722" 
d="M454 127q-27 -18 -57 -35.5t-62.5 -31t-65.5 -22t-67 -8.5q-40 0 -65 21t-40 52t-24 66.5t-19 64.5q-4 12 -11 19t-14.5 14t-13 16t-5.5 22q0 10 11.5 18.5t19.5 8.5q9 0 17.5 -8t20.5 -17.5t27 -17t35 -7.5q13 0 30 0.5t29 4.5q9 4 10 6.5t0.5 4.5t1.5 3t13 1
q8 0 18.5 -1.5t19.5 -6t14.5 -12t5.5 -17.5q0 -18 -12 -22t-27 -5h-26t-40 -1t-39.5 -2t-26.5 -1q4 -19 10 -45.5t16 -50t27.5 -40t43.5 -16.5q31 0 61 7.5t58 20t54.5 28.5t51.5 32q4 4 4.5 6t0.5 7q0 37 -7.5 75t-7.5 78q0 26 4 67t13 86.5t24 92.5t37.5 85t52.5 61t70 23
q18 0 29.5 -10t19 -27t11.5 -37t6 -40t2 -36.5v-25.5q0 -42 -6.5 -86t-19 -86t-32 -81.5t-45.5 -73.5q-20 -26 -42.5 -44.5t-45.5 -42.5q11 -43 30 -74.5t53 -56.5q4 -4 4.5 -6t0.5 -8q0 -10 -5.5 -13.5t-14.5 -3.5q-17 0 -27.5 5.5t-19 13.5t-16.5 17.5t-18 17.5zM477 342
v-29t1 -25t2 -25t3 -29q1 -5 3 -12t3 -7h4q1 0 7 5.5t13.5 13t15.5 16t13 14.5q56 64 79.5 142.5t23.5 164.5v12t-0.5 19.5t-0.5 19.5v12q-1 3 -2.5 11.5t-4.5 17.5t-5 17.5t-3 11.5l-2.5 5t-1.5 5q-30 -3 -52 -24.5t-39 -54.5t-27.5 -73t-17.5 -79t-9.5 -73t-2.5 -56z
M609 934q-14 0 -26.5 -12t-22 -30t-18 -38t-15.5 -38t-13 -30t-11 -12q-13 0 -21.5 8.5t-8.5 22.5q0 1 -2 5t-2.5 9.5t2.5 11.5t14 11l107 175l4.5 4.5l7.5 7.5l7.5 7.5l5.5 5.5h5h3q3 -2 7 -6t8 -7.5t7 -7t3 -4.5l102 -235v-3v-5q-1 -1 -4.5 -4t-5.5 -4q-13 11 -21.5 16.5
t-15.5 10t-12.5 11.5t-11.5 23l-56 98q-2 7 -6.5 8t-9.5 1z" />
    <glyph glyph-name="Idieresis" unicode="&#xcf;" horiz-adv-x="722" 
d="M454 127q-27 -18 -57 -35.5t-62.5 -31t-65.5 -22t-67 -8.5q-40 0 -65 21t-40 52t-24 66.5t-19 64.5q-4 12 -11 19t-14.5 14t-13 16t-5.5 22q0 10 11.5 18.5t19.5 8.5q9 0 17.5 -8t20.5 -17.5t27 -17t35 -7.5q13 0 30 0.5t29 4.5q9 4 10 6.5t0.5 4.5t1.5 3t13 1
q8 0 18.5 -1.5t19.5 -6t14.5 -12t5.5 -17.5q0 -18 -12 -22t-27 -5h-26t-40 -1t-39.5 -2t-26.5 -1q4 -19 10 -45.5t16 -50t27.5 -40t43.5 -16.5q31 0 61 7.5t58 20t54.5 28.5t51.5 32q4 4 4.5 6t0.5 7q0 37 -7.5 75t-7.5 78q0 26 4 67t13 86.5t24 92.5t37.5 85t52.5 61t70 23
q18 0 29.5 -10t19 -27t11.5 -37t6 -40t2 -36.5v-25.5q0 -42 -6.5 -86t-19 -86t-32 -81.5t-45.5 -73.5q-20 -26 -42.5 -44.5t-45.5 -42.5q11 -43 30 -74.5t53 -56.5q4 -4 4.5 -6t0.5 -8q0 -10 -5.5 -13.5t-14.5 -3.5q-17 0 -27.5 5.5t-19 13.5t-16.5 17.5t-18 17.5zM477 342
v-29t1 -25t2 -25t3 -29q1 -5 3 -12t3 -7h4q1 0 7 5.5t13.5 13t15.5 16t13 14.5q56 64 79.5 142.5t23.5 164.5v12t-0.5 19.5t-0.5 19.5v12q-1 3 -2.5 11.5t-4.5 17.5t-5 17.5t-3 11.5l-2.5 5t-1.5 5q-30 -3 -52 -24.5t-39 -54.5t-27.5 -73t-17.5 -79t-9.5 -73t-2.5 -56z
M385 880q0 19 10 30.5t25 18t32 9t31 2.5q38 0 38 -48q0 -36 -14.5 -45t-44.5 -9h-24.5t-25.5 3.5t-19.5 12.5t-7.5 26zM471 892h-7t-10.5 -1t-10.5 -3.5t-6 -7.5h34v12zM633 879q0 19 9 31t22.5 18.5t29.5 9t30 2.5q9 0 20 -0.5t20.5 -4t16 -10t6.5 -19.5q0 -18 -7.5 -31
t-19.5 -21t-27.5 -12t-30.5 -4h-23t-22.5 3.5t-17 12t-6.5 25.5zM711 892h-6.5t-10 -1t-10.5 -3.5t-6 -7.5h33v12z" />
    <glyph glyph-name="Eth" unicode="&#xd0;" horiz-adv-x="532" 
d="M-65 265q2 7 14 14.5t19 10.5q50 1 73 0q18 0 27 -1v330q-20 31 -32.5 63t-12.5 69q0 9 1 24t4.5 29.5t12 25t23.5 10.5q10 0 14.5 -8t4.5 -17q0 -15 -3 -28t-3 -28q0 -9 -0.5 -23t5.5 -24q1 12 1.5 32t4.5 39t13.5 33t29.5 14q8 0 14 -3.5t6 -12.5v-102l14 -123
l225 -184q51 -43 84 -96.5t33 -120.5q0 -44 -18 -78.5t-48 -59t-68.5 -37.5t-79.5 -13q-8 0 -24 1t-31.5 4t-27 10t-11.5 21q0 5 0.5 9t4.5 8q2 0 6.5 0.5t6.5 0.5q18 0 34.5 -3t34.5 -3q33 0 63 9t53.5 26.5t37.5 44t14 62.5q0 21 -6.5 42t-17.5 41t-25 37.5t-30 30.5
l-224 185q-2 3 -9.5 10.5t-11.5 9.5l-1 -2h-2h-1v-264q23 -1 48 -3q34 -3 65 -13l-16 -17h-15q-20 -2 -52 -6q-15 -1 -30 -3v-87l-5 -73q0 -9 -9 -13.5t-15 -6.5q-12 -1 -17.5 4t-8.5 14t-3 19v138q-26 -3 -48 -4q-29 0 -43.5 1.5t-0.5 8.5q-5 0 -12 1t-14.5 4t-12 7.5
t-2.5 13.5z" />
    <glyph glyph-name="Ntilde" unicode="&#xd1;" horiz-adv-x="1141" 
d="M726 53v10t-0.5 14.5t-0.5 15v10.5q0 69 10.5 138t15.5 140q4 72 6.5 144.5t2.5 145.5q0 15 0.5 38t-3.5 44.5t-15.5 36.5t-35.5 15q-43 0 -76.5 -16.5t-60.5 -43.5t-48.5 -62t-39.5 -71t-34 -71t-33 -63l-29 -157v-4q-2 -8 -5 -22.5t-6 -28.5t-6 -25t-3 -12
q-1 -4 -8.5 -25.5t-17 -47.5t-18.5 -52.5t-14 -39.5q-7 -18 -16 -21.5t-26 -3.5q-8 0 -15 1.5t-7 11.5q0 56 13.5 107.5t31.5 101t36 99.5t26 103l44 259v100l-195 -100q-26 -14 -60.5 -22t-62.5 -8q-26 0 -39 8.5t-13 35.5q0 13 8 19t19 6q8 0 12.5 -3t8.5 -7t8.5 -7
t12.5 -3q33 0 67 11t66.5 27.5t63.5 35t60 34.5q14 7 27.5 15.5t29.5 8.5q15 0 25 -10t16 -24.5t8 -30t2 -26.5v-2q-1 -4 -3 -19t-4.5 -32t-4.5 -32.5t-2 -18.5q0 -1 -0.5 -7t-0.5 -8t0.5 -7t0.5 -7q20 38 48 75.5t62.5 67.5t76 48.5t88.5 18.5q35 0 56 -21.5t31.5 -51.5
t13.5 -63.5t3 -58.5q0 -70 -6 -140t-13.5 -139.5t-13.5 -139.5t-6 -139q0 -8 -0.5 -23t6.5 -25h2h3q2 1 8.5 2.5l13 3t13 2.5t9.5 2q6 4 23.5 14.5t37 22t36.5 22t24 14.5q8 6 21 20t27.5 32t29.5 37.5t27.5 36t22.5 26.5t14 10q9 0 12 -6.5t3 -13.5q0 -29 -19.5 -61
t-51 -63t-70.5 -60t-78 -51t-74.5 -35t-58.5 -13q-9 0 -16 6t-11.5 14t-7.5 17t-4 16zM462 1077q0 4 1 13.5t2.5 19t5 16.5t7.5 7l3 -1q1 -1 3 -3.5t4 -3.5q2 -21 8.5 -49t19 -53.5t29 -42.5t39.5 -17q24 0 44.5 13t39.5 33t36.5 43t34 42.5t34 32.5t35.5 13q11 0 28 -5.5
t31.5 -16.5t25 -26t10.5 -32q0 -1 -0.5 -1t-0.5 -1v-2q-2 -2 -9 -11.5t-9 -12.5q-8 12 -15.5 23t-15.5 20t-17 14.5t-21 5.5q-7 0 -11 -0.5t-7 -3.5t-7 -7.5t-12 -12.5q-5 -6 -18.5 -21t-28 -32t-27.5 -32.5t-19 -21.5q-21 -15 -45.5 -26.5t-49.5 -11.5q-22 0 -44.5 14
t-41.5 36t-30.5 48.5t-11.5 52.5z" />
    <glyph glyph-name="Ograve" unicode="&#xd2;" horiz-adv-x="658" 
d="M23 174v7.5t0.5 12.5t0.5 12.5v8.5q12 92 27 169t41 145.5t68 131.5t108 129q13 12 32.5 11t36.5 -1q32 0 65.5 -11t60.5 -29h9q18 0 36 7.5t35.5 15.5t35 15t35.5 7q10 0 17.5 -4.5t7.5 -16.5q0 -7 -16.5 -15.5t-38.5 -17t-42 -15t-26 -10.5q19 -23 31.5 -45t20 -46
t10 -49.5t2.5 -55.5q0 -76 -19 -145.5t-55.5 -130.5t-89 -112t-119.5 -89q-38 -20 -80 -37t-86 -17q-34 0 -55 17t-33 43t-16 56.5t-4 58.5zM82 185q0 -18 0.5 -41t6 -43t18.5 -34t39 -14q32 0 64 12t61.5 30t56.5 40t52 40q37 33 65.5 76t51.5 86q18 41 24 84.5t6 87.5
q0 26 -0.5 55.5t-7.5 56.5t-22.5 49.5t-42.5 35.5q-6 0 -18.5 -2t-26.5 -4.5t-26 -4.5l-18 -3q-1 0 -8.5 -2t-16 -4.5t-15.5 -4.5t-9 -3h-2q-10 0 -15 4.5t-9 9.5t-9.5 9.5t-15.5 4.5h-2q-32 -24 -56 -61t-42.5 -78t-31 -83.5t-21.5 -78.5q-3 -10 -7.5 -36.5t-9 -56
t-8.5 -56t-5 -36.5v-35zM380 746q-4 0 -4 -5t4 -5t4 5t-4 5zM202 1016q0 27 7 32.5t19 -3t28 -27.5t35.5 -39t40.5 -37.5t44 -24.5q20 -7 17.5 -12.5t-17.5 -8t-39 0t-49.5 12.5t-47.5 30.5t-32 53.5l-1 3t-2 7l-2 8t-1 5z" />
    <glyph glyph-name="Oacute" unicode="&#xd3;" horiz-adv-x="658" 
d="M23 174v7.5t0.5 12.5t0.5 12.5v8.5q12 92 27 169t41 145.5t68 131.5t108 129q13 12 32.5 11t36.5 -1q32 0 65.5 -11t60.5 -29h9q18 0 36 7.5t35.5 15.5t35 15t35.5 7q10 0 17.5 -4.5t7.5 -16.5q0 -7 -16.5 -15.5t-38.5 -17t-42 -15t-26 -10.5q19 -23 31.5 -45t20 -46
t10 -49.5t2.5 -55.5q0 -76 -19 -145.5t-55.5 -130.5t-89 -112t-119.5 -89q-38 -20 -80 -37t-86 -17q-34 0 -55 17t-33 43t-16 56.5t-4 58.5zM82 185q0 -18 0.5 -41t6 -43t18.5 -34t39 -14q32 0 64 12t61.5 30t56.5 40t52 40q37 33 65.5 76t51.5 86q18 41 24 84.5t6 87.5
q0 26 -0.5 55.5t-7.5 56.5t-22.5 49.5t-42.5 35.5q-6 0 -18.5 -2t-26.5 -4.5t-26 -4.5l-18 -3q-1 0 -8.5 -2t-16 -4.5t-15.5 -4.5t-9 -3h-2q-10 0 -15 4.5t-9 9.5t-9.5 9.5t-15.5 4.5h-2q-32 -24 -56 -61t-42.5 -78t-31 -83.5t-21.5 -78.5q-3 -10 -7.5 -36.5t-9 -56
t-8.5 -56t-5 -36.5v-35zM380 746q-4 0 -4 -5t4 -5t4 5t-4 5zM440 1017v-5t-1 -8t-1.5 -7.5t-0.5 -4.5q-10 -37 -29.5 -59t-42 -33.5t-44 -14.5t-35 0.5t-15.5 9.5t16 13q19 8 38 27.5t36 42t31.5 43t25.5 30.5t16.5 3.5t5.5 -37.5z" />
    <glyph glyph-name="Ocircumflex" unicode="&#xd4;" horiz-adv-x="658" 
d="M23 174v7.5t0.5 12.5t0.5 12.5v8.5q12 92 27 169t41 145.5t68 131.5t108 129q13 12 32.5 11t36.5 -1q32 0 65.5 -11t60.5 -29h9q18 0 36 7.5t35.5 15.5t35 15t35.5 7q10 0 17.5 -4.5t7.5 -16.5q0 -7 -16.5 -15.5t-38.5 -17t-42 -15t-26 -10.5q19 -23 31.5 -45t20 -46
t10 -49.5t2.5 -55.5q0 -76 -19 -145.5t-55.5 -130.5t-89 -112t-119.5 -89q-38 -20 -80 -37t-86 -17q-34 0 -55 17t-33 43t-16 56.5t-4 58.5zM82 185q0 -18 0.5 -41t6 -43t18.5 -34t39 -14q32 0 64 12t61.5 30t56.5 40t52 40q37 33 65.5 76t51.5 86q18 41 24 84.5t6 87.5
q0 26 -0.5 55.5t-7.5 56.5t-22.5 49.5t-42.5 35.5q-6 0 -18.5 -2t-26.5 -4.5t-26 -4.5l-18 -3q-1 0 -8.5 -2t-16 -4.5t-15.5 -4.5t-9 -3h-2q-10 0 -15 4.5t-9 9.5t-9.5 9.5t-15.5 4.5h-2q-32 -24 -56 -61t-42.5 -78t-31 -83.5t-21.5 -78.5q-3 -10 -7.5 -36.5t-9 -56
t-8.5 -56t-5 -36.5v-35zM380 746q-4 0 -4 -5t4 -5t4 5t-4 5zM334 1123q-14 0 -26.5 -12t-22 -30t-18 -38t-15.5 -38t-13 -30t-11 -12q-13 0 -21.5 8.5t-8.5 22.5q0 1 -2 5t-2.5 9.5t2.5 11.5t14 11l107 175l4.5 4.5l7.5 7.5l7.5 7.5l5.5 5.5h5h3q3 -2 7 -6t8 -7.5t7 -7
t3 -4.5l102 -235v-3v-5q-1 -1 -4.5 -4t-5.5 -4q-13 11 -21.5 16.5t-15.5 10t-12.5 11.5t-11.5 23l-56 98q-2 7 -6.5 8t-9.5 1z" />
    <glyph glyph-name="Otilde" unicode="&#xd5;" horiz-adv-x="658" 
d="M23 174v7.5t0.5 12.5t0.5 12.5v8.5q12 92 27 169t41 145.5t68 131.5t108 129q13 12 32.5 11t36.5 -1q32 0 65.5 -11t60.5 -29h9q18 0 36 7.5t35.5 15.5t35 15t35.5 7q10 0 17.5 -4.5t7.5 -16.5q0 -7 -16.5 -15.5t-38.5 -17t-42 -15t-26 -10.5q19 -23 31.5 -45t20 -46
t10 -49.5t2.5 -55.5q0 -76 -19 -145.5t-55.5 -130.5t-89 -112t-119.5 -89q-38 -20 -80 -37t-86 -17q-34 0 -55 17t-33 43t-16 56.5t-4 58.5zM82 185q0 -18 0.5 -41t6 -43t18.5 -34t39 -14q32 0 64 12t61.5 30t56.5 40t52 40q37 33 65.5 76t51.5 86q18 41 24 84.5t6 87.5
q0 26 -0.5 55.5t-7.5 56.5t-22.5 49.5t-42.5 35.5q-6 0 -18.5 -2t-26.5 -4.5t-26 -4.5l-18 -3q-1 0 -8.5 -2t-16 -4.5t-15.5 -4.5t-9 -3h-2q-10 0 -15 4.5t-9 9.5t-9.5 9.5t-15.5 4.5h-2q-32 -24 -56 -61t-42.5 -78t-31 -83.5t-21.5 -78.5q-3 -10 -7.5 -36.5t-9 -56
t-8.5 -56t-5 -36.5v-35zM380 746q-4 0 -4 -5t4 -5t4 5t-4 5zM108 1007q0 4 1 13.5t2.5 19t5 16.5t7.5 7l3 -1q1 -1 3 -3.5t4 -3.5q2 -21 8.5 -49t19 -53.5t29 -42.5t39.5 -17q24 0 44.5 13t39.5 33t36.5 43t34 42.5t34 32.5t35.5 13q11 0 28 -5.5t31.5 -16.5t25 -26
t10.5 -32q0 -1 -0.5 -1t-0.5 -1v-2q-2 -2 -9 -11.5t-9 -12.5q-8 12 -15.5 23t-15.5 20t-17 14.5t-21 5.5q-7 0 -11 -0.5t-7 -3.5t-7 -7.5t-12 -12.5q-5 -6 -18.5 -21t-28 -32t-27.5 -32.5t-19 -21.5q-21 -15 -45.5 -26.5t-49.5 -11.5q-22 0 -44.5 14t-41.5 36t-30.5 48.5
t-11.5 52.5z" />
    <glyph glyph-name="Odieresis" unicode="&#xd6;" horiz-adv-x="658" 
d="M23 174v7.5t0.5 12.5t0.5 12.5v8.5q12 92 27 169t41 145.5t68 131.5t108 129q13 12 32.5 11t36.5 -1q32 0 65.5 -11t60.5 -29h9q18 0 36 7.5t35.5 15.5t35 15t35.5 7q10 0 17.5 -4.5t7.5 -16.5q0 -7 -16.5 -15.5t-38.5 -17t-42 -15t-26 -10.5q19 -23 31.5 -45t20 -46
t10 -49.5t2.5 -55.5q0 -76 -19 -145.5t-55.5 -130.5t-89 -112t-119.5 -89q-38 -20 -80 -37t-86 -17q-34 0 -55 17t-33 43t-16 56.5t-4 58.5zM82 185q0 -18 0.5 -41t6 -43t18.5 -34t39 -14q32 0 64 12t61.5 30t56.5 40t52 40q37 33 65.5 76t51.5 86q18 41 24 84.5t6 87.5
q0 26 -0.5 55.5t-7.5 56.5t-22.5 49.5t-42.5 35.5q-6 0 -18.5 -2t-26.5 -4.5t-26 -4.5l-18 -3q-1 0 -8.5 -2t-16 -4.5t-15.5 -4.5t-9 -3h-2q-10 0 -15 4.5t-9 9.5t-9.5 9.5t-15.5 4.5h-2q-32 -24 -56 -61t-42.5 -78t-31 -83.5t-21.5 -78.5q-3 -10 -7.5 -36.5t-9 -56
t-8.5 -56t-5 -36.5v-35zM380 746q-4 0 -4 -5t4 -5t4 5t-4 5zM182 899q0 19 10 30.5t25 18t32 9t31 2.5q38 0 38 -48q0 -36 -14.5 -45t-44.5 -9h-24.5t-25.5 3.5t-19.5 12.5t-7.5 26zM268 911h-7t-10.5 -1t-10.5 -3.5t-6 -7.5h34v12zM430 898q0 19 9 31t22.5 18.5t29.5 9
t30 2.5q9 0 20 -0.5t20.5 -4t16 -10t6.5 -19.5q0 -18 -7.5 -31t-19.5 -21t-27.5 -12t-30.5 -4h-23t-22.5 3.5t-17 12t-6.5 25.5zM508 911h-6.5t-10 -1t-10.5 -3.5t-6 -7.5h33v12z" />
    <glyph glyph-name="multiply" unicode="&#xd7;" horiz-adv-x="588" 
d="M222 286q1 2 2 7.5t1 7.5q-3 9 -8.5 23t-13 31t-15 33.5t-15.5 29.5q-3 6 -7 12t-14 4q0 -1 -2.5 -5t-3.5 -6l-6 71q14 8 26 6.5t22.5 -10t19 -20.5t15.5 -23q12 -19 20.5 -39.5t20.5 -38.5q0 -2 1 -3l1 -2q5 8 15.5 25.5t22.5 37t22.5 37t14.5 25.5q1 2 3.5 8t5.5 13
t5.5 14t3.5 10q1 1 5 2q9 6 25 2t21 -13q2 -3 3.5 -8t-0.5 -8l-114 -199q-4 -6 -1.5 -8.5t5.5 -8.5q7 -28 20.5 -37.5t31 -8t36.5 12t36.5 21.5t31.5 19t21 5.5t4 -18.5t-19 -53q-27 -16 -54 -26.5t-53 -11t-50.5 10t-47.5 35.5q-31 -41 -52.5 -67.5t-25.5 -54.5
q-5 -3 -11.5 1.5t-14 11.5t-13.5 15t-8 11z" />
    <glyph glyph-name="Oslash" unicode="&#xd8;" horiz-adv-x="658" 
d="M23 174v8q0 5 0.5 12t0.5 12v9q12 92 27 169t41 145.5t68 131.5t108 129q13 12 32.5 11t36.5 -1q32 0 65.5 -11t60.5 -29h9q17 0 33 6l27 48q5 8 15 13t19 5q13 0 14.5 -9t1.5 -19v-4q16 5 32 5q10 0 17.5 -4.5t7.5 -16.5q0 -7 -16.5 -15.5t-38.5 -17.5q-17 -6 -33 -12
l-21 -33q10 -12 17 -26q13 -21 20.5 -45t10 -49.5t2.5 -55.5q0 -76 -19 -145.5t-55.5 -130.5t-89 -112t-119.5 -89q-38 -20 -80 -37t-86 -17q-16 0 -29 4l-1 -3q-2 -1 -3 -1h-4q-14 0 -17 7q-1 5 -2 11q-21 17 -32 41q-12 27 -16 57.5t-4 58.5zM82 185q0 -18 0.5 -41
t5.5 -43q1 -6 4 -11l1 1l281 474q12 14 21 29t18.5 31t20 30.5t23.5 25.5l10 17q-6 5 -13 8q-6 0 -18.5 -2t-26.5 -4.5t-26 -4.5l-18 -3q-1 0 -8.5 -2t-16 -4.5t-15.5 -4.5t-9 -3h-2q-10 0 -15 4.5t-9 9.5t-9.5 9.5t-15.5 4.5h-2q-32 -24 -56 -61t-42.5 -78t-31 -83.5
t-21.5 -78.5q-3 -10 -7.5 -36.5t-9 -56t-8.5 -56t-5 -36.5v-35zM146 53q32 0 64 12t61.5 30t56.5 40t52 40q37 33 65.5 76t51.5 86q18 41 24 84.5t6 87.5q0 26 -0.5 55.5t-8.5 56.5q-5 22 -16 41l-335 -530l-39 -77q8 -2 18 -2zM380 746q-4 0 -4 -5t4 -5t4 5t-4 5z" />
    <glyph glyph-name="Ugrave" unicode="&#xd9;" horiz-adv-x="1081" 
d="M341 68q0 23 3 46.5t6.5 46.5t5.5 46.5t-1 46.5l27 191l-84 -113l-215 -211q-10 -15 -17.5 -27t-26.5 -12q-13 0 -16 6t-3 18q0 16 5.5 26.5t18.5 23.5l224 215l83 112l9.5 19t12.5 21.5t13 19t9 12.5q17 59 41 118.5t57 111.5q6 11 21 11q9 0 18.5 -5t9.5 -15
q0 -1 -0.5 -3t-0.5 -3t-2 -9t-3 -10q-13 -26 -27.5 -59.5t-27.5 -69.5t-23 -72t-13 -67l-45 -362v-63q9 4 30 15.5t44.5 25t43.5 25.5t28 17q7 6 26 20t40 30.5t39.5 31.5t27.5 21q2 3 13 13.5t24 25t25.5 28t19.5 21.5q11 12 23 27t22.5 32.5t19 34.5t13.5 32l92 342
q1 5 4.5 14t8 18t11 15t15.5 6q13 0 19.5 -11.5t6.5 -21.5q0 -3 -1 -8.5t-1 -6.5l-34 -176v-5l-68 -190l-29 -249q-1 -2 -1 -5v-9q0 -21 1 -40t7 -32.5t18.5 -22.5t35.5 -9q75 52 119.5 70.5t63 15t12 -22t-33.5 -41.5t-72.5 -45t-104.5 -31q-31 0 -51 13t-31.5 34t-16 47.5
t-4.5 53.5q0 37 4.5 73t4.5 73v14l-2 -1.5t-3 -2.5q-18 -22 -33.5 -41.5t-33 -38t-37.5 -36.5t-47 -35l-234 -152q-10 -7 -24 -11t-27 -4q-11 0 -19.5 7t-12.5 18v44zM819 337q-4 0 -4 -5.5t4 -5.5t4 5.5t-4 5.5zM613 973q0 27 7 32.5t19 -3t28 -27.5t35.5 -39t40.5 -37.5
t44 -24.5q20 -7 17.5 -12.5t-17.5 -8t-39 0t-49.5 12.5t-47.5 30.5t-32 53.5l-1 3t-2 7l-2 8t-1 5z" />
    <glyph glyph-name="Uacute" unicode="&#xda;" horiz-adv-x="1081" 
d="M341 68q0 23 3 46.5t6.5 46.5t5.5 46.5t-1 46.5l27 191l-84 -113l-215 -211q-10 -15 -17.5 -27t-26.5 -12q-13 0 -16 6t-3 18q0 16 5.5 26.5t18.5 23.5l224 215l83 112l9.5 19t12.5 21.5t13 19t9 12.5q17 59 41 118.5t57 111.5q6 11 21 11q9 0 18.5 -5t9.5 -15
q0 -1 -0.5 -3t-0.5 -3t-2 -9t-3 -10q-13 -26 -27.5 -59.5t-27.5 -69.5t-23 -72t-13 -67l-45 -362v-63q9 4 30 15.5t44.5 25t43.5 25.5t28 17q7 6 26 20t40 30.5t39.5 31.5t27.5 21q2 3 13 13.5t24 25t25.5 28t19.5 21.5q11 12 23 27t22.5 32.5t19 34.5t13.5 32l92 342
q1 5 4.5 14t8 18t11 15t15.5 6q13 0 19.5 -11.5t6.5 -21.5q0 -3 -1 -8.5t-1 -6.5l-34 -176v-5l-68 -190l-29 -249q-1 -2 -1 -5v-9q0 -21 1 -40t7 -32.5t18.5 -22.5t35.5 -9q75 52 119.5 70.5t63 15t12 -22t-33.5 -41.5t-72.5 -45t-104.5 -31q-31 0 -51 13t-31.5 34t-16 47.5
t-4.5 53.5q0 37 4.5 73t4.5 73v14l-2 -1.5t-3 -2.5q-18 -22 -33.5 -41.5t-33 -38t-37.5 -36.5t-47 -35l-234 -152q-10 -7 -24 -11t-27 -4q-11 0 -19.5 7t-12.5 18v44zM819 337q-4 0 -4 -5.5t4 -5.5t4 5.5t-4 5.5zM844 1008v-5t-1 -8t-1.5 -7.5t-0.5 -4.5q-10 -37 -29.5 -59
t-42 -33.5t-44 -14.5t-35 0.5t-15.5 9.5t16 13q19 8 38 27.5t36 42t31.5 43t25.5 30.5t16.5 3.5t5.5 -37.5z" />
    <glyph glyph-name="Ucircumflex" unicode="&#xdb;" horiz-adv-x="1081" 
d="M341 68q0 23 3 46.5t6.5 46.5t5.5 46.5t-1 46.5l27 191l-84 -113l-215 -211q-10 -15 -17.5 -27t-26.5 -12q-13 0 -16 6t-3 18q0 16 5.5 26.5t18.5 23.5l224 215l83 112l9.5 19t12.5 21.5t13 19t9 12.5q17 59 41 118.5t57 111.5q6 11 21 11q9 0 18.5 -5t9.5 -15
q0 -1 -0.5 -3t-0.5 -3t-2 -9t-3 -10q-13 -26 -27.5 -59.5t-27.5 -69.5t-23 -72t-13 -67l-45 -362v-63q9 4 30 15.5t44.5 25t43.5 25.5t28 17q7 6 26 20t40 30.5t39.5 31.5t27.5 21q2 3 13 13.5t24 25t25.5 28t19.5 21.5q11 12 23 27t22.5 32.5t19 34.5t13.5 32l92 342
q1 5 4.5 14t8 18t11 15t15.5 6q13 0 19.5 -11.5t6.5 -21.5q0 -3 -1 -8.5t-1 -6.5l-34 -176v-5l-68 -190l-29 -249q-1 -2 -1 -5v-9q0 -21 1 -40t7 -32.5t18.5 -22.5t35.5 -9q75 52 119.5 70.5t63 15t12 -22t-33.5 -41.5t-72.5 -45t-104.5 -31q-31 0 -51 13t-31.5 34t-16 47.5
t-4.5 53.5q0 37 4.5 73t4.5 73v14l-2 -1.5t-3 -2.5q-18 -22 -33.5 -41.5t-33 -38t-37.5 -36.5t-47 -35l-234 -152q-10 -7 -24 -11t-27 -4q-11 0 -19.5 7t-12.5 18v44zM819 337q-4 0 -4 -5.5t4 -5.5t4 5.5t-4 5.5zM741 1047q-14 0 -26.5 -12t-22 -30t-18 -38t-15.5 -38
t-13 -30t-11 -12q-13 0 -21.5 8.5t-8.5 22.5q0 1 -2 5t-2.5 9.5t2.5 11.5t14 11l107 175l4.5 4.5l7.5 7.5l7.5 7.5l5.5 5.5h5h3q3 -2 7 -6t8 -7.5t7 -7t3 -4.5l102 -235v-3v-5q-1 -1 -4.5 -4t-5.5 -4q-13 11 -21.5 16.5t-15.5 10t-12.5 11.5t-11.5 23l-56 98q-2 7 -6.5 8
t-9.5 1z" />
    <glyph glyph-name="Udieresis" unicode="&#xdc;" horiz-adv-x="1081" 
d="M341 68q0 23 3 46.5t6.5 46.5t5.5 46.5t-1 46.5l27 191l-84 -113l-215 -211q-10 -15 -17.5 -27t-26.5 -12q-13 0 -16 6t-3 18q0 16 5.5 26.5t18.5 23.5l224 215l83 112l9.5 19t12.5 21.5t13 19t9 12.5q17 59 41 118.5t57 111.5q6 11 21 11q9 0 18.5 -5t9.5 -15
q0 -1 -0.5 -3t-0.5 -3t-2 -9t-3 -10q-13 -26 -27.5 -59.5t-27.5 -69.5t-23 -72t-13 -67l-45 -362v-63q9 4 30 15.5t44.5 25t43.5 25.5t28 17q7 6 26 20t40 30.5t39.5 31.5t27.5 21q2 3 13 13.5t24 25t25.5 28t19.5 21.5q11 12 23 27t22.5 32.5t19 34.5t13.5 32l92 342
q1 5 4.5 14t8 18t11 15t15.5 6q13 0 19.5 -11.5t6.5 -21.5q0 -3 -1 -8.5t-1 -6.5l-34 -176v-5l-68 -190l-29 -249q-1 -2 -1 -5v-9q0 -21 1 -40t7 -32.5t18.5 -22.5t35.5 -9q75 52 119.5 70.5t63 15t12 -22t-33.5 -41.5t-72.5 -45t-104.5 -31q-31 0 -51 13t-31.5 34t-16 47.5
t-4.5 53.5q0 37 4.5 73t4.5 73v14l-2 -1.5t-3 -2.5q-18 -22 -33.5 -41.5t-33 -38t-37.5 -36.5t-47 -35l-234 -152q-10 -7 -24 -11t-27 -4q-11 0 -19.5 7t-12.5 18v44zM819 337q-4 0 -4 -5.5t4 -5.5t4 5.5t-4 5.5zM561 927q0 19 10 30.5t25 18t32 9t31 2.5q38 0 38 -48
q0 -36 -14.5 -45t-44.5 -9h-24.5t-25.5 3.5t-19.5 12.5t-7.5 26zM647 939h-7t-10.5 -1t-10.5 -3.5t-6 -7.5h34v12zM809 926q0 19 9 31t22.5 18.5t29.5 9t30 2.5q9 0 20 -0.5t20.5 -4t16 -10t6.5 -19.5q0 -18 -7.5 -31t-19.5 -21t-27.5 -12t-30.5 -4h-23t-22.5 3.5t-17 12
t-6.5 25.5zM887 939h-6.5t-10 -1t-10.5 -3.5t-6 -7.5h33v12z" />
    <glyph glyph-name="Yacute" unicode="&#xdd;" horiz-adv-x="1015" 
d="M375 -386q0 14 1 25.5t2.5 22t4 23.5t7.5 32q10 17 17 34.5t13.5 34.5t14 34t19.5 34q39 58 86.5 108.5t98.5 96.5l41 312l-139 -317q-5 -11 -14.5 -27.5t-22 -32.5t-27 -27t-29.5 -11q-12 0 -20 12t-12 28.5t-5.5 33t-1.5 24.5q0 2 0.5 7.5t0.5 6.5q1 17 4.5 46t6.5 57
t5 49t3 24l103 453v22q0 16 -1.5 32t-7 27.5t-16.5 19t-32 7.5q-17 0 -41.5 -9.5t-38.5 -19.5q-8 -6 -24 -17t-31 -23t-27 -21.5t-15 -12.5l-225 -219q-7 -7 -15 -9t-17 -2q-12 0 -16.5 5.5t-4.5 18.5q0 9 1 22.5t5.5 26t11.5 22t18 9.5q5 0 8.5 -3t6 -7t4.5 -7.5t5 -3.5h2
q1 0 1 1l215 205q18 17 41 35t48.5 31.5t53 22.5t54.5 9q22 0 41 -11.5t32.5 -29t19.5 -39t1 -43.5l-117 -579q-2 -16 -3 -27.5t-1 -22.5t1 -23t1 -29q4 0 3.5 -1.5t4.5 5.5q3 6 9 14.5t11.5 17t9.5 15l4 6.5l234 537q5 9 9.5 9.5t11.5 0.5q10 0 21.5 -4.5t11.5 -17.5v-8
l-83 -385q-7 -28 -9 -52t-2 -50v-25q16 12 40 26t53 27.5t61 26.5t61.5 22.5t55.5 15.5t44 6q6 0 15.5 -1.5t18 -5t14.5 -9.5t6 -15q0 -6 -3.5 -15t-11.5 -7q-2 0 -10 4.5t-10 4.5t-7.5 -1t-12 -2t-12 -3t-7.5 -3q-40 -4 -84 -15.5t-85.5 -29.5t-75.5 -42.5t-54 -56.5
l-5 -14l-1 -22t-2.5 -51.5t-3.5 -61t-2 -51.5v-24l-30 -210q-5 -30 -17.5 -62t-32.5 -58.5t-48 -44t-62 -17.5q-4 0 -15 0.5t-15 0.5q-27 8 -44.5 29t-28.5 48.5t-15.5 56t-4.5 51.5zM428 -383q0 -13 3 -36t10.5 -44.5t20 -37.5t33.5 -16q22 0 40 13.5t31.5 33.5t22.5 43
t11 42l34 308v57q-37 -33 -74.5 -74t-66.5 -87.5t-47 -97t-18 -104.5zM816 954v-5t-1 -8t-1.5 -7.5t-0.5 -4.5q-10 -37 -29.5 -59t-42 -33.5t-44 -14.5t-35 0.5t-15.5 9.5t16 13q19 8 38 27.5t36 42t31.5 43t25.5 30.5t16.5 3.5t5.5 -37.5z" />
    <glyph glyph-name="Thorn" unicode="&#xde;" horiz-adv-x="427" 
d="M143 241q-1 0 -2.5 -2t-2.5 -3q-5 -7 -11 -25t-12.5 -40.5t-13.5 -48.5t-13 -49.5t-11 -42t-8 -26.5q-7 -10 -14 -13t-18 -3q-23 0 -23 21q11 43 18.5 74.5t13 57.5t10.5 50.5t11.5 52t14.5 62t20.5 82.5t30 111t42.5 149q4 0 11 -3t13 -8t11 -10.5t6 -10.5
q-5 -42 -9.5 -68t-11 -52.5t-16.5 -59.5t-26 -88q27 32 62 53.5t77 21.5q4 0 15.5 -1t15.5 -1q22 -5 37 -22t24 -39t13 -45t4 -42q0 -11 -1.5 -23t-8 -28.5t-17.5 -40.5t-31 -57q-15 -8 -28 -14.5t-29 -6.5q-22 0 -49.5 11.5t-50.5 30.5t-36 43.5t-7 52.5zM167 256
q16 0 25.5 -12.5t21 -27t30 -27t53.5 -12.5h22q9 9 14 23t7.5 29t3 30t0.5 27q0 15 -3.5 30t-10.5 28t-19 21t-29 8q-21 0 -42 -12.5t-39 -31.5t-32 -40t-21 -38q5 5 9.5 5h9.5z" />
    <glyph glyph-name="germandbls" unicode="&#xdf;" horiz-adv-x="571" 
d="M101 -132q-3 1 -11 1t-17 1t-17 2t-11 3q6 39 8 102.5t2 141.5t-0.5 164.5t2 170.5t9.5 159.5t21 132.5q3 9 3 23t2 27.5t7.5 23t21.5 9.5q9 0 15.5 -5.5t14.5 -5.5q9 0 19.5 4t22.5 9t24.5 9t25.5 4q57 0 87.5 -36t30.5 -91q0 -10 -3.5 -25t-2.5 -24q-8 -45 -25.5 -86.5
t-42.5 -79.5q56 -4 103 -26t82 -57.5t54.5 -84t19.5 -105.5q0 -49 -14.5 -91.5t-42 -73t-67.5 -48t-91 -17.5q-21 0 -46 3.5t-45 9t-32 12.5t-6.5 12t31.5 9t81 4q86 0 127.5 49.5t41.5 132.5q0 49 -14.5 89t-42.5 69t-67 44.5t-85 15.5q-12 0 -20.5 -5t-16 -10.5
t-15.5 -10.5t-18 -5q-12 0 -18 9t-6 21q0 15 7 24.5t17.5 17.5l21 16t17.5 20q4 7 9.5 17l11 20t9.5 18l4 8q2 7 6.5 23t9.5 33.5t9 34t5 22.5v7q0 33 -16 57t-51 24q-10 0 -24 -4.5t-28 -11.5t-25 -17t-12 -21l-39 -282v-10z" />
    <glyph glyph-name="agrave" unicode="&#xe0;" horiz-adv-x="545" 
d="M22 30v15v16q-17 60 -4.5 118t45 104.5t83 78t110.5 38.5h18q22 0 36.5 -9.5t23 -24.5t12 -34t3.5 -38q0 -26 -5.5 -50.5t-12 -49.5t-12 -49.5t-5.5 -51.5v-6q1 -2 2.5 -11.5t2.5 -11.5q2 0 10 -0.5t10 -0.5q10 0 19.5 0.5t19.5 4.5l190 88q1 0 3.5 0.5t3.5 0.5
q10 0 16.5 -6t6.5 -16q0 -5 -0.5 -9.5t-5.5 -8.5q-7 -5 -25.5 -14t-39.5 -20t-39.5 -21t-26.5 -13q-14 -8 -31 -14.5t-35 -12.5t-35.5 -9.5t-31.5 -3.5q-22 0 -36 7.5t-21 20t-9.5 30t-0.5 36.5q-20 -16 -43 -34t-48 -33t-51 -26t-53 -11q-15 0 -27 7.5t-17 23.5zM76 51
q23 0 51 13.5t55 33.5t49 42.5t34 40.5q1 30 8.5 57.5t7.5 56.5q0 2 -0.5 6t-0.5 6q-13 11 -22 13t-24 2h-8.5t-8.5 -1q-6 -5 -20 -18.5t-29.5 -29.5t-29 -30t-18.5 -19q-1 0 -4 -3.5t-6.5 -8.5t-6 -9.5t-3.5 -7.5l-24 -117v-27zM139 576q0 27 7 32.5t19 -3t28 -27.5
t35.5 -39t40.5 -37.5t44 -24.5q20 -7 17.5 -12.5t-17.5 -8t-39 0t-49.5 12.5t-47.5 30.5t-32 53.5l-1 3t-2 7l-2 8t-1 5z" />
    <glyph glyph-name="aacute" unicode="&#xe1;" horiz-adv-x="545" 
d="M22 30v15v16q-17 60 -4.5 118t45 104.5t83 78t110.5 38.5h18q22 0 36.5 -9.5t23 -24.5t12 -34t3.5 -38q0 -26 -5.5 -50.5t-12 -49.5t-12 -49.5t-5.5 -51.5v-6q1 -2 2.5 -11.5t2.5 -11.5q2 0 10 -0.5t10 -0.5q10 0 19.5 0.5t19.5 4.5l190 88q1 0 3.5 0.5t3.5 0.5
q10 0 16.5 -6t6.5 -16q0 -5 -0.5 -9.5t-5.5 -8.5q-7 -5 -25.5 -14t-39.5 -20t-39.5 -21t-26.5 -13q-14 -8 -31 -14.5t-35 -12.5t-35.5 -9.5t-31.5 -3.5q-22 0 -36 7.5t-21 20t-9.5 30t-0.5 36.5q-20 -16 -43 -34t-48 -33t-51 -26t-53 -11q-15 0 -27 7.5t-17 23.5zM76 51
q23 0 51 13.5t55 33.5t49 42.5t34 40.5q1 30 8.5 57.5t7.5 56.5q0 2 -0.5 6t-0.5 6q-13 11 -22 13t-24 2h-8.5t-8.5 -1q-6 -5 -20 -18.5t-29.5 -29.5t-29 -30t-18.5 -19q-1 0 -4 -3.5t-6.5 -8.5t-6 -9.5t-3.5 -7.5l-24 -117v-27zM301 567v-5t-1 -8t-1.5 -7.5t-0.5 -4.5
q-10 -37 -29.5 -59t-42 -33.5t-44 -14.5t-35 0.5t-15.5 9.5t16 13q19 8 38 27.5t36 42t31.5 43t25.5 30.5t16.5 3.5t5.5 -37.5z" />
    <glyph glyph-name="acircumflex" unicode="&#xe2;" horiz-adv-x="545" 
d="M22 30v15v16q-17 60 -4.5 118t45 104.5t83 78t110.5 38.5h18q22 0 36.5 -9.5t23 -24.5t12 -34t3.5 -38q0 -26 -5.5 -50.5t-12 -49.5t-12 -49.5t-5.5 -51.5v-6q1 -2 2.5 -11.5t2.5 -11.5q2 0 10 -0.5t10 -0.5q10 0 19.5 0.5t19.5 4.5l190 88q1 0 3.5 0.5t3.5 0.5
q10 0 16.5 -6t6.5 -16q0 -5 -0.5 -9.5t-5.5 -8.5q-7 -5 -25.5 -14t-39.5 -20t-39.5 -21t-26.5 -13q-14 -8 -31 -14.5t-35 -12.5t-35.5 -9.5t-31.5 -3.5q-22 0 -36 7.5t-21 20t-9.5 30t-0.5 36.5q-20 -16 -43 -34t-48 -33t-51 -26t-53 -11q-15 0 -27 7.5t-17 23.5zM76 51
q23 0 51 13.5t55 33.5t49 42.5t34 40.5q1 30 8.5 57.5t7.5 56.5q0 2 -0.5 6t-0.5 6q-13 11 -22 13t-24 2h-8.5t-8.5 -1q-6 -5 -20 -18.5t-29.5 -29.5t-29 -30t-18.5 -19q-1 0 -4 -3.5t-6.5 -8.5t-6 -9.5t-3.5 -7.5l-24 -117v-27zM249 580q-14 0 -26.5 -12t-22 -30t-18 -38
t-15.5 -38t-13 -30t-11 -12q-13 0 -21.5 8.5t-8.5 22.5q0 1 -2 5t-2.5 9.5t2.5 11.5t14 11l107 175l4.5 4.5l7.5 7.5l7.5 7.5l5.5 5.5h5h3q3 -2 7 -6t8 -7.5t7 -7t3 -4.5l102 -235v-3v-5q-1 -1 -4.5 -4t-5.5 -4q-13 11 -21.5 16.5t-15.5 10t-12.5 11.5t-11.5 23l-56 98
q-2 7 -6.5 8t-9.5 1z" />
    <glyph glyph-name="atilde" unicode="&#xe3;" horiz-adv-x="545" 
d="M22 30v15v16q-17 60 -4.5 118t45 104.5t83 78t110.5 38.5h18q22 0 36.5 -9.5t23 -24.5t12 -34t3.5 -38q0 -26 -5.5 -50.5t-12 -49.5t-12 -49.5t-5.5 -51.5v-6q1 -2 2.5 -11.5t2.5 -11.5q2 0 10 -0.5t10 -0.5q10 0 19.5 0.5t19.5 4.5l190 88q1 0 3.5 0.5t3.5 0.5
q10 0 16.5 -6t6.5 -16q0 -5 -0.5 -9.5t-5.5 -8.5q-7 -5 -25.5 -14t-39.5 -20t-39.5 -21t-26.5 -13q-14 -8 -31 -14.5t-35 -12.5t-35.5 -9.5t-31.5 -3.5q-22 0 -36 7.5t-21 20t-9.5 30t-0.5 36.5q-20 -16 -43 -34t-48 -33t-51 -26t-53 -11q-15 0 -27 7.5t-17 23.5zM76 51
q23 0 51 13.5t55 33.5t49 42.5t34 40.5q1 30 8.5 57.5t7.5 56.5q0 2 -0.5 6t-0.5 6q-13 11 -22 13t-24 2h-8.5t-8.5 -1q-6 -5 -20 -18.5t-29.5 -29.5t-29 -30t-18.5 -19q-1 0 -4 -3.5t-6.5 -8.5t-6 -9.5t-3.5 -7.5l-24 -117v-27zM45 577q0 4 1 13.5t2.5 19t5 16.5t7.5 7
l3 -1q1 -1 3 -3.5t4 -3.5q2 -21 8.5 -49t19 -53.5t29 -42.5t39.5 -17q24 0 44.5 13t39.5 33t36.5 43t34 42.5t34 32.5t35.5 13q11 0 28 -5.5t31.5 -16.5t25 -26t10.5 -32q0 -1 -0.5 -1t-0.5 -1v-2q-2 -2 -9 -11.5t-9 -12.5q-8 12 -15.5 23t-15.5 20t-17 14.5t-21 5.5
q-7 0 -11 -0.5t-7 -3.5t-7 -7.5t-12 -12.5q-5 -6 -18.5 -21t-28 -32t-27.5 -32.5t-19 -21.5q-21 -15 -45.5 -26.5t-49.5 -11.5q-22 0 -44.5 14t-41.5 36t-30.5 48.5t-11.5 52.5z" />
    <glyph glyph-name="adieresis" unicode="&#xe4;" horiz-adv-x="545" 
d="M22 30v15v16q-17 60 -4.5 118t45 104.5t83 78t110.5 38.5h18q22 0 36.5 -9.5t23 -24.5t12 -34t3.5 -38q0 -26 -5.5 -50.5t-12 -49.5t-12 -49.5t-5.5 -51.5v-6q1 -2 2.5 -11.5t2.5 -11.5q2 0 10 -0.5t10 -0.5q10 0 19.5 0.5t19.5 4.5l190 88q1 0 3.5 0.5t3.5 0.5
q10 0 16.5 -6t6.5 -16q0 -5 -0.5 -9.5t-5.5 -8.5q-7 -5 -25.5 -14t-39.5 -20t-39.5 -21t-26.5 -13q-14 -8 -31 -14.5t-35 -12.5t-35.5 -9.5t-31.5 -3.5q-22 0 -36 7.5t-21 20t-9.5 30t-0.5 36.5q-20 -16 -43 -34t-48 -33t-51 -26t-53 -11q-15 0 -27 7.5t-17 23.5zM76 51
q23 0 51 13.5t55 33.5t49 42.5t34 40.5q1 30 8.5 57.5t7.5 56.5q0 2 -0.5 6t-0.5 6q-13 11 -22 13t-24 2h-8.5t-8.5 -1q-6 -5 -20 -18.5t-29.5 -29.5t-29 -30t-18.5 -19q-1 0 -4 -3.5t-6.5 -8.5t-6 -9.5t-3.5 -7.5l-24 -117v-27zM55 472q0 19 10 30.5t25 18t32 9t31 2.5
q38 0 38 -48q0 -36 -14.5 -45t-44.5 -9h-24.5t-25.5 3.5t-19.5 12.5t-7.5 26zM141 484h-7t-10.5 -1t-10.5 -3.5t-6 -7.5h34v12zM303 471q0 19 9 31t22.5 18.5t29.5 9t30 2.5q9 0 20 -0.5t20.5 -4t16 -10t6.5 -19.5q0 -18 -7.5 -31t-19.5 -21t-27.5 -12t-30.5 -4h-23
t-22.5 3.5t-17 12t-6.5 25.5zM381 484h-6.5t-10 -1t-10.5 -3.5t-6 -7.5h33v12z" />
    <glyph glyph-name="aring" unicode="&#xe5;" horiz-adv-x="545" 
d="M112 480q0 55 23.5 95.5t72.5 78.5q1 1 5.5 4t10 6.5t11 6t10.5 2.5q7 0 13 -5.5t6 -11.5v-2q0 -2 -2.5 -5.5t-3.5 -4.5v-2q0 -4 9.5 -7.5t22 -7.5t24.5 -8t16 -8q24 -20 35 -45.5t11 -51.5q0 -30 -16 -53.5t-41 -39.5q-21 -13 -46 -21h1q22 0 36.5 -9.5t23 -24.5t12 -34
t3.5 -38q0 -26 -5.5 -50.5t-12 -49.5t-12 -49.5t-5.5 -51.5v-6q1 -2 2.5 -11.5t2.5 -11.5q2 0 10 -0.5t10 -0.5q10 0 19.5 0.5t19.5 4.5l190 88q1 0 3.5 0.5t3.5 0.5q10 0 16.5 -6t6.5 -16q0 -5 -0.5 -9.5t-5.5 -8.5q-7 -5 -25.5 -14t-39.5 -20t-39.5 -21t-26.5 -13
q-14 -8 -31 -14.5t-35 -12.5t-35.5 -9.5t-31.5 -3.5q-22 0 -36 7.5t-21 20t-9.5 30t-0.5 36.5q-20 -16 -43 -34t-48 -33t-51 -26t-53 -11q-15 0 -27 7.5t-17 23.5v15v16q-17 60 -4.5 118t45 104.5t83.5 78.5q26 16 55 26h-1q-5 0 -19 0.5t-18 0.5q-18 3 -28 13.5t-15 23.5
t-6.5 27t-1.5 27zM76 51q23 0 51 13.5t55 33.5t49 42.5t34 40.5q1 30 8.5 57.5t7.5 56.5q0 2 -0.5 6t-0.5 6q-13 11 -22 13t-24 2h-9q-6 0 -8 -1q-6 -5 -20 -18.5t-29.5 -29.5t-29 -30t-18.5 -19q-1 0 -4 -3.5t-6.5 -8.5t-6 -9.5t-3.5 -7.5l-24 -117v-27zM163 508
q9 -18 11 -27.5t4.5 -16.5t8.5 -12.5t23 -12.5q50 0 72 17t22 63q0 23 -1.5 34t-9 17.5t-21.5 10.5t-38 13q-23 -5 -37 -13t-22 -19.5t-10 -25t-2 -28.5z" />
    <glyph glyph-name="ae" unicode="&#xe6;" horiz-adv-x="671" 
d="M22 30v15v16q-17 60 -4.5 118t45 104.5t83 78t110.5 38.5h18q22 0 36.5 -9.5t23 -24.5t12 -34t3.5 -38q0 -26 -5.5 -50.5t-12 -49.5t-12 -49.5t-5.5 -51.5v-6q1 -2 2.5 -11.5t2.5 -11.5q1 0 3.5 -0.5t5.5 -0.5l5 65q2 6 6.5 22t9 34t8 34t5.5 22q6 25 14.5 52.5
t23.5 51.5t38.5 39.5t58.5 15.5q12 0 18 -9.5t10 -20.5q0 -4 0.5 -14.5t0.5 -14.5q0 -43 -9 -76t-26 -61t-42 -52.5t-58 -51.5q0 -3 -2 -10t-2 -10v-2q0 -18 6 -29t16 -17.5t23.5 -8t30.5 -1.5q46 0 89.5 13t79.5 42q5 5 12.5 14.5t15.5 19.5t17 17.5t19 7.5t12 -8t2 -15
q0 -23 -13.5 -42.5t-35 -35t-49 -27.5t-54.5 -20t-52 -12t-41 -4q-38 0 -66.5 8t-47.5 31q-22 -11 -40.5 -10.5t-32 12.5t-18 35t0.5 56q-20 -16 -43 -34t-48 -33t-51 -26t-53 -11q-15 0 -27 7.5t-17 23.5zM76 51q23 0 51 13.5t55 33.5t49 42.5t34 40.5q1 30 8.5 57.5
t7.5 56.5q0 2 -0.5 6t-0.5 6q-13 11 -22 13t-24 2h-8.5t-8.5 -1q-6 -5 -20 -18.5t-29.5 -29.5t-29 -30t-18.5 -19q-1 0 -4 -3.5t-6.5 -8.5t-6 -9.5t-3.5 -7.5l-24 -117v-27zM476 325q-21 -18 -32 -32.5t-18 -30t-11 -33.5t-9 -42q19 15 31.5 30t20.5 31.5t12 34.5t6 42z" />
    <glyph glyph-name="ccedilla" unicode="&#xe7;" horiz-adv-x="522" 
d="M196 -290q-4 4 -11.5 8t-13 10t-10 12.5t-4.5 15.5q0 1 2 3t4 2h4q2 -1 5.5 -5t4.5 -6q13 -6 22 -9t16 -5t14.5 -2.5t16.5 -0.5q6 0 17.5 -2.5t26.5 -4.5t30.5 -3t28 0.5t20 8t7.5 19.5v3q0 2 -1 2l-139 101q-7 4 -15.5 13t-15.5 20.5t-13 23t-6 22.5q-4 39 -2 57
q1 5 2 9q-9 -2 -18 -2q-9 -1 -22 -1q-36 0 -59.5 9t-37.5 26.5t-20.5 43t-8.5 59.5q5 51 23.5 97t43 79t50 51t44.5 11q5 3 8.5 5.5t6 5t6 4t10.5 1.5q14 0 25 -9t19.5 -22t13 -27.5t4.5 -26.5q0 -13 -10 -18t-23 -5q-8 0 -14 3.5t-10.5 8.5t-9.5 10t-13 7h-4l-5 -4
q-3 -4 -4 -6q-21 -25 -39 -44.5t-31.5 -39.5t-21 -43t-7.5 -55v-9q0 -6 0.5 -12t0.5 -13v-8q2 -10 11.5 -15t17.5 -10q3 0 15 -0.5t14 -0.5q36 0 85 11.5t98.5 30.5t93.5 45.5t70 55.5q6 8 10.5 22t10 27.5t12.5 23.5t21 10q13 0 16.5 -10.5t3.5 -20.5q0 -32 -15.5 -58
t-38.5 -47t-50.5 -37t-52.5 -27q-7 -2 -30.5 -11t-50.5 -19t-52.5 -19.5t-37.5 -14.5q-14 -4 -23 -7q5 -7 9 -16q6 -13 7 -27t-7 -22q0 -24 14 -41.5t35.5 -31t45.5 -25t45.5 -24.5t35 -27t13.5 -35q0 -29 -12.5 -42t-31.5 -16.5t-40.5 -2.5t-41.5 1q-4 0 -16.5 2t-26 4
t-26 3.5t-18.5 2.5z" />
    <glyph glyph-name="egrave" unicode="&#xe8;" horiz-adv-x="370" 
d="M16 156q2 6 6.5 21.5t9 33.5t8 34.5t5.5 22.5q6 24 14.5 52t23.5 52t38.5 39.5t58.5 15.5q13 0 18.5 -9.5t9.5 -20.5q0 -4 0.5 -14.5t0.5 -14.5q0 -43 -8.5 -76t-26 -61t-42.5 -52.5t-57 -51.5q-1 -3 -3 -10t-2 -10v-2q0 -18 6 -29t16.5 -17.5t24 -8t29.5 -1.5
q47 0 90 13t79 42q5 5 12.5 14.5t15.5 19.5t17 17.5t19 7.5t12 -8t2 -16q0 -22 -13.5 -41.5t-35 -35t-49 -27.5t-54.5 -20t-51.5 -12t-41.5 -4q-53 0 -88.5 17.5t-48.5 70.5zM159 353q-20 -18 -31.5 -32.5t-18 -30t-11 -33.5t-9.5 -42q19 15 31.5 30t20.5 31t12 34.5t6 42.5
zM60 715q0 27 7 32.5t19 -3t28 -27.5t35.5 -39t40.5 -37.5t44 -24.5q20 -7 17.5 -12.5t-17.5 -8t-39 0t-49.5 12.5t-47.5 30.5t-32 53.5l-1 3t-2 7l-2 8t-1 5z" />
    <glyph glyph-name="eacute" unicode="&#xe9;" horiz-adv-x="370" 
d="M16 156q2 6 6.5 21.5t9 33.5t8 34.5t5.5 22.5q6 24 14.5 52t23.5 52t38.5 39.5t58.5 15.5q13 0 18.5 -9.5t9.5 -20.5q0 -4 0.5 -14.5t0.5 -14.5q0 -43 -8.5 -76t-26 -61t-42.5 -52.5t-57 -51.5q-1 -3 -3 -10t-2 -10v-2q0 -18 6 -29t16.5 -17.5t24 -8t29.5 -1.5
q47 0 90 13t79 42q5 5 12.5 14.5t15.5 19.5t17 17.5t19 7.5t12 -8t2 -16q0 -22 -13.5 -41.5t-35 -35t-49 -27.5t-54.5 -20t-51.5 -12t-41.5 -4q-53 0 -88.5 17.5t-48.5 70.5zM159 353q-20 -18 -31.5 -32.5t-18 -30t-11 -33.5t-9.5 -42q19 15 31.5 30t20.5 31t12 34.5t6 42.5
zM298 716v-5t-1 -8t-1.5 -7.5t-0.5 -4.5q-10 -37 -29.5 -59t-42 -33.5t-44 -14.5t-35 0.5t-15.5 9.5t16 13q19 8 38 27.5t36 42t31.5 43t25.5 30.5t16.5 3.5t5.5 -37.5z" />
    <glyph glyph-name="ecircumflex" unicode="&#xea;" horiz-adv-x="370" 
d="M16 156q2 6 6.5 21.5t9 33.5t8 34.5t5.5 22.5q6 24 14.5 52t23.5 52t38.5 39.5t58.5 15.5q13 0 18.5 -9.5t9.5 -20.5q0 -4 0.5 -14.5t0.5 -14.5q0 -43 -8.5 -76t-26 -61t-42.5 -52.5t-57 -51.5q-1 -3 -3 -10t-2 -10v-2q0 -18 6 -29t16.5 -17.5t24 -8t29.5 -1.5
q47 0 90 13t79 42q5 5 12.5 14.5t15.5 19.5t17 17.5t19 7.5t12 -8t2 -16q0 -22 -13.5 -41.5t-35 -35t-49 -27.5t-54.5 -20t-51.5 -12t-41.5 -4q-53 0 -88.5 17.5t-48.5 70.5zM159 353q-20 -18 -31.5 -32.5t-18 -30t-11 -33.5t-9.5 -42q19 15 31.5 30t20.5 31t12 34.5t6 42.5
zM177 650q-14 0 -26.5 -12t-22 -30t-18 -38t-15.5 -38t-13 -30t-11 -12q-13 0 -21.5 8.5t-8.5 22.5q0 1 -2 5t-2.5 9.5t2.5 11.5t14 11l107 175l4.5 4.5l7.5 7.5l7.5 7.5l5.5 5.5h5h3q3 -2 7 -6t8 -7.5t7 -7t3 -4.5l102 -235v-3v-5q-1 -1 -4.5 -4t-5.5 -4q-13 11 -21.5 16.5
t-15.5 10t-12.5 11.5t-11.5 23l-56 98q-2 7 -6.5 8t-9.5 1z" />
    <glyph glyph-name="edieresis" unicode="&#xeb;" horiz-adv-x="370" 
d="M16 156q2 6 6.5 21.5t9 33.5t8 34.5t5.5 22.5q6 24 14.5 52t23.5 52t38.5 39.5t58.5 15.5q13 0 18.5 -9.5t9.5 -20.5q0 -4 0.5 -14.5t0.5 -14.5q0 -43 -8.5 -76t-26 -61t-42.5 -52.5t-57 -51.5q-1 -3 -3 -10t-2 -10v-2q0 -18 6 -29t16.5 -17.5t24 -8t29.5 -1.5
q47 0 90 13t79 42q5 5 12.5 14.5t15.5 19.5t17 17.5t19 7.5t12 -8t2 -16q0 -22 -13.5 -41.5t-35 -35t-49 -27.5t-54.5 -20t-51.5 -12t-41.5 -4q-53 0 -88.5 17.5t-48.5 70.5zM159 353q-20 -18 -31.5 -32.5t-18 -30t-11 -33.5t-9.5 -42q19 15 31.5 30t20.5 31t12 34.5t6 42.5
zM-10 524q0 19 10 30.5t25 18t32 9t31 2.5q38 0 38 -48q0 -36 -14.5 -45t-44.5 -9h-24.5t-25.5 3.5t-19.5 12.5t-7.5 26zM76 536h-7t-10.5 -1t-10.5 -3.5t-6 -7.5h34v12zM238 523q0 19 9 31t22.5 18.5t29.5 9t30 2.5q9 0 20 -0.5t20.5 -4t16 -10t6.5 -19.5q0 -18 -7.5 -31
t-19.5 -21t-27.5 -12t-30.5 -4h-23t-22.5 3.5t-17 12t-6.5 25.5zM316 536h-6.5t-10 -1t-10.5 -3.5t-6 -7.5h33v12z" />
    <glyph glyph-name="igrave" unicode="&#xec;" horiz-adv-x="357" 
d="M22 210q1 5 6 18t10.5 28t10.5 28t7 18q6 16 11.5 21t20.5 5q16 0 21 -11t5 -26q0 -26 -7.5 -47.5t-16.5 -43t-16.5 -46t-7.5 -56.5v-11.5t1 -15t4 -13t8 -5.5q26 0 52.5 10.5t52 25t49 32t42.5 30.5q7 5 10.5 10t6.5 9.5t7.5 8t14.5 3.5q13 0 21.5 -5.5t8.5 -19.5
q0 -6 -0.5 -11t-5.5 -9q-1 -3 -7.5 -8t-13.5 -10.5t-13 -10t-9 -5.5q-1 0 -5.5 -2.5t-5.5 -2.5l-2.5 -2.5t-1.5 -2.5q-21 -16 -45.5 -32.5t-51.5 -30t-55.5 -22.5t-56.5 -9q-24 0 -36.5 12.5t-18.5 31.5t-7 40t-1 38zM39 486q0 27 7 32.5t19 -3t28 -27.5t35.5 -39
t40.5 -37.5t44 -24.5q20 -7 17.5 -12.5t-17.5 -8t-39 0t-49.5 12.5t-47.5 30.5t-32 53.5l-1 3t-2 7l-2 8t-1 5z" />
    <glyph glyph-name="iacute" unicode="&#xed;" horiz-adv-x="357" 
d="M22 210q1 5 6 18t10.5 28t10.5 28t7 18q6 16 11.5 21t20.5 5q16 0 21 -11t5 -26q0 -26 -7.5 -47.5t-16.5 -43t-16.5 -46t-7.5 -56.5v-11.5t1 -15t4 -13t8 -5.5q26 0 52.5 10.5t52 25t49 32t42.5 30.5q7 5 10.5 10t6.5 9.5t7.5 8t14.5 3.5q13 0 21.5 -5.5t8.5 -19.5
q0 -6 -0.5 -11t-5.5 -9q-1 -3 -7.5 -8t-13.5 -10.5t-13 -10t-9 -5.5q-1 0 -5.5 -2.5t-5.5 -2.5l-2.5 -2.5t-1.5 -2.5q-21 -16 -45.5 -32.5t-51.5 -30t-55.5 -22.5t-56.5 -9q-24 0 -36.5 12.5t-18.5 31.5t-7 40t-1 38zM210 543v-5t-1 -8t-1.5 -7.5t-0.5 -4.5
q-10 -37 -29.5 -59t-42 -33.5t-44 -14.5t-35 0.5t-15.5 9.5t16 13q19 8 38 27.5t36 42t31.5 43t25.5 30.5t16.5 3.5t5.5 -37.5z" />
    <glyph glyph-name="icircumflex" unicode="&#xee;" horiz-adv-x="357" 
d="M22 210q1 5 6 18t10.5 28t10.5 28t7 18q6 16 11.5 21t20.5 5q16 0 21 -11t5 -26q0 -26 -7.5 -47.5t-16.5 -43t-16.5 -46t-7.5 -56.5v-11.5t1 -15t4 -13t8 -5.5q26 0 52.5 10.5t52 25t49 32t42.5 30.5q7 5 10.5 10t6.5 9.5t7.5 8t14.5 3.5q13 0 21.5 -5.5t8.5 -19.5
q0 -6 -0.5 -11t-5.5 -9q-1 -3 -7.5 -8t-13.5 -10.5t-13 -10t-9 -5.5q-1 0 -5.5 -2.5t-5.5 -2.5l-2.5 -2.5t-1.5 -2.5q-21 -16 -45.5 -32.5t-51.5 -30t-55.5 -22.5t-56.5 -9q-24 0 -36.5 12.5t-18.5 31.5t-7 40t-1 38zM113 503q-14 0 -26.5 -12t-22 -30t-18 -38t-15.5 -38
t-13 -30t-11 -12q-13 0 -21.5 8.5t-8.5 22.5q0 1 -2 5t-2.5 9.5t2.5 11.5t14 11l107 175l4.5 4.5l7.5 7.5l7.5 7.5l5.5 5.5h5h3q3 -2 7 -6t8 -7.5t7 -7t3 -4.5l102 -235v-3v-5q-1 -1 -4.5 -4t-5.5 -4q-13 11 -21.5 16.5t-15.5 10t-12.5 11.5t-11.5 23l-56 98q-2 7 -6.5 8
t-9.5 1z" />
    <glyph glyph-name="idieresis" unicode="&#xef;" horiz-adv-x="357" 
d="M22 210q1 5 6 18t10.5 28t10.5 28t7 18q6 16 11.5 21t20.5 5q16 0 21 -11t5 -26q0 -26 -7.5 -47.5t-16.5 -43t-16.5 -46t-7.5 -56.5v-11.5t1 -15t4 -13t8 -5.5q26 0 52.5 10.5t52 25t49 32t42.5 30.5q7 5 10.5 10t6.5 9.5t7.5 8t14.5 3.5q13 0 21.5 -5.5t8.5 -19.5
q0 -6 -0.5 -11t-5.5 -9q-1 -3 -7.5 -8t-13.5 -10.5t-13 -10t-9 -5.5q-1 0 -5.5 -2.5t-5.5 -2.5l-2.5 -2.5t-1.5 -2.5q-21 -16 -45.5 -32.5t-51.5 -30t-55.5 -22.5t-56.5 -9q-24 0 -36.5 12.5t-18.5 31.5t-7 40t-1 38zM4 423q0 21 5.5 33.5t13.5 19.5t17.5 10t17.5 3
q21 0 21 -53q0 -39 -8 -49.5t-24 -10.5h-14t-13.5 4t-11 14t-4.5 29zM51 436q-2 0 -9 -1t-9 -12h18v13zM140 422q0 21 5 34t12.5 20t16 10t16.5 3q5 0 11 -0.5t11.5 -4t9 -11.5t3.5 -21q0 -40 -15.5 -58t-31.5 -18h-13t-12 4t-9 13.5t-4 28.5zM183 436q-2 0 -9 -1t-8 -12h17
v13z" />
    <glyph glyph-name="eth" unicode="&#xf0;" horiz-adv-x="485" 
d="M218 563q7 -9 11 -15l27 36t20.5 22.5t13.5 -1t5 -35.5q0 -1 -0.5 -5t-1.5 -8t-1 -8v-5q-9 -29 -21 -46q85 -108 131.5 -189t62 -139t4 -94t-40 -54t-69 -19.5t-85.5 10t-89 34t-77.5 53.5t-53 67.5t-15.5 76.5q2 30 15 57.5t34.5 49.5t50.5 34.5t66 12.5
q51 0 86.5 -23.5t56.5 -57.5q-2 5 -0.5 6t0.5 3t-5.5 7.5t-16.5 19.5t-34 39.5t-58 66.5q-23 -16 -47.5 -20.5t-40.5 -2t-20 10t15 14.5q14 5 28 16.5t26 26.5q-8 9 -15 18t-16 19q-24 23 -31.5 41.5t-5 30.5t12.5 16t23.5 -1.5t28.5 -21.5t26 -43zM353 233
q-15 19 -28.5 39.5t-30 38t-39.5 29.5t-57 12q-29 0 -48 -10.5t-30.5 -27.5t-16.5 -37.5t-5 -40.5q0 -35 11.5 -66t34 -54.5t57.5 -37t81 -13.5q50 0 77.5 9t38.5 23.5t9 33t-11 37.5t-21.5 36t-21.5 29z" />
    <glyph glyph-name="ntilde" unicode="&#xf1;" horiz-adv-x="461" 
d="M9 20l34 200v28l20 133q3 4 11 4.5t11 0.5q8 0 18.5 -5.5t10.5 -14.5v-68q4 3 14 12t21.5 19t21.5 19t13 13q11 10 26.5 17t29.5 7q29 0 45.5 -18t16.5 -46q0 -2 -0.5 -2.5t-0.5 -2.5v-4l-38 -171v-81q31 0 64.5 12.5t64.5 31.5t58 43.5t47 47.5h4q7 0 11.5 -4.5
t4.5 -11.5q0 -22 -14.5 -43.5t-37 -40.5t-52 -36t-58 -29t-55.5 -19t-46 -7t-30 7t-16.5 18.5t-7 25.5t-1.5 30v13l39 194v33q-24 0 -47.5 -21t-42 -51t-32 -61t-19.5 -51q-2 -7 -6 -25t-7.5 -38t-6.5 -38t-4 -26q1 -6 -3.5 -9t-10.5 -4.5t-12.5 -1.5h-10.5q-9 0 -18 3
t-9 15v3zM22 604q0 4 1 13.5t2.5 19t5 16.5t7.5 7l3 -1q1 -1 3 -3.5t4 -3.5q2 -21 8.5 -49t19 -53.5t29 -42.5t39.5 -17q24 0 44.5 13t39.5 33t36.5 43t34 42.5t34 32.5t35.5 13q11 0 28 -5.5t31.5 -16.5t25 -26t10.5 -32q0 -1 -0.5 -1t-0.5 -1v-2q-2 -2 -9 -11.5t-9 -12.5
q-8 12 -15.5 23t-15.5 20t-17 14.5t-21 5.5q-7 0 -11 -0.5t-7 -3.5t-7 -7.5t-12 -12.5q-5 -6 -18.5 -21t-28 -32t-27.5 -32.5t-19 -21.5q-21 -15 -45.5 -26.5t-49.5 -11.5q-22 0 -44.5 14t-41.5 36t-30.5 48.5t-11.5 52.5z" />
    <glyph glyph-name="ograve" unicode="&#xf2;" horiz-adv-x="484" 
d="M16 78q0 1 1 7t2 12.5t2 12t1 7.5v4v6l14 63q17 36 35.5 69t42.5 58t55.5 40t76.5 15q9 0 22.5 -5.5t27 -13.5t25 -16.5t17.5 -15.5q31 5 45 5.5t24 1t21.5 3.5t35.5 13q17 5 33 5q7 0 13.5 -6t6.5 -14q0 -10 -7 -18t-17 -10l-125 -28l-11 -5q-1 -54 -24 -103t-61 -86
t-88 -58.5t-104 -21.5q-4 0 -13 0.5t-12 0.5q-22 9 -30.5 33t-8.5 45zM80 58q1 -5 8 -5h10q36 0 74 18.5t68.5 48t50 67t19.5 75.5q-32 0 -64 5.5t-62 5.5h-1l-83 -88q-7 -7 -11 -19t-6 -26t-3 -28t-1 -25v-14t1 -15zM172 548q0 27 7 32.5t19 -3t28 -27.5t35.5 -39
t40.5 -37.5t44 -24.5q20 -7 17.5 -12.5t-17.5 -8t-39 0t-49.5 12.5t-47.5 30.5t-32 53.5l-1 3t-2 7l-2 8t-1 5z" />
    <glyph glyph-name="oacute" unicode="&#xf3;" horiz-adv-x="484" 
d="M16 78q0 1 1 7t2 12.5t2 12t1 7.5v4v6l14 63q17 36 35.5 69t42.5 58t55.5 40t76.5 15q9 0 22.5 -5.5t27 -13.5t25 -16.5t17.5 -15.5q31 5 45 5.5t24 1t21.5 3.5t35.5 13q17 5 33 5q7 0 13.5 -6t6.5 -14q0 -10 -7 -18t-17 -10l-125 -28l-11 -5q-1 -54 -24 -103t-61 -86
t-88 -58.5t-104 -21.5q-4 0 -13 0.5t-12 0.5q-22 9 -30.5 33t-8.5 45zM80 58q1 -5 8 -5h10q36 0 74 18.5t68.5 48t50 67t19.5 75.5q-32 0 -64 5.5t-62 5.5h-1l-83 -88q-7 -7 -11 -19t-6 -26t-3 -28t-1 -25v-14t1 -15zM311 540v-5t-1 -8t-1.5 -7.5t-0.5 -4.5
q-10 -37 -29.5 -59t-42 -33.5t-44 -14.5t-35 0.5t-15.5 9.5t16 13q19 8 38 27.5t36 42t31.5 43t25.5 30.5t16.5 3.5t5.5 -37.5z" />
    <glyph glyph-name="ocircumflex" unicode="&#xf4;" horiz-adv-x="484" 
d="M16 78q0 1 1 7t2 12.5t2 12t1 7.5v4v6l14 63q17 36 35.5 69t42.5 58t55.5 40t76.5 15q9 0 22.5 -5.5t27 -13.5t25 -16.5t17.5 -15.5q31 5 45 5.5t24 1t21.5 3.5t35.5 13q17 5 33 5q7 0 13.5 -6t6.5 -14q0 -10 -7 -18t-17 -10l-125 -28l-11 -5q-1 -54 -24 -103t-61 -86
t-88 -58.5t-104 -21.5q-4 0 -13 0.5t-12 0.5q-22 9 -30.5 33t-8.5 45zM80 58q1 -5 8 -5h10q36 0 74 18.5t68.5 48t50 67t19.5 75.5q-32 0 -64 5.5t-62 5.5h-1l-83 -88q-7 -7 -11 -19t-6 -26t-3 -28t-1 -25v-14t1 -15zM237 560q-14 0 -26.5 -12t-22 -30t-18 -38t-15.5 -38
t-13 -30t-11 -12q-13 0 -21.5 8.5t-8.5 22.5q0 1 -2 5t-2.5 9.5t2.5 11.5t14 11l107 175l4.5 4.5l7.5 7.5l7.5 7.5l5.5 5.5h5h3q3 -2 7 -6t8 -7.5t7 -7t3 -4.5l102 -235v-3v-5q-1 -1 -4.5 -4t-5.5 -4q-13 11 -21.5 16.5t-15.5 10t-12.5 11.5t-11.5 23l-56 98q-2 7 -6.5 8
t-9.5 1z" />
    <glyph glyph-name="otilde" unicode="&#xf5;" horiz-adv-x="484" 
d="M16 78q0 1 1 7t2 12.5t2 12t1 7.5v4v6l14 63q17 36 35.5 69t42.5 58t55.5 40t76.5 15q9 0 22.5 -5.5t27 -13.5t25 -16.5t17.5 -15.5q31 5 45 5.5t24 1t21.5 3.5t35.5 13q17 5 33 5q7 0 13.5 -6t6.5 -14q0 -10 -7 -18t-17 -10l-125 -28l-11 -5q-1 -54 -24 -103t-61 -86
t-88 -58.5t-104 -21.5q-4 0 -13 0.5t-12 0.5q-22 9 -30.5 33t-8.5 45zM80 58q1 -5 8 -5h10q36 0 74 18.5t68.5 48t50 67t19.5 75.5q-32 0 -64 5.5t-62 5.5h-1l-83 -88q-7 -7 -11 -19t-6 -26t-3 -28t-1 -25v-14t1 -15zM23 533q0 4 1 13.5t2.5 19t5 16.5t7.5 7l3 -1
q1 -1 3 -3.5t4 -3.5q2 -21 8.5 -49t19 -53.5t29 -42.5t39.5 -17q24 0 44.5 13t39.5 33t36.5 43t34 42.5t34 32.5t35.5 13q11 0 28 -5.5t31.5 -16.5t25 -26t10.5 -32q0 -1 -0.5 -1t-0.5 -1v-2q-2 -2 -9 -11.5t-9 -12.5q-8 12 -15.5 23t-15.5 20t-17 14.5t-21 5.5
q-7 0 -11 -0.5t-7 -3.5t-7 -7.5t-12 -12.5q-5 -6 -18.5 -21t-28 -32t-27.5 -32.5t-19 -21.5q-21 -15 -45.5 -26.5t-49.5 -11.5q-22 0 -44.5 14t-41.5 36t-30.5 48.5t-11.5 52.5z" />
    <glyph glyph-name="odieresis" unicode="&#xf6;" horiz-adv-x="484" 
d="M16 78q0 1 1 7t2 12.5t2 12t1 7.5v4v6l14 63q17 36 35.5 69t42.5 58t55.5 40t76.5 15q9 0 22.5 -5.5t27 -13.5t25 -16.5t17.5 -15.5q31 5 45 5.5t24 1t21.5 3.5t35.5 13q17 5 33 5q7 0 13.5 -6t6.5 -14q0 -10 -7 -18t-17 -10l-125 -28l-11 -5q-1 -54 -24 -103t-61 -86
t-88 -58.5t-104 -21.5q-4 0 -13 0.5t-12 0.5q-22 9 -30.5 33t-8.5 45zM80 58q1 -5 8 -5h10q36 0 74 18.5t68.5 48t50 67t19.5 75.5q-32 0 -64 5.5t-62 5.5h-1l-83 -88q-7 -7 -11 -19t-6 -26t-3 -28t-1 -25v-14t1 -15zM42 441q0 19 10 30.5t25 18t32 9t31 2.5q38 0 38 -48
q0 -36 -14.5 -45t-44.5 -9h-24.5t-25.5 3.5t-19.5 12.5t-7.5 26zM128 453h-7t-10.5 -1t-10.5 -3.5t-6 -7.5h34v12zM290 440q0 19 9 31t22.5 18.5t29.5 9t30 2.5q9 0 20 -0.5t20.5 -4t16 -10t6.5 -19.5q0 -18 -7.5 -31t-19.5 -21t-27.5 -12t-30.5 -4h-23t-22.5 3.5t-17 12
t-6.5 25.5zM368 453h-6.5t-10 -1t-10.5 -3.5t-6 -7.5h33v12z" />
    <glyph glyph-name="divide" unicode="&#xf7;" horiz-adv-x="439" 
d="M160 133q0 32 17.5 56t51.5 24q13 0 25 -5.5t21.5 -15t14.5 -22t5 -24.5q0 -34 -14.5 -52.5t-52.5 -22.5q-40 -4 -54 12t-14 50zM139 472q0 28 16 51.5t34 45.5q5 3 12.5 4.5l17.5 3.5q26 -17 52.5 -37.5t38.5 -41t2.5 -41.5t-56.5 -38q-35 -10 -57.5 -4.5t-36 17.5
t-18.5 24.5t-5 15.5zM62 319q3 7 15 15t19 10q31 2 47 3t24.5 1.5t13 0t12.5 -0.5t24 -0.5t46 -0.5q34 0 68.5 -3t65.5 -14l-17 -17q-1 0 -2 -0.5t-10 -2t-27.5 -3.5t-53.5 -4q-45 -5 -92.5 -6.5t-91.5 -1.5q-5 0 -12 0.5t-14 3.5t-11.5 8t-3.5 12z" />
    <glyph glyph-name="oslash" unicode="&#xf8;" horiz-adv-x="484" 
d="M49 -66q0 13 2.5 23.5t9.5 22.5l11 20h-17q-22 9 -30.5 33t-8.5 45q0 1 1 7t2 12.5t2 12t1 7.5v10l14 63q17 36 35.5 69t42.5 58t55.5 40t76.5 15q9 0 22 -6q6 -2 12 -5q4 8 10 15q7 11 16 18l49 94q5 5 11.5 8.5t12.5 3.5q8 0 9.5 -6t1.5 -13v-10l-78 -130q5 -3 8 -5
q12 -8 18 -15q31 5 45 5.5t24 1t21.5 3.5t35.5 13q17 5 33 5q7 0 13.5 -6t6.5 -14q0 -10 -7 -18t-17 -10l-125 -28l-11 -5q-1 -54 -24 -103t-61 -86t-88 -58q-37 -17 -77 -21l-40 -84q-1 -1 -2 -1h-3q-10 0 -11.5 5.5t-1.5 13.5zM80 58q1 -5 8 -5h15l123 217q-22 3 -42 3h-1
l-83 -88q-7 -7 -11 -19t-6 -26t-3 -28t-1 -25v-14q0 -11 1 -15zM172 71q38 19 68.5 48.5t50 67t19.5 75.5q-23 0 -45 2l-123 -205q15 5 30 12z" />
    <glyph glyph-name="ugrave" unicode="&#xf9;" horiz-adv-x="640" 
d="M5 108q4 14 5.5 29t4 32t9 38.5t20.5 48.5t37.5 62.5t61.5 81.5q4 6 10 10.5t13 4.5q12 0 21 -9.5t9 -20.5q0 -1 -1.5 -6.5t-2.5 -7.5q-11 -23 -21 -41t-21 -34.5t-24.5 -34.5t-31.5 -41q-12 -30 -21 -56t-9 -58q0 -16 1.5 -26t9.5 -27h11q29 0 66.5 23.5t74 56
t66.5 66.5t44 55q2 2 5.5 9.5t4.5 9.5q2 6 7 20.5t10.5 30.5t10.5 30.5t7 20.5q2 9 8 10t12 1q18 0 23 -7.5t5 -24.5v-17q-10 -27 -17.5 -50t-14 -45t-9.5 -44t-3 -48q0 -3 -0.5 -14t1 -22.5t6 -21t13.5 -9.5q24 0 49.5 6.5t51.5 17t49.5 23.5t44.5 26q5 2 12 9t15 13.5
t16 11.5t15 5q20 0 20 -20q0 -15 -18 -31.5t-45.5 -32.5t-61.5 -30t-65.5 -24.5t-56.5 -17t-36 -6.5q-4 0 -14.5 0.5t-14.5 0.5q-16 4 -25 18t-13.5 31.5t-5.5 35t-1 28.5q-3 -2 -7.5 -4.5t-5.5 -5.5q-8 -7 -26.5 -21.5t-40 -31t-40 -30.5t-25.5 -20q-20 -15 -44 -25
t-49 -10q-26 0 -41 8.5t-23.5 23t-11.5 34.5t-3 43zM198 580q0 27 7 32.5t19 -3t28 -27.5t35.5 -39t40.5 -37.5t44 -24.5q20 -7 17.5 -12.5t-17.5 -8t-39 0t-49.5 12.5t-47.5 30.5t-32 53.5l-1 3t-2 7l-2 8t-1 5z" />
    <glyph glyph-name="uacute" unicode="&#xfa;" horiz-adv-x="640" 
d="M5 108q4 14 5.5 29t4 32t9 38.5t20.5 48.5t37.5 62.5t61.5 81.5q4 6 10 10.5t13 4.5q12 0 21 -9.5t9 -20.5q0 -1 -1.5 -6.5t-2.5 -7.5q-11 -23 -21 -41t-21 -34.5t-24.5 -34.5t-31.5 -41q-12 -30 -21 -56t-9 -58q0 -16 1.5 -26t9.5 -27h11q29 0 66.5 23.5t74 56
t66.5 66.5t44 55q2 2 5.5 9.5t4.5 9.5q2 6 7 20.5t10.5 30.5t10.5 30.5t7 20.5q2 9 8 10t12 1q18 0 23 -7.5t5 -24.5v-17q-10 -27 -17.5 -50t-14 -45t-9.5 -44t-3 -48q0 -3 -0.5 -14t1 -22.5t6 -21t13.5 -9.5q24 0 49.5 6.5t51.5 17t49.5 23.5t44.5 26q5 2 12 9t15 13.5
t16 11.5t15 5q20 0 20 -20q0 -15 -18 -31.5t-45.5 -32.5t-61.5 -30t-65.5 -24.5t-56.5 -17t-36 -6.5q-4 0 -14.5 0.5t-14.5 0.5q-16 4 -25 18t-13.5 31.5t-5.5 35t-1 28.5q-3 -2 -7.5 -4.5t-5.5 -5.5q-8 -7 -26.5 -21.5t-40 -31t-40 -30.5t-25.5 -20q-20 -15 -44 -25
t-49 -10q-26 0 -41 8.5t-23.5 23t-11.5 34.5t-3 43zM403 629v-5t-1 -8t-1.5 -7.5t-0.5 -4.5q-10 -37 -29.5 -59t-42 -33.5t-44 -14.5t-35 0.5t-15.5 9.5t16 13q19 8 38 27.5t36 42t31.5 43t25.5 30.5t16.5 3.5t5.5 -37.5z" />
    <glyph glyph-name="ucircumflex" unicode="&#xfb;" horiz-adv-x="640" 
d="M5 108q4 14 5.5 29t4 32t9 38.5t20.5 48.5t37.5 62.5t61.5 81.5q4 6 10 10.5t13 4.5q12 0 21 -9.5t9 -20.5q0 -1 -1.5 -6.5t-2.5 -7.5q-11 -23 -21 -41t-21 -34.5t-24.5 -34.5t-31.5 -41q-12 -30 -21 -56t-9 -58q0 -16 1.5 -26t9.5 -27h11q29 0 66.5 23.5t74 56
t66.5 66.5t44 55q2 2 5.5 9.5t4.5 9.5q2 6 7 20.5t10.5 30.5t10.5 30.5t7 20.5q2 9 8 10t12 1q18 0 23 -7.5t5 -24.5v-17q-10 -27 -17.5 -50t-14 -45t-9.5 -44t-3 -48q0 -3 -0.5 -14t1 -22.5t6 -21t13.5 -9.5q24 0 49.5 6.5t51.5 17t49.5 23.5t44.5 26q5 2 12 9t15 13.5
t16 11.5t15 5q20 0 20 -20q0 -15 -18 -31.5t-45.5 -32.5t-61.5 -30t-65.5 -24.5t-56.5 -17t-36 -6.5q-4 0 -14.5 0.5t-14.5 0.5q-16 4 -25 18t-13.5 31.5t-5.5 35t-1 28.5q-3 -2 -7.5 -4.5t-5.5 -5.5q-8 -7 -26.5 -21.5t-40 -31t-40 -30.5t-25.5 -20q-20 -15 -44 -25
t-49 -10q-26 0 -41 8.5t-23.5 23t-11.5 34.5t-3 43zM306 618q-14 0 -26.5 -12t-22 -30t-18 -38t-15.5 -38t-13 -30t-11 -12q-13 0 -21.5 8.5t-8.5 22.5q0 1 -2 5t-2.5 9.5t2.5 11.5t14 11l107 175l4.5 4.5l7.5 7.5l7.5 7.5l5.5 5.5h5h3q3 -2 7 -6t8 -7.5t7 -7t3 -4.5
l102 -235v-3v-5q-1 -1 -4.5 -4t-5.5 -4q-13 11 -21.5 16.5t-15.5 10t-12.5 11.5t-11.5 23l-56 98q-2 7 -6.5 8t-9.5 1z" />
    <glyph glyph-name="udieresis" unicode="&#xfc;" horiz-adv-x="640" 
d="M5 108q4 14 5.5 29t4 32t9 38.5t20.5 48.5t37.5 62.5t61.5 81.5q4 6 10 10.5t13 4.5q12 0 21 -9.5t9 -20.5q0 -1 -1.5 -6.5t-2.5 -7.5q-11 -23 -21 -41t-21 -34.5t-24.5 -34.5t-31.5 -41q-12 -30 -21 -56t-9 -58q0 -16 1.5 -26t9.5 -27h11q29 0 66.5 23.5t74 56
t66.5 66.5t44 55q2 2 5.5 9.5t4.5 9.5q2 6 7 20.5t10.5 30.5t10.5 30.5t7 20.5q2 9 8 10t12 1q18 0 23 -7.5t5 -24.5v-17q-10 -27 -17.5 -50t-14 -45t-9.5 -44t-3 -48q0 -3 -0.5 -14t1 -22.5t6 -21t13.5 -9.5q24 0 49.5 6.5t51.5 17t49.5 23.5t44.5 26q5 2 12 9t15 13.5
t16 11.5t15 5q20 0 20 -20q0 -15 -18 -31.5t-45.5 -32.5t-61.5 -30t-65.5 -24.5t-56.5 -17t-36 -6.5q-4 0 -14.5 0.5t-14.5 0.5q-16 4 -25 18t-13.5 31.5t-5.5 35t-1 28.5q-3 -2 -7.5 -4.5t-5.5 -5.5q-8 -7 -26.5 -21.5t-40 -31t-40 -30.5t-25.5 -20q-20 -15 -44 -25
t-49 -10q-26 0 -41 8.5t-23.5 23t-11.5 34.5t-3 43zM125 510q0 19 10 30.5t25 18t32 9t31 2.5q38 0 38 -48q0 -36 -14.5 -45t-44.5 -9h-24.5t-25.5 3.5t-19.5 12.5t-7.5 26zM211 522h-7t-10.5 -1t-10.5 -3.5t-6 -7.5h34v12zM373 509q0 19 9 31t22.5 18.5t29.5 9t30 2.5
q9 0 20 -0.5t20.5 -4t16 -10t6.5 -19.5q0 -18 -7.5 -31t-19.5 -21t-27.5 -12t-30.5 -4h-23t-22.5 3.5t-17 12t-6.5 25.5zM451 522h-6.5t-10 -1t-10.5 -3.5t-6 -7.5h33v12z" />
    <glyph glyph-name="yacute" unicode="&#xfd;" horiz-adv-x="513" 
d="M-33 -252q0 65 28.5 119.5t73 99t99 79.5t106.5 61l29 93q-5 -6 -19.5 -20t-30.5 -29.5t-31 -29t-21 -18.5q-12 -10 -29 -23t-36.5 -24.5t-39.5 -19t-36 -7.5q-22 0 -28.5 10.5t-6.5 30.5q0 16 2.5 33t-1.5 34l39 106q9 9 17.5 28l17 38t18 33t20.5 14q12 0 20.5 -7
t8.5 -20q0 -10 -2.5 -17.5t-7.5 -19.5q-13 -27 -25.5 -51t-23 -48t-17 -49.5t-6.5 -56.5h4l6 3.5t13.5 8t15.5 9.5t14 9q55 36 97 84.5t83 100.5q4 6 7 9t5 4.5t5 1.5h9q14 0 22.5 -5.5t10.5 -24.5q1 -13 -2 -31.5t-8 -36.5t-10.5 -35.5t-9.5 -27.5v-15q2 1 9.5 3t10.5 3
q6 1 33 11t58.5 21.5t58.5 21.5t34 13h2q7 0 12.5 -5t5.5 -12t-4.5 -12t-10.5 -8.5t-13 -6.5t-12 -5q-7 -4 -20 -9.5t-29.5 -12t-34.5 -14.5t-35 -15q-41 -17 -89 -36l-88 -332q-6 -24 -22.5 -50t-38.5 -48t-48.5 -35.5t-53.5 -13.5q-28 0 -48 14.5t-33 37t-18.5 48.5
t-5.5 49zM21 -252q0 -13 2.5 -29t9.5 -31t17.5 -25t27.5 -10q22 0 40.5 13.5t33 33t24.5 41.5t16 39q3 12 9 33.5t11.5 42.5t9.5 37.5t4 19.5v4l29 126q-40 -13 -81.5 -44t-75.5 -72t-55.5 -88t-21.5 -91zM377 554v-5t-1 -8t-1.5 -7.5t-0.5 -4.5q-10 -37 -29.5 -59
t-42 -33.5t-44 -14.5t-35 0.5t-15.5 9.5t16 13q19 8 38 27.5t36 42t31.5 43t25.5 30.5t16.5 3.5t5.5 -37.5z" />
    <glyph glyph-name="thorn" unicode="&#xfe;" horiz-adv-x="373" 
d="M34 49q6 19 10.5 33.5t10 35t13.5 53t21.5 91t33 148.5t47.5 224q14 29 24.5 30t14.5 -22.5t-1 -68t-22 -105.5q13 2 37.5 -3t49.5 -14.5t44 -21t20 -23.5q24 -29 19 -75t-28 -119q-25 -46 -55 -65t-59 -22.5t-51.5 2.5t-30.5 12l-4 -4q-1 -1 -6 -10.5t-12 -23.5t-14 -32
t-11 -37q-22 -21 -35 -29.5t-19.5 -9t-7.5 5.5t0.5 15t4.5 18.5t6 16.5zM146 196q35 -19 64.5 -11t50 31.5t30 56t2.5 61t-31 46.5t-69 14q-11 -15 -17.5 -40.5t-10.5 -54t-8 -56.5t-11 -47z" />
    <glyph glyph-name="ydieresis" unicode="&#xff;" horiz-adv-x="513" 
d="M-33 -252q0 65 28.5 119.5t73 99t99 79.5t106.5 61l29 93q-5 -6 -19.5 -20t-30.5 -29.5t-31 -29t-21 -18.5q-12 -10 -29 -23t-36.5 -24.5t-39.5 -19t-36 -7.5q-22 0 -28.5 10.5t-6.5 30.5q0 16 2.5 33t-1.5 34l39 106q9 9 17.5 28l17 38t18 33t20.5 14q12 0 20.5 -7
t8.5 -20q0 -10 -2.5 -17.5t-7.5 -19.5q-13 -27 -25.5 -51t-23 -48t-17 -49.5t-6.5 -56.5h4l6 3.5t13.5 8t15.5 9.5t14 9q55 36 97 84.5t83 100.5q4 6 7 9t5 4.5t5 1.5h9q14 0 22.5 -5.5t10.5 -24.5q1 -13 -2 -31.5t-8 -36.5t-10.5 -35.5t-9.5 -27.5v-15q2 1 9.5 3t10.5 3
q6 1 33 11t58.5 21.5t58.5 21.5t34 13h2q7 0 12.5 -5t5.5 -12t-4.5 -12t-10.5 -8.5t-13 -6.5t-12 -5q-7 -4 -20 -9.5t-29.5 -12t-34.5 -14.5t-35 -15q-41 -17 -89 -36l-88 -332q-6 -24 -22.5 -50t-38.5 -48t-48.5 -35.5t-53.5 -13.5q-28 0 -48 14.5t-33 37t-18.5 48.5
t-5.5 49zM21 -252q0 -13 2.5 -29t9.5 -31t17.5 -25t27.5 -10q22 0 40.5 13.5t33 33t24.5 41.5t16 39q3 12 9 33.5t11.5 42.5t9.5 37.5t4 19.5v4l29 126q-40 -13 -81.5 -44t-75.5 -72t-55.5 -88t-21.5 -91zM71 454q0 19 10 30.5t25 18t32 9t31 2.5q38 0 38 -48
q0 -36 -14.5 -45t-44.5 -9h-24.5t-25.5 3.5t-19.5 12.5t-7.5 26zM157 466h-7t-10.5 -1t-10.5 -3.5t-6 -7.5h34v12zM319 453q0 19 9 31t22.5 18.5t29.5 9t30 2.5q9 0 20 -0.5t20.5 -4t16 -10t6.5 -19.5q0 -18 -7.5 -31t-19.5 -21t-27.5 -12t-30.5 -4h-23t-22.5 3.5t-17 12
t-6.5 25.5zM397 466h-6.5t-10 -1t-10.5 -3.5t-6 -7.5h33v12z" />
    <glyph glyph-name="Amacron" unicode="&#x100;" horiz-adv-x="719" 
d="M20 212q0 42 3 78t10 70.5t16.5 70t23.5 76.5q9 28 28.5 68t47 75.5t62 60.5t72.5 25h83q1 0 6.5 -1.5t8.5 -2.5q39 -19 61 -46.5t30 -70.5q9 -41 19.5 -78.5t10.5 -78.5q0 -49 -2.5 -97t-2.5 -97v-10.5t0.5 -16.5t0.5 -17v-10q1 -8 2 -23t4 -33t6 -37t7.5 -34.5
t10.5 -25.5t14 -10q27 0 56.5 7t53.5 22q2 2 9.5 7.5t16 12t16 12t11.5 8.5q7 5 11.5 7.5t11.5 2.5q6 0 11 -3.5t5 -10.5q0 -23 -25.5 -43t-59.5 -36t-68.5 -25.5t-51.5 -9.5q-22 0 -37.5 22.5t-27 53t-20 63t-16.5 53.5q-14 -40 -41.5 -74.5t-62.5 -60.5t-76 -41t-83 -15
q-46 0 -76.5 18.5t-48 48t-24 68t-6.5 78.5zM82 220q0 -30 1.5 -60.5t11 -55.5t30 -40.5t58.5 -15.5q50 0 89 22.5t68 59t49 84t32 97t17.5 96.5t5.5 84q-26 0 -26 24q0 15 6 26.5t6 29.5q0 22 -7.5 43t-22 38t-34 26.5t-42.5 9.5q-47 0 -82.5 -25.5t-62.5 -66.5
t-45.5 -92.5t-30 -104t-16.5 -100t-5 -79.5zM161 921q2 7 14 15t19 10q47 3 72 4t45.5 0.5t45 -1t70.5 -0.5q34 0 68.5 -2.5t65.5 -14.5l-17 -16q-2 -2 -45.5 -3.5t-113.5 -7.5q-45 -5 -92.5 -6.5t-91.5 -1.5q-4 0 -11.5 1t-14.5 3.5t-11.5 7.5t-2.5 12z" />
    <glyph glyph-name="amacron" unicode="&#x101;" horiz-adv-x="545" 
d="M22 30v15v16q-17 60 -4.5 118t45 104.5t83 78t110.5 38.5h18q22 0 36.5 -9.5t23 -24.5t12 -34t3.5 -38q0 -26 -5.5 -50.5t-12 -49.5t-12 -49.5t-5.5 -51.5v-6q1 -2 2.5 -11.5t2.5 -11.5q2 0 10 -0.5t10 -0.5q10 0 19.5 0.5t19.5 4.5l190 88q1 0 3.5 0.5t3.5 0.5
q10 0 16.5 -6t6.5 -16q0 -5 -0.5 -9.5t-5.5 -8.5q-7 -5 -25.5 -14t-39.5 -20t-39.5 -21t-26.5 -13q-14 -8 -31 -14.5t-35 -12.5t-35.5 -9.5t-31.5 -3.5q-22 0 -36 7.5t-21 20t-9.5 30t-0.5 36.5q-20 -16 -43 -34t-48 -33t-51 -26t-53 -11q-15 0 -27 7.5t-17 23.5zM76 51
q23 0 51 13.5t55 33.5t49 42.5t34 40.5q1 30 8.5 57.5t7.5 56.5q0 2 -0.5 6t-0.5 6q-13 11 -22 13t-24 2h-8.5t-8.5 -1q-6 -5 -20 -18.5t-29.5 -29.5t-29 -30t-18.5 -19q-1 0 -4 -3.5t-6.5 -8.5t-6 -9.5t-3.5 -7.5l-24 -117v-27zM75 620q2 7 14 15t19 10q47 3 72 4t45.5 0.5
t45 -1t70.5 -0.5q34 0 68.5 -2.5t65.5 -14.5l-17 -16q-2 -2 -45.5 -3.5t-113.5 -7.5q-45 -5 -92.5 -6.5t-91.5 -1.5q-4 0 -11.5 1t-14.5 3.5t-11.5 7.5t-2.5 12z" />
    <glyph glyph-name="Abreve" unicode="&#x102;" horiz-adv-x="719" 
d="M20 212q0 42 3 78t10 70.5t16.5 70t23.5 76.5q9 28 28.5 68t47 75.5t62 60.5t72.5 25h83q1 0 6.5 -1.5t8.5 -2.5q39 -19 61 -46.5t30 -70.5q9 -41 19.5 -78.5t10.5 -78.5q0 -49 -2.5 -97t-2.5 -97v-10.5t0.5 -16.5t0.5 -17v-10q1 -8 2 -23t4 -33t6 -37t7.5 -34.5
t10.5 -25.5t14 -10q27 0 56.5 7t53.5 22q2 2 9.5 7.5t16 12t16 12t11.5 8.5q7 5 11.5 7.5t11.5 2.5q6 0 11 -3.5t5 -10.5q0 -23 -25.5 -43t-59.5 -36t-68.5 -25.5t-51.5 -9.5q-22 0 -37.5 22.5t-27 53t-20 63t-16.5 53.5q-14 -40 -41.5 -74.5t-62.5 -60.5t-76 -41t-83 -15
q-46 0 -76.5 18.5t-48 48t-24 68t-6.5 78.5zM82 220q0 -30 1.5 -60.5t11 -55.5t30 -40.5t58.5 -15.5q50 0 89 22.5t68 59t49 84t32 97t17.5 96.5t5.5 84q-26 0 -26 24q0 15 6 26.5t6 29.5q0 22 -7.5 43t-22 38t-34 26.5t-42.5 9.5q-47 0 -82.5 -25.5t-62.5 -66.5
t-45.5 -92.5t-30 -104t-16.5 -100t-5 -79.5zM456 939q3 0 5.5 -10.5t0.5 -25.5t-7.5 -32.5t-17 -33t-31 -26t-47.5 -10.5q-42 0 -65 21.5t-33 47t-11 47t1 23.5l34 1q-3 -33 7.5 -54t28.5 -30.5t38 -8t36 12.5t24.5 30.5t0.5 48.5z" />
    <glyph glyph-name="abreve" unicode="&#x103;" horiz-adv-x="545" 
d="M22 30v15v16q-17 60 -4.5 118t45 104.5t83 78t110.5 38.5h18q22 0 36.5 -9.5t23 -24.5t12 -34t3.5 -38q0 -26 -5.5 -50.5t-12 -49.5t-12 -49.5t-5.5 -51.5v-6q1 -2 2.5 -11.5t2.5 -11.5q2 0 10 -0.5t10 -0.5q10 0 19.5 0.5t19.5 4.5l190 88q1 0 3.5 0.5t3.5 0.5
q10 0 16.5 -6t6.5 -16q0 -5 -0.5 -9.5t-5.5 -8.5q-7 -5 -25.5 -14t-39.5 -20t-39.5 -21t-26.5 -13q-14 -8 -31 -14.5t-35 -12.5t-35.5 -9.5t-31.5 -3.5q-22 0 -36 7.5t-21 20t-9.5 30t-0.5 36.5q-20 -16 -43 -34t-48 -33t-51 -26t-53 -11q-15 0 -27 7.5t-17 23.5zM76 51
q23 0 51 13.5t55 33.5t49 42.5t34 40.5q1 30 8.5 57.5t7.5 56.5q0 2 -0.5 6t-0.5 6q-13 11 -22 13t-24 2h-8.5t-8.5 -1q-6 -5 -20 -18.5t-29.5 -29.5t-29 -30t-18.5 -19q-1 0 -4 -3.5t-6.5 -8.5t-6 -9.5t-3.5 -7.5l-24 -117v-27zM369 638q3 0 5.5 -10.5t0.5 -25.5
t-7.5 -32.5t-17 -33t-31 -26t-47.5 -10.5q-42 0 -65 21.5t-33 47t-11 47t1 23.5l34 1q-3 -33 7.5 -54t28.5 -30.5t38 -8t36 12.5t24.5 30.5t0.5 48.5z" />
    <glyph glyph-name="Aogonek" unicode="&#x104;" horiz-adv-x="719" 
d="M669 -178q19 -14 11 -19t-29 -1t-50 15.5t-51.5 30t-33 42.5t3.5 54q16 34 28 55q-5 -1 -9 -1q-22 0 -37.5 22.5t-27 53t-20 63t-16.5 53.5q-14 -40 -41.5 -74.5t-62.5 -60.5t-76 -41t-83 -15q-46 0 -76.5 18.5t-48 48t-24 68t-6.5 78.5q0 42 3 78t10 70.5t16.5 70
t23.5 76.5q9 28 28.5 68t47 75.5t62 60.5t72.5 25h83q1 0 7 -2l8 -2q39 -19 61 -46.5t30 -70.5q9 -41 19.5 -78.5t10.5 -78.5q0 -49 -2.5 -97t-2.5 -97v-11q0 -7 0.5 -16t0.5 -17v-10q1 -8 2 -23t4 -33t6 -37t7.5 -34.5t10.5 -25.5t14 -10q27 0 56.5 7t53.5 22q2 2 9.5 7.5
t16 12t16 12t11.5 8.5q7 5 11.5 7.5t11.5 2.5q6 0 11 -3.5t5 -10.5q0 -23 -25.5 -43t-59.5 -36t-69 -26q-1 0 -3 -1v-2q0 -22 -2.5 -47t-4 -46.5t1.5 -24.5zM82 220q0 -30 1.5 -60.5t11 -55.5t30 -40.5t58.5 -15.5q50 0 89 22.5t68 59t49 84t32 97t17.5 96.5t5.5 84
q-26 0 -26 24q0 15 6 26.5t6 29.5q0 22 -7.5 43t-22 38t-34 26.5t-42.5 9.5q-47 0 -82.5 -25.5t-62.5 -66.5t-45.5 -92.5t-30 -104t-16.5 -100t-5 -79.5z" />
    <glyph glyph-name="aogonek" unicode="&#x105;" horiz-adv-x="545" 
d="M437 -170q19 -14 11.5 -19t-28.5 -0.5t-50 15.5t-51.5 29.5t-33.5 43t4 53.5q17 37 30 57q-17 2 -27 7q-14 8 -21 20.5t-9.5 30t-0.5 36.5q-20 -16 -43 -34t-48 -33t-51 -26t-53 -11q-15 0 -27 7.5t-17 23.5v15v16q-17 60 -4.5 118t45 104.5t83 78t110.5 38.5h18
q22 0 36.5 -9.5t23 -24.5t12 -34t3.5 -38q0 -26 -5.5 -50.5t-12 -49.5t-12 -49.5t-5.5 -51.5v-6q1 -2 2.5 -11.5t2.5 -11.5q2 0 10 -0.5t10 -0.5q10 0 19.5 0.5t19.5 4.5l190 88q1 0 3.5 0.5t3.5 0.5q10 0 16.5 -6t6.5 -16q0 -5 -0.5 -9.5t-5.5 -8.5q-7 -5 -25.5 -14
t-39.5 -20t-39.5 -21t-26.5 -13q-14 -8 -31 -14.5t-35 -12.5t-36 -9l-4 -1q0 -22 -2 -47t-4 -46.5t2 -24.5zM76 51q23 0 51 13.5t55 33.5t49 42.5t34 40.5q1 30 8.5 57.5t7.5 56.5q0 2 -0.5 6t-0.5 6q-13 11 -22 13t-24 2h-9q-6 0 -8 -1q-6 -5 -20 -18.5t-29.5 -29.5
t-29 -30t-18.5 -19q-1 0 -4 -3.5t-6.5 -8.5t-6 -9.5t-3.5 -7.5l-24 -117v-27z" />
    <glyph glyph-name="Cacute" unicode="&#x106;" horiz-adv-x="616" 
d="M28 392q-10 54 3.5 113.5t43.5 118.5t74 113.5t94.5 98.5t106 74t108.5 41q16 0 28.5 -10t21.5 -25t13.5 -32t4.5 -31v-97q0 -10 -8 -12.5t-14 -2.5q-7 0 -17 2t-10 13q0 4 -1 13t-2 20t-1.5 21t-0.5 13q0 2 -0.5 13.5t-2.5 23.5t-6 22t-10 10h-35l-9 -4.5l-21 -10.5
t-24 -12.5t-18 -11.5q-3 -2 -9.5 -7t-13.5 -10t-13 -10t-9 -7q-54 -52 -94 -96.5t-67 -92.5t-40.5 -103.5t-13.5 -131.5q0 -30 3.5 -66.5t11 -74.5t21.5 -74.5t35 -64.5t51 -45t71 -17h22q45 15 79.5 27.5t62 25.5t50 28.5t44 37.5t44.5 53t52 73q1 0 3 0.5t4 0.5
q18 0 18 -18q0 -23 -11.5 -51.5t-42 -62.5t-85 -71.5t-139.5 -75.5q-16 -7 -28 -11.5t-23 -6.5t-22.5 -2.5t-25.5 -0.5q-52 0 -90.5 18t-66.5 48.5t-46.5 70t-29.5 84t-15.5 89t-4.5 83.5zM372 1075v-5t-1 -8t-1.5 -7.5t-0.5 -4.5q-10 -37 -29.5 -59t-42 -33.5t-44 -14.5
t-35 0.5t-15.5 9.5t16 13q19 8 38 27.5t36 42t31.5 43t25.5 30.5t16.5 3.5t5.5 -37.5z" />
    <glyph glyph-name="cacute" unicode="&#x107;" horiz-adv-x="522" 
d="M20 137q5 51 23.5 97t43 79t50 51t44.5 11q5 3 8.5 5.5t6 5t6 4t10.5 1.5q14 0 25 -9t19.5 -22t13 -27.5t4.5 -26.5q0 -13 -10 -18t-23 -5q-8 0 -14 3.5t-10.5 8.5t-9.5 10t-13 7h-1h-3l-4.5 -4.5t-4.5 -5.5q-21 -25 -39 -44.5t-31.5 -39.5t-21 -43t-7.5 -55v-9t0.5 -12
t0.5 -12v-9q2 -10 11.5 -15t17.5 -10q3 0 15 -0.5t14 -0.5q36 0 85 11.5t98.5 30.5t93.5 45.5t70 55.5q6 8 10.5 22t10 27.5t12.5 23.5t21 10q13 0 16.5 -10.5t3.5 -20.5q0 -32 -15.5 -58t-38.5 -47t-50.5 -37t-52.5 -27q-7 -2 -30.5 -11t-50.5 -19t-52.5 -19.5t-37.5 -14.5
q-16 -5 -27 -7.5t-20 -4.5t-18.5 -2.5t-22.5 -0.5q-36 0 -59.5 9t-37.5 26.5t-20.5 43t-8.5 59.5zM372 716v-5t-1 -8t-1.5 -7.5t-0.5 -4.5q-10 -37 -29.5 -59t-42 -33.5t-44 -14.5t-35 0.5t-15.5 9.5t16 13q19 8 38 27.5t36 42t31.5 43t25.5 30.5t16.5 3.5t5.5 -37.5z" />
    <glyph glyph-name="Ccircumflex" unicode="&#x108;" horiz-adv-x="616" 
d="M28 392q-10 54 3.5 113.5t43.5 118.5t74 113.5t94.5 98.5t106 74t108.5 41q16 0 28.5 -10t21.5 -25t13.5 -32t4.5 -31v-97q0 -10 -8 -12.5t-14 -2.5q-7 0 -17 2t-10 13q0 4 -1 13t-2 20t-1.5 21t-0.5 13q0 2 -0.5 13.5t-2.5 23.5t-6 22t-10 10h-35l-9 -4.5l-21 -10.5
t-24 -12.5t-18 -11.5q-3 -2 -9.5 -7t-13.5 -10t-13 -10t-9 -7q-54 -52 -94 -96.5t-67 -92.5t-40.5 -103.5t-13.5 -131.5q0 -30 3.5 -66.5t11 -74.5t21.5 -74.5t35 -64.5t51 -45t71 -17h22q45 15 79.5 27.5t62 25.5t50 28.5t44 37.5t44.5 53t52 73q1 0 3 0.5t4 0.5
q18 0 18 -18q0 -23 -11.5 -51.5t-42 -62.5t-85 -71.5t-139.5 -75.5q-16 -7 -28 -11.5t-23 -6.5t-22.5 -2.5t-25.5 -0.5q-52 0 -90.5 18t-66.5 48.5t-46.5 70t-29.5 84t-15.5 89t-4.5 83.5zM367 1168q-14 0 -26.5 -12t-22 -30t-18 -38t-15.5 -38t-13 -30t-11 -12
q-13 0 -21.5 8.5t-8.5 22.5q0 1 -2 5t-2.5 9.5t2.5 11.5t14 11l107 175l4.5 4.5l7.5 7.5l7.5 7.5l5.5 5.5h5h3q3 -2 7 -6t8 -7.5t7 -7t3 -4.5l102 -235v-3v-5q-1 -1 -4.5 -4t-5.5 -4q-13 11 -21.5 16.5t-15.5 10t-12.5 11.5t-11.5 23l-56 98q-2 7 -6.5 8t-9.5 1z" />
    <glyph glyph-name="ccircumflex" unicode="&#x109;" horiz-adv-x="522" 
d="M20 137q5 51 23.5 97t43 79t50 51t44.5 11q5 3 8.5 5.5t6 5t6 4t10.5 1.5q14 0 25 -9t19.5 -22t13 -27.5t4.5 -26.5q0 -13 -10 -18t-23 -5q-8 0 -14 3.5t-10.5 8.5t-9.5 10t-13 7h-1h-3l-4.5 -4.5t-4.5 -5.5q-21 -25 -39 -44.5t-31.5 -39.5t-21 -43t-7.5 -55v-9t0.5 -12
t0.5 -12v-9q2 -10 11.5 -15t17.5 -10q3 0 15 -0.5t14 -0.5q36 0 85 11.5t98.5 30.5t93.5 45.5t70 55.5q6 8 10.5 22t10 27.5t12.5 23.5t21 10q13 0 16.5 -10.5t3.5 -20.5q0 -32 -15.5 -58t-38.5 -47t-50.5 -37t-52.5 -27q-7 -2 -30.5 -11t-50.5 -19t-52.5 -19.5t-37.5 -14.5
q-16 -5 -27 -7.5t-20 -4.5t-18.5 -2.5t-22.5 -0.5q-36 0 -59.5 9t-37.5 26.5t-20.5 43t-8.5 59.5zM265 822q-14 0 -26.5 -12t-22 -30t-18 -38t-15.5 -38t-13 -30t-11 -12q-13 0 -21.5 8.5t-8.5 22.5q0 1 -2 5t-2.5 9.5t2.5 11.5t14 11l107 175l4.5 4.5l7.5 7.5l7.5 7.5
l5.5 5.5h5h3q3 -2 7 -6t8 -7.5t7 -7t3 -4.5l102 -235v-3v-5q-1 -1 -4.5 -4t-5.5 -4q-13 11 -21.5 16.5t-15.5 10t-12.5 11.5t-11.5 23l-56 98q-2 7 -6.5 8t-9.5 1z" />
    <glyph glyph-name="Cdotaccent" unicode="&#x10a;" horiz-adv-x="616" 
d="M15 382q-10 54 3.5 113.5t43.5 118.5t74 113.5t94.5 98.5t106 74t108.5 41q16 0 28.5 -10t21.5 -25t13.5 -32t4.5 -31v-97q0 -10 -8 -12.5t-14 -2.5q-7 0 -17 2t-10 13q0 4 -1 13t-2 20t-1.5 21t-0.5 13q0 2 -0.5 13.5t-2.5 23.5t-6 22t-10 10h-35l-9 -4.5l-21 -10.5
t-24 -12.5t-18 -11.5q-3 -2 -9.5 -7t-13.5 -10t-13 -10t-9 -7q-54 -52 -94 -96.5t-67 -92.5t-40.5 -103.5t-13.5 -131.5q0 -30 3.5 -66.5t11 -74.5t21.5 -74.5t35 -64.5t51 -45t71 -17h22q45 15 79.5 27.5t62 25.5t50 28.5t44 37.5t44.5 53t52 73q1 0 3 0.5t4 0.5
q18 0 18 -18q0 -23 -11.5 -51.5t-42 -62.5t-85 -71.5t-139.5 -75.5q-16 -7 -28 -11.5t-23 -6.5t-22.5 -2.5t-25.5 -0.5q-52 0 -90.5 18t-66.5 48.5t-46.5 70t-29.5 84t-15.5 89t-4.5 83.5zM273 1032q0 8 4.5 15.5t11.5 13.5t14 9.5t13 3.5q4 0 9.5 -2t11 -6t9 -9.5
t3.5 -11.5q0 -8 -3.5 -16t-9 -14.5t-12 -11t-12.5 -4.5q-5 0 -11.5 2t-13 6.5t-10.5 11t-4 13.5z" />
    <glyph glyph-name="cdotaccent" unicode="&#x10b;" horiz-adv-x="522" 
d="M20 137q5 51 23.5 97t43 79t50 51t44.5 11q5 3 8.5 5.5t6 5t6 4t10.5 1.5q14 0 25 -9t19.5 -22t13 -27.5t4.5 -26.5q0 -13 -10 -18t-23 -5q-8 0 -14 3.5t-10.5 8.5t-9.5 10t-13 7h-1h-3l-4.5 -4.5t-4.5 -5.5q-21 -25 -39 -44.5t-31.5 -39.5t-21 -43t-7.5 -55v-9t0.5 -12
t0.5 -12v-9q2 -10 11.5 -15t17.5 -10q3 0 15 -0.5t14 -0.5q36 0 85 11.5t98.5 30.5t93.5 45.5t70 55.5q6 8 10.5 22t10 27.5t12.5 23.5t21 10q13 0 16.5 -10.5t3.5 -20.5q0 -32 -15.5 -58t-38.5 -47t-50.5 -37t-52.5 -27q-7 -2 -30.5 -11t-50.5 -19t-52.5 -19.5t-37.5 -14.5
q-16 -5 -27 -7.5t-20 -4.5t-18.5 -2.5t-22.5 -0.5q-36 0 -59.5 9t-37.5 26.5t-20.5 43t-8.5 59.5zM223 541q0 8 4.5 15.5t11.5 13.5t14 9.5t13 3.5q4 0 9.5 -2t11 -6t9 -9.5t3.5 -11.5q0 -8 -3.5 -16t-9 -14.5t-12 -11t-12.5 -4.5q-5 0 -11.5 2t-13 6.5t-10.5 11t-4 13.5z
" />
    <glyph glyph-name="Ccaron" unicode="&#x10c;" horiz-adv-x="616" 
d="M28 392q-10 54 3.5 113.5t43.5 118.5t74 113.5t94.5 98.5t106 74t108.5 41q16 0 28.5 -10t21.5 -25t13.5 -32t4.5 -31v-97q0 -10 -8 -12.5t-14 -2.5q-7 0 -17 2t-10 13q0 4 -1 13t-2 20t-1.5 21t-0.5 13q0 2 -0.5 13.5t-2.5 23.5t-6 22t-10 10h-35l-9 -4.5l-21 -10.5
t-24 -12.5t-18 -11.5q-3 -2 -9.5 -7t-13.5 -10t-13 -10t-9 -7q-54 -52 -94 -96.5t-67 -92.5t-40.5 -103.5t-13.5 -131.5q0 -30 3.5 -66.5t11 -74.5t21.5 -74.5t35 -64.5t51 -45t71 -17h22q45 15 79.5 27.5t62 25.5t50 28.5t44 37.5t44.5 53t52 73q1 0 3 0.5t4 0.5
q18 0 18 -18q0 -23 -11.5 -51.5t-42 -62.5t-85 -71.5t-139.5 -75.5q-16 -7 -28 -11.5t-23 -6.5t-22.5 -2.5t-25.5 -0.5q-52 0 -90.5 18t-66.5 48.5t-46.5 70t-29.5 84t-15.5 89t-4.5 83.5zM313 1062q5 0 9.5 1t7.5 7l60 84q7 13 12.5 19t12.5 10t16 8.5t23 13.5q2 0 6 -3
t5 -5v-3v-3l-108 -200q0 -1 -3.5 -3.5t-8 -5.5t-8.5 -7t-7 -5h-3h-6q-2 1 -6 4.5t-8 6.5t-7.5 6t-4.5 4l-115 150q-11 3 -14.5 8.5t-2.5 10t3 8t2 4.5q0 13 9 19t23 6q8 0 18 -21t23.5 -46t31 -46.5t40.5 -21.5z" />
    <glyph glyph-name="ccaron" unicode="&#x10d;" horiz-adv-x="522" 
d="M20 137q5 51 23.5 97t43 79t50 51t44.5 11q5 3 8.5 5.5t6 5t6 4t10.5 1.5q14 0 25 -9t19.5 -22t13 -27.5t4.5 -26.5q0 -13 -10 -18t-23 -5q-8 0 -14 3.5t-10.5 8.5t-9.5 10t-13 7h-1h-3l-4.5 -4.5t-4.5 -5.5q-21 -25 -39 -44.5t-31.5 -39.5t-21 -43t-7.5 -55v-9t0.5 -12
t0.5 -12v-9q2 -10 11.5 -15t17.5 -10q3 0 15 -0.5t14 -0.5q36 0 85 11.5t98.5 30.5t93.5 45.5t70 55.5q6 8 10.5 22t10 27.5t12.5 23.5t21 10q13 0 16.5 -10.5t3.5 -20.5q0 -32 -15.5 -58t-38.5 -47t-50.5 -37t-52.5 -27q-7 -2 -30.5 -11t-50.5 -19t-52.5 -19.5t-37.5 -14.5
q-16 -5 -27 -7.5t-20 -4.5t-18.5 -2.5t-22.5 -0.5q-36 0 -59.5 9t-37.5 26.5t-20.5 43t-8.5 59.5zM266 761q5 0 9.5 1t7.5 7l60 84q7 13 12.5 19t12.5 10t16 8.5t23 13.5q2 0 6 -3t5 -5v-3v-3l-108 -200q0 -1 -3.5 -3.5t-8 -5.5t-8.5 -7t-7 -5h-3h-6q-2 1 -6 4.5t-8 6.5
t-7.5 6t-4.5 4l-115 150q-11 3 -14.5 8.5t-2.5 10t3 8t2 4.5q0 13 9 19t23 6q8 0 18 -21t23.5 -46t31 -46.5t40.5 -21.5z" />
    <glyph glyph-name="Dcaron" unicode="&#x10e;" horiz-adv-x="532" 
d="M199 36q0 5 0.5 9t4.5 8q2 0 6.5 0.5t6.5 0.5q18 0 34.5 -3t34.5 -3q33 0 63 9t53.5 26.5t37.5 44t14 62.5q0 21 -6.5 42t-17.5 41t-25 37.5t-30 30.5l-224 185q-2 3 -9.5 10.5t-11.5 9.5l-1 -2h-2h-1v-393l-5 -73q0 -9 -9 -13.5t-15 -6.5q-12 -1 -17.5 4t-8.5 14t-3 19
v17v507q-20 31 -32.5 63t-12.5 69q0 9 1 24t4.5 29.5t12 25t23.5 10.5q10 0 14.5 -8t4.5 -17q0 -15 -3 -28t-3 -28q0 -9 -0.5 -23t5.5 -24q1 12 1.5 32t4.5 39t13.5 33t29.5 14q8 0 14 -3.5t6 -12.5v-102q-12 -13 -13.5 -29.5t-1.5 -32.5v-13q0 -3 1 -8q1 -3 4.5 -8t8 -11.5
t8.5 -12t7 -8.5l225 -184q51 -43 84 -96.5t33 -120.5q0 -44 -18 -78.5t-48 -59t-68.5 -37.5t-79.5 -13q-8 0 -24 1t-31.5 4t-27 10t-11.5 21zM271 1062q5 0 9.5 1t7.5 7l60 84q7 13 12.5 19t12.5 10t16 8.5t23 13.5q2 0 6 -3t5 -5v-3v-3l-108 -200q0 -1 -3.5 -3.5t-8 -5.5
t-8.5 -7t-7 -5h-3h-6q-2 1 -6 4.5t-8 6.5t-7.5 6t-4.5 4l-115 150q-11 3 -14.5 8.5t-2.5 10t3 8t2 4.5q0 13 9 19t23 6q8 0 18 -21t23.5 -46t31 -46.5t40.5 -21.5z" />
    <glyph glyph-name="Emacron" unicode="&#x112;" 
d="M48 39q-2 3 -5.5 11.5t-7.5 19t-7 19.5t-4 14l-0.5 9.5t-0.5 15.5q0 21 2 43t9 44q3 5 11 20.5t17.5 32.5t17.5 32.5t12 20.5q25 44 63.5 78t78.5 64q4 3 17.5 14t30.5 23t31.5 23t17.5 13l3 3t3 2v3v2q-30 6 -58.5 13.5t-50.5 22t-35 37t-13 57.5q0 43 24 73.5t59.5 51
t76.5 30t76 9.5q18 0 37.5 -2.5t36 -10t27 -21t10.5 -36.5q0 -14 -8.5 -21.5t-21.5 -7.5q-12 0 -16 6.5t-9.5 15t-17 15.5t-37.5 7q-22 0 -43.5 -3.5t-42.5 -1.5q-17 -5 -34.5 -15.5t-31.5 -24.5t-23 -31.5t-9 -37.5q0 -28 14 -42.5t35.5 -21t46 -7.5t46 -3.5t35.5 -10
t14 -26.5v-9l-30 -29q-5 -5 -17.5 -13.5t-27 -19t-31 -23t-31 -23.5t-27 -20t-17.5 -14q-28 -23 -57 -52.5t-53.5 -64t-40 -72t-15.5 -76.5q0 -46 18 -66t60 -20q41 0 82.5 12t81.5 31.5t76.5 44t67.5 49.5h4q8 0 14.5 -4.5t6.5 -12.5q0 -5 -5.5 -12.5t-12 -13.5
t-11.5 -10.5l-5 -4.5q-33 -25 -70.5 -48.5t-77 -42.5t-81 -30.5t-84.5 -11.5h-19h-19q-33 9 -55 35zM78 921q2 7 14 15t19 10q47 3 72 4t45.5 0.5t45 -1t70.5 -0.5q34 0 68.5 -2.5t65.5 -14.5l-17 -16q-2 -2 -45.5 -3.5t-113.5 -7.5q-45 -5 -92.5 -6.5t-91.5 -1.5
q-4 0 -11.5 1t-14.5 3.5t-11.5 7.5t-2.5 12z" />
    <glyph glyph-name="emacron" unicode="&#x113;" horiz-adv-x="370" 
d="M16 156q2 6 6.5 21.5t9 33.5t8 34.5t5.5 22.5q6 24 14.5 52t23.5 52t38.5 39.5t58.5 15.5q13 0 18.5 -9.5t9.5 -20.5q0 -4 0.5 -14.5t0.5 -14.5q0 -43 -8.5 -76t-26 -61t-42.5 -52.5t-57 -51.5q-1 -3 -3 -10t-2 -10v-2q0 -18 6 -29t16.5 -17.5t24 -8t29.5 -1.5
q47 0 90 13t79 42q5 5 12.5 14.5t15.5 19.5t17 17.5t19 7.5t12 -8t2 -16q0 -22 -13.5 -41.5t-35 -35t-49 -27.5t-54.5 -20t-51.5 -12t-41.5 -4q-53 0 -88.5 17.5t-48.5 70.5zM159 353q-20 -18 -31.5 -32.5t-18 -30t-11 -33.5t-9.5 -42q19 15 31.5 30t20.5 31t12 34.5t6 42.5
zM-10 620q2 7 14 15t19 10q47 3 72 4t45.5 0.5t45 -1t70.5 -0.5q34 0 68.5 -2.5t65.5 -14.5l-17 -16q-2 -2 -45.5 -3.5t-113.5 -7.5q-45 -5 -92.5 -6.5t-91.5 -1.5q-4 0 -11.5 1t-14.5 3.5t-11.5 7.5t-2.5 12z" />
    <glyph glyph-name="Ebreve" unicode="&#x114;" 
d="M48 39q-2 3 -5.5 11.5t-7.5 19t-7 19.5t-4 14l-0.5 9.5t-0.5 15.5q0 21 2 43t9 44q3 5 11 20.5t17.5 32.5t17.5 32.5t12 20.5q25 44 63.5 78t78.5 64q4 3 17.5 14t30.5 23t31.5 23t17.5 13l3 3t3 2v3v2q-30 6 -58.5 13.5t-50.5 22t-35 37t-13 57.5q0 43 24 73.5t59.5 51
t76.5 30t76 9.5q18 0 37.5 -2.5t36 -10t27 -21t10.5 -36.5q0 -14 -8.5 -21.5t-21.5 -7.5q-12 0 -16 6.5t-9.5 15t-17 15.5t-37.5 7q-22 0 -43.5 -3.5t-42.5 -1.5q-17 -5 -34.5 -15.5t-31.5 -24.5t-23 -31.5t-9 -37.5q0 -28 14 -42.5t35.5 -21t46 -7.5t46 -3.5t35.5 -10
t14 -26.5v-9l-30 -29q-5 -5 -17.5 -13.5t-27 -19t-31 -23t-31 -23.5t-27 -20t-17.5 -14q-28 -23 -57 -52.5t-53.5 -64t-40 -72t-15.5 -76.5q0 -46 18 -66t60 -20q41 0 82.5 12t81.5 31.5t76.5 44t67.5 49.5h4q8 0 14.5 -4.5t6.5 -12.5q0 -5 -5.5 -12.5t-12 -13.5
t-11.5 -10.5l-5 -4.5q-33 -25 -70.5 -48.5t-77 -42.5t-81 -30.5t-84.5 -11.5h-19h-19q-33 9 -55 35zM372 1001q3 0 5.5 -10.5t0.5 -25.5t-7.5 -32.5t-17 -33t-31 -26t-47.5 -10.5q-42 0 -65 21.5t-33 47t-11 47t1 23.5l34 1q-3 -33 7.5 -54t28.5 -30.5t38 -8t36 12.5
t24.5 30.5t0.5 48.5z" />
    <glyph glyph-name="ebreve" unicode="&#x115;" horiz-adv-x="370" 
d="M16 156q2 6 6.5 21.5t9 33.5t8 34.5t5.5 22.5q6 24 14.5 52t23.5 52t38.5 39.5t58.5 15.5q13 0 18.5 -9.5t9.5 -20.5q0 -4 0.5 -14.5t0.5 -14.5q0 -43 -8.5 -76t-26 -61t-42.5 -52.5t-57 -51.5q-1 -3 -3 -10t-2 -10v-2q0 -18 6 -29t16.5 -17.5t24 -8t29.5 -1.5
q47 0 90 13t79 42q5 5 12.5 14.5t15.5 19.5t17 17.5t19 7.5t12 -8t2 -16q0 -22 -13.5 -41.5t-35 -35t-49 -27.5t-54.5 -20t-51.5 -12t-41.5 -4q-53 0 -88.5 17.5t-48.5 70.5zM159 353q-20 -18 -31.5 -32.5t-18 -30t-11 -33.5t-9.5 -42q19 15 31.5 30t20.5 31t12 34.5t6 42.5
zM281 638q3 0 5.5 -10.5t0.5 -25.5t-7.5 -32.5t-17 -33t-31 -26t-47.5 -10.5q-42 0 -65 21.5t-33 47t-11 47t1 23.5l34 1q-3 -33 7.5 -54t28.5 -30.5t38 -8t36 12.5t24.5 30.5t0.5 48.5z" />
    <glyph glyph-name="Edotaccent" unicode="&#x116;" 
d="M48 39q-2 3 -5.5 11.5t-7.5 19t-7 19.5t-4 14l-0.5 9.5t-0.5 15.5q0 21 2 43t9 44q3 5 11 20.5t17.5 32.5t17.5 32.5t12 20.5q25 44 63.5 78t78.5 64q4 3 17.5 14t30.5 23t31.5 23t17.5 13l3 3t3 2v3v2q-30 6 -58.5 13.5t-50.5 22t-35 37t-13 57.5q0 43 24 73.5t59.5 51
t76.5 30t76 9.5q18 0 37.5 -2.5t36 -10t27 -21t10.5 -36.5q0 -14 -8.5 -21.5t-21.5 -7.5q-12 0 -16 6.5t-9.5 15t-17 15.5t-37.5 7q-22 0 -43.5 -3.5t-42.5 -1.5q-17 -5 -34.5 -15.5t-31.5 -24.5t-23 -31.5t-9 -37.5q0 -28 14 -42.5t35.5 -21t46 -7.5t46 -3.5t35.5 -10
t14 -26.5v-9l-30 -29q-5 -5 -17.5 -13.5t-27 -19t-31 -23t-31 -23.5t-27 -20t-17.5 -14q-28 -23 -57 -52.5t-53.5 -64t-40 -72t-15.5 -76.5q0 -46 18 -66t60 -20q41 0 82.5 12t81.5 31.5t76.5 44t67.5 49.5h4q8 0 14.5 -4.5t6.5 -12.5q0 -5 -5.5 -12.5t-12 -13.5
t-11.5 -10.5l-5 -4.5q-33 -25 -70.5 -48.5t-77 -42.5t-81 -30.5t-84.5 -11.5h-19h-19q-33 9 -55 35zM327 923q0 8 4.5 15.5t11.5 13.5t14 9.5t13 3.5q4 0 9.5 -2t11 -6t9 -9.5t3.5 -11.5q0 -8 -3.5 -16t-9 -14.5t-12 -11t-12.5 -4.5q-5 0 -11.5 2t-13 6.5t-10.5 11t-4 13.5z
" />
    <glyph glyph-name="edotaccent" unicode="&#x117;" horiz-adv-x="370" 
d="M16 156q2 6 6.5 21.5t9 33.5t8 34.5t5.5 22.5q6 24 14.5 52t23.5 52t38.5 39.5t58.5 15.5q13 0 18.5 -9.5t9.5 -20.5q0 -4 0.5 -14.5t0.5 -14.5q0 -43 -8.5 -76t-26 -61t-42.5 -52.5t-57 -51.5q-1 -3 -3 -10t-2 -10v-2q0 -18 6 -29t16.5 -17.5t24 -8t29.5 -1.5
q47 0 90 13t79 42q5 5 12.5 14.5t15.5 19.5t17 17.5t19 7.5t12 -8t2 -16q0 -22 -13.5 -41.5t-35 -35t-49 -27.5t-54.5 -20t-51.5 -12t-41.5 -4q-53 0 -88.5 17.5t-48.5 70.5zM159 353q-20 -18 -31.5 -32.5t-18 -30t-11 -33.5t-9.5 -42q19 15 31.5 30t20.5 31t12 34.5t6 42.5
zM146 541q0 8 4.5 15.5t11.5 13.5t14 9.5t13 3.5q4 0 9.5 -2t11 -6t9 -9.5t3.5 -11.5q0 -8 -3.5 -16t-9 -14.5t-12 -11t-12.5 -4.5q-5 0 -11.5 2t-13 6.5t-10.5 11t-4 13.5z" />
    <glyph glyph-name="Eogonek" unicode="&#x118;" 
d="M444 -119q19 -13 11 -18t-29 -1t-50 15t-51.5 29.5t-33 43t3.5 54.5q15 29 24 48l-12 -6q-40 -19 -81.5 -30.5t-84.5 -11.5h-19h-19q-33 9 -55 35q-2 3 -5.5 11.5t-7.5 19t-7 19.5t-4 14l-0.5 9.5t-0.5 15.5q0 21 2 43t9 44q3 5 11 20.5t17.5 32.5t17.5 32.5t12 20.5
q25 44 63.5 78t78.5 64q4 3 17.5 14t30.5 23t31 23l18 13l3 3q2 2 3 2v5q-30 6 -58.5 13.5t-50.5 22t-35 37t-13 57.5q0 43 24 73.5t59.5 51t76.5 30t76 9.5q18 0 37.5 -2.5t36 -10t27 -21t10.5 -36.5q0 -14 -8.5 -21.5t-21.5 -7.5q-12 0 -16 6.5t-9.5 15t-17 15.5t-37.5 7
q-22 0 -43.5 -3.5t-42.5 -1.5q-17 -5 -34.5 -15.5t-31.5 -24.5t-23 -31.5t-9 -37.5q0 -28 14 -42.5t35.5 -21t46 -7.5t46 -3.5t35.5 -10t14 -26.5v-9l-30 -29q-5 -5 -17.5 -13.5t-27 -19t-31 -23t-31 -23.5t-27 -20t-17.5 -14q-28 -23 -57 -52.5t-53.5 -64t-40 -72
t-15.5 -76.5q0 -46 18 -66t60 -20q41 0 82.5 12t81.5 31.5t76.5 44t67.5 49.5h4q8 0 14.5 -4.5t6.5 -12.5q0 -5 -5.5 -12.5t-12 -13.5t-11.5 -11l-5 -4q-33 -25 -71 -49q-10 -7 -21 -13v-12q0 -22 -2.5 -47t-4 -46t1.5 -25z" />
    <glyph glyph-name="eogonek" unicode="&#x119;" horiz-adv-x="370" 
d="M318 -178q19 -14 11 -19t-29 -1t-50 15.5t-51.5 30t-33 42.5t3.5 54q20 41 33 61q-7 -1 -13 -2q-24 -4 -41 -4q-53 0 -88.5 17.5t-48.5 70.5l5 69l6 21q5 16 9.5 34t8 34.5t5.5 22.5q6 24 14.5 52t23.5 52t38.5 39.5t58.5 15.5q13 0 18.5 -9.5t9.5 -20.5q0 -4 0.5 -14.5
t0.5 -14.5q0 -43 -8.5 -76t-26 -61t-42.5 -52.5t-57 -51.5q-1 -3 -3 -10t-2 -10v-2q0 -18 6 -29t16.5 -17.5t24 -8t29.5 -1.5q47 0 90 13t79 42q5 5 12.5 14.5t15.5 19.5t17 17.5t19 7.5t12 -8t2 -16q0 -22 -13.5 -41.5t-35 -35t-49 -27.5t-54.5 -20l-5 -2v-9
q0 -22 -2.5 -47t-4 -46.5t1.5 -24.5zM159 353q-20 -18 -31.5 -32.5t-18 -30t-11 -33.5t-9.5 -42q19 15 31.5 30t20.5 31t12 34.5t6 42.5z" />
    <glyph glyph-name="Ecaron" unicode="&#x11a;" 
d="M48 39q-2 3 -5.5 11.5t-7.5 19t-7 19.5t-4 14l-0.5 9.5t-0.5 15.5q0 21 2 43t9 44q3 5 11 20.5t17.5 32.5t17.5 32.5t12 20.5q25 44 63.5 78t78.5 64q4 3 17.5 14t30.5 23t31.5 23t17.5 13l3 3t3 2v3v2q-30 6 -58.5 13.5t-50.5 22t-35 37t-13 57.5q0 43 24 73.5t59.5 51
t76.5 30t76 9.5q18 0 37.5 -2.5t36 -10t27 -21t10.5 -36.5q0 -14 -8.5 -21.5t-21.5 -7.5q-12 0 -16 6.5t-9.5 15t-17 15.5t-37.5 7q-22 0 -43.5 -3.5t-42.5 -1.5q-17 -5 -34.5 -15.5t-31.5 -24.5t-23 -31.5t-9 -37.5q0 -28 14 -42.5t35.5 -21t46 -7.5t46 -3.5t35.5 -10
t14 -26.5v-9l-30 -29q-5 -5 -17.5 -13.5t-27 -19t-31 -23t-31 -23.5t-27 -20t-17.5 -14q-28 -23 -57 -52.5t-53.5 -64t-40 -72t-15.5 -76.5q0 -46 18 -66t60 -20q41 0 82.5 12t81.5 31.5t76.5 44t67.5 49.5h4q8 0 14.5 -4.5t6.5 -12.5q0 -5 -5.5 -12.5t-12 -13.5
t-11.5 -10.5l-5 -4.5q-33 -25 -70.5 -48.5t-77 -42.5t-81 -30.5t-84.5 -11.5h-19h-19q-33 9 -55 35zM281 1062q5 0 9.5 1t7.5 7l60 84q7 13 12.5 19t12.5 10t16 8.5t23 13.5q2 0 6 -3t5 -5v-3v-3l-108 -200q0 -1 -3.5 -3.5t-8 -5.5t-8.5 -7t-7 -5h-3h-6q-2 1 -6 4.5t-8 6.5
t-7.5 6t-4.5 4l-115 150q-11 3 -14.5 8.5t-2.5 10t3 8t2 4.5q0 13 9 19t23 6q8 0 18 -21t23.5 -46t31 -46.5t40.5 -21.5z" />
    <glyph glyph-name="ecaron" unicode="&#x11b;" horiz-adv-x="370" 
d="M16 156q2 6 6.5 21.5t9 33.5t8 34.5t5.5 22.5q6 24 14.5 52t23.5 52t38.5 39.5t58.5 15.5q13 0 18.5 -9.5t9.5 -20.5q0 -4 0.5 -14.5t0.5 -14.5q0 -43 -8.5 -76t-26 -61t-42.5 -52.5t-57 -51.5q-1 -3 -3 -10t-2 -10v-2q0 -18 6 -29t16.5 -17.5t24 -8t29.5 -1.5
q47 0 90 13t79 42q5 5 12.5 14.5t15.5 19.5t17 17.5t19 7.5t12 -8t2 -16q0 -22 -13.5 -41.5t-35 -35t-49 -27.5t-54.5 -20t-51.5 -12t-41.5 -4q-53 0 -88.5 17.5t-48.5 70.5zM159 353q-20 -18 -31.5 -32.5t-18 -30t-11 -33.5t-9.5 -42q19 15 31.5 30t20.5 31t12 34.5t6 42.5
zM193 761q5 0 9.5 1t7.5 7l60 84q7 13 12.5 19t12.5 10t16 8.5t23 13.5q2 0 6 -3t5 -5v-3v-3l-108 -200q0 -1 -3.5 -3.5t-8 -5.5t-8.5 -7t-7 -5h-3h-6q-2 1 -6 4.5t-8 6.5t-7.5 6t-4.5 4l-115 150q-11 3 -14.5 8.5t-2.5 10t3 8t2 4.5q0 13 9 19t23 6q8 0 18 -21t23.5 -46
t31 -46.5t40.5 -21.5z" />
    <glyph glyph-name="Gcircumflex" unicode="&#x11c;" horiz-adv-x="926" 
d="M258 190q-1 0 -1.5 0.5l-0.5 0.5l-2 -1l-8 -4t-8 -5q-7 -6 -25 -21.5t-38 -32.5t-38 -32.5t-25 -21.5q-2 -2 -8 -10l-13.5 -18t-15.5 -17.5t-14 -7.5q-11 0 -24 6.5t-13 19.5q0 8 12.5 23t31 33t42 37t45.5 37t40.5 33.5t28.5 24.5q-29 41 -55.5 74t-56.5 73v11
q0 17 7 22.5t23 5.5q11 0 18 -2t20 -9q48 -8 87.5 -13.5t82.5 -5.5h25q3 2 8.5 8t11.5 13t11.5 13.5t7.5 9.5q5 6 5 15q0 7 -3 15t-7 16.5t-7 17t-3 17.5v7l59 244q5 22 21 46.5t37 44.5t46.5 32.5t49.5 12.5q12 0 19 -6t11 -14.5t5.5 -18.5t1.5 -19q0 -24 -3 -47t-13 -46
l-78 -190q-2 -8 -7.5 -17t-12 -18.5t-13 -18.5t-11.5 -15h8q17 0 31 7t30 13q100 41 167.5 106.5t110.5 166.5q4 4 9.5 5t10.5 1q10 0 17 -6.5t7 -16.5v-4t-1 -4q-4 -8 -11.5 -26t-17 -40.5t-19.5 -47t-19 -47t-15.5 -40.5t-9.5 -27q-4 -13 -9.5 -33t-11.5 -43.5t-12 -48.5
t-10.5 -45.5t-7 -35.5t-2.5 -19v-9q0 -3 -3 -18t-7 -33.5t-8.5 -37t-6.5 -28.5q-7 -26 -18.5 -58t-29.5 -59.5t-43 -46t-59 -18.5q-47 0 -93 16.5t-88 43.5t-78 61.5t-64 69.5zM292 229l2.5 -3.5t6.5 -8.5l8 -10t7 -7q24 -26 54 -52.5t63.5 -49t70 -36t74.5 -13.5
q26 0 41 17t24 40.5t16.5 48.5t18.5 40l38 180v6q4 25 8.5 46t11 42t13.5 44.5t16 52.5q-11 -9 -26 -20t-30 -21t-30 -18.5t-26 -14.5q-10 -5 -29.5 -12.5t-39 -15.5t-34.5 -13.5t-19 -6.5l-59 -10l-4 -4t-5 -6q-2 -2 -6 -8t-9 -11.5t-9 -11.5t-6 -8q3 0 12.5 1t20 -0.5
t18.5 -6t8 -13.5q0 -10 -9 -14.5t-16 -5.5q-4 0 -14 -0.5t-22 -1.5t-22 -2t-15 -1zM260 265l71 72v4q-11 1 -25 3t-30 3t-31.5 2.5t-27.5 1.5h-3q-2 -1 -7.5 -2.5t-7.5 -2.5zM600 840q-17 0 -32 -8.5t-27.5 -21t-21.5 -28t-12 -31.5l-44 -171q-2 -6 -3 -17t-2 -23.5t-1 -24
v-17.5h6q22 40 46.5 80t44.5 82t33 86t13 94zM579 1099q-14 0 -26.5 -12t-22 -30t-18 -38t-15.5 -38t-13 -30t-11 -12q-13 0 -21.5 8.5t-8.5 22.5q0 1 -2 5t-2.5 9.5t2.5 11.5t14 11l107 175l4.5 4.5l7.5 7.5l7.5 7.5l5.5 5.5h5h3q3 -2 7 -6t8 -7.5t7 -7t3 -4.5l102 -235v-3
v-5q-1 -1 -4.5 -4t-5.5 -4q-13 11 -21.5 16.5t-15.5 10t-12.5 11.5t-11.5 23l-56 98q-2 7 -6.5 8t-9.5 1z" />
    </font>
</defs>
</svg>
