<svg xmlns="http://www.w3.org/2000/svg" width="176.066" height="176.066" viewBox="0 0 176.066 176.066">
  <g id="Group_99" data-name="Group 99" transform="translate(-60.792 -1314.912)">
    <circle id="Ellipse_30" data-name="Ellipse 30" cx="88.033" cy="88.033" r="88.033" transform="translate(60.792 1314.912)" fill="#c2b59b"/>
    <g id="Group_98" data-name="Group 98">
      <path id="Path_321" data-name="Path 321" d="M175.288,1350.953c-2.442-11.923-10.987-20.216-25.488-20.216-5.1,0-10.514,2.116-12.383,4.836-7.237-.423-12.089,3.5-14.3,10.038-.148.3-.287.6-.413.916-5.132,12.826-11.39,41.481-11.39,53.822,0,23.759,15.861,40.089,36.139,40.089s37.3-13.552,37.3-37.311C184.752,1391.977,180.07,1366,175.288,1350.953Z" fill="#733c30"/>
      <path id="Path_322" data-name="Path 322" d="M127.4,1391.558l-.456-.143c-1.695.083-3.794-3.975-3.957-7.67l-.931-7.066c-.056-1.282.281-2.3,1.294-1.984l.313.1a5.122,5.122,0,0,1,3.209,4.8Z" fill="#f28c63"/>
      <path id="Path_323" data-name="Path 323" d="M170.5,1391.581l.456-.147c1.695.067,3.757-4.009,3.887-7.7l.867-7.074c.045-1.283-.3-2.3-1.312-1.973l-.312.1a5.121,5.121,0,0,0-3.166,4.829Z" fill="#f28c63"/>
      <g id="Group_96" data-name="Group 96">
        <path id="Path_324" data-name="Path 324" d="M163.977,1396.378h-29.7v34.064l29.7-.048Z" fill="#e07f57"/>
        <path id="Path_325" data-name="Path 325" d="M134.281,1409.939l13.754,11.007-13.754,9.448Z" fill="#f28c63"/>
        <path id="Path_326" data-name="Path 326" d="M163.977,1409.939v20.455s-17.521,1.924-29.7,0Z" fill="#fb9b67"/>
      </g>
      <path id="Path_327" data-name="Path 327" d="M149.111,1336.7c-13.654,0-24.723,10.312-24.723,23.033a21.622,21.622,0,0,0,.263,3.346l2.349,32.48a15.878,15.878,0,0,0,6.033,11.343l10.844,8.511a8.224,8.224,0,0,0,5.165,1.8h.138a8.224,8.224,0,0,0,5.165-1.8l10.79-8.469a16.03,16.03,0,0,0,6.091-11.452l2.344-32.414a21.6,21.6,0,0,0,.263-3.344h0C173.833,1347.016,162.764,1336.7,149.111,1336.7Z" fill="#fb9b67"/>
      <g id="Group_97" data-name="Group 97">
        <path id="Path_328" data-name="Path 328" d="M175.667,1360.3a21.516,21.516,0,0,0-3.4-13.233c-4.189-7.428-12.213-11.792-23.023-11.792-9.811,0-17.441,3.784-21.936,10.1a21.4,21.4,0,0,0-4.64,14.926c.648,11.829,2.751,16.7,3.162,17.553-.011-.575-.036-2.865.17-5.933,1.086-4.629,4.09-13.988,11.463-19.992,3.338,4.871,11.738,7.782,11.738,7.782l-4.965-5.463h0s10.662,8.478,18.907,9.205c-1.82-1.433-5.216-3.647-7.334-5,8.557,3.489,14.5,7.354,16.694,14,.2,3,.154,5.054.154,5.054a50.027,50.027,0,0,0,2.473-11.216q.21-1.469.313-2.885Q175.574,1361.924,175.667,1360.3Z" fill="#733c30"/>
        <path id="Path_329" data-name="Path 329" d="M125.9,1377.992s-.026-.047-.071-.14c0,.092,0,.14,0,.14Z" fill="#965947"/>
      </g>
      <path id="Path_330" data-name="Path 330" d="M105.415,1439.592l29.065-9.2h14.555v.153c.021-.1.033-.153.033-.153h14.554l29.065,9.2a11.6,11.6,0,0,1,7.976,12.766c-.91,6.125-2.173,14.656-3.572,24.214a88.066,88.066,0,0,1-96.031.329c-1.419-9.69-2.7-18.348-3.621-24.543A11.6,11.6,0,0,1,105.415,1439.592Z" fill="#fb9b67"/>
      <path id="Path_331" data-name="Path 331" d="M93.179,1442.259l19.79-5.369c1.829,22.885,24.2,30.929,35.856,30.984,11.652-.055,34.027-8.1,35.856-30.984l19.79,5.369a17.2,17.2,0,0,1,12.77,14.254l.354,1.387a88.026,88.026,0,0,1-137.54,0l.355-1.387A17.2,17.2,0,0,1,93.179,1442.259Z" fill="#de252d"/>
    </g>
  </g>
</svg>
