<svg xmlns="http://www.w3.org/2000/svg" width="176.066" height="176.066" viewBox="0 0 176.066 176.066">
  <g id="Group_175" data-name="Group 175" transform="translate(-1106.029 -684.268)">
    <circle id="Ellipse_49" data-name="Ellipse 49" cx="88.033" cy="88.033" r="88.033" transform="translate(1106.029 684.268)" fill="#9b8579"/>
    <g id="Group_174" data-name="Group 174">
      <path id="Path_578" data-name="Path 578" d="M1237.6,808.382l-29.065-10.133h-14.554s-.011.053-.033.153v-.153H1179.4l-29.065,10.133c-5.433,1.72-8.814,6.193-7.976,11.83.973,6.551,2.487,15.854,4.209,26.22a88.094,88.094,0,0,0,94.782.137c1.731-10.421,3.255-19.777,4.232-26.357C1246.415,814.575,1243.035,810.1,1237.6,808.382Z" fill="#fb9b67"/>
      <path id="Path_579" data-name="Path 579" d="M1175.839,782.835c1.881-6.393,42.544-14.875,33.907,19.147,10.168-16.368,22.708-56.413-16.353-59.687S1165.069,766.7,1175.839,782.835Z" fill="#45241d"/>
      <path id="Path_580" data-name="Path 580" d="M1172.313,759.413l-.457-.144c-1.695.083-3.793-3.975-3.956-7.669l-.931-7.066c-.057-1.282.281-2.3,1.294-1.984l.313.1a5.122,5.122,0,0,1,3.209,4.8Z" fill="#f28c63"/>
      <path id="Path_581" data-name="Path 581" d="M1215.416,759.436l.455-.148c1.7.068,3.758-4.009,3.887-7.705l.867-7.074c.045-1.282-.3-2.3-1.311-1.972l-.312.1a5.121,5.121,0,0,0-3.166,4.829Z" fill="#f28c63"/>
      <g id="Group_173" data-name="Group 173">
        <path id="Path_582" data-name="Path 582" d="M1208.892,764.233h-29.7V798.3l29.7-.048Z" fill="#e07f57"/>
        <path id="Path_583" data-name="Path 583" d="M1179.2,777.793l13.754,11.008-13.754,9.448Z" fill="#f28c63"/>
        <path id="Path_584" data-name="Path 584" d="M1208.892,777.793v20.456s-17.522,1.924-29.7,0Z" fill="#fb9b67"/>
      </g>
      <path id="Path_585" data-name="Path 585" d="M1194.025,704.559c-13.653,0-24.722,10.312-24.722,23.033a21.6,21.6,0,0,0,.263,3.345l2.349,32.48a15.874,15.874,0,0,0,6.033,11.344l10.843,8.51a8.22,8.22,0,0,0,5.165,1.8h.138a8.22,8.22,0,0,0,5.165-1.8l10.791-8.469a16.024,16.024,0,0,0,6.09-11.452l2.345-32.413a21.718,21.718,0,0,0,.262-3.345h0C1218.747,714.871,1207.679,704.559,1194.025,704.559Z" fill="#fb9b67"/>
      <path id="Path_586" data-name="Path 586" d="M1247.342,808.909l-2.427-.5a176.368,176.368,0,0,1-17.64-4.29l-8.788-2.781c-1.916,6.4-12.728,12.611-24.425,12.618s-22.508-6.218-24.424-12.618l-10.97,3.471a131.881,131.881,0,0,1-13.218,3.137l-4.667.964a19.791,19.791,0,0,0-15.383,17.23l-.139,1.078a88.027,88.027,0,0,0,137.6,0l-.139-1.078A19.793,19.793,0,0,0,1247.342,808.909Z" fill="#b02331"/>
      <path id="Path_587" data-name="Path 587" d="M1221.771,802.376l-3.284-1.039c-3.383,7.734-12.9,11.99-24.425,11.994s-21.042-4.26-24.424-11.994l-3.284,1.039c3.15,11.48,19.16,14.429,27.69,14.437h.037C1202.611,816.8,1218.62,813.856,1221.771,802.376Z" fill="#e6e7e8"/>
      <path id="Path_588" data-name="Path 588" d="M1181.977,720.484c1.49,12.884,11.569,16.121,20.79,31.135,10.948,17.828,16.8,40.432,3.45,52.906,16.386-9.355,27.955-48.852,20.284-77.805-7.491-28.273-32.226-26.818-39.753-24.966-9.007,2.217-36.544,10.518-28.229,73.971,2.495,1.514,19.071,8.374,19.071,8.374C1169.122,765.389,1168.546,735.567,1181.977,720.484Z" fill="#733c30"/>
    </g>
  </g>
</svg>
