<svg xmlns="http://www.w3.org/2000/svg" width="248.995" height="248.995" viewBox="0 0 248.995 248.995">
  <g id="Group_13" data-name="Group 13" transform="translate(-233.375 -437.588)">
    <circle id="Ellipse_4" data-name="Ellipse 4" cx="88.033" cy="88.033" r="88.033" transform="translate(233.375 562.086) rotate(-45)" fill="#c2b59b"/>
    <g id="Group_12" data-name="Group 12">
      <path id="Path_32" data-name="Path 32" d="M402.182,581.357c-6.962-7.588-6.63-17.671-4.973-25.1s-1.466-17.366-4.775-22.251c-7.987-11.789-1.479-17.492-9.987-32.137-10.254-17.652-36.61-15.09-42.53-2.266-12.309-2.472-16.492,6.305-15.245,21,.75,8.834.9,15.764-4.4,21.471s-7.485,17.456-4.99,25.926,2.807,13.772-4.677,18.449-12.353,19.411-1.5,24.83c9.194,4.59,37.194,3.081,45.546,2.512l.026.2s32.784-2.91,46.044-2.91C413.98,601.419,409.143,588.945,402.182,581.357Z" fill="#733c30"/>
      <path id="Path_33" data-name="Path 33" d="M334.384,550.918l-.457-.143c-1.694.083-3.793-3.975-3.956-7.67l-.931-7.066c-.056-1.282.281-2.3,1.294-1.984l.313.1a5.123,5.123,0,0,1,3.209,4.8Z" fill="#f28c63"/>
      <path id="Path_34" data-name="Path 34" d="M377.487,550.941l.455-.147c1.7.067,3.758-4.009,3.887-7.705l.868-7.074c.045-1.283-.3-2.3-1.312-1.973l-.312.1a5.123,5.123,0,0,0-3.166,4.829Z" fill="#f28c63"/>
      <g id="Group_11" data-name="Group 11">
        <path id="Path_35" data-name="Path 35" d="M370.963,555.739h-29.7V589.8l29.7-.048Z" fill="#e07f57"/>
        <path id="Path_36" data-name="Path 36" d="M341.267,569.3l13.754,11.008-13.754,9.448Z" fill="#f28c63"/>
        <path id="Path_37" data-name="Path 37" d="M370.963,569.3v20.455s-17.521,1.924-29.7,0Z" fill="#fb9b67"/>
      </g>
      <path id="Path_38" data-name="Path 38" d="M356.1,496.064c-13.653,0-24.722,10.312-24.722,23.034a21.62,21.62,0,0,0,.263,3.345l2.349,32.48a15.874,15.874,0,0,0,6.033,11.343l10.843,8.511a8.225,8.225,0,0,0,5.165,1.8h.138a8.225,8.225,0,0,0,5.165-1.8l10.791-8.469a16.025,16.025,0,0,0,6.09-11.452l2.345-32.413a21.741,21.741,0,0,0,.262-3.345h0C380.818,506.376,369.75,496.064,356.1,496.064Z" fill="#fb9b67"/>
      <path id="Path_39" data-name="Path 39" d="M332.41,534.356s1.583-14.546,11.694-22.779c19.555,6.784,33.371,10.3,35.649,22.92,10.516-19.588-2.96-39.176-23.868-39.176S324.495,514.178,332.41,534.356Z" fill="#733c30"/>
      <path id="Path_40" data-name="Path 40" d="M381.066,551.89a.972.972,0,1,0-.972.972A.972.972,0,0,0,381.066,551.89Z" fill="#fff"/>
      <path id="Path_41" data-name="Path 41" d="M332.681,551.89a.972.972,0,1,0-.972.972A.972.972,0,0,0,332.681,551.89Z" fill="#fff"/>
      <path id="Path_42" data-name="Path 42" d="M399.672,598.952l-29.065-9.2H356.053s-.011.053-.033.153v-.153H341.466l-29.065,9.2a11.6,11.6,0,0,0-7.976,12.766c.863,5.8,2.042,13.772,3.354,22.724a88.065,88.065,0,0,0,96.115,2.732c1.472-10.059,2.8-19.067,3.754-25.456A11.6,11.6,0,0,0,399.672,598.952Z" fill="#fb9b67"/>
      <path id="Path_43" data-name="Path 43" d="M424.739,619.405l-.075-1.3a18.043,18.043,0,0,0-12.943-16.5c-5.236-1.446-11.527-3.151-17.609-4.723-18.217,24.5-59.9,24.146-76.151,0l-18.791,4.972A16.794,16.794,0,0,0,287.264,614.6a88.035,88.035,0,0,0,137.475,4.808Z" fill="#ff5e5e"/>
    </g>
  </g>
</svg>
