<svg xmlns="http://www.w3.org/2000/svg" width="176.066" height="176.066" viewBox="0 0 176.066 176.066">
  <g id="Group_119" data-name="Group 119" transform="translate(-1524.124 -684.268)">
    <circle id="Ellipse_35" data-name="Ellipse 35" cx="88.033" cy="88.033" r="88.033" transform="translate(1524.124 684.268)" fill="#00a79d"/>
    <g id="Group_118" data-name="Group 118">
      <path id="Path_383" data-name="Path 383" d="M1658.045,787.29c-6.961-7.588-6.63-17.671-4.973-25.1s-1.466-17.366-4.775-22.251c-7.987-11.789-1.479-17.492-9.987-32.137-10.254-17.652-36.61-15.09-42.53-2.266-12.309-2.472-16.492,6.305-15.245,21,.75,8.834.9,15.764-4.4,21.471s-7.484,17.456-4.99,25.926,2.807,13.772-4.677,18.449-12.353,19.411-1.5,24.83c9.194,4.59,37.194,3.081,45.546,2.512l.026.205s32.784-2.911,46.044-2.911C1669.843,807.352,1665.006,794.878,1658.045,787.29Z" fill="#3d2d2c"/>
      <path id="Path_384" data-name="Path 384" d="M1590.247,756.851l-.457-.143c-1.694.083-3.793-3.975-3.956-7.669l-.931-7.066c-.056-1.283.281-2.3,1.294-1.984l.313.1a5.121,5.121,0,0,1,3.209,4.8Z" fill="#f28c63"/>
      <path id="Path_385" data-name="Path 385" d="M1633.35,756.874l.455-.147c1.7.068,3.758-4.009,3.888-7.705l.867-7.074c.045-1.283-.3-2.3-1.312-1.972l-.312.1a5.121,5.121,0,0,0-3.166,4.828Z" fill="#f28c63"/>
      <g id="Group_116" data-name="Group 116">
        <path id="Path_386" data-name="Path 386" d="M1626.826,761.672h-29.7v34.064l29.7-.048Z" fill="#e07f57"/>
        <path id="Path_387" data-name="Path 387" d="M1597.13,775.232l13.754,11.008-13.754,9.448Z" fill="#f28c63"/>
        <path id="Path_388" data-name="Path 388" d="M1626.826,775.232v20.456s-17.521,1.923-29.7,0Z" fill="#fb9b67"/>
      </g>
      <path id="Path_389" data-name="Path 389" d="M1611.959,702c-13.653,0-24.722,10.313-24.722,23.034a21.606,21.606,0,0,0,.263,3.345l2.349,32.48a15.878,15.878,0,0,0,6.033,11.344l10.843,8.51a8.226,8.226,0,0,0,5.165,1.8h.138a8.226,8.226,0,0,0,5.165-1.8l10.791-8.469a16.028,16.028,0,0,0,6.091-11.452l2.344-32.413a21.717,21.717,0,0,0,.262-3.345h0C1636.681,712.31,1625.613,702,1611.959,702Z" fill="#fb9b67"/>
      <path id="Path_390" data-name="Path 390" d="M1568.264,804.886l29.065-12.317h14.554v.153c.022-.1.033-.153.033-.153h14.554l29.065,12.317a11.6,11.6,0,0,1,7.977,12.765c-1.079,7.255-2.651,17.644-4.36,29.009a88.091,88.091,0,0,1-94.529-.159c-1.7-11.3-3.262-21.629-4.335-28.85A11.6,11.6,0,0,1,1568.264,804.886Z" fill="#fb9b67"/>
      <path id="Path_391" data-name="Path 391" d="M1589.55,804.886c5.3,11.042,38.045,14.216,42.723-1.76l2.868,54.132a88.475,88.475,0,0,1-48.991-.789C1586.413,825.675,1587.289,800.176,1589.55,804.886Z" fill="#fff"/>
      <path id="Path_392" data-name="Path 392" d="M1543.9,828.073l.387-4.255a22.365,22.365,0,0,1,17.157-19.746l34.124-8.384c-1.776,5.6-2.144,38.142,1.985,63.457A87.944,87.944,0,0,1,1543.9,828.073Z" fill="#c95c2a"/>
      <path id="Path_393" data-name="Path 393" d="M1624.688,859.422l5.09-65.219,36.448,12.189a20.454,20.454,0,0,1,13.9,17.775l.283,3.554A87.925,87.925,0,0,1,1624.688,859.422Z" fill="#c95c2a"/>
      <g id="Group_117" data-name="Group 117">
        <path id="Path_394" data-name="Path 394" d="M1588.532,743.576s-.009-.3-.011-.823l.078.823Z" fill="#f7daa3"/>
        <path id="Path_395" data-name="Path 395" d="M1611.8,701.316h.128c13.74,0,25.38,9.053,24.878,24.567l-.454,5.367a40.23,40.23,0,0,1-.573,6.782l-.427,5.054s.028-1.023-.051-2.657c-2.279-12.618-15.783-16.135-35.337-22.918-10.111,8.233-11.382,22.779-11.382,22.779l-.018-.074c-.039,1.08-.047,1.952-.046,2.537l-.431-4.557a43.428,43.428,0,0,1-1.062-11.223l-.1-1.09C1586.423,710.369,1598.064,701.316,1611.8,701.316Z" fill="#3d2d2c"/>
      </g>
      <path id="Path_396" data-name="Path 396" d="M1594.228,820.35c-11.434.073-29.393-3.327-30.5-4.782s8.088-14.044,14.125-15.528c3.826-.94,11.055-5.118,16.156-8.194,1.849-1.115,3.169-1.1,3.085,1.055-.522,13.508,2.28,44.738,4.122,66.773a87.505,87.505,0,0,1-17.611-4.026c-3.9-4.751-7.445-9.622-9.546-14.717C1572.958,838.254,1594.228,820.35,1594.228,820.35Z" fill="#de8f6b"/>
      <path id="Path_397" data-name="Path 397" d="M1628.487,790.807c13.453,5.736,28.738,15.614,28.577,20.343-.035,1.046-22.141,4.21-27.13,5.613,0,0,24.012,16.684,24.012,17.931s-4.21,5.925-7.8,10.915c-1.245,1.731-4.367,5.735-7.869,10.739a87.574,87.574,0,0,1-14.835,3.248c.935-23.576,2.841-59.532,3.286-67.631A1.294,1.294,0,0,1,1628.487,790.807Z" fill="#de8f6b"/>
      <path id="Path_398" data-name="Path 398" d="M1650.775,835.734a1.871,1.871,0,1,0-1.871,1.871A1.87,1.87,0,0,0,1650.775,835.734Z" fill="#e6e7e8"/>
      <path id="Path_399" data-name="Path 399" d="M1581.6,841.967a1.871,1.871,0,1,0-1.871,1.87A1.871,1.871,0,0,0,1581.6,841.967Z" fill="#e6e7e8"/>
      <path id="Path_400" data-name="Path 400" d="M1653.088,808.915a1.871,1.871,0,1,0-1.871,1.871A1.871,1.871,0,0,0,1653.088,808.915Z" fill="#e6e7e8"/>
      <path id="Path_401" data-name="Path 401" d="M1570.316,813.7a1.871,1.871,0,1,0-1.871,1.871A1.871,1.871,0,0,0,1570.316,813.7Z" fill="#e6e7e8"/>
    </g>
  </g>
</svg>
