<svg xmlns="http://www.w3.org/2000/svg" width="176.066" height="176.066" viewBox="0 0 176.066 176.066">
  <g id="Group_150" data-name="Group 150" transform="translate(-687.934 -684.268)">
    <circle id="Ellipse_43" data-name="Ellipse 43" cx="88.033" cy="88.033" r="88.033" transform="translate(687.934 684.268)" fill="#00a79d"/>
    <g id="Group_149" data-name="Group 149">
      <path id="Path_495" data-name="Path 495" d="M802.43,720.309c-2.442-11.923-10.987-20.216-25.488-20.216-5.1,0-10.514,2.116-12.383,4.836-7.236-.423-12.089,3.5-14.3,10.038-.147.3-.287.6-.413.916-5.131,12.826-11.39,41.481-11.39,53.822,0,23.759,15.861,40.089,36.14,40.089s37.3-13.553,37.3-37.311C811.9,761.333,807.213,735.353,802.43,720.309Z" fill="#3d2d2c"/>
      <path id="Path_496" data-name="Path 496" d="M754.54,760.914l-.456-.143c-1.7.082-3.794-3.975-3.957-7.67l-.93-7.066c-.057-1.282.28-2.3,1.294-1.984l.312.1a5.123,5.123,0,0,1,3.21,4.8Z" fill="#f28c63"/>
      <path id="Path_497" data-name="Path 497" d="M797.644,760.937l.455-.148c1.7.068,3.757-4.009,3.887-7.705l.867-7.074c.045-1.282-.3-2.3-1.312-1.972l-.311.1a5.121,5.121,0,0,0-3.166,4.829Z" fill="#f28c63"/>
      <g id="Group_147" data-name="Group 147">
        <path id="Path_498" data-name="Path 498" d="M791.119,765.734h-29.7V799.8l29.7-.048Z" fill="#e07f57"/>
        <path id="Path_499" data-name="Path 499" d="M761.423,779.294,775.177,790.3l-13.754,9.448Z" fill="#f28c63"/>
        <path id="Path_500" data-name="Path 500" d="M791.119,779.295V799.75s-17.521,1.924-29.7,0Z" fill="#fb9b67"/>
      </g>
      <path id="Path_501" data-name="Path 501" d="M776.253,706.06c-13.654,0-24.722,10.312-24.722,23.033a21.717,21.717,0,0,0,.262,3.345l2.349,32.48a15.878,15.878,0,0,0,6.033,11.344l10.844,8.511a8.225,8.225,0,0,0,5.165,1.8h.138a8.225,8.225,0,0,0,5.165-1.8l10.79-8.469a16.028,16.028,0,0,0,6.091-11.453l2.344-32.413a21.593,21.593,0,0,0,.263-3.344h0C800.975,716.372,789.906,706.06,776.253,706.06Z" fill="#fb9b67"/>
      <g id="Group_148" data-name="Group 148">
        <path id="Path_502" data-name="Path 502" d="M802.809,729.655a21.516,21.516,0,0,0-3.4-13.233c-4.189-7.429-12.213-11.792-23.023-11.792-9.811,0-17.44,3.784-21.936,10.1a21.4,21.4,0,0,0-4.64,14.926c.649,11.828,2.751,16.7,3.162,17.552-.011-.574-.036-2.865.17-5.932,1.087-4.629,4.09-13.989,11.464-19.992,3.338,4.871,11.737,7.782,11.737,7.782l-4.965-5.463h0s10.662,8.477,18.907,9.205c-1.82-1.433-5.216-3.647-7.334-5,8.557,3.489,14.5,7.353,16.694,14,.2,3,.154,5.053.154,5.053a50,50,0,0,0,2.473-11.215q.21-1.469.313-2.885Q802.716,731.281,802.809,729.655Z" fill="#3d2d2c"/>
        <path id="Path_503" data-name="Path 503" d="M753.04,747.348s-.026-.047-.071-.141c0,.092,0,.141,0,.141Z" fill="#965947"/>
      </g>
      <path id="Path_504" data-name="Path 504" d="M732.558,808.948l29.065-9.2h14.554v.153c.021-.1.033-.153.033-.153h14.554l29.065,9.2a11.6,11.6,0,0,1,7.976,12.765c-.91,6.126-2.173,14.657-3.572,24.215a88.067,88.067,0,0,1-96.031.329c-1.419-9.691-2.7-18.348-3.621-24.544A11.6,11.6,0,0,1,732.558,808.948Z" fill="#fb9b67"/>
      <path id="Path_505" data-name="Path 505" d="M720.322,811.615l19.79-5.369c1.829,22.885,24.2,30.929,35.856,30.984,11.651-.055,34.027-8.1,35.856-30.984l19.79,5.369a17.2,17.2,0,0,1,12.769,14.253l.355,1.388a88.026,88.026,0,0,1-137.54,0l.354-1.388A17.2,17.2,0,0,1,720.322,811.615Z" fill="#f1f2f2"/>
    </g>
  </g>
</svg>
