<svg xmlns="http://www.w3.org/2000/svg" width="176.066" height="176.066" viewBox="0 0 176.066 176.066">
  <g id="Group_179" data-name="Group 179" transform="translate(-1524.124 -1104.697)">
    <circle id="Ellipse_50" data-name="Ellipse 50" cx="88.033" cy="88.033" r="88.033" transform="translate(1524.124 1104.697)" fill="#00a79d"/>
    <g id="Group_178" data-name="Group 178">
      <path id="Path_589" data-name="Path 589" d="M1565.411,1211.947c6.962-7.588,6.63-17.671,4.973-25.1s1.466-17.366,4.776-22.251c7.986-11.789,1.478-17.492,9.986-32.137,10.255-17.652,36.61-15.09,42.53-2.265,12.309-2.473,16.492,6.305,15.245,21-.75,8.834-.9,15.763,4.4,21.47s7.485,17.456,4.99,25.927-2.807,13.771,4.678,18.449,12.353,19.41,1.5,24.829c-9.193,4.591-37.194,3.081-45.546,2.512l-.026.205s-32.784-2.911-46.044-2.911C1553.613,1232.009,1558.45,1219.535,1565.411,1211.947Z" fill="#362724"/>
      <path id="Path_590" data-name="Path 590" d="M1589.763,1181.73l-.457-.143c-1.7.082-3.794-3.976-3.956-7.67l-.931-7.066c-.057-1.282.28-2.3,1.294-1.984l.312.1a5.123,5.123,0,0,1,3.21,4.8Z" fill="#9e5c4f"/>
      <path id="Path_591" data-name="Path 591" d="M1632.866,1181.753l.455-.148c1.695.068,3.757-4.009,3.887-7.7l.867-7.074c.045-1.283-.3-2.3-1.312-1.972l-.311.1a5.121,5.121,0,0,0-3.166,4.829Z" fill="#9e5c4f"/>
      <g id="Group_176" data-name="Group 176">
        <path id="Path_592" data-name="Path 592" d="M1626.342,1186.55h-29.7v34.064l29.7-.048Z" fill="#854e48"/>
        <path id="Path_593" data-name="Path 593" d="M1596.645,1200.11l13.754,11.008-13.754,9.448Z" fill="#9e5c4f"/>
        <path id="Path_594" data-name="Path 594" d="M1626.342,1200.111v20.455s-17.522,1.924-29.7,0Z" fill="#b56d57"/>
      </g>
      <path id="Path_595" data-name="Path 595" d="M1611.475,1126.876c-13.654,0-24.722,10.312-24.722,23.033a21.718,21.718,0,0,0,.262,3.345l2.35,32.48a15.873,15.873,0,0,0,6.032,11.344l10.844,8.51a8.22,8.22,0,0,0,5.165,1.8h.138a8.22,8.22,0,0,0,5.165-1.8l10.791-8.469a16.027,16.027,0,0,0,6.09-11.452l2.344-32.413a21.6,21.6,0,0,0,.263-3.345h0C1636.2,1137.188,1625.129,1126.876,1611.475,1126.876Z" fill="#b56d57"/>
      <g id="Group_177" data-name="Group 177">
        <path id="Path_596" data-name="Path 596" d="M1586.647,1150.54c-.5-15.514,11.139-24.567,24.878-24.567h.128c13.74,0,25.38,9.053,24.878,24.567l-.1,1.09a43.419,43.419,0,0,1-1.062,11.223l-.431,4.556c0-.582-.008-1.447-.051-2.517l-.013.055s-1.271-14.546-11.382-22.779c-19.554,6.783-33.058,10.3-35.337,22.918-.079,1.634-.051,2.657-.051,2.657l-.427-5.053a40.275,40.275,0,0,1-.573-6.783Z" fill="#362724"/>
        <path id="Path_597" data-name="Path 597" d="M1634.857,1168.233l.078-.824c0,.527-.01.824-.01.824Z" fill="#cf552d"/>
      </g>
      <path id="Path_598" data-name="Path 598" d="M1655.3,1228.81l-29.065-9.2h-14.554v.153c-.022-.1-.033-.153-.033-.153h-14.554l-29.065,9.2a11.6,11.6,0,0,0-7.977,12.765c.924,6.218,2.211,14.914,3.636,24.646a88.078,88.078,0,0,0,95.847.72c1.467-10.023,2.794-19,3.741-25.366A11.6,11.6,0,0,0,1655.3,1228.81Z" fill="#b56d57"/>
      <path id="Path_599" data-name="Path 599" d="M1667.8,1231.075l-19.79-5.37c-1.829,22.885-24.2,30.93-35.856,30.985-11.651-.055-34.027-8.1-35.856-30.985l-19.79,5.37a17.2,17.2,0,0,0-12.769,14.253l-.543,2.124a88.032,88.032,0,0,0,137.916,0l-.543-2.124A17.2,17.2,0,0,0,1667.8,1231.075Z" fill="#f1f2f2"/>
    </g>
  </g>
</svg>
