<svg xmlns="http://www.w3.org/2000/svg" width="176.066" height="176.067" viewBox="0 0 176.066 176.067">
  <g id="Group_50" data-name="Group 50" transform="translate(-1106.029 -53.623)">
    <circle id="Ellipse_16" data-name="Ellipse 16" cx="88.033" cy="88.033" r="88.033" transform="translate(1106.029 53.623)" fill="#9b8579"/>
    <g id="Group_49" data-name="Group 49">
      <path id="Path_158" data-name="Path 158" d="M1237.6,177.738,1208.536,167.6h-14.554s-.011.053-.033.153V167.6H1179.4l-29.065,10.133c-5.433,1.72-8.814,6.193-7.976,11.83.973,6.551,2.488,15.854,4.209,26.22a88.094,88.094,0,0,0,94.782.137c1.731-10.421,3.255-19.777,4.232-26.357C1246.415,183.931,1243.035,179.458,1237.6,177.738Z" fill="#fb9b67"/>
      <path id="Path_159" data-name="Path 159" d="M1175.839,152.191c1.881-6.393,42.544-14.875,33.907,19.147,10.168-16.368,22.708-56.413-16.353-59.687S1165.069,136.056,1175.839,152.191Z" fill="#947152"/>
      <path id="Path_160" data-name="Path 160" d="M1172.313,128.769l-.457-.144c-1.695.083-3.793-3.975-3.956-7.669l-.931-7.066c-.056-1.283.281-2.3,1.294-1.984l.313.1a5.122,5.122,0,0,1,3.209,4.8Z" fill="#f28c63"/>
      <path id="Path_161" data-name="Path 161" d="M1215.416,128.792l.455-.148c1.7.068,3.758-4.009,3.887-7.7l.868-7.074c.045-1.283-.3-2.3-1.312-1.972l-.312.1a5.121,5.121,0,0,0-3.166,4.829Z" fill="#f28c63"/>
      <g id="Group_48" data-name="Group 48">
        <path id="Path_162" data-name="Path 162" d="M1208.892,133.589h-29.7v34.064l29.7-.048Z" fill="#e07f57"/>
        <path id="Path_163" data-name="Path 163" d="M1179.2,147.149l13.754,11.008L1179.2,167.6Z" fill="#f28c63"/>
        <path id="Path_164" data-name="Path 164" d="M1208.892,147.149V167.6s-17.522,1.924-29.7,0Z" fill="#fb9b67"/>
      </g>
      <path id="Path_165" data-name="Path 165" d="M1194.025,73.914c-13.653,0-24.722,10.313-24.722,23.034a21.6,21.6,0,0,0,.263,3.345l2.349,32.48a15.874,15.874,0,0,0,6.033,11.344l10.843,8.51a8.22,8.22,0,0,0,5.165,1.8h.138a8.22,8.22,0,0,0,5.165-1.8l10.791-8.469a16.024,16.024,0,0,0,6.09-11.452l2.345-32.413a21.718,21.718,0,0,0,.262-3.345h0C1218.747,84.227,1207.679,73.914,1194.025,73.914Z" fill="#fb9b67"/>
      <path id="Path_166" data-name="Path 166" d="M1247.342,178.265l-2.427-.5a176.719,176.719,0,0,1-17.64-4.29l-8.788-2.781c-1.916,6.4-12.728,12.611-24.425,12.618s-22.508-6.218-24.424-12.618l-10.97,3.471a131.868,131.868,0,0,1-13.218,3.137l-4.667.964a19.791,19.791,0,0,0-15.383,17.23l-.139,1.078a88.027,88.027,0,0,0,137.6,0l-.139-1.078A19.792,19.792,0,0,0,1247.342,178.265Z" fill="#00a79d"/>
      <path id="Path_167" data-name="Path 167" d="M1221.771,171.732l-3.284-1.039c-3.383,7.734-12.9,11.99-24.425,11.994s-21.042-4.26-24.424-11.994l-3.284,1.039c3.15,11.48,19.16,14.429,27.69,14.437h.037C1202.611,186.161,1218.621,183.212,1221.771,171.732Z" fill="#e6e7e8"/>
      <path id="Path_168" data-name="Path 168" d="M1181.977,89.839c1.49,12.885,11.569,16.122,20.79,31.136,10.949,17.828,16.8,40.432,3.45,52.906,16.386-9.355,27.955-48.852,20.284-77.805-7.491-28.273-32.226-26.818-39.753-24.966-9.007,2.216-36.544,10.518-28.229,73.97,2.495,1.515,19.071,8.375,19.071,8.375C1169.122,134.745,1168.546,104.923,1181.977,89.839Z" fill="#f7daa3"/>
    </g>
  </g>
</svg>
