<svg xmlns="http://www.w3.org/2000/svg" width="176.066" height="176.067" viewBox="0 0 176.066 176.067">
  <g id="Group_146" data-name="Group 146" transform="translate(-478.887 -894.482)">
    <circle id="Ellipse_42" data-name="Ellipse 42" cx="88.033" cy="88.033" r="88.033" transform="translate(478.887 894.482)" fill="#c2b59b"/>
    <g id="Group_145" data-name="Group 145">
      <path id="Path_482" data-name="Path 482" d="M613.17,1005.387c-6.961-7.589-6.63-17.671-4.972-25.1s-1.467-17.367-4.776-22.252c-7.986-11.788-1.479-17.491-9.987-32.136-10.254-17.652-36.609-15.091-42.53-2.266-12.309-2.472-16.492,6.3-15.244,21,.749,8.834.9,15.764-4.4,21.471s-7.484,17.455-4.989,25.926,2.806,13.771-4.678,18.449-12.353,19.411-1.5,24.83c9.194,4.59,37.194,3.081,45.546,2.512l.027.2s32.783-2.91,46.043-2.91C624.969,1025.448,620.131,1012.975,613.17,1005.387Z" fill="#cf552d"/>
      <path id="Path_483" data-name="Path 483" d="M610.781,1021.4l-29.064-9.2H567.162s-.011.053-.033.153v-.153H552.575l-29.065,9.2a11.6,11.6,0,0,0-7.976,12.766c.842,5.662,1.984,13.382,3.258,22.067a88.057,88.057,0,0,0,96.756-.329c1.254-8.551,2.379-16.147,3.21-21.738A11.6,11.6,0,0,0,610.781,1021.4Z" fill="#fb9b67"/>
      <path id="Path_484" data-name="Path 484" d="M622.566,1024.691l-19.79-5.993c0,23.784-2.613,40.039-35.856,40.039-29.614,0-35.856-16.741-35.856-40.039l-19.79,5.993c-6.639,1.7-11.623,6.546-12.714,13.288a88.025,88.025,0,0,0,136.721,0C634.189,1031.237,629.205,1026.388,622.566,1024.691Z" fill="#f1f2f2"/>
      <path id="Path_485" data-name="Path 485" d="M635.281,1037.979a17.2,17.2,0,0,0-12.715-13.911l-11.932-3.238c-.057,8.979-.324,27.391,3.094,36.252A88.536,88.536,0,0,0,635.281,1037.979Z" fill="#fb9b67"/>
      <path id="Path_486" data-name="Path 486" d="M523.517,1020.746l-12.243,3.322a17.192,17.192,0,0,0-12.714,13.911,88.529,88.529,0,0,0,21.8,19.259C523.856,1048.411,523.573,1029.746,523.517,1020.746Z" fill="#fb9b67"/>
      <path id="Path_487" data-name="Path 487" d="M545.372,974.948l-.456-.143c-1.7.082-3.794-3.975-3.957-7.67l-.931-7.066c-.056-1.282.281-2.3,1.294-1.984l.313.1a5.122,5.122,0,0,1,3.209,4.8Z" fill="#f28c63"/>
      <path id="Path_488" data-name="Path 488" d="M588.475,974.971l.456-.147c1.695.067,3.757-4.01,3.887-7.7l.867-7.074c.045-1.283-.3-2.3-1.312-1.973l-.312.1A5.121,5.121,0,0,0,588.9,963Z" fill="#f28c63"/>
      <g id="Group_143" data-name="Group 143">
        <path id="Path_489" data-name="Path 489" d="M581.951,979.768h-29.7v34.064l29.7-.048Z" fill="#e07f57"/>
        <path id="Path_490" data-name="Path 490" d="M552.255,993.329l13.754,11.008-13.754,9.448Z" fill="#f28c63"/>
        <path id="Path_491" data-name="Path 491" d="M581.951,993.329v20.455s-17.521,1.924-29.7,0Z" fill="#fb9b67"/>
      </g>
      <path id="Path_492" data-name="Path 492" d="M567.085,920.094c-13.654,0-24.723,10.312-24.723,23.033a21.6,21.6,0,0,0,.263,3.345l2.349,32.481a15.878,15.878,0,0,0,6.033,11.343l10.844,8.511a8.224,8.224,0,0,0,5.164,1.8h.139a8.227,8.227,0,0,0,5.165-1.8l10.79-8.469a16.03,16.03,0,0,0,6.091-11.453l2.344-32.413a21.593,21.593,0,0,0,.263-3.344h0C591.807,930.406,580.738,920.094,567.085,920.094Z" fill="#fb9b67"/>
      <g id="Group_144" data-name="Group 144">
        <path id="Path_493" data-name="Path 493" d="M591.934,943.979c.5-15.514-11.138-24.566-24.878-24.566h-.127c-13.74,0-25.381,9.052-24.878,24.566l.1,1.09a43.378,43.378,0,0,0,1.062,11.223l.43,4.557c0-.583.008-1.447.051-2.518l.014.055s1.27-14.546,11.382-22.779c19.554,6.784,33.058,10.3,35.336,22.918.079,1.634.051,2.658.051,2.658l.427-5.054a40.353,40.353,0,0,0,.574-6.783Z" fill="#cf552d"/>
        <path id="Path_494" data-name="Path 494" d="M543.724,961.672l-.078-.823c0,.527.011.823.011.823Z" fill="#cf552d"/>
      </g>
    </g>
  </g>
</svg>
