<svg xmlns="http://www.w3.org/2000/svg" width="176.066" height="176.066" viewBox="0 0 176.066 176.066">
  <g id="Group_191" data-name="Group 191" transform="translate(-896.982 -684.268)">
    <circle id="Ellipse_53" data-name="Ellipse 53" cx="88.033" cy="88.033" r="88.033" transform="translate(896.982 684.268)" fill="#9b8579"/>
    <g id="Group_190" data-name="Group 190">
      <ellipse id="Ellipse_54" data-name="Ellipse 54" cx="30.768" cy="53.907" rx="30.768" ry="53.907" transform="translate(956.122 707.919)" fill="#947152"/>
      <path id="Path_630" data-name="Path 630" d="M963.349,760.02l-.457-.143c-1.7.083-3.793-3.975-3.956-7.67l-.931-7.066c-.057-1.282.281-2.3,1.294-1.984l.313.1a5.123,5.123,0,0,1,3.209,4.8Z" fill="#f28c63"/>
      <path id="Path_631" data-name="Path 631" d="M1006.452,760.043l.455-.147c1.7.067,3.758-4.009,3.887-7.705l.868-7.074c.045-1.283-.3-2.3-1.312-1.973l-.312.1a5.124,5.124,0,0,0-3.166,4.829Z" fill="#f28c63"/>
      <g id="Group_189" data-name="Group 189">
        <path id="Path_632" data-name="Path 632" d="M999.928,764.84h-29.7V798.9l29.7-.048Z" fill="#e07f57"/>
        <path id="Path_633" data-name="Path 633" d="M970.232,778.4l13.754,11.008-13.754,9.448Z" fill="#f28c63"/>
        <path id="Path_634" data-name="Path 634" d="M999.928,778.4v20.455s-17.522,1.924-29.7,0Z" fill="#fb9b67"/>
      </g>
      <path id="Path_635" data-name="Path 635" d="M985.061,705.166c-13.653,0-24.722,10.312-24.722,23.033a21.626,21.626,0,0,0,.263,3.346l2.349,32.48a15.874,15.874,0,0,0,6.033,11.343l10.843,8.511a8.225,8.225,0,0,0,5.165,1.8h.138a8.225,8.225,0,0,0,5.165-1.8l10.791-8.469a16.025,16.025,0,0,0,6.09-11.452l2.345-32.414a21.722,21.722,0,0,0,.262-3.344h0C1009.783,715.478,998.715,705.166,985.061,705.166Z" fill="#fb9b67"/>
      <path id="Path_636" data-name="Path 636" d="M941.366,808.054l29.065-9.2h14.554v.153c.022-.1.033-.153.033-.153h14.554l29.065,9.2a11.6,11.6,0,0,1,7.976,12.766c-.947,6.373-2.275,15.352-3.743,25.381a88.071,88.071,0,0,1-95.741-.026c-1.466-10.019-2.793-18.987-3.739-25.355A11.6,11.6,0,0,1,941.366,808.054Z" fill="#fb9b67"/>
      <path id="Path_637" data-name="Path 637" d="M915.855,826.766l.009-.212a16.505,16.505,0,0,1,12.271-15.288l18.791-5.283c16.255,24.146,57.934,24.5,76.151,0,6.082,1.571,12.373,3.589,17.609,5.034a17.665,17.665,0,0,1,12.943,16.188l.013.234a88.031,88.031,0,0,1-137.787-.673Z" fill="#231f20"/>
      <path id="Path_638" data-name="Path 638" d="M975.336,722.98c-8.334,8.42-15.63,33.544-5.217,82.95-25.537-8.732-27.507-32.458-24.758-54.942,3.043-24.89,16.924-47.862,26.482-43.5,3.931-7.8,20.129-11.8,36.22,2.494,24.324,21.616,34.829,81.7-7.256,97.191,7.546-15.28,12.9-55.4,1.611-68.141A51.028,51.028,0,0,0,975.336,722.98Z" fill="#f7daa3"/>
    </g>
  </g>
</svg>
