<svg xmlns="http://www.w3.org/2000/svg" width="176.066" height="176.067" viewBox="0 0 176.066 176.067">
  <g id="Group_10" data-name="Group 10" transform="translate(-269.84 -53.623)">
    <circle id="Ellipse_3" data-name="Ellipse 3" cx="88.033" cy="88.033" r="88.033" transform="translate(269.84 53.623)" fill="#9b8579"/>
    <g id="Group_9" data-name="Group 9">
      <path id="Path_22" data-name="Path 22" d="M402.182,160.928c-6.962-7.589-6.63-17.671-4.973-25.1s-1.466-17.366-4.775-22.252c-7.987-11.788-1.479-17.491-9.987-32.136-10.254-17.652-36.61-15.091-42.53-2.266-12.309-2.472-16.492,6.305-15.245,21,.75,8.834.9,15.764-4.4,21.471s-7.485,17.456-4.99,25.926,2.807,13.771-4.677,18.449-12.353,19.411-1.5,24.83c9.194,4.59,37.194,3.081,45.546,2.512l.026.2s32.784-2.91,46.044-2.91C413.98,180.99,409.143,168.516,402.182,160.928Z" fill="#f7daa3"/>
      <path id="Path_23" data-name="Path 23" d="M334.384,130.489l-.457-.143c-1.694.082-3.793-3.975-3.956-7.67l-.931-7.066c-.056-1.282.281-2.3,1.294-1.984l.313.1a5.122,5.122,0,0,1,3.209,4.8Z" fill="#f28c63"/>
      <path id="Path_24" data-name="Path 24" d="M377.487,130.512l.455-.147c1.7.067,3.758-4.009,3.887-7.705l.868-7.074c.045-1.283-.3-2.3-1.312-1.973l-.312.1a5.122,5.122,0,0,0-3.166,4.829Z" fill="#f28c63"/>
      <g id="Group_8" data-name="Group 8">
        <path id="Path_25" data-name="Path 25" d="M370.963,135.309h-29.7v34.064l29.7-.048Z" fill="#e07f57"/>
        <path id="Path_26" data-name="Path 26" d="M341.267,148.87l13.754,11.007-13.754,9.448Z" fill="#f28c63"/>
        <path id="Path_27" data-name="Path 27" d="M370.963,148.87v20.455s-17.521,1.924-29.7,0Z" fill="#fb9b67"/>
      </g>
      <path id="Path_28" data-name="Path 28" d="M356.1,75.635c-13.653,0-24.722,10.312-24.722,23.033a21.623,21.623,0,0,0,.263,3.346l2.349,32.48a15.874,15.874,0,0,0,6.033,11.343l10.843,8.511a8.225,8.225,0,0,0,5.165,1.8h.138a8.225,8.225,0,0,0,5.165-1.8l10.791-8.469a16.025,16.025,0,0,0,6.09-11.452l2.345-32.414a21.718,21.718,0,0,0,.262-3.344h0C380.818,85.947,369.75,75.635,356.1,75.635Z" fill="#fb9b67"/>
      <path id="Path_29" data-name="Path 29" d="M332.41,113.927s1.583-14.546,11.694-22.779c19.555,6.784,33.371,10.3,35.649,22.92,10.516-19.588-2.96-39.177-23.868-39.177S324.495,93.748,332.41,113.927Z" fill="#f7daa3"/>
      <path id="Path_30" data-name="Path 30" d="M399.672,178.523l-29.065-9.2H356.053s-.011.053-.033.153v-.153H341.466l-29.065,9.2a11.6,11.6,0,0,0-7.976,12.766c.863,5.8,2.042,13.772,3.354,22.724a88.065,88.065,0,0,0,96.115,2.732c1.472-10.059,2.8-19.067,3.754-25.456A11.6,11.6,0,0,0,399.672,178.523Z" fill="#fb9b67"/>
      <path id="Path_31" data-name="Path 31" d="M424.739,198.975l-.075-1.3a18.045,18.045,0,0,0-12.943-16.5c-5.236-1.445-11.527-3.151-17.609-4.722-18.217,24.5-59.9,24.146-76.151,0l-18.791,4.971a16.8,16.8,0,0,0-11.906,12.745,88.035,88.035,0,0,0,137.475,4.807Z" fill="#362724"/>
    </g>
  </g>
</svg>
