<svg xmlns="http://www.w3.org/2000/svg" width="176.066" height="176.066" viewBox="0 0 176.066 176.066">
  <g id="Group_165" data-name="Group 165" transform="translate(-269.84 -1104.697)">
    <circle id="Ellipse_46" data-name="Ellipse 46" cx="88.033" cy="88.033" r="88.033" transform="translate(269.84 1104.697)" fill="#9b8579"/>
    <g id="Group_164" data-name="Group 164">
      <path id="Path_526" data-name="Path 526" d="M403.76,1207.72c-6.961-7.589-6.629-17.672-4.972-25.1s-1.466-17.367-4.776-22.252c-7.986-11.788-1.478-17.491-9.986-32.136-10.255-17.652-36.61-15.091-42.531-2.266-12.309-2.472-16.491,6.305-15.244,21,.75,8.834.9,15.763-4.4,21.471s-7.484,17.456-4.989,25.926,2.806,13.771-4.678,18.449-12.353,19.411-1.5,24.83c9.194,4.59,37.195,3.081,45.547,2.511l.026.2s32.784-2.91,46.043-2.91C415.559,1227.781,410.722,1215.308,403.76,1207.72Z" fill="#f7daa3"/>
      <path id="Path_527" data-name="Path 527" d="M335.963,1177.281l-.457-.143c-1.7.082-3.793-3.975-3.956-7.67l-.931-7.066c-.057-1.282.28-2.3,1.294-1.984l.312.1a5.122,5.122,0,0,1,3.21,4.8Z" fill="#f28c63"/>
      <path id="Path_528" data-name="Path 528" d="M379.066,1177.3l.455-.148c1.7.068,3.757-4.009,3.887-7.7l.867-7.074c.045-1.283-.3-2.3-1.312-1.973l-.311.1a5.121,5.121,0,0,0-3.166,4.829Z" fill="#f28c63"/>
      <g id="Group_160" data-name="Group 160">
        <path id="Path_529" data-name="Path 529" d="M372.542,1182.1h-29.7v34.064l29.7-.048Z" fill="#e07f57"/>
        <path id="Path_530" data-name="Path 530" d="M342.845,1195.662l13.754,11.007-13.754,9.448Z" fill="#f28c63"/>
        <path id="Path_531" data-name="Path 531" d="M372.542,1195.662v20.455s-17.522,1.924-29.7,0Z" fill="#fb9b67"/>
      </g>
      <path id="Path_532" data-name="Path 532" d="M357.675,1122.427c-13.654,0-24.722,10.312-24.722,23.033a21.748,21.748,0,0,0,.262,3.346l2.35,32.479a15.873,15.873,0,0,0,6.032,11.344l10.844,8.511a8.225,8.225,0,0,0,5.165,1.8h.138a8.225,8.225,0,0,0,5.165-1.8l10.791-8.469a16.031,16.031,0,0,0,6.09-11.453l2.344-32.413a21.6,21.6,0,0,0,.263-3.344h0C382.4,1132.739,371.329,1122.427,357.675,1122.427Z" fill="#fb9b67"/>
      <path id="Path_533" data-name="Path 533" d="M313.98,1225.315,343.045,1213H357.6v.153c.021-.1.033-.153.033-.153h14.554l29.065,12.316a11.6,11.6,0,0,1,7.976,12.766c-1.078,7.254-2.65,17.644-4.359,29.008a88.091,88.091,0,0,1-94.529-.159c-1.7-11.3-3.262-21.628-4.335-28.849A11.6,11.6,0,0,1,313.98,1225.315Z" fill="#fb9b67"/>
      <g id="Group_162" data-name="Group 162">
        <path id="Path_534" data-name="Path 534" d="M357.873,1280.763a88.071,88.071,0,0,1-24.678-3.511l2.855-53.872c4.678,15.976,37.421,12.8,42.723,1.759,2.276-4.742,3.15,21.143,3.4,52.224A88.08,88.08,0,0,1,357.873,1280.763Z" fill="#fff"/>
        <rect id="Rectangle_25" data-name="Rectangle 25" width="52.628" height="4.901" transform="translate(380.955 1264.214) rotate(180)" fill="#231f20"/>
        <rect id="Rectangle_26" data-name="Rectangle 26" width="52.628" height="4.901" transform="translate(380.955 1249.246) rotate(180)" fill="#231f20"/>
        <g id="Group_161" data-name="Group 161">
          <path id="Path_535" data-name="Path 535" d="M374.951,1229.377h5.627c.135,1.175.261,2.547.377,4.1v.8H359.508C365.432,1233.821,371.157,1232.071,374.951,1229.377Z" fill="#231f20"/>
          <path id="Path_536" data-name="Path 536" d="M335.732,1229.377h4.207c3.357,2.93,8.267,4.48,13.495,4.9H335.473Z" fill="#231f20"/>
        </g>
        <path id="Path_537" data-name="Path 537" d="M380.955,1277.7q-3.166.858-6.426,1.484H341.216a87.259,87.259,0,0,1-12.889-3.507v-1.394h52.628Z" fill="#231f20"/>
      </g>
      <path id="Path_538" data-name="Path 538" d="M289.619,1248.5l.387-4.256a22.363,22.363,0,0,1,17.156-19.745l34.124-8.385c-1.775,5.6-2.143,38.142,1.985,63.458A87.954,87.954,0,0,1,289.619,1248.5Z" fill="#231f20"/>
      <path id="Path_539" data-name="Path 539" d="M370.4,1279.852l5.09-65.22,36.448,12.19a20.453,20.453,0,0,1,13.9,17.775l.283,3.553A87.934,87.934,0,0,1,370.4,1279.852Z" fill="#231f20"/>
      <g id="Group_163" data-name="Group 163">
        <path id="Path_540" data-name="Path 540" d="M334.247,1164.005s-.009-.3-.01-.822l.078.822Z" fill="#f7daa3"/>
        <path id="Path_541" data-name="Path 541" d="M357.519,1121.746h.127c13.74,0,25.381,9.052,24.879,24.566l-.454,5.367a40.249,40.249,0,0,1-.573,6.783l-.427,5.054s.028-1.024-.051-2.657c-2.279-12.619-15.783-16.135-35.337-22.919-10.111,8.233-11.382,22.779-11.382,22.779l-.018-.074c-.04,1.081-.048,1.953-.046,2.538l-.431-4.558a43.421,43.421,0,0,1-1.062-11.223l-.1-1.09C332.138,1130.8,343.779,1121.746,357.519,1121.746Z" fill="#f7daa3"/>
      </g>
      <path id="Path_542" data-name="Path 542" d="M339.944,1240.779c-11.435.073-29.393-3.326-30.5-4.782s8.088-14.044,14.125-15.527c3.826-.94,11.055-5.118,16.156-8.195,1.849-1.115,3.168-1.1,3.085,1.056-.522,13.507,2.28,44.737,4.122,66.773a87.511,87.511,0,0,1-17.611-4.027c-3.9-4.75-7.445-9.621-9.546-14.716C318.674,1258.684,339.944,1240.779,339.944,1240.779Z" fill="#363131"/>
      <path id="Path_543" data-name="Path 543" d="M374.2,1211.236c13.453,5.736,28.738,15.614,28.577,20.344-.036,1.045-22.141,4.21-27.13,5.613,0,0,24.011,16.683,24.011,17.931s-4.209,5.925-7.8,10.914c-1.244,1.732-4.366,5.736-7.869,10.739a87.463,87.463,0,0,1-14.834,3.248c.935-23.576,2.841-59.531,3.286-67.631A1.294,1.294,0,0,1,374.2,1211.236Z" fill="#363131"/>
      <path id="Path_544" data-name="Path 544" d="M396.491,1256.163a1.871,1.871,0,1,0-1.871,1.871A1.871,1.871,0,0,0,396.491,1256.163Z" fill="#939598"/>
      <path id="Path_545" data-name="Path 545" d="M327.314,1262.4a1.871,1.871,0,1,0-1.871,1.871A1.871,1.871,0,0,0,327.314,1262.4Z" fill="#939598"/>
      <path id="Path_546" data-name="Path 546" d="M398.8,1229.345a1.871,1.871,0,1,0-1.871,1.871A1.871,1.871,0,0,0,398.8,1229.345Z" fill="#939598"/>
      <path id="Path_547" data-name="Path 547" d="M316.032,1234.126a1.871,1.871,0,1,0-1.871,1.871A1.871,1.871,0,0,0,316.032,1234.126Z" fill="#939598"/>
    </g>
  </g>
</svg>
