<svg xmlns="http://www.w3.org/2000/svg" width="176.066" height="176.067" viewBox="0 0 176.066 176.067">
  <g id="Group_27" data-name="Group 27" transform="translate(-687.934 -53.623)">
    <circle id="Ellipse_9" data-name="Ellipse 9" cx="88.033" cy="88.033" r="88.033" transform="translate(687.934 53.623)" fill="#00a79d"/>
    <g id="Group_26" data-name="Group 26">
      <path id="Path_86" data-name="Path 86" d="M798.341,80.669c18.576,17.527,24.22,92.837,0,99.386s-32.1-96.047-32.1-96.047Z" fill="#362724"/>
      <path id="Path_87" data-name="Path 87" d="M798.127,126.439s-.215,26.382-.312,25.758c1.774-8.316,2.907-13.526,2.907-13.526s1.31,7.438-.724,22.518a13,13,0,0,0,3.905-7.8s-.051,19.6-3.905,21.057c-4.151,1.567-17.345-3.118-17.345-3.118l-1.715-28.458Z" fill="#17110f"/>
      <path id="Path_88" data-name="Path 88" d="M819.506,175.931,790.441,165.8H775.887s-.011.052-.033.152V165.8H761.3l-29.065,10.133c-5.433,1.719-8.814,6.193-7.976,11.83,1.036,6.973,2.685,17.065,4.545,28.238a88.077,88.077,0,0,0,94.111.135c1.869-11.227,3.527-21.372,4.568-28.373C828.32,182.124,824.94,177.65,819.506,175.931Z" fill="#b56d57"/>
      <path id="Path_89" data-name="Path 89" d="M844.97,196.323l-.34-2.636a19.791,19.791,0,0,0-15.383-17.229l-2.426-.5a176.123,176.123,0,0,1-17.641-4.29l-8.788-2.781c-1.916,6.4-12.728,12.612-24.424,12.618s-22.509-6.217-24.425-12.618l-10.97,3.472a131.529,131.529,0,0,1-13.218,3.136l-4.667.965A19.791,19.791,0,0,0,707.3,193.687l-.34,2.636a88.032,88.032,0,0,0,138,0Z" fill="#f7941e"/>
      <path id="Path_90" data-name="Path 90" d="M803.676,169.924l-3.284-1.039c-3.383,7.735-12.9,11.99-24.424,12s-21.042-4.26-24.425-12l-3.284,1.039c3.15,11.481,19.16,14.43,27.69,14.438h.037C784.516,184.354,800.526,181.4,803.676,169.924Z" fill="#e6e7e8"/>
      <path id="Path_91" data-name="Path 91" d="M753.875,127.692l-.456-.143c-1.7.083-3.794-3.975-3.957-7.67l-.931-7.065c-.056-1.283.281-2.3,1.294-1.985l.313.1a5.123,5.123,0,0,1,3.209,4.8Z" fill="#9e5c4f"/>
      <path id="Path_92" data-name="Path 92" d="M796.978,127.715l.456-.147c1.7.067,3.757-4.009,3.887-7.705l.867-7.074c.045-1.283-.3-2.3-1.312-1.972l-.312.1a5.123,5.123,0,0,0-3.166,4.829Z" fill="#9e5c4f"/>
      <g id="Group_25" data-name="Group 25">
        <path id="Path_93" data-name="Path 93" d="M790.454,132.513h-29.7v34.064l29.7-.048Z" fill="#854e48"/>
        <path id="Path_94" data-name="Path 94" d="M760.758,146.073l13.754,11.008-13.754,9.448Z" fill="#9e5c4f"/>
        <path id="Path_95" data-name="Path 95" d="M790.454,146.073v20.456s-17.521,1.923-29.7,0Z" fill="#b56d57"/>
      </g>
      <path id="Path_96" data-name="Path 96" d="M775.588,72.838c-13.654,0-24.723,10.313-24.723,23.034a21.616,21.616,0,0,0,.263,3.345l2.349,32.48a15.882,15.882,0,0,0,6.033,11.344l10.844,8.51a8.226,8.226,0,0,0,5.165,1.8h.138a8.226,8.226,0,0,0,5.165-1.8l10.79-8.469A16.03,16.03,0,0,0,797.7,131.63l2.344-32.413a21.616,21.616,0,0,0,.263-3.345h0C800.31,83.151,789.241,72.838,775.588,72.838Z" fill="#b56d57"/>
      <path id="Path_97" data-name="Path 97" d="M752.274,118.011s-.434-30.261,9.693-28.7a14.575,14.575,0,0,0-6.276-6.535C751.278,87.126,747.421,84.189,752.274,118.011Z" fill="#66433b"/>
      <path id="Path_98" data-name="Path 98" d="M754.229,80.577c-.5,5.9,5.212,7.745,10.1,9.852,5.362,2.31,32.539,6.407,33.794,39.129,11.233-11.547,13.708-35.571-2.186-51.787S755.23,68.727,754.229,80.577Z" fill="#362724"/>
    </g>
  </g>
</svg>
