<svg xmlns="http://www.w3.org/2000/svg" width="176.066" height="176.066" viewBox="0 0 176.066 176.066">
  <g id="Group_142" data-name="Group 142" transform="translate(-687.934 -1104.697)">
    <circle id="Ellipse_41" data-name="Ellipse 41" cx="88.033" cy="88.033" r="88.033" transform="translate(687.934 1104.697)" fill="#c2b59b"/>
    <g id="Group_141" data-name="Group 141">
      <path id="Path_469" data-name="Path 469" d="M798.341,1131.742c18.576,17.528,24.22,92.838,0,99.387s-32.1-96.048-32.1-96.048Z" fill="#362724"/>
      <path id="Path_470" data-name="Path 470" d="M798.127,1177.513s-.215,26.381-.312,25.758c1.774-8.316,2.907-13.527,2.907-13.527s1.31,7.439-.724,22.518a13,13,0,0,0,3.905-7.8s-.051,19.6-3.905,21.057c-4.151,1.568-17.345-3.118-17.345-3.118l-1.715-28.458Z" fill="#17110f"/>
      <path id="Path_471" data-name="Path 471" d="M819.506,1227.005l-29.065-10.134H775.887s-.011.053-.033.153v-.153H761.3l-29.065,10.134c-5.433,1.719-8.814,6.193-7.976,11.829,1.036,6.974,2.685,17.065,4.545,28.239a88.083,88.083,0,0,0,94.111.135c1.869-11.228,3.527-21.372,4.568-28.374C828.32,1233.2,824.94,1228.724,819.506,1227.005Z" fill="#b56d57"/>
      <path id="Path_472" data-name="Path 472" d="M844.97,1247.4l-.34-2.636a19.789,19.789,0,0,0-15.383-17.229l-2.426-.5a176.16,176.16,0,0,1-17.641-4.29l-8.788-2.781c-1.916,6.4-12.728,12.611-24.424,12.618s-22.509-6.218-24.425-12.618l-10.97,3.471a131.8,131.8,0,0,1-13.218,3.137l-4.667.965a19.789,19.789,0,0,0-15.383,17.229l-.34,2.636a88.033,88.033,0,0,0,138,0Z" fill="#00a79d"/>
      <path id="Path_473" data-name="Path 473" d="M803.676,1221l-3.284-1.039c-3.383,7.734-12.9,11.99-24.424,11.994s-21.042-4.26-24.425-11.994L748.259,1221c3.15,11.481,19.16,14.429,27.69,14.437h.037C784.516,1235.427,800.526,1232.479,803.676,1221Z" fill="#e6e7e8"/>
      <path id="Path_474" data-name="Path 474" d="M753.875,1178.766l-.456-.143c-1.7.082-3.794-3.975-3.957-7.67l-.931-7.066c-.056-1.282.281-2.3,1.294-1.984l.313.1a5.121,5.121,0,0,1,3.209,4.8Z" fill="#9e5c4f"/>
      <path id="Path_475" data-name="Path 475" d="M796.978,1178.789l.456-.148c1.7.068,3.757-4.009,3.887-7.7l.867-7.074c.045-1.282-.3-2.3-1.312-1.972l-.312.1a5.121,5.121,0,0,0-3.166,4.829Z" fill="#9e5c4f"/>
      <g id="Group_140" data-name="Group 140">
        <path id="Path_476" data-name="Path 476" d="M790.454,1183.586h-29.7v34.064l29.7-.048Z" fill="#854e48"/>
        <path id="Path_477" data-name="Path 477" d="M760.758,1197.146l13.754,11.008-13.754,9.448Z" fill="#9e5c4f"/>
        <path id="Path_478" data-name="Path 478" d="M790.454,1197.147V1217.6s-17.521,1.924-29.7,0Z" fill="#b56d57"/>
      </g>
      <path id="Path_479" data-name="Path 479" d="M775.588,1123.912c-13.654,0-24.723,10.312-24.723,23.033a21.6,21.6,0,0,0,.263,3.345l2.349,32.48a15.878,15.878,0,0,0,6.033,11.344l10.844,8.511a8.224,8.224,0,0,0,5.165,1.8h.138a8.225,8.225,0,0,0,5.165-1.8l10.79-8.469A16.032,16.032,0,0,0,797.7,1182.7l2.344-32.413a21.6,21.6,0,0,0,.263-3.345h0C800.31,1134.224,789.241,1123.912,775.588,1123.912Z" fill="#b56d57"/>
      <path id="Path_480" data-name="Path 480" d="M752.274,1169.085s-.434-30.262,9.693-28.7a14.581,14.581,0,0,0-6.276-6.535C751.278,1138.2,747.421,1135.262,752.274,1169.085Z" fill="#66433b"/>
      <path id="Path_481" data-name="Path 481" d="M754.229,1131.651c-.5,5.9,5.212,7.745,10.1,9.852,5.362,2.31,32.539,6.406,33.794,39.128,11.233-11.546,13.708-35.571-2.186-51.787S755.23,1119.8,754.229,1131.651Z" fill="#362724"/>
    </g>
  </g>
</svg>
