<svg xmlns="http://www.w3.org/2000/svg" width="248.995" height="248.995" viewBox="0 0 248.995 248.995">
  <g id="Group_3" data-name="Group 3" transform="translate(-24.328 -17.159)">
    <circle id="Ellipse_1" data-name="Ellipse 1" cx="88.033" cy="88.033" r="88.033" transform="translate(24.328 141.657) rotate(-45)" fill="#00a79d"/>
    <g id="Group_2" data-name="Group 2">
      <path id="Path_1" data-name="Path 1" d="M128.141,79.974c3.576-7.119,12.467-14.563,28.777-10.549,17.885,4.4,27.864,24.531,21.316,46.683-12.161,41.133-44.552,25.292-55.186,1.979C111.188,92.085,120.751,80.443,128.141,79.974Z" fill="#4d2727"/>
      <path id="Path_2" data-name="Path 2" d="M192.364,177.738,163.3,167.6H148.745l-.033.153V167.6H134.158l-29.065,10.133c-5.433,1.72-8.814,6.193-7.976,11.83.973,6.551,2.487,15.854,4.209,26.22a88.094,88.094,0,0,0,94.782.137c1.731-10.421,3.255-19.778,4.232-26.357C201.178,183.931,197.8,179.458,192.364,177.738Z" fill="#fb9b67"/>
      <path id="Path_3" data-name="Path 3" d="M127.076,128.769l-.457-.144c-1.695.083-3.793-3.975-3.956-7.669l-.931-7.066c-.057-1.283.281-2.3,1.294-1.984l.313.1a5.122,5.122,0,0,1,3.209,4.8Z" fill="#f28c63"/>
      <path id="Path_4" data-name="Path 4" d="M170.179,128.791l.455-.147c1.7.068,3.758-4.009,3.887-7.7l.867-7.074c.045-1.283-.3-2.3-1.311-1.972l-.312.1a5.121,5.121,0,0,0-3.166,4.828Z" fill="#f28c63"/>
      <g id="Group_1" data-name="Group 1">
        <path id="Path_5" data-name="Path 5" d="M163.655,133.589h-29.7v34.064l29.7-.048Z" fill="#e07f57"/>
        <path id="Path_6" data-name="Path 6" d="M133.959,147.149l13.754,11.007L133.959,167.6Z" fill="#f28c63"/>
        <path id="Path_7" data-name="Path 7" d="M163.655,147.149V167.6s-17.522,1.924-29.7,0Z" fill="#fb9b67"/>
      </g>
      <path id="Path_8" data-name="Path 8" d="M148.788,73.914c-13.653,0-24.722,10.313-24.722,23.034a21.608,21.608,0,0,0,.263,3.345l2.349,32.48a15.874,15.874,0,0,0,6.033,11.344l10.843,8.51a8.22,8.22,0,0,0,5.165,1.8h.138a8.22,8.22,0,0,0,5.165-1.8l10.791-8.469a16.023,16.023,0,0,0,6.09-11.452l2.345-32.413a21.723,21.723,0,0,0,.262-3.345h0C173.51,84.227,162.442,73.914,148.788,73.914Z" fill="#fb9b67"/>
      <path id="Path_9" data-name="Path 9" d="M202.1,178.265l-2.427-.5a176.66,176.66,0,0,1-17.64-4.29l-8.788-2.781c-1.916,6.4-12.728,12.611-24.425,12.618s-22.508-6.218-24.424-12.618l-10.97,3.471a131.6,131.6,0,0,1-13.218,3.136l-4.667.965a19.791,19.791,0,0,0-15.383,17.23l-.139,1.078a88.027,88.027,0,0,0,137.6,0l-.139-1.078A19.792,19.792,0,0,0,202.1,178.265Z" fill="#ff641c"/>
      <path id="Path_10" data-name="Path 10" d="M176.534,171.732l-3.284-1.039c-3.383,7.734-12.9,11.989-24.425,11.994s-21.042-4.26-24.424-11.994l-3.284,1.039c3.15,11.48,19.16,14.429,27.69,14.437h.037C157.374,186.161,173.383,183.212,176.534,171.732Z" fill="#fff"/>
      <path id="Path_11" data-name="Path 11" d="M149.953,70.672c12.218.725,18.58,4.975,22.658,11.17.754-.789,1,.785,2,.411,11.988,18.668,10.117,41.565.374,54.463-3.205,4.243-8.906,10.514-10.059,14.5,0,0-1.4-1.5,2.75-9.735a33.568,33.568,0,0,0,2.758-20.829c-6.215-17.977-25.51-9.948-39.689-27.369,0,0-5.423,14.188-5.59,24.513C125.157,117.794,113.163,68.489,149.953,70.672Z" fill="#4d2727"/>
    </g>
  </g>
</svg>
