<svg xmlns="http://www.w3.org/2000/svg" width="176.066" height="176.066" viewBox="0 0 176.066 176.066">
  <g id="Group_205" data-name="Group 205" transform="translate(-1315.077 -1104.697)">
    <circle id="Ellipse_58" data-name="Ellipse 58" cx="88.033" cy="88.033" r="88.033" transform="translate(1315.077 1104.697)" fill="#9b8579"/>
    <g id="Group_204" data-name="Group 204">
      <path id="Path_679" data-name="Path 679" d="M1359.542,1228.075l29.065-9.2h14.555v.153l.033-.153h14.554l29.065,9.2a11.6,11.6,0,0,1,7.976,12.765c-.962,6.475-2.318,15.638-3.813,25.859a88.075,88.075,0,0,1-95.609-.077c-1.49-10.19-2.842-19.323-3.8-25.782A11.6,11.6,0,0,1,1359.542,1228.075Z" fill="#fb9b67"/>
      <path id="Path_680" data-name="Path 680" d="M1333.116,1245.962a21.146,21.146,0,0,1,15.1-15.506c6-1.606,12.342-3.308,16.118-4.333,5.536,26.493,38.746,38.3,38.746,38.3s28.789-8.692,38.745-38.3c3.776,1.025,10.12,2.727,16.118,4.333a21.146,21.146,0,0,1,15.166,15.821,88.031,88.031,0,0,1-139.988-.315Z" fill="#edbaba"/>
      <path id="Path_681" data-name="Path 681" d="M1423.381,1129.193c-3.576-7.119-12.467-14.563-28.777-10.549-17.885,4.4-27.864,24.532-21.315,46.683,12.16,41.134,44.552,25.293,55.186,1.979C1440.335,1141.3,1430.772,1129.662,1423.381,1129.193Z" fill="#f7daa3"/>
      <path id="Path_682" data-name="Path 682" d="M1381.525,1180.041l-.456-.144c-1.695.083-3.794-3.975-3.957-7.669l-.93-7.066c-.057-1.283.28-2.3,1.293-1.984l.313.1a5.123,5.123,0,0,1,3.21,4.8Z" fill="#f28c63"/>
      <path id="Path_683" data-name="Path 683" d="M1424.628,1180.063l.456-.147c1.7.068,3.757-4.009,3.887-7.7l.867-7.074c.045-1.283-.3-2.3-1.312-1.972l-.311.1a5.123,5.123,0,0,0-3.167,4.828Z" fill="#f28c63"/>
      <g id="Group_203" data-name="Group 203">
        <path id="Path_684" data-name="Path 684" d="M1418.1,1184.861h-29.7v34.064l29.7-.048Z" fill="#e07f57"/>
        <path id="Path_685" data-name="Path 685" d="M1388.408,1198.421l13.754,11.008-13.754,9.448Z" fill="#f28c63"/>
        <path id="Path_686" data-name="Path 686" d="M1418.1,1198.421v20.456s-17.521,1.924-29.7,0Z" fill="#fb9b67"/>
      </g>
      <path id="Path_687" data-name="Path 687" d="M1403.238,1125.186c-13.654,0-24.722,10.313-24.722,23.034a21.742,21.742,0,0,0,.262,3.345l2.349,32.48a15.88,15.88,0,0,0,6.033,11.344L1398,1203.9a8.22,8.22,0,0,0,5.165,1.8h.138a8.223,8.223,0,0,0,5.165-1.8l10.79-8.469a16.03,16.03,0,0,0,6.091-11.452l2.344-32.413a21.594,21.594,0,0,0,.263-3.345h0C1427.96,1135.5,1416.891,1125.186,1403.238,1125.186Z" fill="#fb9b67"/>
      <path id="Path_688" data-name="Path 688" d="M1403.01,1266.917l-.8-.317a78.03,78.03,0,0,1-26.273-16.826,52.211,52.211,0,0,1-13.868-23.045l4.519-1.212c4.059,15.135,17.693,28.7,36.548,36.413,28.673-10.124,36.126-35.365,36.432-36.445l4.5,1.276a57.819,57.819,0,0,1-10.11,18.754,63.64,63.64,0,0,1-30.136,21.126Z" fill="#ffdede"/>
      <path id="Path_689" data-name="Path 689" d="M1420.776,1142.5c-14.848,18.243-35.307,8.576-40.48,30.088-6.176-11.689-13.957-48.643,22.833-50.826s23.236,45.251,23.236,45.251C1426.2,1156.689,1420.776,1142.5,1420.776,1142.5Z" fill="#f7daa3"/>
    </g>
  </g>
</svg>
