<svg xmlns="http://www.w3.org/2000/svg" width="176.066" height="176.066" viewBox="0 0 176.066 176.066">
  <g id="Group_198" data-name="Group 198" transform="translate(-896.982 -1104.697)">
    <circle id="Ellipse_56" data-name="Ellipse 56" cx="88.033" cy="88.033" r="88.033" transform="translate(896.982 1104.697)" fill="#00a79d"/>
    <g id="Group_197" data-name="Group 197">
      <path id="Path_651" data-name="Path 651" d="M1016.813,1158.915c-.6-22.659-5.256-28.336-12.438-29.015-3.751-6.945-12.6-13.91-28.488-10-12.6,3.1-21.273,14.006-23.012,27.924a81.081,81.081,0,0,0-1.234,10.45c-4.3,70.518-27.384,96.766,31.661,94.339C1051.96,1249.791,1018.905,1238.314,1016.813,1158.915Z" fill="#3d2d2c"/>
      <path id="Path_652" data-name="Path 652" d="M963.328,1179.489l-.457-.143c-1.695.082-3.793-3.975-3.956-7.67l-.931-7.066c-.057-1.282.28-2.3,1.294-1.984l.312.1a5.122,5.122,0,0,1,3.21,4.8Z" fill="#f28c63"/>
      <path id="Path_653" data-name="Path 653" d="M1006.431,1179.512l.455-.148c1.7.068,3.758-4.009,3.887-7.7l.867-7.074c.045-1.282-.3-2.3-1.311-1.972l-.312.1a5.121,5.121,0,0,0-3.166,4.829Z" fill="#f28c63"/>
      <g id="Group_196" data-name="Group 196">
        <path id="Path_654" data-name="Path 654" d="M999.907,1184.309h-29.7v34.064l29.7-.048Z" fill="#e07f57"/>
        <path id="Path_655" data-name="Path 655" d="M970.21,1197.87l13.754,11.007-13.754,9.448Z" fill="#f28c63"/>
        <path id="Path_656" data-name="Path 656" d="M999.907,1197.87v20.455s-17.522,1.924-29.7,0Z" fill="#fb9b67"/>
      </g>
      <path id="Path_657" data-name="Path 657" d="M985.04,1124.635c-13.654,0-24.722,10.312-24.722,23.033a21.619,21.619,0,0,0,.263,3.346l2.349,32.479a15.874,15.874,0,0,0,6.032,11.344l10.844,8.511a8.225,8.225,0,0,0,5.165,1.8h.138a8.225,8.225,0,0,0,5.165-1.8l10.791-8.469a16.031,16.031,0,0,0,6.09-11.453l2.345-32.413a21.72,21.72,0,0,0,.262-3.344h0C1009.762,1134.947,998.694,1124.635,985.04,1124.635Z" fill="#fb9b67"/>
      <path id="Path_658" data-name="Path 658" d="M961.065,1163.668a33.307,33.307,0,0,1,12.148-23.724c14.371,3.617,30.36,10.269,35.853,23,7.576-19.82-3-39.656-24.015-39.656S953.65,1136.437,961.065,1163.668Z" fill="#3d2d2c"/>
      <path id="Path_659" data-name="Path 659" d="M1028.616,1227.523l-29.065-9.2H985s-.012.053-.033.153v-.153H970.41l-29.065,9.2a11.6,11.6,0,0,0-7.976,12.766c.979,6.59,2.366,15.965,3.893,26.407a88.082,88.082,0,0,0,95.43.047c1.529-10.461,2.919-19.854,3.9-26.454A11.6,11.6,0,0,0,1028.616,1227.523Z" fill="#fb9b67"/>
      <path id="Path_660" data-name="Path 660" d="M1053.674,1247.82l-.066-1.146a17.665,17.665,0,0,0-12.943-16.188c-5.237-1.445-11.528-3.151-17.609-4.723-18.217,24.5-59.9,24.147-76.151,0l-18.792,4.972a16.507,16.507,0,0,0-12.271,15.288l-.045,1.109a88.033,88.033,0,0,0,137.877.688Z" fill="#f9d328"/>
      <path id="Path_661" data-name="Path 661" d="M949.656,1198.769c-3.118,22.355,10.012,38.259,24.028,37.012a85.685,85.685,0,0,1-3.586-27.212Z" fill="#3d2d2c"/>
    </g>
  </g>
</svg>
