<svg xmlns="http://www.w3.org/2000/svg" width="176.066" height="176.067" viewBox="0 0 176.066 176.067">
  <g id="Group_35" data-name="Group 35" transform="translate(-478.887 -263.838)">
    <circle id="Ellipse_11" data-name="Ellipse 11" cx="88.033" cy="88.033" r="88.033" transform="translate(478.887 263.838)" fill="#9b8579"/>
    <g id="Group_34" data-name="Group 34">
      <ellipse id="Ellipse_12" data-name="Ellipse 12" cx="30.768" cy="53.907" rx="30.768" ry="53.907" transform="translate(538.027 287.49)" fill="#947152"/>
      <path id="Path_113" data-name="Path 113" d="M545.254,339.591l-.457-.144c-1.694.083-3.793-3.975-3.956-7.669l-.931-7.066c-.056-1.282.281-2.3,1.294-1.984l.313.1a5.121,5.121,0,0,1,3.209,4.8Z" fill="#f28c63"/>
      <path id="Path_114" data-name="Path 114" d="M588.357,339.614l.455-.148c1.7.068,3.758-4.009,3.888-7.705l.867-7.074c.045-1.283-.3-2.3-1.312-1.972l-.312.1a5.121,5.121,0,0,0-3.166,4.829Z" fill="#f28c63"/>
      <g id="Group_33" data-name="Group 33">
        <path id="Path_115" data-name="Path 115" d="M581.833,344.411h-29.7v34.064l29.7-.048Z" fill="#e07f57"/>
        <path id="Path_116" data-name="Path 116" d="M552.137,357.971l13.754,11.008-13.754,9.448Z" fill="#f28c63"/>
        <path id="Path_117" data-name="Path 117" d="M581.833,357.971v20.456s-17.521,1.924-29.7,0Z" fill="#fb9b67"/>
      </g>
      <path id="Path_118" data-name="Path 118" d="M566.966,284.736c-13.653,0-24.722,10.313-24.722,23.034a21.6,21.6,0,0,0,.263,3.345l2.349,32.48a15.874,15.874,0,0,0,6.033,11.344l10.843,8.51a8.22,8.22,0,0,0,5.165,1.8h.138a8.22,8.22,0,0,0,5.165-1.8l10.791-8.469a16.028,16.028,0,0,0,6.091-11.452l2.344-32.413a21.725,21.725,0,0,0,.262-3.345h0C591.689,295.049,580.62,284.736,566.966,284.736Z" fill="#fb9b67"/>
      <path id="Path_119" data-name="Path 119" d="M523.271,387.625l29.065-9.2H566.89v.153c.022-.1.033-.153.033-.153h14.555l29.064,9.2a11.6,11.6,0,0,1,7.977,12.765c-.948,6.374-2.276,15.352-3.743,25.381a88.067,88.067,0,0,1-95.742-.026c-1.465-10.018-2.793-18.987-3.739-25.355A11.6,11.6,0,0,1,523.271,387.625Z" fill="#fb9b67"/>
      <path id="Path_120" data-name="Path 120" d="M497.76,406.337l.009-.212a16.506,16.506,0,0,1,12.271-15.288l18.792-5.284c16.255,24.147,57.933,24.5,76.15,0,6.082,1.572,12.373,3.589,17.609,5.035a17.664,17.664,0,0,1,12.943,16.188l.013.233a88.031,88.031,0,0,1-137.787-.672Z" fill="#de252d"/>
      <path id="Path_121" data-name="Path 121" d="M557.242,302.55c-8.335,8.42-15.631,33.545-5.218,82.95-25.537-8.731-27.507-32.457-24.758-54.942,3.043-24.889,16.924-47.862,26.482-43.5,3.932-7.8,20.13-11.8,36.22,2.495,24.324,21.616,34.83,81.7-7.256,97.191,7.546-15.28,12.9-55.4,1.611-68.142A51.035,51.035,0,0,0,557.242,302.55Z" fill="#f7daa3"/>
    </g>
  </g>
</svg>
