<svg xmlns="http://www.w3.org/2000/svg" width="176.066" height="176.067" viewBox="0 0 176.066 176.067">
  <g id="Group_126" data-name="Group 126" transform="translate(-60.792 -894.482)">
    <circle id="Ellipse_37" data-name="Ellipse 37" cx="88.033" cy="88.033" r="88.033" transform="translate(60.792 894.482)" fill="#00a79d"/>
    <g id="Group_125" data-name="Group 125">
      <path id="Path_415" data-name="Path 415" d="M194.153,998.927c-6.961-7.588-6.629-17.671-4.972-25.1s-1.466-17.366-4.776-22.251c-7.986-11.789-1.478-17.492-9.986-32.137-10.255-17.652-36.61-15.09-42.531-2.266-12.309-2.472-16.491,6.3-15.244,21,.75,8.834.9,15.764-4.4,21.471s-7.484,17.456-4.989,25.926,2.807,13.772-4.678,18.449-12.353,19.411-1.5,24.83c9.194,4.59,37.195,3.081,45.547,2.512l.026.2s32.784-2.91,46.044-2.91C205.952,1018.989,201.115,1006.515,194.153,998.927Z" fill="#3d2d2c"/>
      <path id="Path_416" data-name="Path 416" d="M126.609,968.771l-.457-.143c-1.694.083-3.793-3.975-3.956-7.67l-.931-7.066c-.056-1.282.281-2.3,1.294-1.984l.313.1a5.122,5.122,0,0,1,3.209,4.8Z" fill="#f28c63"/>
      <path id="Path_417" data-name="Path 417" d="M169.712,968.794l.455-.147c1.7.067,3.758-4.009,3.888-7.7l.867-7.074c.045-1.283-.3-2.3-1.312-1.973l-.312.1a5.123,5.123,0,0,0-3.166,4.829Z" fill="#f28c63"/>
      <g id="Group_124" data-name="Group 124">
        <path id="Path_418" data-name="Path 418" d="M163.188,973.591h-29.7v34.064l29.7-.048Z" fill="#e07f57"/>
        <path id="Path_419" data-name="Path 419" d="M133.492,987.152l13.754,11.008-13.754,9.448Z" fill="#f28c63"/>
        <path id="Path_420" data-name="Path 420" d="M163.188,987.152v20.455s-17.521,1.924-29.7,0Z" fill="#fb9b67"/>
      </g>
      <path id="Path_421" data-name="Path 421" d="M148.321,913.917c-13.653,0-24.722,10.312-24.722,23.033a21.622,21.622,0,0,0,.263,3.346l2.349,32.48a15.874,15.874,0,0,0,6.033,11.343l10.843,8.511a8.225,8.225,0,0,0,5.165,1.8h.139a8.224,8.224,0,0,0,5.164-1.8l10.791-8.469a16.03,16.03,0,0,0,6.091-11.452l2.344-32.414a21.72,21.72,0,0,0,.263-3.344h0C173.044,924.229,161.975,913.917,148.321,913.917Z" fill="#fb9b67"/>
      <path id="Path_422" data-name="Path 422" d="M124.408,952.472s1.583-14.546,11.694-22.779c19.555,6.784,33.371,10.3,35.649,22.919,8.2-24.547-2.96-39.516-23.868-39.516S118.572,931.183,124.408,952.472Z" fill="#3d2d2c"/>
      <path id="Path_423" data-name="Path 423" d="M191.9,1016.8l-29.065-9.2H148.278s-.011.053-.033.153v-.153H133.691l-29.065,9.2a11.6,11.6,0,0,0-7.976,12.766c.981,6.6,2.37,15.987,3.9,26.444a88.06,88.06,0,0,0,95.271,1.062c1.589-10.882,3.04-20.686,4.054-27.506A11.6,11.6,0,0,0,191.9,1016.8Z" fill="#fb9b67"/>
      <path id="Path_424" data-name="Path 424" d="M205.938,1019.925,163.1,1007.607c0,16.192-3.906,41.713-7.705,62.709a87.87,87.87,0,0,0,61.663-31.953l-.219-4.646A15.089,15.089,0,0,0,205.938,1019.925Z" fill="#6d6e71"/>
      <path id="Path_425" data-name="Path 425" d="M91.746,1019.644a15.089,15.089,0,0,0-10.881,13.615l-.5,4.652a88.383,88.383,0,0,0,60.824,32.288c-3.8-21.016-7.7-46.517-7.7-62.592Z" fill="#6d6e71"/>
      <path id="Path_426" data-name="Path 426" d="M157.079,1047.643a22.145,22.145,0,0,1-17.565,0c-2.529.966-3.26,10.578-2.429,22.1a88.787,88.787,0,0,0,11.923.807q3.516,0,6.966-.274C157.136,1059.143,157.683,1049.581,157.079,1047.643Z" fill="#f1f2f2"/>
      <path id="Path_427" data-name="Path 427" d="M161.18,1033.172l18.91-3.813-7.265-18.909-9.724-2.843-9.449,62.82a88.07,88.07,0,0,0,14.171-1.9l16.425-33.18Z" fill="#414042"/>
      <path id="Path_428" data-name="Path 428" d="M124.166,1010.381l-7.328,19.4,19.282,3.529-23.314,2.363,16.067,32.56a87.861,87.861,0,0,0,14.057,2.1l-9.438-62.729Z" fill="#414042"/>
      <path id="Path_429" data-name="Path 429" d="M161.65,1031.552l16.586-3.41-5.33-17.556a1.745,1.745,0,0,0-1.009-1.11,33.418,33.418,0,0,1-8-4.833.288.288,0,0,0-.471.177l-9.807,65.609a88.073,88.073,0,0,0,11.915-1.436l17.392-37.363Z" fill="#808285"/>
      <path id="Path_430" data-name="Path 430" d="M132.779,1004.825c-1.823,2.068-5.6,3.769-7.64,4.525a2.6,2.6,0,0,0-1.587,1.681l-5.195,17.111,16.586,3.41-21.275.078,17.248,37.054a87.969,87.969,0,0,0,12.076,1.656l-9.715-65.363A.286.286,0,0,0,132.779,1004.825Z" fill="#808285"/>
    </g>
  </g>
</svg>
