<svg xmlns="http://www.w3.org/2000/svg" width="176.066" height="176.066" viewBox="0 0 176.066 176.066">
  <g id="Group_195" data-name="Group 195" transform="translate(-1315.077 -684.268)">
    <circle id="Ellipse_55" data-name="Ellipse 55" cx="88.033" cy="88.033" r="88.033" transform="translate(1315.077 684.268)" fill="#fbb040"/>
    <g id="Group_194" data-name="Group 194">
      <g id="Group_193" data-name="Group 193">
        <path id="Path_639" data-name="Path 639" d="M1444.415,737.623a12.525,12.525,0,0,1,1.157-9.511,3.735,3.735,0,0,1-1.559-5.925,3.741,3.741,0,0,0-2.914-3.647,3.782,3.782,0,0,0,.071-.719,3.732,3.732,0,0,1-3.082-5.673,3.734,3.734,0,0,1-4.734-4.423,3.73,3.73,0,0,0-4.617-3.636,3.61,3.61,0,0,0,.025-.418,35.776,35.776,0,0,1-9.176-6.4,3.739,3.739,0,0,1-5.4-2.183,3.734,3.734,0,0,1-6.04-.935,3.737,3.737,0,0,1-6.791,0,3.737,3.737,0,0,1-5.876.779,3.728,3.728,0,0,1-4.771.78,3.736,3.736,0,0,1-4.937,2.183,3.728,3.728,0,0,1-4.81,2.344,3.742,3.742,0,0,0-3.742,3.742c0,.035,0,.068.005.1a3.731,3.731,0,0,0-4.6,3.641.623.623,0,1,1-.992.681,22.8,22.8,0,0,1-6.824,9.415,3.732,3.732,0,0,1-2.843,4.366,3.736,3.736,0,0,1-1.559,5.925,3.739,3.739,0,0,1-1.092,6.081,3.741,3.741,0,0,1,0,6.861,3.737,3.737,0,0,1,1.752,6.32,3.737,3.737,0,0,1,1.99,5.307,3.737,3.737,0,0,1,1.752,5.864,3.743,3.743,0,0,0,3.742,3.742c.032,0,.063,0,.094-.005a3.741,3.741,0,0,0,3.648,2.919c.061,0,.12-.006.18-.009a3.74,3.74,0,0,0,3.563,4.887,3.794,3.794,0,0,0,.386-.02,6.694,6.694,0,0,0,10.291,4.816,40.379,40.379,0,0,0,32.792.2,11.2,11.2,0,0,1,6.365-.661,3.718,3.718,0,0,0,3.688-4.356,3.792,3.792,0,0,0,.386.02,3.74,3.74,0,0,0,3.562-4.887c.06,0,.12.009.18.009a3.742,3.742,0,0,0,3.649-2.919c.031,0,.062.005.093.005a32.076,32.076,0,0,1,5.494-9.606,3.739,3.739,0,0,1,1.991-5.307,3.737,3.737,0,0,1,1.751-6.32A3.742,3.742,0,0,0,1444.415,737.623Z" fill="#362724"/>
        <path id="Path_640" data-name="Path 640" d="M1381.716,763.26l-.457-.143c-1.694.082-3.793-3.976-3.956-7.67l-.931-7.066c-.056-1.282.281-2.3,1.294-1.984l.313.1a5.12,5.12,0,0,1,3.209,4.8Z" fill="#9e5c4f"/>
        <path id="Path_641" data-name="Path 641" d="M1424.819,763.283l.455-.148c1.7.068,3.758-4.009,3.888-7.705l.867-7.074c.045-1.282-.3-2.3-1.312-1.972l-.312.1a5.121,5.121,0,0,0-3.166,4.829Z" fill="#9e5c4f"/>
        <g id="Group_192" data-name="Group 192">
          <path id="Path_642" data-name="Path 642" d="M1418.3,768.08h-29.7v34.064l29.7-.048Z" fill="#854e48"/>
          <path id="Path_643" data-name="Path 643" d="M1388.6,781.641l13.754,11.008L1388.6,802.1Z" fill="#9e5c4f"/>
          <path id="Path_644" data-name="Path 644" d="M1418.3,781.641V802.1s-17.521,1.924-29.7,0Z" fill="#b56d57"/>
        </g>
        <path id="Path_645" data-name="Path 645" d="M1403.428,708.406c-13.653,0-24.722,10.312-24.722,23.033a21.6,21.6,0,0,0,.263,3.345l2.349,32.48a15.875,15.875,0,0,0,6.033,11.344l10.843,8.511a8.225,8.225,0,0,0,5.165,1.8h.138a8.225,8.225,0,0,0,5.165-1.8l10.791-8.47a16.028,16.028,0,0,0,6.091-11.452l2.344-32.413a21.714,21.714,0,0,0,.262-3.344h0C1428.151,718.718,1417.082,708.406,1403.428,708.406Z" fill="#b56d57"/>
        <path id="Path_646" data-name="Path 646" d="M1403.4,707.725h-.128c-13.739,0-25.692,9.052-25.189,24.566l1.985,17.693H1380s-.654-18.446,8.371-24.17c1.6-1.017,6.4-1.685,10.393-1.014a32.983,32.983,0,0,0,9.133,0c3.994-.672,8.8,0,10.4,1.014,9.025,5.724,8.524,23.681,8.524,23.681h0l1.766-17.2C1429.092,716.777,1417.14,707.725,1403.4,707.725Z" fill="#362724"/>
      </g>
      <path id="Path_647" data-name="Path 647" d="M1446.971,811.186l-29.065-9.2h-14.554s-.012.053-.033.153v-.153h-14.554l-29.065,9.2a11.6,11.6,0,0,0-7.976,12.765c.841,5.663,1.984,13.382,3.257,22.067a88.059,88.059,0,0,0,96.757-.329c1.254-8.551,2.378-16.147,3.209-21.738A11.6,11.6,0,0,0,1446.971,811.186Z" fill="#b56d57"/>
      <path id="Path_648" data-name="Path 648" d="M1458.756,814.476l-19.79-5.993c0,23.784-2.614,40.039-35.856,40.039-29.615,0-35.856-16.74-35.856-40.039l-19.79,5.993c-6.639,1.7-11.623,6.546-12.715,13.288a88.025,88.025,0,0,0,136.721,0C1470.378,821.022,1465.4,816.173,1458.756,814.476Z" fill="#f1f2f2"/>
      <path id="Path_649" data-name="Path 649" d="M1471.47,827.764a17.2,17.2,0,0,0-12.714-13.911l-11.933-3.238c-.056,8.98-.324,27.391,3.095,36.252A88.509,88.509,0,0,0,1471.47,827.764Z" fill="#b56d57"/>
      <path id="Path_650" data-name="Path 650" d="M1359.707,810.531l-12.243,3.322a17.2,17.2,0,0,0-12.715,13.911,88.509,88.509,0,0,0,21.8,19.259C1360.046,838.2,1359.763,819.531,1359.707,810.531Z" fill="#b56d57"/>
    </g>
  </g>
</svg>
