<svg xmlns="http://www.w3.org/2000/svg" width="176.066" height="176.066" viewBox="0 0 176.066 176.066">
  <g id="Group_91" data-name="Group 91" transform="translate(-478.887 -1314.912)">
    <circle id="Ellipse_28" data-name="Ellipse 28" cx="88.033" cy="88.033" r="88.033" transform="translate(478.887 1314.912)" fill="#9b8579"/>
    <g id="Group_90" data-name="Group 90">
      <path id="Path_294" data-name="Path 294" d="M546.236,1341.262c3.576-7.119,12.467-14.563,28.777-10.549,17.885,4.4,27.864,24.532,21.315,46.683-12.16,41.134-44.552,25.293-55.186,1.979C529.282,1353.373,538.845,1341.731,546.236,1341.262Z" fill="#231f20"/>
      <path id="Path_295" data-name="Path 295" d="M610.459,1439.027l-29.065-10.134H566.84s-.012.053-.033.153v-.153H552.253l-29.065,10.134c-5.434,1.719-8.814,6.193-7.976,11.829.973,6.551,2.487,15.854,4.209,26.22a88.094,88.094,0,0,0,94.782.137c1.731-10.421,3.254-19.777,4.232-26.357C619.273,1445.22,615.892,1440.746,610.459,1439.027Z" fill="#fb9b67"/>
      <path id="Path_296" data-name="Path 296" d="M545.171,1390.057l-.457-.143c-1.7.082-3.794-3.975-3.956-7.67l-.931-7.066c-.057-1.282.28-2.3,1.294-1.984l.312.1a5.123,5.123,0,0,1,3.21,4.8Z" fill="#f28c63"/>
      <path id="Path_297" data-name="Path 297" d="M588.274,1390.08l.455-.148c1.7.068,3.757-4.009,3.887-7.7l.867-7.074c.045-1.283-.3-2.3-1.312-1.973l-.311.1a5.121,5.121,0,0,0-3.166,4.829Z" fill="#f28c63"/>
      <g id="Group_89" data-name="Group 89">
        <path id="Path_298" data-name="Path 298" d="M581.75,1394.877h-29.7v34.064l29.7-.048Z" fill="#e07f57"/>
        <path id="Path_299" data-name="Path 299" d="M552.053,1408.438l13.754,11.007-13.754,9.448Z" fill="#f28c63"/>
        <path id="Path_300" data-name="Path 300" d="M581.75,1408.438v20.455s-17.522,1.924-29.7,0Z" fill="#fb9b67"/>
      </g>
      <path id="Path_301" data-name="Path 301" d="M566.883,1335.2c-13.654,0-24.722,10.312-24.722,23.033a21.748,21.748,0,0,0,.262,3.346l2.35,32.479a15.873,15.873,0,0,0,6.032,11.344l10.844,8.511a8.225,8.225,0,0,0,5.165,1.8h.138a8.225,8.225,0,0,0,5.165-1.8l10.791-8.469a16.031,16.031,0,0,0,6.09-11.453l2.344-32.413a21.594,21.594,0,0,0,.263-3.344h0C591.6,1345.515,580.537,1335.2,566.883,1335.2Z" fill="#fb9b67"/>
      <path id="Path_302" data-name="Path 302" d="M620.2,1439.554l-2.427-.5a176.154,176.154,0,0,1-17.641-4.29l-8.787-2.781c-1.916,6.4-12.729,12.611-24.425,12.618s-22.508-6.218-24.424-12.618l-10.971,3.471a131.782,131.782,0,0,1-13.217,3.137l-4.668.965a19.79,19.79,0,0,0-15.382,17.229l-.139,1.078a88.026,88.026,0,0,0,137.6,0l-.139-1.078A19.789,19.789,0,0,0,620.2,1439.554Z" fill="#f1f2f2"/>
      <path id="Path_303" data-name="Path 303" d="M594.628,1433.02l-3.283-1.039c-3.383,7.734-12.9,11.99-24.425,11.994s-21.042-4.26-24.424-11.994l-3.284,1.039c3.15,11.481,19.159,14.429,27.689,14.438h.038C575.469,1447.449,591.478,1444.5,594.628,1433.02Z" fill="#fff"/>
      <path id="Path_304" data-name="Path 304" d="M568.048,1331.96c12.217.725,18.58,4.975,22.658,11.171.754-.79,1,.784,2,.41,11.988,18.668,10.117,41.565.373,54.464-3.2,4.242-8.9,10.513-10.058,14.5,0,0-1.405-1.5,2.75-9.735a33.575,33.575,0,0,0,2.758-20.829c-6.215-17.977-25.511-9.948-39.689-27.369,0,0-5.423,14.189-5.59,24.513C543.252,1379.082,531.257,1329.777,568.048,1331.96Z" fill="#231f20"/>
    </g>
  </g>
</svg>
