<svg xmlns="http://www.w3.org/2000/svg" width="176.066" height="176.067" viewBox="0 0 176.066 176.067">
  <g id="Group_67" data-name="Group 67" transform="translate(-1315.077 -263.838)">
    <circle id="Ellipse_22" data-name="Ellipse 22" cx="88.033" cy="88.033" r="88.033" transform="translate(1315.077 263.838)" fill="#c2b59b"/>
    <g id="Group_66" data-name="Group 66">
      <path id="Path_224" data-name="Path 224" d="M1447.42,371.1c-6.961-7.588-6.63-17.671-4.972-25.1s-1.467-17.366-4.776-22.252c-7.986-11.788-1.479-17.491-9.986-32.136-10.255-17.652-36.61-15.09-42.531-2.266-12.309-2.472-16.492,6.305-15.244,21,.75,8.834.9,15.764-4.4,21.471s-7.484,17.456-4.989,25.926,2.806,13.772-4.678,18.449-12.353,19.411-1.5,24.83c9.194,4.59,37.194,3.081,45.546,2.512l.027.2s32.784-2.91,46.043-2.91C1459.219,391.16,1454.381,378.686,1447.42,371.1Z" fill="#cf552d"/>
      <path id="Path_225" data-name="Path 225" d="M1379.622,340.659l-.456-.143c-1.7.083-3.794-3.975-3.957-7.67l-.93-7.066c-.057-1.282.28-2.3,1.294-1.984l.312.1a5.124,5.124,0,0,1,3.21,4.8Z" fill="#f28c63"/>
      <path id="Path_226" data-name="Path 226" d="M1422.725,340.682l.456-.147c1.695.067,3.757-4.009,3.887-7.705l.867-7.074c.045-1.283-.3-2.3-1.312-1.973l-.311.1a5.126,5.126,0,0,0-3.167,4.829Z" fill="#f28c63"/>
      <g id="Group_65" data-name="Group 65">
        <path id="Path_227" data-name="Path 227" d="M1416.2,345.479h-29.7v34.064l29.7-.048Z" fill="#e07f57"/>
        <path id="Path_228" data-name="Path 228" d="M1386.505,359.04l13.754,11.008-13.754,9.448Z" fill="#f28c63"/>
        <path id="Path_229" data-name="Path 229" d="M1416.2,359.04v20.455s-17.521,1.924-29.7,0Z" fill="#fb9b67"/>
      </g>
      <path id="Path_230" data-name="Path 230" d="M1401.335,285.8c-13.654,0-24.722,10.312-24.722,23.033a21.619,21.619,0,0,0,.262,3.346l2.349,32.48a15.878,15.878,0,0,0,6.033,11.343l10.844,8.511a8.225,8.225,0,0,0,5.165,1.8h.138a8.225,8.225,0,0,0,5.165-1.8l10.79-8.469a16.03,16.03,0,0,0,6.091-11.452l2.344-32.414a21.593,21.593,0,0,0,.263-3.344h0C1426.057,296.117,1414.988,285.8,1401.335,285.8Z" fill="#fb9b67"/>
      <path id="Path_231" data-name="Path 231" d="M1377.961,324.1s1.27-14.546,11.382-22.779c19.554,6.784,33.058,10.3,35.337,22.92,12.336-19.666-2.649-39.332-23.557-39.332S1369.713,304.572,1377.961,324.1Z" fill="#cf552d"/>
      <path id="Path_232" data-name="Path 232" d="M1444.911,388.693l-29.065-9.2h-14.554s-.012.053-.033.153v-.153H1386.7l-29.065,9.2a11.6,11.6,0,0,0-7.976,12.766c.865,5.816,2.047,13.8,3.362,22.774a88.064,88.064,0,0,0,96.1,2.731c1.474-10.079,2.81-19.1,3.761-25.5A11.6,11.6,0,0,0,1444.911,388.693Z" fill="#fb9b67"/>
      <path id="Path_233" data-name="Path 233" d="M1469.98,409.187l-.078-1.343a17.664,17.664,0,0,0-12.942-16.188c-5.237-1.445-11.528-3.151-17.61-4.722-18.217,24.5-59.9,24.146-76.15,0l-18.792,4.971a16.508,16.508,0,0,0-11.91,12.47,88.033,88.033,0,0,0,137.482,4.812Z" fill="#ffd036"/>
    </g>
  </g>
</svg>
