<svg xmlns="http://www.w3.org/2000/svg" width="176.066" height="176.067" viewBox="0 0 176.066 176.067">
  <g id="Group_58" data-name="Group 58" transform="translate(-896.982 -263.838)">
    <circle id="Ellipse_18" data-name="Ellipse 18" cx="88.033" cy="88.033" r="88.033" transform="translate(896.982 263.838)" fill="#9b8579"/>
    <g id="Group_57" data-name="Group 57">
      <path id="Path_181" data-name="Path 181" d="M1029.324,371.142c-6.961-7.588-6.63-17.671-4.972-25.1s-1.467-17.366-4.776-22.251c-7.986-11.789-1.479-17.492-9.987-32.137-10.254-17.652-36.609-15.09-42.53-2.265-12.309-2.473-16.492,6.3-15.244,21,.749,8.834.9,15.763-4.4,21.47s-7.484,17.456-4.99,25.927,2.807,13.771-4.677,18.449-12.353,19.41-1.5,24.829c9.194,4.591,37.194,3.081,45.546,2.512l.027.205s32.783-2.911,46.043-2.911C1041.123,391.2,1036.285,378.73,1029.324,371.142Z" fill="#f7daa3"/>
      <path id="Path_182" data-name="Path 182" d="M961.526,340.7l-.456-.144c-1.7.083-3.794-3.975-3.957-7.669l-.931-7.066c-.056-1.283.281-2.3,1.294-1.984l.313.1a5.121,5.121,0,0,1,3.209,4.8Z" fill="#f28c63"/>
      <path id="Path_183" data-name="Path 183" d="M1004.629,340.727l.456-.148c1.7.068,3.757-4.009,3.887-7.705l.867-7.074c.045-1.283-.3-2.3-1.312-1.972l-.312.1a5.121,5.121,0,0,0-3.166,4.829Z" fill="#f28c63"/>
      <g id="Group_56" data-name="Group 56">
        <path id="Path_184" data-name="Path 184" d="M998.105,345.524h-29.7v34.064l29.7-.048Z" fill="#e07f57"/>
        <path id="Path_185" data-name="Path 185" d="M968.409,359.084l13.754,11.008-13.754,9.448Z" fill="#f28c63"/>
        <path id="Path_186" data-name="Path 186" d="M998.1,359.084V379.54s-17.521,1.924-29.7,0Z" fill="#fb9b67"/>
      </g>
      <path id="Path_187" data-name="Path 187" d="M983.239,285.849c-13.654,0-24.723,10.313-24.723,23.034a21.6,21.6,0,0,0,.263,3.345l2.349,32.48a15.878,15.878,0,0,0,6.033,11.344l10.844,8.51a8.219,8.219,0,0,0,5.164,1.8h.139a8.219,8.219,0,0,0,5.164-1.8l10.791-8.469a16.028,16.028,0,0,0,6.091-11.452l2.344-32.413a21.6,21.6,0,0,0,.263-3.345h0C1007.961,296.162,996.892,285.849,983.239,285.849Z" fill="#fb9b67"/>
      <path id="Path_188" data-name="Path 188" d="M959.553,324.142s1.582-14.546,11.694-22.779c19.554,6.784,33.37,10.3,35.648,22.919,10.516-19.588-2.96-39.176-23.868-39.176S951.638,303.963,959.553,324.142Z" fill="#f7daa3"/>
      <path id="Path_189" data-name="Path 189" d="M1008.208,341.676a.972.972,0,1,0-.972.972A.972.972,0,0,0,1008.208,341.676Z" fill="#fff"/>
      <path id="Path_190" data-name="Path 190" d="M959.823,341.676a.972.972,0,1,0-.972.972A.972.972,0,0,0,959.823,341.676Z" fill="#fff"/>
      <path id="Path_191" data-name="Path 191" d="M1026.815,388.738l-29.065-9.2H983.2l-.034.153v-.153H968.608l-29.065,9.2a11.6,11.6,0,0,0-7.976,12.765c.863,5.805,2.042,13.772,3.354,22.725a88.066,88.066,0,0,0,96.116,2.732c1.471-10.059,2.8-19.067,3.754-25.457A11.6,11.6,0,0,0,1026.815,388.738Z" fill="#fb9b67"/>
      <path id="Path_192" data-name="Path 192" d="M1051.881,409.19l-.075-1.3a18.045,18.045,0,0,0-12.943-16.5c-5.236-1.445-11.527-3.151-17.609-4.723-18.217,24.5-59.9,24.147-76.15,0l-18.792,4.972a16.793,16.793,0,0,0-11.905,12.744,88.033,88.033,0,0,0,137.474,4.808Z" fill="#de252d"/>
    </g>
  </g>
</svg>
