<svg xmlns="http://www.w3.org/2000/svg" width="176.066" height="176.066" viewBox="0 0 176.066 176.066">
  <g id="Group_139" data-name="Group 139" transform="translate(-269.84 -684.268)">
    <circle id="Ellipse_40" data-name="Ellipse 40" cx="88.033" cy="88.033" r="88.033" transform="translate(269.84 684.268)" fill="#9b8579"/>
    <g id="Group_138" data-name="Group 138">
      <path id="Path_453" data-name="Path 453" d="M314.248,809.535l29.065-9.2h14.554v.153c.021-.1.033-.153.033-.153h14.554l29.065,9.2a11.6,11.6,0,0,1,7.976,12.766c-.9,6.026-2.132,14.382-3.505,23.752a88.058,88.058,0,0,1-96.221-.047c-1.369-9.351-2.6-17.689-3.5-23.7A11.6,11.6,0,0,1,314.248,809.535Z" fill="#fb9b67"/>
      <path id="Path_454" data-name="Path 454" d="M290.308,828.739l.178-2.75a15.089,15.089,0,0,1,10.882-13.615l41.745-12.037c0,15.335,3.55,39.25,7.173,59.664A87.865,87.865,0,0,1,290.308,828.739Z" fill="#b02331"/>
      <path id="Path_455" data-name="Path 455" d="M372.722,800.337l42.838,12.318a15.09,15.09,0,0,1,10.9,13.792l.048,1.027A87.88,87.88,0,0,1,365.564,860C369.182,839.627,372.722,815.753,372.722,800.337Z" fill="#b02331"/>
      <path id="Path_456" data-name="Path 456" d="M337.437,710.842c3.576-7.119,12.467-14.563,28.777-10.55,17.886,4.4,27.865,24.532,21.316,46.683-12.161,41.134-44.552,25.293-55.186,1.98C320.484,722.953,330.047,711.311,337.437,710.842Z" fill="#f7daa3"/>
      <path id="Path_457" data-name="Path 457" d="M336.23,761.5l-.456-.143c-1.695.083-3.794-3.975-3.957-7.67l-.93-7.066c-.057-1.282.28-2.3,1.294-1.984l.312.1a5.125,5.125,0,0,1,3.21,4.8Z" fill="#f28c63"/>
      <path id="Path_458" data-name="Path 458" d="M379.334,761.524l.455-.147c1.7.067,3.757-4.009,3.887-7.705l.867-7.074c.045-1.283-.3-2.3-1.312-1.973l-.311.1a5.123,5.123,0,0,0-3.166,4.829Z" fill="#f28c63"/>
      <g id="Group_136" data-name="Group 136">
        <path id="Path_459" data-name="Path 459" d="M372.81,766.321h-29.7v34.064l29.7-.048Z" fill="#e07f57"/>
        <path id="Path_460" data-name="Path 460" d="M343.113,779.882l13.754,11.008-13.754,9.448Z" fill="#f28c63"/>
        <path id="Path_461" data-name="Path 461" d="M372.81,779.882v20.455s-17.522,1.924-29.7,0Z" fill="#fb9b67"/>
      </g>
      <path id="Path_462" data-name="Path 462" d="M357.943,706.647c-13.654,0-24.722,10.313-24.722,23.034a21.741,21.741,0,0,0,.262,3.345l2.35,32.48a15.873,15.873,0,0,0,6.032,11.343l10.844,8.511a8.226,8.226,0,0,0,5.165,1.8h.138a8.226,8.226,0,0,0,5.165-1.8l10.79-8.469a16.027,16.027,0,0,0,6.091-11.452l2.344-32.413a21.62,21.62,0,0,0,.263-3.345h0C382.665,716.96,371.6,706.647,357.943,706.647Z" fill="#fb9b67"/>
      <path id="Path_463" data-name="Path 463" d="M340.043,724.148c14.847,18.243,35.307,8.576,40.48,30.089,6.175-11.69,13.957-48.643-22.833-50.826s-23.237,45.25-23.237,45.25C334.621,738.337,340.043,724.148,340.043,724.148Z" fill="#f7daa3"/>
      <path id="Path_464" data-name="Path 464" d="M349.135,840.373a22.145,22.145,0,0,0,17.565,0c.549,1.759.149,9.8-.8,19.6-2.631.236-5.293.364-7.985.364a88.767,88.767,0,0,1-11.387-.732C346.011,849.392,346.82,841.258,349.135,840.373Z" fill="#f1f2f2"/>
      <g id="Group_137" data-name="Group 137">
        <path id="Path_465" data-name="Path 465" d="M372.722,800.337l9.725,2.844,7.265,18.908L370.8,825.9l23.069,2.174-14.685,29.665a87.9,87.9,0,0,1-15.457,2.4Z" fill="#7d1922"/>
        <path id="Path_466" data-name="Path 466" d="M345.742,826.039l-19.283-3.529,7.328-19.4,9.326-2.774,9,59.8a87.97,87.97,0,0,1-15.171-2.326L322.428,828.4Z" fill="#7d1922"/>
      </g>
      <path id="Path_467" data-name="Path 467" d="M344.565,824.282l-16.587-3.41,5.2-17.11a2.6,2.6,0,0,1,1.588-1.682c2.04-.756,5.817-2.456,7.639-4.525a.288.288,0,0,1,.5.152l9.279,62.436a88,88,0,0,1-13.086-1.833l-15.8-33.95Z" fill="#ab575f"/>
      <path id="Path_468" data-name="Path 468" d="M373.517,797.373a33.4,33.4,0,0,0,8,4.833,1.747,1.747,0,0,1,1.008,1.11l5.33,17.556-16.586,3.41,21.276.078-15.8,33.949a88.11,88.11,0,0,1-13.053,1.832l9.355-62.59A.288.288,0,0,1,373.517,797.373Z" fill="#ab575f"/>
    </g>
  </g>
</svg>
