<svg xmlns="http://www.w3.org/2000/svg" width="248.995" height="248.995" viewBox="0 0 248.995 248.995">
  <g id="Group_7" data-name="Group 7" transform="translate(-442.422 -437.588)">
    <circle id="Ellipse_2" data-name="Ellipse 2" cx="88.033" cy="88.033" r="88.033" transform="translate(442.422 562.086) rotate(-45)" fill="#fbb040"/>
    <g id="Group_6" data-name="Group 6">
      <g id="Group_5" data-name="Group 5">
        <path id="Path_12" data-name="Path 12" d="M549.184,572.229c1.882-6.393,42.544-14.875,33.907,19.147,10.169-16.368,22.709-56.412-16.352-59.687S538.414,556.094,549.184,572.229Z" fill="#17110f"/>
        <path id="Path_13" data-name="Path 13" d="M545.51,549.491l-.457-.143c-1.694.083-3.793-3.975-3.956-7.67l-.931-7.066c-.056-1.282.281-2.3,1.294-1.984l.313.1a5.123,5.123,0,0,1,3.209,4.8Z" fill="#9e5c4f"/>
        <path id="Path_14" data-name="Path 14" d="M588.613,549.514l.455-.147c1.7.067,3.758-4.009,3.888-7.705l.867-7.074c.045-1.283-.3-2.3-1.312-1.973l-.312.1a5.123,5.123,0,0,0-3.166,4.829Z" fill="#9e5c4f"/>
        <g id="Group_4" data-name="Group 4">
          <path id="Path_15" data-name="Path 15" d="M582.089,554.312h-29.7v34.064l29.7-.048Z" fill="#854e48"/>
          <path id="Path_16" data-name="Path 16" d="M552.393,567.872l13.754,11.008-13.754,9.448Z" fill="#9e5c4f"/>
          <path id="Path_17" data-name="Path 17" d="M582.089,567.872v20.455s-17.521,1.924-29.7,0Z" fill="#b56d57"/>
        </g>
        <path id="Path_18" data-name="Path 18" d="M567.222,494.637c-13.653,0-24.722,10.312-24.722,23.034a21.616,21.616,0,0,0,.263,3.345l2.349,32.48a15.874,15.874,0,0,0,6.033,11.343l10.843,8.511a8.227,8.227,0,0,0,5.165,1.8h.139a8.224,8.224,0,0,0,5.164-1.8l10.791-8.469a16.03,16.03,0,0,0,6.091-11.452l2.344-32.414a21.594,21.594,0,0,0,.263-3.344h0C591.945,504.949,580.876,494.637,567.222,494.637Z" fill="#b56d57"/>
      </g>
      <path id="Path_19" data-name="Path 19" d="M555.189,510.172c1.49,12.884,11.569,16.122,20.79,31.136,10.949,17.828,16.8,40.432,3.45,52.906,16.386-9.355,27.955-48.852,20.284-77.8-7.491-28.274-32.226-26.818-39.753-24.966-9.007,2.216-36.544,10.517-28.229,73.97,2.495,1.515,19.7,8.375,19.7,8.375C542.958,555.078,540.29,525.764,555.189,510.172Z" fill="#362724"/>
      <path id="Path_20" data-name="Path 20" d="M610.813,597.172l-29.065-9.2H567.194s-.011.053-.033.153v-.153H552.607l-29.065,9.2a11.6,11.6,0,0,0-7.976,12.765c.972,6.541,2.346,15.827,3.859,26.176a88.077,88.077,0,0,0,95.525-.138c1.506-10.293,2.872-19.526,3.839-26.038A11.6,11.6,0,0,0,610.813,597.172Z" fill="#b56d57"/>
      <path id="Path_21" data-name="Path 21" d="M622.862,599.511c-5.236-1.445-11.527-2.839-17.609-4.411-18.217,24.5-59.9,24.147-76.151,0l-18.791,4.972a16.878,16.878,0,0,0-12.271,15.6l-.358.973a88.355,88.355,0,0,0,138.165.4l-.042-.726C635.441,608.7,630.222,601.543,622.862,599.511Z" fill="#231f20"/>
    </g>
  </g>
</svg>
