<svg xmlns="http://www.w3.org/2000/svg" width="176.066" height="176.067" viewBox="0 0 176.066 176.067">
  <g id="Group_183" data-name="Group 183" transform="translate(-1106.029 -894.482)">
    <circle id="Ellipse_51" data-name="Ellipse 51" cx="88.033" cy="88.033" r="88.033" transform="translate(1106.029 894.482)" fill="#00a79d"/>
    <g id="Group_182" data-name="Group 182">
      <path id="Path_600" data-name="Path 600" d="M1150.437,1019.75l29.065-9.2h14.554v.153l.034-.153h14.554l29.065,9.2a11.6,11.6,0,0,1,7.976,12.766c-.9,6.026-2.133,14.382-3.505,23.752a88.058,88.058,0,0,1-96.221-.047c-1.37-9.351-2.6-17.689-3.5-23.7A11.6,11.6,0,0,1,1150.437,1019.75Z" fill="#fb9b67"/>
      <path id="Path_601" data-name="Path 601" d="M1126.5,1038.953l.178-2.749a15.089,15.089,0,0,1,10.882-13.615l41.745-12.037c0,15.335,3.55,39.249,7.172,59.664A87.866,87.866,0,0,1,1126.5,1038.953Z" fill="#231f20"/>
      <path id="Path_602" data-name="Path 602" d="M1208.912,1010.552l42.838,12.318a15.088,15.088,0,0,1,10.9,13.791l.049,1.028a87.886,87.886,0,0,1-60.946,32.525C1205.372,1049.842,1208.912,1025.968,1208.912,1010.552Z" fill="#231f20"/>
      <path id="Path_603" data-name="Path 603" d="M1173.627,921.056c3.576-7.119,12.467-14.563,28.777-10.549,17.885,4.4,27.864,24.532,21.316,46.683-12.161,41.134-44.553,25.293-55.186,1.979C1156.673,933.168,1166.237,921.525,1173.627,921.056Z" fill="#3d2d2c"/>
      <path id="Path_604" data-name="Path 604" d="M1172.42,971.716l-.456-.143c-1.695.083-3.794-3.975-3.957-7.67l-.931-7.066c-.056-1.282.281-2.3,1.294-1.984l.313.1a5.122,5.122,0,0,1,3.209,4.8Z" fill="#f28c63"/>
      <path id="Path_605" data-name="Path 605" d="M1215.523,971.739l.456-.147c1.695.067,3.757-4.01,3.887-7.7l.867-7.074c.045-1.283-.3-2.3-1.312-1.973l-.312.1a5.121,5.121,0,0,0-3.166,4.829Z" fill="#f28c63"/>
      <g id="Group_180" data-name="Group 180">
        <path id="Path_606" data-name="Path 606" d="M1209,976.536h-29.7V1010.6l29.7-.048Z" fill="#e07f57"/>
        <path id="Path_607" data-name="Path 607" d="M1179.3,990.1l13.754,11.008-13.754,9.448Z" fill="#f28c63"/>
        <path id="Path_608" data-name="Path 608" d="M1209,990.1v20.455s-17.521,1.924-29.7,0Z" fill="#fb9b67"/>
      </g>
      <path id="Path_609" data-name="Path 609" d="M1194.133,916.862c-13.654,0-24.723,10.312-24.723,23.033a21.62,21.62,0,0,0,.263,3.346l2.349,32.48a15.878,15.878,0,0,0,6.033,11.343l10.843,8.511a8.229,8.229,0,0,0,5.165,1.8h.139a8.229,8.229,0,0,0,5.165-1.8l10.79-8.469a16.03,16.03,0,0,0,6.091-11.453l2.344-32.413a21.608,21.608,0,0,0,.263-3.344h0C1218.855,927.174,1207.786,916.862,1194.133,916.862Z" fill="#fb9b67"/>
      <path id="Path_610" data-name="Path 610" d="M1176.233,934.363c14.847,18.243,35.306,8.576,40.48,30.089,6.175-11.69,13.957-48.644-22.834-50.827s-23.236,45.251-23.236,45.251C1170.81,948.552,1176.233,934.363,1176.233,934.363Z" fill="#3d2d2c"/>
      <path id="Path_611" data-name="Path 611" d="M1185.325,1050.588a22.146,22.146,0,0,0,17.565,0c.549,1.759.149,9.8-.8,19.6-2.631.237-5.293.365-7.986.365a88.95,88.95,0,0,1-11.386-.732C1182.2,1059.607,1183.009,1051.472,1185.325,1050.588Z" fill="#f1f2f2"/>
      <g id="Group_181" data-name="Group 181">
        <path id="Path_612" data-name="Path 612" d="M1208.912,1010.552l9.724,2.843,7.265,18.909-18.91,3.813,23.068,2.174-14.684,29.665a87.892,87.892,0,0,1-15.458,2.4Z" fill="#141212"/>
        <path id="Path_613" data-name="Path 613" d="M1181.932,1036.254l-19.283-3.529,7.328-19.4,9.326-2.774,9,59.8a87.9,87.9,0,0,1-15.172-2.326l-14.511-29.41Z" fill="#141212"/>
      </g>
      <path id="Path_614" data-name="Path 614" d="M1180.754,1034.5l-16.586-3.41,5.2-17.111a2.6,2.6,0,0,1,1.588-1.681c2.04-.756,5.816-2.457,7.639-4.525a.287.287,0,0,1,.5.151l9.28,62.437a88.128,88.128,0,0,1-13.086-1.833l-15.8-33.95Z" fill="#363131"/>
      <path id="Path_615" data-name="Path 615" d="M1209.707,1007.588a33.419,33.419,0,0,0,8,4.833,1.746,1.746,0,0,1,1.009,1.11l5.33,17.556-16.586,3.41,21.275.078-15.8,33.949a87.944,87.944,0,0,1-13.053,1.831l9.356-62.59A.288.288,0,0,1,1209.707,1007.588Z" fill="#363131"/>
    </g>
  </g>
</svg>
