<svg xmlns="http://www.w3.org/2000/svg" width="176.066" height="176.066" viewBox="0 0 176.066 176.066">
  <g id="Group_130" data-name="Group 130" transform="translate(-60.792 -684.268)">
    <circle id="Ellipse_38" data-name="Ellipse 38" cx="88.033" cy="88.033" r="88.033" transform="translate(60.792 684.268)" fill="#00a79d"/>
    <g id="Group_129" data-name="Group 129">
      <g id="Group_128" data-name="Group 128">
        <path id="Path_431" data-name="Path 431" d="M131.089,782.444c1.882-6.393,42.544-14.875,33.907,19.147,10.169-16.368,22.709-56.412-16.352-59.687S120.32,766.309,131.089,782.444Z" fill="#17110f"/>
        <path id="Path_432" data-name="Path 432" d="M127.415,759.706l-.456-.143c-1.695.083-3.794-3.975-3.957-7.67l-.93-7.066c-.057-1.282.28-2.3,1.293-1.984l.313.1a5.124,5.124,0,0,1,3.21,4.8Z" fill="#9e5c4f"/>
        <path id="Path_433" data-name="Path 433" d="M170.518,759.729l.456-.147c1.7.067,3.757-4.009,3.887-7.7l.867-7.074c.045-1.283-.3-2.3-1.312-1.973l-.311.1a5.126,5.126,0,0,0-3.167,4.829Z" fill="#9e5c4f"/>
        <g id="Group_127" data-name="Group 127">
          <path id="Path_434" data-name="Path 434" d="M163.994,764.526H134.3v34.064l29.7-.048Z" fill="#854e48"/>
          <path id="Path_435" data-name="Path 435" d="M134.3,778.087l13.754,11.008L134.3,798.542Z" fill="#9e5c4f"/>
          <path id="Path_436" data-name="Path 436" d="M163.994,778.087v20.455s-17.521,1.924-29.7,0Z" fill="#b56d57"/>
        </g>
        <path id="Path_437" data-name="Path 437" d="M149.128,704.852c-13.654,0-24.722,10.312-24.722,23.033a21.747,21.747,0,0,0,.262,3.346l2.349,32.48a15.878,15.878,0,0,0,6.033,11.343l10.844,8.511a8.225,8.225,0,0,0,5.165,1.8h.138a8.225,8.225,0,0,0,5.165-1.8l10.79-8.469a16.03,16.03,0,0,0,6.091-11.452l2.344-32.414a21.6,21.6,0,0,0,.263-3.344h0C173.85,715.164,162.781,704.852,149.128,704.852Z" fill="#b56d57"/>
      </g>
      <path id="Path_438" data-name="Path 438" d="M137.094,720.387c1.49,12.884,11.57,16.122,20.79,31.135,10.949,17.829,16.8,40.433,3.45,52.907,16.386-9.356,27.956-48.853,20.284-77.8-7.491-28.274-32.226-26.818-39.753-24.966-9.007,2.216-36.544,10.517-28.228,73.97,2.494,1.514,19.694,8.375,19.694,8.375C124.863,765.292,122.195,735.979,137.094,720.387Z" fill="#362724"/>
      <path id="Path_439" data-name="Path 439" d="M192.719,807.387l-29.065-9.2H149.1s-.011.053-.033.152v-.152H134.512l-29.065,9.2a11.6,11.6,0,0,0-7.976,12.765c.972,6.541,2.346,15.827,3.859,26.176a88.079,88.079,0,0,0,95.526-.138c1.5-10.294,2.871-19.526,3.839-26.038A11.6,11.6,0,0,0,192.719,807.387Z" fill="#b56d57"/>
      <path id="Path_440" data-name="Path 440" d="M204.767,809.726c-5.236-1.446-11.527-2.839-17.609-4.411-18.217,24.5-59.9,24.147-76.15,0l-18.792,4.972a16.88,16.88,0,0,0-12.271,15.6l-.358.973a88.353,88.353,0,0,0,138.165.4l-.042-.725C217.346,818.911,212.127,811.757,204.767,809.726Z" fill="#f1f2f2"/>
    </g>
  </g>
</svg>
