<svg xmlns="http://www.w3.org/2000/svg" width="176.066" height="176.378" viewBox="0 0 176.066 176.378">
  <g id="Group_64" data-name="Group 64" transform="translate(-1315.077 -53.312)">
    <circle id="Ellipse_20" data-name="Ellipse 20" cx="88.033" cy="88.033" r="88.033" transform="translate(1315.077 53.312)" fill="#00a79d"/>
    <g id="Group_63" data-name="Group 63">
      <path id="Path_206" data-name="Path 206" d="M1447.1,172.558l-29.065-9.2h-14.554l-.033.152v-.152h-14.555l-29.065,9.2a11.6,11.6,0,0,0-7.976,12.765c1.095,7.367,2.7,18.213,4.438,30.139a87.62,87.62,0,0,0,47.521,13.916,86.545,86.545,0,0,0,46.445-13.437c1.766-12.114,3.711-23.153,4.82-30.618A11.6,11.6,0,0,0,1447.1,172.558Z" fill="#fb9b67"/>
      <path id="Path_207" data-name="Path 207" d="M1455.441,173.1l-27.194-7.636-9.856-12.327V163.36c8.445,15.82,12.6,20.81-15.031,46.173-19.558-21.438-24.557-24.324-14.665-46.173v-9.8c-4.477,5.663-9.892,12.994-9.892,12.994l-27.881,7.842c-9.287,2.612-16.7,10.4-18.159,19.777a89.38,89.38,0,0,0,71.049,35.518c27.973,0,52.272-13.361,68.4-33.7l.551-1.345A24.449,24.449,0,0,0,1455.441,173.1Z" fill="#e6e7e8"/>
      <path id="Path_208" data-name="Path 208" d="M1403.36,209.533l-3.28-3.577v23.338c1.238.051,2.481.084,3.732.084.535,0,1.067-.011,1.6-.02V207.767Z" fill="#f1f2f2"/>
      <ellipse id="Ellipse_21" data-name="Ellipse 21" cx="30.768" cy="40.851" rx="30.768" ry="40.851" transform="translate(1371.64 78.272)" fill="#141212"/>
      <path id="Path_209" data-name="Path 209" d="M1381.812,124.523l-.456-.143c-1.695.083-3.794-3.975-3.957-7.669l-.93-7.066c-.057-1.283.28-2.3,1.293-1.985l.313.1a5.123,5.123,0,0,1,3.209,4.8Z" fill="#f28c63"/>
      <path id="Path_210" data-name="Path 210" d="M1424.915,124.546l.456-.147c1.7.067,3.757-4.009,3.887-7.705l.867-7.074c.045-1.283-.3-2.3-1.312-1.972l-.311.1a5.124,5.124,0,0,0-3.167,4.829Z" fill="#f28c63"/>
      <path id="Path_211" data-name="Path 211" d="M1418.391,129.344h-29.7v34.064l29.7-.048Z" fill="#e07f57"/>
      <path id="Path_212" data-name="Path 212" d="M1388.695,142.9l13.754,11.008-13.754,9.448Z" fill="#f28c63"/>
      <path id="Path_213" data-name="Path 213" d="M1418.391,142.9V163.36s-17.521,1.923-29.7,0Z" fill="#fb9b67"/>
      <path id="Path_214" data-name="Path 214" d="M1403.525,69.669c-13.654,0-24.722,10.313-24.722,23.034a21.743,21.743,0,0,0,.262,3.345l2.349,32.48a15.882,15.882,0,0,0,6.033,11.344l10.844,8.51a8.226,8.226,0,0,0,5.165,1.8h.138a8.226,8.226,0,0,0,5.165-1.8l10.79-8.469a16.03,16.03,0,0,0,6.091-11.452l2.344-32.413a21.616,21.616,0,0,0,.263-3.345h0C1428.247,79.982,1417.178,69.669,1403.525,69.669Z" fill="#fb9b67"/>
      <path id="Path_215" data-name="Path 215" d="M1407.88,104.266l7.4-1.736a9.487,9.487,0,0,1,6.228.661l2.27,1.075-3.427-2.637a4.586,4.586,0,0,0-3.669-.868l-7.631,1.478Z" fill="#965947"/>
      <path id="Path_216" data-name="Path 216" d="M1399.112,104.266l-7.4-1.736a9.487,9.487,0,0,0-6.228.661l-2.27,1.075,3.427-2.637a4.586,4.586,0,0,1,3.669-.868l7.631,1.478Z" fill="#965947"/>
      <path id="Path_217" data-name="Path 217" d="M1418.391,153.132c7.094,11.288,10.265,24.184,3.534,35.823,5.743-8.32,8.7-9.229,17.593,1.207-.936-8.9-6.371-23.327-6.371-23.327A58.782,58.782,0,0,0,1418.391,153.132Z" fill="#fff"/>
      <path id="Path_218" data-name="Path 218" d="M1370.289,189.055c7.336-6.171,9.2-4.573,28.4,15.385-6.995-7.785-10.6-11.19-14.4-19.628C1378.916,177.309,1372.16,180.635,1370.289,189.055Z" fill="#d1d3d4"/>
      <path id="Path_219" data-name="Path 219" d="M1388.695,153.559c-7.336,13.2-7.475,25.334-4.175,31.741-3.317-3.885-9.242-4.041-14.231,3.755,0-8.731,4.268-21.308,4.268-21.308Z" fill="#fff"/>
      <path id="Path_220" data-name="Path 220" d="M1403.36,209.533c14.329-11.642,20.773-18.711,23.164-20.478s5.4-5.581,12.994,1.107c-3.742-10.566-9.578-12.846-17.593-1.207A119.26,119.26,0,0,1,1403.36,209.533Z" fill="#d1d3d4"/>
      <path id="Path_221" data-name="Path 221" d="M1403.812,215.874a1.4,1.4,0,1,0-1.4,1.4A1.4,1.4,0,0,0,1403.812,215.874Z" fill="#d1d3d4"/>
      <path id="Path_222" data-name="Path 222" d="M1420.936,88.042c7.33,19.277,13.114,59.845-9.815,68.213,27.087.623,39.976-10.309,27.5-51.35-10.059-33.1-22.076-38.045-36.174-38.045-13.194,0-27.4,12.082-33.575,33.679-9.251,32.355-9.943,55.508,26.369,56.339-15.662-7.128-20.34-38.327-9.615-68.836C1395.382,84.531,1413.86,83.811,1420.936,88.042Z" fill="#3d2d2c"/>
      <path id="Path_223" data-name="Path 223" d="M1382.232,86.922V106.1h17.312l.931-8.056.8,8.056h3.771l1.039-3.357,1.2,3.357h16.874V85.83l-10.682-6.861H1397.47Z" fill="#3d2d2c"/>
    </g>
  </g>
</svg>
