<svg xmlns="http://www.w3.org/2000/svg" width="176.066" height="176.066" viewBox="0 0 176.066 176.066">
  <g id="Group_106" data-name="Group 106" transform="translate(-896.982 -1314.912)">
    <circle id="Ellipse_32" data-name="Ellipse 32" cx="88.033" cy="88.033" r="88.033" transform="translate(896.982 1314.912)" fill="#9b8579"/>
    <g id="Group_105" data-name="Group 105">
      <path id="Path_350" data-name="Path 350" d="M941.448,1438.29l29.065-9.2h14.554v.152l.033-.152h14.554l29.065,9.2a11.6,11.6,0,0,1,7.976,12.765c-.962,6.474-2.318,15.637-3.813,25.859a88.075,88.075,0,0,1-95.609-.077c-1.49-10.19-2.842-19.324-3.8-25.782A11.6,11.6,0,0,1,941.448,1438.29Z" fill="#fb9b67"/>
      <path id="Path_351" data-name="Path 351" d="M915.021,1456.177a21.146,21.146,0,0,1,15.1-15.506c6-1.606,12.342-3.308,16.119-4.333,5.535,26.492,38.745,38.3,38.745,38.3s28.789-8.692,38.745-38.3c3.776,1.025,10.121,2.727,16.118,4.333a21.143,21.143,0,0,1,15.166,15.821,88.03,88.03,0,0,1-139.988-.315Z" fill="#00a651"/>
      <path id="Path_352" data-name="Path 352" d="M1005.286,1339.408c-3.576-7.119-12.466-14.563-28.776-10.549-17.886,4.4-27.865,24.531-21.316,46.683,12.16,41.133,44.552,25.292,55.186,1.979C1022.24,1351.519,1012.677,1339.877,1005.286,1339.408Z" fill="#f7daa3"/>
      <path id="Path_353" data-name="Path 353" d="M963.43,1390.255l-.456-.143c-1.7.083-3.794-3.975-3.957-7.669l-.93-7.066c-.057-1.283.28-2.3,1.294-1.985l.312.1a5.125,5.125,0,0,1,3.21,4.8Z" fill="#f28c63"/>
      <path id="Path_354" data-name="Path 354" d="M1006.534,1390.278l.455-.147c1.7.067,3.757-4.009,3.887-7.7l.867-7.074c.045-1.283-.3-2.3-1.312-1.972l-.311.1a5.123,5.123,0,0,0-3.166,4.829Z" fill="#f28c63"/>
      <g id="Group_104" data-name="Group 104">
        <path id="Path_355" data-name="Path 355" d="M1000.01,1395.076h-29.7v34.064l29.7-.048Z" fill="#e07f57"/>
        <path id="Path_356" data-name="Path 356" d="M970.313,1408.636l13.754,11.008-13.754,9.448Z" fill="#f28c63"/>
        <path id="Path_357" data-name="Path 357" d="M1000.01,1408.636v20.456s-17.522,1.923-29.7,0Z" fill="#fb9b67"/>
      </g>
      <path id="Path_358" data-name="Path 358" d="M985.143,1335.4c-13.654,0-24.722,10.312-24.722,23.034a21.745,21.745,0,0,0,.262,3.345l2.35,32.48a15.877,15.877,0,0,0,6.032,11.344l10.844,8.51a8.226,8.226,0,0,0,5.165,1.8h.138a8.226,8.226,0,0,0,5.165-1.8l10.79-8.469a16.026,16.026,0,0,0,6.091-11.452l2.344-32.413a21.616,21.616,0,0,0,.263-3.345h0C1009.865,1345.713,998.8,1335.4,985.143,1335.4Z" fill="#fb9b67"/>
      <path id="Path_359" data-name="Path 359" d="M984.915,1477.132l-.8-.317a78.028,78.028,0,0,1-26.274-16.827,52.2,52.2,0,0,1-13.867-23.044l4.518-1.212c4.059,15.135,17.693,28.7,36.549,36.413,28.673-10.124,36.126-35.366,36.432-36.445l4.5,1.276a57.829,57.829,0,0,1-10.109,18.753,63.658,63.658,0,0,1-30.136,21.127Z" fill="#00853d"/>
      <path id="Path_360" data-name="Path 360" d="M1002.681,1352.715c-14.848,18.242-35.307,8.575-40.48,30.088-6.176-11.69-13.957-48.643,22.833-50.826s23.237,45.251,23.237,45.251C1008.1,1366.9,1002.681,1352.715,1002.681,1352.715Z" fill="#f7daa3"/>
    </g>
  </g>
</svg>
