<svg xmlns="http://www.w3.org/2000/svg" width="176.066" height="176.067" viewBox="0 0 176.066 176.067">
  <g id="Group_38" data-name="Group 38" transform="translate(-60.792 -263.838)">
    <circle id="Ellipse_13" data-name="Ellipse 13" cx="88.033" cy="88.033" r="88.033" transform="translate(60.792 263.838)" fill="#c2b59b"/>
    <g id="Group_37" data-name="Group 37">
      <path id="Path_122" data-name="Path 122" d="M213.419,411.676c-.925-11.854-4.881-22.266-14.358-25.938l-30.385-11.772H129.038L98.653,385.738c-9.5,3.678-13.447,14.12-14.363,26a88.015,88.015,0,0,0,129.129-.062Z" fill="#fb9b67"/>
      <path id="Path_123" data-name="Path 123" d="M225.6,394.975a38.172,38.172,0,0,0-10.294-5.739c-13.36-4.931-28.367-10.384-32.3-11.476-4.563,9.956-16.267,21.09-34.333,21.142-18.064-.052-29.457-11.186-34.02-21.142-3.932,1.092-18.94,6.545-32.3,11.476a38.157,38.157,0,0,0-10.294,5.739,88.051,88.051,0,0,0,153.539,0Z" fill="#2f6196"/>
      <g id="Group_36" data-name="Group 36">
        <rect id="Rectangle_6" data-name="Rectangle 6" width="42.035" height="30.92" transform="translate(128.274 344.655)" fill="#fb9b67"/>
        <path id="Path_124" data-name="Path 124" d="M128.274,374.774l42.035-14.659v-15.46H128.274Z" fill="#f28c63"/>
        <path id="Path_125" data-name="Path 125" d="M128.274,354.366,143.68,369.4l15.537-5.418,11.092-10.7v-8.623H128.274Z" fill="#e07f57"/>
      </g>
      <path id="Path_126" data-name="Path 126" d="M149.246,285.91c-14.192,0-26.321,11.505-26.321,25.7l2.806,31.176a15.425,15.425,0,0,0,6.154,12.327l8.109,7.738a12.4,12.4,0,0,0,7.45,2.488h3.6a12.4,12.4,0,0,0,7.451-2.488l8.109-7.738a15.424,15.424,0,0,0,6.153-12.327l2.807-31.176C175.567,297.415,163.438,285.91,149.246,285.91Z" fill="#fb9b67"/>
      <path id="Path_127" data-name="Path 127" d="M127.081,338.332l-.467-.1c-2.987-.663-5.367-3.636-5.845-7.3l-.907-6.961c-.166-1.273.707-2.317,1.743-2.087l.32.071a5.122,5.122,0,0,1,3.608,4.508Z" fill="#fb9b67"/>
      <path id="Path_128" data-name="Path 128" d="M171.113,338.376l.467-.106c2.985-.672,5.355-3.653,5.821-7.321l.886-6.964c.162-1.273-.714-2.315-1.75-2.082l-.32.072a5.123,5.123,0,0,0-3.593,4.52Z" fill="#fb9b67"/>
      <path id="Path_129" data-name="Path 129" d="M185.069,378.46l-4.134-1.4c-3.213,9.484-13.6,19.615-32.266,19.66-18.658-.045-28.74-10.176-31.953-19.66l-4.135,1.4c3.691,10.9,15.077,22.53,35.964,22.623v0l.124,0,.125,0v0C169.684,400.99,181.378,389.355,185.069,378.46Z" fill="#7ac2e1"/>
      <path id="Path_130" data-name="Path 130" d="M156.121,340.611h-13.9l-9.763,3.63h0c.875,2.589,4.357,3.191,6.124,2.911l6.949-1.393,3.593.607v.017l.048-.009.049.009v-.017l3.593-.607,7.7,1.509c1.868.25,5.09-1.061,5.37-3.027h0Z" fill="#965947"/>
      <path id="Path_131" data-name="Path 131" d="M172.706,297.855c-.049-.083-.1-.166-.148-.249-1.417-11.506-12.428-17.057-20.8-17.057-8.419,0-20.27,1.871-22.349,11.083-9.355,2.352-9.251,10.746-7.134,27.278l.025-.219c.943,8.408,2.276,17.833,2.276,17.833h0c.377-29.854,5.261-32.428,7-32.129l7.5,1.292a57.092,57.092,0,0,0,19.376,0l7.5-1.292c1.74-.3,6.188-.428,7,32.129,0,0,2.291-14.832,2.9-23.894C176.616,305.659,176.495,299.334,172.706,297.855Z" fill="#965947"/>
    </g>
  </g>
</svg>
