<svg xmlns="http://www.w3.org/2000/svg" width="176.066" height="176.067" viewBox="0 0 176.066 176.067">
  <g id="Group_154" data-name="Group 154" transform="translate(-687.934 -894.482)">
    <circle id="Ellipse_44" data-name="Ellipse 44" cx="88.033" cy="88.033" r="88.033" transform="translate(687.934 894.482)" fill="#00a79d"/>
    <g id="Group_153" data-name="Group 153">
      <path id="Path_506" data-name="Path 506" d="M840.672,1042.2c-.451-13.116-4.228-25.073-14.532-29.065l-30.385-11.772H756.117l-30.385,11.772c-10.286,3.986-14.068,15.91-14.529,29a88.017,88.017,0,0,0,129.469.064Z" fill="#b56d57"/>
      <path id="Path_507" data-name="Path 507" d="M853.961,1023.367a38.178,38.178,0,0,0-11.518-6.734c-13.359-4.93-28.367-10.384-32.3-11.476-4.563,9.956-15.956,21.091-34.021,21.142-18.066-.051-29.769-11.186-34.332-21.142-3.932,1.092-18.94,6.546-32.3,11.476a38.178,38.178,0,0,0-11.518,6.734,88.054,88.054,0,0,0,155.987,0Z" fill="#fbb040"/>
      <path id="Path_508" data-name="Path 508" d="M812.212,1005.857l-4.135-1.4c-3.213,9.484-13.3,19.614-31.954,19.66-18.66-.046-29.052-10.176-32.265-19.66l-4.135,1.4c3.691,10.9,15.386,22.53,36.276,22.623v.005l.124,0,.125,0v-.005C797.135,1028.387,808.521,1016.752,812.212,1005.857Z" fill="#fff"/>
      <g id="Group_152" data-name="Group 152">
        <path id="Path_509" data-name="Path 509" d="M753.509,965.973l-.468-.1c-2.987-.663-5.366-3.637-5.844-7.3l-.907-6.961c-.166-1.272.706-2.317,1.743-2.087l.32.071a5.122,5.122,0,0,1,3.608,4.508Z" fill="#9e5c4f"/>
        <path id="Path_510" data-name="Path 510" d="M797.541,966.017l.467-.105c2.985-.673,5.355-3.654,5.821-7.322l.885-6.964c.162-1.273-.714-2.315-1.75-2.082l-.319.072a5.124,5.124,0,0,0-3.594,4.52Z" fill="#9e5c4f"/>
        <g id="Group_151" data-name="Group 151">
          <rect id="Rectangle_23" data-name="Rectangle 23" width="42.035" height="30.92" transform="translate(754.701 972.296)" fill="#b56d57"/>
          <path id="Path_511" data-name="Path 511" d="M754.7,1002.415l42.035-14.659V972.3H754.7Z" fill="#9e5c4f"/>
          <path id="Path_512" data-name="Path 512" d="M754.7,982.007l15.407,15.035,15.537-5.418,11.092-10.7V972.3H754.7Z" fill="#854e48"/>
        </g>
        <path id="Path_513" data-name="Path 513" d="M775.674,913.552c-14.193,0-26.322,11.505-26.322,25.7l2.807,31.176a15.421,15.421,0,0,0,6.154,12.327l8.108,7.738a12.4,12.4,0,0,0,7.451,2.489h3.6a12.4,12.4,0,0,0,7.451-2.489l8.108-7.738a15.421,15.421,0,0,0,6.154-12.327l2.807-31.176C801.995,925.057,789.866,913.552,775.674,913.552Z" fill="#b56d57"/>
        <path id="Path_514" data-name="Path 514" d="M775.67,911.757v0h-.138v0c-19.454.08-28.111,13.425-27.061,25.915.754,8.984,2.939,24.433,2.939,24.433h0c.377-29.854,5.262-32.428,7-32.129l7.5,1.292a57.1,57.1,0,0,0,19.377,0l7.5-1.292c1.74-.3,6.188-.428,7,32.129h0s2.385-15.435,2.94-24.433C803.553,924.351,795.124,911.837,775.67,911.757Z" fill="#362724"/>
      </g>
    </g>
  </g>
</svg>
