<svg xmlns="http://www.w3.org/2000/svg" width="248.995" height="248.995" viewBox="0 0 248.995 248.995">
  <g id="Group_115" data-name="Group 115" transform="translate(-651.47 -1278.447)">
    <circle id="Ellipse_34" data-name="Ellipse 34" cx="88.033" cy="88.033" r="88.033" transform="translate(651.47 1402.945) rotate(-45)" fill="#c2b59b"/>
    <g id="Group_114" data-name="Group 114">
      <path id="Path_372" data-name="Path 372" d="M840.33,1463c-1.238-10.9-5.268-20.238-14.136-23.677l-30.382-11.779-19.782,0h-.074l-19.782-.005L725.786,1439.3c-8.886,3.441-12.918,12.806-14.153,23.73a88.017,88.017,0,0,0,128.7-.03Z" fill="#fb9b67"/>
      <path id="Path_373" data-name="Path 373" d="M851.722,1447.805a38.164,38.164,0,0,0-9.288-4.982c-13.358-4.934-28.365-10.39-32.3-11.484-4.566,9.955-16.272,21.087-34.338,21.135-18.064-.056-29.455-11.193-34.016-21.15-3.932,1.091-18.941,6.541-32.3,11.468a38.16,38.16,0,0,0-9.289,4.978,88.048,88.048,0,0,0,151.529.035Z" fill="#00aeef"/>
      <path id="Path_374" data-name="Path 374" d="M812.205,1432.04l-4.135-1.4c-3.215,9.483-13.609,19.611-32.269,19.652-18.659-.05-28.738-10.183-31.949-19.667l-4.135,1.4c3.688,10.895,15.071,22.533,35.958,22.631v0l.125,0,.124,0v0C796.814,1454.566,808.511,1442.934,812.205,1432.04Z" fill="#e6e7e8"/>
      <g id="Group_113" data-name="Group 113">
        <g id="Group_111" data-name="Group 111">
          <rect id="Rectangle_19" data-name="Rectangle 19" width="42.035" height="30.92" transform="translate(755.631 1398.572)" fill="#fb9b67"/>
          <path id="Path_375" data-name="Path 375" d="M755.627,1428.686l42.039-14.649,0-15.46-42.035-.01Z" fill="#f28c63"/>
          <path id="Path_376" data-name="Path 376" d="M755.632,1408.278l15.4,15.039,15.538-5.414,11.094-10.7,0-8.623-42.035-.01Z" fill="#e07f57"/>
        </g>
        <path id="Path_377" data-name="Path 377" d="M776.62,1339.827c-14.192,0-26.324,11.5-26.327,25.691l2.8,31.177a15.422,15.422,0,0,0,6.152,12.328l8.106,7.74a12.4,12.4,0,0,0,7.45,2.491h3.6a12.4,12.4,0,0,0,7.452-2.487l8.11-7.736a15.421,15.421,0,0,0,6.156-12.325l2.814-31.176C802.938,1351.338,790.812,1339.83,776.62,1339.827Z" fill="#fb9b67"/>
        <path id="Path_378" data-name="Path 378" d="M754.443,1392.244l-.467-.1c-2.987-.664-5.366-3.638-5.843-7.305l-.906-6.961c-.165-1.273.707-2.317,1.744-2.087l.32.071a5.124,5.124,0,0,1,3.607,4.509Z" fill="#fb9b67"/>
        <path id="Path_379" data-name="Path 379" d="M798.475,1392.3l.467-.1c2.985-.672,5.356-3.652,5.823-7.32l.887-6.964c.162-1.273-.713-2.315-1.749-2.082l-.32.072a5.123,5.123,0,0,0-3.6,4.519Z" fill="#fb9b67"/>
        <g id="Group_112" data-name="Group 112">
          <path id="Path_380" data-name="Path 380" d="M776.715,1339.118h-.1c-12.529.05-26.672,10.01-26.273,24.421.216,7.779,1.542,19.444,1.542,19.444l1.56,1.017-.725-12.457,3.743-4.988s-1.574-6.223,0-8.628c1.971-3.007,5.862-4.15,20.147-1.159v.02l.05-.01.049.01v-.02c14.287-2.985,18.177-1.839,20.146,1.168,1.576,2.406,0,8.628,0,8.628l3.74,4.99-.731,12.456,1.56-1.016s1.348-12.219,1.552-19.443C803.383,1349.14,789.244,1339.174,776.715,1339.118Z" fill="#c4745d"/>
          <path id="Path_381" data-name="Path 381" d="M780.691,1328.983a52.59,52.59,0,0,1-8.858-5.3s-.028,1.871.225,4.678c0,0-3.527-4.835-4.278-7.018,0,0-2.68,5.457-5.29,7.639,0,0-.345-2.5,1.071-3.586-15.078,11.539-13.519,22.553-10.374,27.011a16.055,16.055,0,0,0,4.238,4.383l38.228.009s2.42-.889,2.88-2.393C803.934,1339.2,784.745,1330.7,780.691,1328.983Z" fill="#965947"/>
        </g>
        <path id="Path_382" data-name="Path 382" d="M801.425,1382.994l-1.56,1.016s-2.557,10.8-3.8,11.969l-3.7,3.532c-.891.836-5.9-4.515-7.121-4.6l-1.938-.433-6.672,0H772.8l-4.745.432c-1.218.083-6.155,5.676-7.045,4.84l-4.634-4.469c-1.24-1.166-2.934-11.279-2.934-11.279l-1.56-1.017s-1.269,26.709-.542,29,11.455,13.931,13.106,14.867c1.6.906,11.556.743,12.2.731.641.012,10.6.18,12.2-.725,1.651-.935,12.385-12.575,13.113-14.862S801.425,1382.994,801.425,1382.994Zm-14.78,24.522-4.143,3.825a1.8,1.8,0,0,1-3-1.046l-.313-2.012h-5.083l-.313,2.012a1.8,1.8,0,0,1-3,1.045l-4.141-3.827a8.544,8.544,0,0,1-2.74-6.574l6.507-1.657a10.124,10.124,0,0,1,5.277.077l.937.268v-.509l.031.509.937-.268a10.127,10.127,0,0,1,5.278-.074l6.506,1.66A8.548,8.548,0,0,1,786.645,1407.516Z" fill="#965947"/>
      </g>
    </g>
  </g>
</svg>
