<svg xmlns="http://www.w3.org/2000/svg" width="248.995" height="248.995" viewBox="0 0 248.995 248.995">
  <g id="Group_88" data-name="Group 88" transform="translate(-860.517 -437.588)">
    <circle id="Ellipse_27" data-name="Ellipse 27" cx="88.033" cy="88.033" r="88.033" transform="translate(860.517 562.086) rotate(-45)" fill="#9b8579"/>
    <g id="Group_87" data-name="Group 87">
      <path id="Path_277" data-name="Path 277" d="M1049.648,621.832c-.747-12.351-4.644-23.352-14.444-27.148l-30.384-11.772H965.182L934.8,594.684c-9.8,3.8-13.7,14.8-14.444,27.148a88.016,88.016,0,0,0,129.295,0Z" fill="#fb9b67"/>
      <path id="Path_278" data-name="Path 278" d="M1055.491,597.188l-48.394-16.01-10.4,29s-5.879-5.968-9.565-8.315c-.091-.5-.19-.771-.3-.771a2.527,2.527,0,0,0-.776.166,2.837,2.837,0,0,0-1.119-.329c-.125,0-.242.35-.351,1.014-4.093,2.259-11.179,8.235-11.179,8.235l-10.4-29-48.394,16.01a28.79,28.79,0,0,0-8.319,4.364,88.058,88.058,0,0,0,157.441-.058A28.791,28.791,0,0,0,1055.491,597.188Z" fill="#e6e7e8"/>
      <g id="Group_85" data-name="Group 85">
        <rect id="Rectangle_16" data-name="Rectangle 16" width="42.035" height="30.92" transform="translate(964.2 553.231)" fill="#fb9b67"/>
        <path id="Path_279" data-name="Path 279" d="M964.2,583.349l42.035-14.659v-15.46H964.2Z" fill="#f28c63"/>
        <path id="Path_280" data-name="Path 280" d="M964.2,562.942l15.406,15.035,15.537-5.418,11.092-10.7v-8.623H964.2Z" fill="#e07f57"/>
      </g>
      <path id="Path_281" data-name="Path 281" d="M985.173,494.486c-14.193,0-26.322,11.505-26.322,25.7l2.807,31.177a15.424,15.424,0,0,0,6.154,12.327l8.108,7.738a12.4,12.4,0,0,0,7.451,2.488h3.6a12.4,12.4,0,0,0,7.451-2.488l8.108-7.738a15.424,15.424,0,0,0,6.154-12.327l2.807-31.177C1011.494,505.991,999.365,494.486,985.173,494.486Z" fill="#fb9b67"/>
      <path id="Path_282" data-name="Path 282" d="M963.008,546.908l-.468-.1c-2.987-.663-5.366-3.636-5.844-7.3l-.907-6.961c-.166-1.273.706-2.318,1.743-2.087l.32.071a5.121,5.121,0,0,1,3.608,4.508Z" fill="#fb9b67"/>
      <path id="Path_283" data-name="Path 283" d="M1007.04,546.951l.467-.1c2.985-.672,5.355-3.653,5.821-7.322l.885-6.963c.162-1.274-.713-2.315-1.75-2.082l-.319.072a5.122,5.122,0,0,0-3.594,4.52Z" fill="#fb9b67"/>
      <path id="Path_284" data-name="Path 284" d="M985.117,636.525a1.715,1.715,0,1,0-1.715,1.715A1.715,1.715,0,0,0,985.117,636.525Z" fill="#d1d3d4"/>
      <path id="Path_285" data-name="Path 285" d="M985.117,608.78a1.715,1.715,0,1,0-1.715,1.715A1.715,1.715,0,0,0,985.117,608.78Z" fill="#d1d3d4"/>
      <g id="Group_86" data-name="Group 86">
        <path id="Path_286" data-name="Path 286" d="M1011.379,512.15c-1.835-7.251-11.546-17.493-25.992-17.564v0h-.15v0c-14.445.071-24.156,10.313-25.991,17.564-1.625,6.417,1.189,24.648,1.189,24.648V526.324a3.051,3.051,0,0,1,.972-2.234h0a6.169,6.169,0,0,0,1.947-4.062h0a7.824,7.824,0,0,1,6.817-7.19c4.95-.064,12.49,2.014,15.216,2.014s10.566-2.078,14.079-2.078a7.826,7.826,0,0,1,7.8,7.254h0a6.169,6.169,0,0,0,1.947,4.062h0a3.051,3.051,0,0,1,.972,2.234V536.8S1013,518.567,1011.379,512.15Z" fill="#c4745d"/>
        <path id="Path_287" data-name="Path 287" d="M959.531,511.186l4.529,6.119s3.319-3.468,6.111-4.467c-1.885-3.807-4.575-10.528-4.575-10.528C961.893,501.7,959.04,505.232,959.531,511.186Z" fill="#733c30"/>
        <path id="Path_288" data-name="Path 288" d="M1006.662,517.52s-2.726-3.4-5.115-4.464a100.789,100.789,0,0,0,4.832-9.4c3.226-.087,4,5.37,4.5,6.929A26.658,26.658,0,0,1,1006.662,517.52Z" fill="#733c30"/>
        <path id="Path_289" data-name="Path 289" d="M970.171,512.838l-5.822-10.216c-.585-5.025,2.014-11.366,10.953-13.549s7.172-3.43,7.588-4.989c2.287,2.391,11.589,3.013,16.632,5.509,7.14,3.534,9.244,10.048,7.48,17.186s-1.954,6.477-5.455,6.277-11.586,1.755-16.681,1.776S974.916,512.382,970.171,512.838Z" fill="#733c30"/>
      </g>
      <path id="Path_290" data-name="Path 290" d="M1031.226,588.956l-4.88,50.863q3.225-1.719,6.287-3.69l4.357-45.266Z" fill="#91634e"/>
      <path id="Path_291" data-name="Path 291" d="M933.734,590.863l4.4,45.753q3.057,1.926,6.279,3.6L939.5,588.956Z" fill="#91634e"/>
      <path id="Path_292" data-name="Path 292" d="M991.408,606.873l5.854,9.855,16.856-33.378-5.046-2.172L991.694,600.3l-6.132-1.2v-.049l-.128.024-.122-.024v.047l-6.444,1.2L961.49,581.178l-5.046,2.172L973.3,616.728l5.854-9.855a6.957,6.957,0,0,1,5.784-3.092h.374a7.434,7.434,0,0,1,1.457.15l.064,46.165c.312-.006.624-.015.935-.024l-.063-45.894A7.128,7.128,0,0,1,991.408,606.873Z" fill="#d1d3d4"/>
      <path id="Path_293" data-name="Path 293" d="M964.2,573.913l21.236,25,20.926-25,6.316,9-15.1,30.282-6.124-9.126a7.093,7.093,0,0,0-5.888-3.14h-.312a7.557,7.557,0,0,0-6.276,3.347l-5.986,8.919-15.1-30.282Z" fill="#fff"/>
    </g>
  </g>
</svg>
