<svg xmlns="http://www.w3.org/2000/svg" width="176.066" height="176.067" viewBox="0 0 176.066 176.067">
  <g id="Group_43" data-name="Group 43" transform="translate(-478.887 -53.623)">
    <circle id="Ellipse_14" data-name="Ellipse 14" cx="88.033" cy="88.033" r="88.033" transform="translate(478.887 53.623)" fill="#00a79d"/>
    <g id="Group_42" data-name="Group 42">
      <path id="Path_132" data-name="Path 132" d="M631.3,201.7c-1.24-10.9-5.272-20.237-14.141-23.673L586.77,166.249H547.132l-30.385,11.773c-8.885,3.442-12.915,12.808-14.147,23.732a88.014,88.014,0,0,0,128.7-.059Z" fill="#fb9b67"/>
      <path id="Path_133" data-name="Path 133" d="M642.685,186.5a38.131,38.131,0,0,0-9.289-4.98c-13.36-4.931-28.367-10.384-32.3-11.477-4.563,9.956-16.267,21.091-34.333,21.143-18.064-.052-29.458-11.187-34.021-21.143-3.932,1.093-18.939,6.546-32.3,11.477a38.125,38.125,0,0,0-9.288,4.98,88.049,88.049,0,0,0,151.529,0Z" fill="#d1d3d4"/>
      <path id="Path_134" data-name="Path 134" d="M603.164,170.744l-4.135-1.4c-3.213,9.484-13.6,19.614-32.265,19.66-18.659-.046-28.74-10.176-31.953-19.66l-4.135,1.4c3.691,10.894,15.077,22.529,35.963,22.623v0l.125,0,.125,0v0C587.778,193.273,599.473,181.638,603.164,170.744Z" fill="#e6e7e8"/>
      <g id="Group_41" data-name="Group 41">
        <g id="Group_39" data-name="Group 39">
          <rect id="Rectangle_7" data-name="Rectangle 7" width="42.035" height="30.92" transform="translate(546.586 137.283)" fill="#fb9b67"/>
          <path id="Path_135" data-name="Path 135" d="M546.586,167.4l42.035-14.659v-15.46H546.586Z" fill="#f28c63"/>
          <path id="Path_136" data-name="Path 136" d="M546.586,146.994l15.407,15.035,15.537-5.418,11.092-10.7v-8.623H546.586Z" fill="#e07f57"/>
        </g>
        <path id="Path_137" data-name="Path 137" d="M567.558,78.538c-14.192,0-26.321,11.5-26.321,25.7l2.807,31.176a15.423,15.423,0,0,0,6.154,12.327l8.108,7.738a12.4,12.4,0,0,0,7.451,2.489h3.6a12.4,12.4,0,0,0,7.45-2.489l8.109-7.738a15.425,15.425,0,0,0,6.154-12.327l2.806-31.176C593.879,90.043,581.75,78.538,567.558,78.538Z" fill="#fb9b67"/>
        <path id="Path_138" data-name="Path 138" d="M545.393,130.96l-.467-.1c-2.987-.663-5.367-3.637-5.845-7.3l-.907-6.961c-.166-1.272.707-2.317,1.744-2.087l.319.071a5.122,5.122,0,0,1,3.608,4.508Z" fill="#fb9b67"/>
        <path id="Path_139" data-name="Path 139" d="M589.425,131l.467-.1c2.985-.673,5.355-3.654,5.822-7.322l.885-6.964c.162-1.273-.714-2.315-1.75-2.082l-.32.072a5.123,5.123,0,0,0-3.593,4.52Z" fill="#fb9b67"/>
        <g id="Group_40" data-name="Group 40">
          <path id="Path_140" data-name="Path 140" d="M567.653,77.83h-.1c-12.529.052-26.982,10.016-26.579,24.426.217,7.78,1.859,19.444,1.859,19.444l1.559,1.017-.728-12.457,3.742-4.989s-1.575-6.223,0-8.628c1.971-3.007,5.861-4.151,20.147-1.163v.02l.05-.01.049.01v-.02c14.286-2.988,18.176-1.844,20.147,1.163,1.575,2.4,0,8.628,0,8.628l3.742,4.989-.729,12.457,1.56-1.017s1.657-12.219,1.859-19.444C594.635,87.846,580.182,77.882,567.653,77.83Z" fill="#7a5149"/>
          <path id="Path_141" data-name="Path 141" d="M571.627,67.694a52.544,52.544,0,0,1-8.859-5.3s-.028,1.871.226,4.677c0,0-3.529-4.833-4.28-7.016,0,0-2.679,5.457-5.288,7.64,0,0-.346-2.5,1.07-3.586C539.42,75.65,540.982,86.664,544.128,91.121a16.053,16.053,0,0,0,4.239,4.382h38.228s2.42-.89,2.88-2.394C594.872,77.9,575.681,69.409,571.627,67.694Z" fill="#4d2727"/>
        </g>
        <path id="Path_142" data-name="Path 142" d="M592.373,121.7l-1.56,1.017s-2.554,10.8-3.794,11.97l-3.7,3.532c-.891.836-5.9-4.514-7.122-4.6l-1.938-.432H563.754l-4.745.432c-1.218.084-6.154,5.678-7.044,4.842l-4.635-4.468c-1.24-1.165-2.937-11.278-2.937-11.278l-1.559-1.017s-1.264,26.709-.537,29,11.459,13.929,13.11,14.864c1.6.906,11.556.74,12.2.729.641.011,10.6.177,12.2-.729,1.651-.935,12.382-12.577,13.11-14.864S592.373,121.7,592.373,121.7ZM577.6,146.226l-4.141,3.826a1.8,1.8,0,0,1-3-1.046l-.313-2.012h-5.083l-.313,2.012a1.8,1.8,0,0,1-3,1.046l-4.141-3.826a8.548,8.548,0,0,1-2.742-6.574l6.507-1.658a10.114,10.114,0,0,1,5.277.076l.937.267v-.508l.031.508.937-.267a10.114,10.114,0,0,1,5.277-.076l6.507,1.658A8.548,8.548,0,0,1,577.6,146.226Z" fill="#4d2727"/>
      </g>
    </g>
  </g>
</svg>
