<svg xmlns="http://www.w3.org/2000/svg" width="176.066" height="176.066" viewBox="0 0 176.066 176.066">
  <g id="Group_169" data-name="Group 169" transform="translate(-60.792 -1104.697)">
    <circle id="Ellipse_47" data-name="Ellipse 47" cx="88.033" cy="88.033" r="88.033" transform="translate(60.792 1104.697)" fill="#c2b59b"/>
    <g id="Group_168" data-name="Group 168">
      <path id="Path_548" data-name="Path 548" d="M213.458,1252.477c-.746-12.352-4.644-23.352-14.443-27.149l-30.385-11.772H128.992l-30.385,11.772c-9.8,3.8-13.7,14.8-14.443,27.148a88.017,88.017,0,0,0,129.294,0Z" fill="#fb9b67"/>
      <path id="Path_549" data-name="Path 549" d="M219.3,1227.832l-48.393-16.01-10.4,29s-5.878-5.969-9.564-8.315c-.091-.5-.191-.772-.3-.772a2.528,2.528,0,0,0-.775.166,2.845,2.845,0,0,0-1.119-.329c-.126,0-.243.35-.352,1.014-4.092,2.259-11.179,8.236-11.179,8.236l-10.4-29-48.394,16.01a28.767,28.767,0,0,0-8.319,4.365,88.058,88.058,0,0,0,157.441-.059A28.819,28.819,0,0,0,219.3,1227.832Z" fill="#2f6196"/>
      <g id="Group_166" data-name="Group 166">
        <rect id="Rectangle_27" data-name="Rectangle 27" width="42.035" height="30.92" transform="translate(128.011 1183.875)" fill="#fb9b67"/>
        <path id="Path_550" data-name="Path 550" d="M128.011,1213.994l42.035-14.659v-15.46H128.011Z" fill="#f28c63"/>
        <path id="Path_551" data-name="Path 551" d="M128.011,1193.586l15.406,15.035,15.537-5.418,11.092-10.7v-8.623H128.011Z" fill="#e07f57"/>
      </g>
      <path id="Path_552" data-name="Path 552" d="M148.983,1125.13c-14.192,0-26.321,11.505-26.321,25.7L125.468,1182a15.426,15.426,0,0,0,6.154,12.327l8.109,7.738a12.4,12.4,0,0,0,7.45,2.488h3.6a12.4,12.4,0,0,0,7.451-2.488l8.108-7.738A15.423,15.423,0,0,0,172.5,1182l2.807-31.177C175.3,1136.635,163.175,1125.13,148.983,1125.13Z" fill="#fb9b67"/>
      <path id="Path_553" data-name="Path 553" d="M126.818,1177.552l-.467-.1c-2.987-.663-5.367-3.636-5.845-7.3l-.907-6.961c-.166-1.273.707-2.317,1.743-2.087l.32.071a5.121,5.121,0,0,1,3.608,4.508Z" fill="#fb9b67"/>
      <path id="Path_554" data-name="Path 554" d="M170.85,1177.595l.467-.1c2.985-.672,5.355-3.653,5.821-7.322l.886-6.963c.162-1.273-.714-2.315-1.75-2.082l-.32.072a5.123,5.123,0,0,0-3.593,4.52Z" fill="#fb9b67"/>
      <path id="Path_555" data-name="Path 555" d="M148.928,1267.169a1.715,1.715,0,1,0-1.715,1.715A1.715,1.715,0,0,0,148.928,1267.169Z" fill="#1e3e69"/>
      <path id="Path_556" data-name="Path 556" d="M148.928,1239.424a1.715,1.715,0,1,0-1.715,1.715A1.715,1.715,0,0,0,148.928,1239.424Z" fill="#1e3e69"/>
      <path id="Path_557" data-name="Path 557" d="M195.036,1219.6l-4.879,50.863q3.224-1.718,6.286-3.689l4.357-45.267Z" fill="#231f20"/>
      <path id="Path_558" data-name="Path 558" d="M97.544,1221.507l4.4,45.753q3.059,1.926,6.279,3.6l-4.918-51.265Z" fill="#231f20"/>
      <path id="Path_559" data-name="Path 559" d="M155.219,1237.518l5.854,9.855,16.856-33.379-5.047-2.172L155.5,1230.949l-6.132-1.2v-.049l-.127.024-.122-.024v.047l-6.444,1.2L125.3,1211.822l-5.047,2.172,16.857,33.379,5.853-9.855a6.956,6.956,0,0,1,5.785-3.093h.374a7.433,7.433,0,0,1,1.456.15l.064,46.165c.312-.006.624-.015.936-.024l-.064-45.894A7.13,7.13,0,0,1,155.219,1237.518Z" fill="#1e3e69"/>
      <path id="Path_560" data-name="Path 560" d="M128.011,1204.557l21.236,25,20.925-25,6.316,9-15.1,30.282-6.124-9.126a7.092,7.092,0,0,0-5.888-3.14h-.312a7.558,7.558,0,0,0-6.276,3.347l-5.985,8.919-15.1-30.282Z" fill="#3f71a6"/>
      <path id="Path_561" data-name="Path 561" d="M173.577,1135.759c2.52-6.473-1.571-16.074-1.571-16.074s-16.913-1.092-28.214,0c-10.447,1.009-17.9,7.484-18.6,15.267a23.531,23.531,0,0,0-3.219,14.084c.444,5.283,1.648,13.958,2.346,19.256l1.56,1.016c-1.372-27.419,4.427-28.244,6.035-27.967l7.5,1.291a57.1,57.1,0,0,0,19.377,0l2.6-.448a36.178,36.178,0,0,0,5.2-.884c1.762-.168,7.268-.762,5.708,28.008l1.511-.306s2.109-14.851,2.424-19.966A25.192,25.192,0,0,0,173.577,1135.759Z" fill="#3d2d2c"/>
      <g id="Group_167" data-name="Group 167">
        <path id="Path_562" data-name="Path 562" d="M161.32,1183.518l-8.431-3.721h-7.6l-8.431,3.721a3.1,3.1,0,0,0-1.846,3.025l.532,8.916,2.345,1.4-.531-9.906a1.2,1.2,0,0,1,.986-1.25l6.633-1.218a2.831,2.831,0,0,1,1.089.013l3,.625v-.83l.049.83,3-.625a2.831,2.831,0,0,1,1.089-.013l6.634,1.218a1.2,1.2,0,0,1,.985,1.25l-.531,9.906,2.345-1.4.532-8.916A3.1,3.1,0,0,0,161.32,1183.518Z" fill="#3d2d2c"/>
        <path id="Path_563" data-name="Path 563" d="M172.3,1169.325l-1.024,11.525-7.461,7.067a12.247,12.247,0,0,0-3.719,7.3,3.463,3.463,0,0,1-1.2,2.194l-1.614,1.389a4.355,4.355,0,0,1-2.811,1.028h-1.742a1.559,1.559,0,0,1-1.559-1.559V1195.3h-4.165v2.963a1.559,1.559,0,0,1-1.559,1.559h-1.742a4.355,4.355,0,0,1-2.811-1.028l-1.614-1.389a3.462,3.462,0,0,1-1.2-2.194,12.247,12.247,0,0,0-3.719-7.3l-7.46-7.067-1.024-11.525-1.56-1.016,1.173,17.307a11.518,11.518,0,0,0,3.66,7.668l10.541,9.775a7.261,7.261,0,0,0,4.939,1.938h8.913a7.261,7.261,0,0,0,4.939-1.938l10.541-9.775a11.523,11.523,0,0,0,3.661-7.668l1.173-17.307Z" fill="#3d2d2c"/>
      </g>
    </g>
  </g>
</svg>
