<svg xmlns="http://www.w3.org/2000/svg" width="176.066" height="176.067" viewBox="0 0 176.066 176.067">
  <g id="Group_55" data-name="Group 55" transform="translate(-1524.124 -53.623)">
    <circle id="Ellipse_17" data-name="Ellipse 17" cx="88.033" cy="88.033" r="88.033" transform="translate(1524.124 53.623)" fill="#fbb040"/>
    <g id="Group_54" data-name="Group 54">
      <path id="Path_169" data-name="Path 169" d="M1676.875,201.328c-.634-12.651-4.487-24.02-14.483-27.892l-30.385-11.772h-39.638l-30.385,11.772c-10.012,3.879-13.861,15.279-14.485,27.955a88.017,88.017,0,0,0,129.376-.063Z" fill="#b56d57"/>
      <path id="Path_170" data-name="Path 170" d="M1689.725,183.315a38.161,38.161,0,0,0-11.092-6.381c-13.36-4.931-28.367-10.384-32.3-11.477-4.563,9.956-16.267,21.091-34.333,21.143-18.064-.052-29.457-11.187-34.021-21.143-3.932,1.093-18.939,6.546-32.3,11.477a38.16,38.16,0,0,0-11.092,6.381,88.059,88.059,0,0,0,155.136,0Z" fill="#00a79d"/>
      <path id="Path_171" data-name="Path 171" d="M1612.126,188.785c-21.048,0-32.507-11.689-36.213-22.627l4.135-1.4c3.22,9.5,13.338,19.662,32.078,19.662Z" fill="#fff"/>
      <path id="Path_172" data-name="Path 172" d="M1611.876,188.785c21.048,0,32.819-11.689,36.525-22.627l-4.135-1.4c-3.22,9.5-13.65,19.662-32.39,19.662Z" fill="#fff"/>
      <g id="Group_53" data-name="Group 53">
        <path id="Path_173" data-name="Path 173" d="M1590.582,125.936l-.468-.1c-2.987-.663-5.366-3.637-5.844-7.3l-.907-6.961c-.166-1.272.706-2.317,1.743-2.087l.32.071a5.122,5.122,0,0,1,3.608,4.508Z" fill="#9e5c4f"/>
        <path id="Path_174" data-name="Path 174" d="M1634.614,125.98l.467-.105c2.985-.673,5.355-3.654,5.821-7.322l.885-6.964c.162-1.273-.713-2.315-1.75-2.082l-.319.072a5.122,5.122,0,0,0-3.594,4.52Z" fill="#9e5c4f"/>
        <g id="Group_51" data-name="Group 51">
          <rect id="Rectangle_10" data-name="Rectangle 10" width="42.035" height="30.92" transform="translate(1591.774 132.259)" fill="#b56d57"/>
          <path id="Path_175" data-name="Path 175" d="M1591.774,162.378l42.035-14.659v-15.46h-42.035Z" fill="#9e5c4f"/>
          <path id="Path_176" data-name="Path 176" d="M1591.774,141.97l15.406,15.035,15.537-5.418,11.092-10.7v-8.623h-42.035Z" fill="#854e48"/>
        </g>
        <path id="Path_177" data-name="Path 177" d="M1612.747,73.514c-14.193,0-26.322,11.5-26.322,25.7l2.807,31.176a15.423,15.423,0,0,0,6.154,12.327l8.108,7.738a12.4,12.4,0,0,0,7.451,2.489h3.6a12.4,12.4,0,0,0,7.451-2.489l8.108-7.738a15.423,15.423,0,0,0,6.154-12.327l2.807-31.176C1639.068,85.019,1626.939,73.514,1612.747,73.514Z" fill="#b56d57"/>
        <g id="Group_52" data-name="Group 52">
          <path id="Path_178" data-name="Path 178" d="M1612.828,72.822v0h-.139v0c-19.453.08-28.11,13.425-27.061,25.914.755,8.984,2.939,24.434,2.939,24.434h0c.378-29.855,5.262-32.429,7-32.129l7.5,1.292a57.149,57.149,0,0,0,19.377,0l7.5-1.292c1.739-.3,6.188-.428,7,32.129h0s2.384-15.435,2.939-24.434C1640.71,85.415,1632.281,72.9,1612.828,72.822Z" fill="#705a57"/>
          <path id="Path_179" data-name="Path 179" d="M1637.124,84.564c1.59-6.026-.185-13.489-3.626-17.37-.2,2.815-1.948,5-11.133,2.971-8.938-1.973-31.106-4.167-33.046,12.488-3.362,1.349-4.071,6.386-3.586,11.055l4.7,6.4c.411-2.324,2.254-7.037,4.6-8.468,5.692,2.579,23.9,4.739,34.369,1.449a11.728,11.728,0,0,0,1.946-.807c1.947,1.879,3.419,5.779,3.781,7.826l4.7-6.084C1640.022,89.385,1639.1,86.278,1637.124,84.564Z" fill="#3d2d2c"/>
        </g>
        <path id="Path_180" data-name="Path 180" d="M1624.364,130.917l-1.174-.567c-3.211-1.552-6.712-1.757-10.261-1.764h-.274c-3.549.007-7.05.212-10.261,1.764l-1.174.567c-1.4.678-2.255,2.787-2.15,4.37.228,3.421.627,9.794.85,11.38a5.5,5.5,0,0,0,1.945,2.955,12.224,12.224,0,0,0,7.448,3.111c1,.065,2.147.114,3.342.121v0h.274v0c1.2-.007,2.345-.056,3.342-.121a12.227,12.227,0,0,0,7.448-3.111,5.5,5.5,0,0,0,1.945-2.955c.223-1.586.622-7.959.849-11.38C1626.619,133.7,1625.765,131.6,1624.364,130.917Zm-.726,14.383c-.742,2.128-5.194,2.855-7.454,3.09a1.222,1.222,0,0,1-1.333-1.217l-.085-3.748h-3.948l-.085,3.748a1.222,1.222,0,0,1-1.333,1.217c-2.26-.235-6.712-.962-7.454-3.09-.734-2.1-.975-7.777-1.052-10.321a2.015,2.015,0,0,1,1.377-1.985l3.889-1.563a9,9,0,0,1,4.387.025l2.108.382v.05l.137-.025.137.025v-.05l2.108-.382a9,9,0,0,1,4.387-.025l3.889,1.563a2.015,2.015,0,0,1,1.377,1.985C1624.613,137.523,1624.372,143.2,1623.638,145.3Z" fill="#3d2d2c"/>
      </g>
    </g>
  </g>
</svg>
