<svg xmlns="http://www.w3.org/2000/svg" width="176.066" height="176.067" viewBox="0 0 176.066 176.067">
  <g id="Group_17" data-name="Group 17" transform="translate(-687.934 -474.053)">
    <circle id="Ellipse_5" data-name="Ellipse 5" cx="88.033" cy="88.033" r="88.033" transform="translate(687.934 474.053)" fill="#00a79d"/>
    <g id="Group_16" data-name="Group 16">
      <path id="Path_44" data-name="Path 44" d="M840.927,621.492c-1.428-10.687-5.58-19.766-14.366-23.049l-30.525-11.406-19.78.238h-.074l-19.781.238L726.16,599.651c-8.678,3.483-12.613,12.613-13.8,23.289a88.014,88.014,0,0,0,128.564-1.448Z" fill="#fb9b67"/>
      <path id="Path_45" data-name="Path 45" d="M846.876,600.7l-48.583-15.426L788.242,614.4s-5.95-5.9-9.664-8.2c-.1-.5-.2-.77-.309-.768a2.509,2.509,0,0,0-.773.176,2.847,2.847,0,0,0-1.123-.316c-.125,0-.238.353-.339,1.018-4.065,2.308-11.079,8.369-11.079,8.369l-10.748-28.872-48.2,16.591a28.8,28.8,0,0,0-6.559,3.239,88.053,88.053,0,0,0,154.061-1.854A28.765,28.765,0,0,0,846.876,600.7Z" fill="#edbaba"/>
      <g id="Group_14" data-name="Group 14">
        <rect id="Rectangle_2" data-name="Rectangle 2" width="42.035" height="30.92" transform="translate(755.063 557.848) rotate(-0.689)" fill="#fb9b67"/>
        <path id="Path_46" data-name="Path 46" d="M755.425,587.964,797.281,572.8l-.186-15.459-42.032.506Z" fill="#f28c63"/>
        <path id="Path_47" data-name="Path 47" d="M755.18,567.558l15.586,14.849,15.471-5.6L797.2,565.964l-.1-8.622-42.032.506Z" fill="#e07f57"/>
      </g>
      <path id="Path_48" data-name="Path 48" d="M775.327,498.855c-14.192.17-26.181,11.821-26.01,26.012l3.181,31.14a15.424,15.424,0,0,0,6.3,12.252l8.2,7.64a12.4,12.4,0,0,0,7.48,2.4l1.8-.022,1.8-.021a12.4,12.4,0,0,0,7.42-2.579l8.015-7.835a15.424,15.424,0,0,0,6.005-12.4l2.431-31.208C801.784,510.042,789.518,498.684,775.327,498.855Z" fill="#fb9b67"/>
      <path id="Path_49" data-name="Path 49" d="M753.794,551.54l-.468-.1c-2.995-.627-5.41-3.571-5.932-7.232l-.991-6.949c-.181-1.271.678-2.326,1.718-2.109l.321.067a5.123,5.123,0,0,1,3.661,4.465Z" fill="#fb9b67"/>
      <path id="Path_50" data-name="Path 50" d="M797.824,551.053l.465-.111c2.977-.708,5.311-3.717,5.733-7.391l.8-6.974c.146-1.275-.742-2.306-1.775-2.06l-.319.075a5.125,5.125,0,0,0-3.539,4.563Z" fill="#fb9b67"/>
      <path id="Path_51" data-name="Path 51" d="M776.981,640.884a1.715,1.715,0,1,0-1.694,1.736A1.715,1.715,0,0,0,776.981,640.884Z" fill="#ffd4d4"/>
      <path id="Path_52" data-name="Path 52" d="M776.647,613.141a1.715,1.715,0,1,0-1.694,1.735A1.715,1.715,0,0,0,776.647,613.141Z" fill="#ffd4d4"/>
      <path id="Path_53" data-name="Path 53" d="M798.937,505.113c-1.608-7.206-10.53-14.012-23.344-13.857-15.076.181-23.189,6.922-24.377,14.155-2.863,3.262-4.136,7.72-3.876,13.585.887,20.039,4.176,29.777,4.176,29.777h0c.017-29.857,4.871-32.49,6.613-32.211l6.923,1.106c-3.67,1.178-6.126,2.042-6.126,2.042,6.267,2.16,16.141,3.7,22.914,2.363,5.068-1,9.557-2.04,12.673-5.411,2,1.718,4.52,8.253,5.381,31.528,0,0,3.515-18.178,4.125-27.173C804.486,514.147,802.718,508.864,798.937,505.113Z" fill="#cf491d"/>
      <g id="Group_15" data-name="Group 15">
        <path id="Path_54" data-name="Path 54" d="M770.3,604.742l-17.607-18.916-5.019,2.232,17.256,33.173,5.735-9.925a6.956,6.956,0,0,1,5.747-3.161l.311,0-.056-4.724Z" fill="#dba7a7"/>
        <path id="Path_55" data-name="Path 55" d="M800.268,585.253l-17.147,19.334-6.4-1.17.057,4.723a7.428,7.428,0,0,1,1.458.132l.561,41.8q.468-.015.935-.034l-.557-41.526a7.13,7.13,0,0,1,3.736,2.65l5.971,9.784,16.454-33.58Z" fill="#dba7a7"/>
      </g>
      <path id="Path_56" data-name="Path 56" d="M797.471,578.021l-20.936,25.248-21.223-24.74L749.1,587.6l15.467,30.1,5.877-8.99a7.561,7.561,0,0,1,6.236-3.423h0v0h0a7.683,7.683,0,0,1,6.414,3.325l6.057,8.8,14.738-30.462Z" fill="#ffd4d4"/>
    </g>
  </g>
</svg>
