<svg xmlns="http://www.w3.org/2000/svg" width="176.066" height="176.067" viewBox="0 0 176.066 176.067">
  <g id="Group_21" data-name="Group 21" transform="translate(-269.84 -263.838)">
    <circle id="Ellipse_6" data-name="Ellipse 6" cx="88.033" cy="88.033" r="88.033" transform="translate(269.84 263.838)" fill="#c2b59b"/>
    <g id="Group_20" data-name="Group 20">
      <g id="Group_19" data-name="Group 19">
        <path id="Path_57" data-name="Path 57" d="M399.178,317.194a3.74,3.74,0,0,0,.037-6.843,3.738,3.738,0,0,0-1.328-6.176,3.736,3.736,0,0,0-2.025-6.064,3.785,3.785,0,0,0,.071-.719,3.739,3.739,0,0,0-3.627-3.736,3.739,3.739,0,0,0-4.288-5.517,3.786,3.786,0,0,0,.1-.844,3.73,3.73,0,0,0-4.617-3.635,3.628,3.628,0,0,0,.025-.419,3.74,3.74,0,0,0-5.494-3.3,3.738,3.738,0,0,0-5.5-2.619,3.738,3.738,0,0,0-6.272-1.511,3.736,3.736,0,0,0-6.745.094,3.737,3.737,0,0,0-6.632-.306,3.738,3.738,0,0,0-5.486.227,3.73,3.73,0,0,0-5.437,1.927,3.742,3.742,0,0,0-4.975,2.285,3.733,3.733,0,0,0-5,3.52c0,.034,0,.068.005.1a3.732,3.732,0,0,0-4.5,4.484,3.738,3.738,0,0,0-4.288,5.517,3.739,3.739,0,0,0-3.627,3.736,3.785,3.785,0,0,0,.071.719,3.737,3.737,0,0,0-2.026,6.064,3.738,3.738,0,0,0-1.327,6.176,3.74,3.74,0,0,0,.037,6.843,3.739,3.739,0,0,0,.637,7.07,3.736,3.736,0,0,0,1.317,6.189,3.739,3.739,0,0,0,2.1,5.346,3.739,3.739,0,0,0,2.936,6.058c.032,0,.063,0,.094-.005a3.741,3.741,0,0,0,3.648,2.92c.061,0,.12-.007.18-.01a3.741,3.741,0,0,0,3.563,4.887,3.792,3.792,0,0,0,.386-.02,3.781,3.781,0,0,0-.055.615,3.734,3.734,0,0,0,4.764,3.6,3.732,3.732,0,0,0,5.582.6,40.368,40.368,0,0,0,32.792.2,3.732,3.732,0,0,0,5.344-.8,3.734,3.734,0,0,0,4.764-3.6,3.781,3.781,0,0,0-.055-.615,3.792,3.792,0,0,0,.386.02,3.741,3.741,0,0,0,3.562-4.887c.06,0,.12.01.18.01a3.742,3.742,0,0,0,3.649-2.92c.031,0,.062.005.093.005a3.738,3.738,0,0,0,2.936-6.058,3.741,3.741,0,0,0,2.1-5.346,3.736,3.736,0,0,0,1.317-6.189,3.74,3.74,0,0,0,.637-7.07Z" fill="#362724"/>
        <path id="Path_58" data-name="Path 58" d="M336.479,342.83l-.457-.143c-1.694.083-3.793-3.975-3.956-7.669l-.931-7.066c-.056-1.283.281-2.3,1.294-1.985l.313.1a5.123,5.123,0,0,1,3.209,4.8Z" fill="#9e5c4f"/>
        <path id="Path_59" data-name="Path 59" d="M379.582,342.853l.455-.147c1.7.067,3.758-4.009,3.888-7.7l.867-7.074c.045-1.283-.3-2.3-1.312-1.972l-.312.1A5.123,5.123,0,0,0,380,330.884Z" fill="#9e5c4f"/>
        <g id="Group_18" data-name="Group 18">
          <path id="Path_60" data-name="Path 60" d="M373.058,347.651h-29.7v34.064l29.7-.048Z" fill="#854e48"/>
          <path id="Path_61" data-name="Path 61" d="M343.362,361.211l13.754,11.008-13.754,9.448Z" fill="#9e5c4f"/>
          <path id="Path_62" data-name="Path 62" d="M373.058,361.211v20.456s-17.521,1.923-29.7,0Z" fill="#b56d57"/>
        </g>
        <path id="Path_63" data-name="Path 63" d="M358.191,287.976c-13.653,0-24.722,10.313-24.722,23.034a21.61,21.61,0,0,0,.263,3.345l2.349,32.48a15.878,15.878,0,0,0,6.033,11.344l10.843,8.51a8.226,8.226,0,0,0,5.165,1.8h.138a8.226,8.226,0,0,0,5.165-1.8l10.791-8.469a16.03,16.03,0,0,0,6.091-11.452l2.344-32.413a21.741,21.741,0,0,0,.262-3.345h0C382.914,298.289,371.845,287.976,358.191,287.976Z" fill="#b56d57"/>
        <path id="Path_64" data-name="Path 64" d="M358.163,287.3h-.128c-13.739,0-25.692,9.053-25.189,24.566l1.985,17.694h-.067s-.654-18.447,8.371-24.17c1.6-1.017,6.4-1.686,10.393-1.015a32.985,32.985,0,0,0,9.133,0c3.994-.672,8.8,0,10.4,1.014,9.025,5.723,8.524,23.68,8.524,23.68h0l1.766-17.2C383.855,296.348,371.9,287.3,358.163,287.3Z" fill="#362724"/>
      </g>
      <path id="Path_65" data-name="Path 65" d="M401.734,390.756l-29.065-9.2H358.115s-.012.053-.033.153v-.153H343.528l-29.065,9.2a11.6,11.6,0,0,0-7.976,12.766c.841,5.662,1.984,13.382,3.257,22.066a88.056,88.056,0,0,0,96.757-.328c1.254-8.551,2.378-16.147,3.209-21.738A11.6,11.6,0,0,0,401.734,390.756Z" fill="#b56d57"/>
      <path id="Path_66" data-name="Path 66" d="M413.519,393.423l-19.79-5.369c-1.829,22.885-24.205,30.929-35.856,30.984-11.652-.055-34.027-8.1-35.856-30.984l-19.79,5.369a17.2,17.2,0,0,0-12.715,13.912,88.025,88.025,0,0,0,136.721,0A17.2,17.2,0,0,0,413.519,393.423Z" fill="#00a651"/>
    </g>
  </g>
</svg>
