<svg xmlns="http://www.w3.org/2000/svg" width="176.066" height="176.067" viewBox="0 0 176.066 176.067">
  <g id="Group_202" data-name="Group 202" transform="translate(-896.982 -894.482)">
    <circle id="Ellipse_57" data-name="Ellipse 57" cx="88.033" cy="88.033" r="88.033" transform="translate(896.982 894.482)" fill="#c2b59b"/>
    <g id="Group_201" data-name="Group 201">
      <g id="Group_199" data-name="Group 199">
        <rect id="Rectangle_31" data-name="Rectangle 31" width="42.035" height="30.92" transform="translate(964.418 973.306)" fill="#fb9b67"/>
        <path id="Path_662" data-name="Path 662" d="M964.418,1003.424l42.035-14.659v-15.46H964.418Z" fill="#f28c63"/>
        <path id="Path_663" data-name="Path 663" d="M964.418,983.017l15.406,15.035,15.537-5.418,11.092-10.7v-8.623H964.418Z" fill="#e07f57"/>
      </g>
      <path id="Path_664" data-name="Path 664" d="M985.39,914.561c-14.192,0-26.321,11.505-26.321,25.7l2.807,31.177a15.421,15.421,0,0,0,6.154,12.326l8.108,7.738a12.393,12.393,0,0,0,7.451,2.489h3.6a12.393,12.393,0,0,0,7.451-2.489l8.108-7.738a15.421,15.421,0,0,0,6.154-12.326l2.807-31.177C1011.712,926.066,999.583,914.561,985.39,914.561Z" fill="#fb9b67"/>
      <path id="Path_665" data-name="Path 665" d="M963.225,966.983l-.467-.1c-2.987-.663-5.366-3.636-5.844-7.3l-.907-6.96c-.166-1.273.706-2.318,1.743-2.088l.32.071a5.125,5.125,0,0,1,3.608,4.509Z" fill="#fb9b67"/>
      <path id="Path_666" data-name="Path 666" d="M1007.258,967.026l.466-.1c2.985-.672,5.355-3.653,5.822-7.322l.885-6.963c.162-1.274-.714-2.316-1.75-2.082l-.319.072a5.122,5.122,0,0,0-3.594,4.52Z" fill="#fb9b67"/>
      <path id="Path_667" data-name="Path 667" d="M935.014,1017.877c24.033-9.311,30.385-14.891,30.385-14.891h39.638s6.353,5.58,30.385,14.891c9.32,3.611,13.3,13.27,14.31,24.3a88.015,88.015,0,0,1-129.064.411C921.616,1031.387,925.579,1021.533,935.014,1017.877Z" fill="#fb9b67"/>
      <path id="Path_668" data-name="Path 668" d="M910,1020.142l42.488-12.153,10.739,4.583,11.042,57.323a88.093,88.093,0,0,1-68.111-48.21A20.16,20.16,0,0,1,910,1020.142Z" fill="#231f20"/>
      <path id="Path_669" data-name="Path 669" d="M1007.452,1012.572l9.492-4.583,42.489,12.153a20.2,20.2,0,0,1,4.305,1.794,88.113,88.113,0,0,1-66.145,47.713Z" fill="#231f20"/>
      <path id="Path_670" data-name="Path 670" d="M964.418,993.988c0,8.356,16.359,20.379,16.359,20.379h9.318s16.358-12.647,16.358-20.379l4.078,11.127L998.645,1069.5a88.713,88.713,0,0,1-25.336.277l-13.4-64.658Z" fill="#fff"/>
      <path id="Path_671" data-name="Path 671" d="M981.915,1016.758l-9.47,7.952-9.127-10.759.511,2.729,8.617,9.331,6.429-3.757Z" fill="#d1d3d4"/>
      <path id="Path_672" data-name="Path 672" d="M988.552,1016.758l9.47,7.952,9.127-10.759-.511,2.729-8.617,9.331-6.429-3.757Z" fill="#d1d3d4"/>
      <path id="Path_673" data-name="Path 673" d="M965.718,1036.584c-5.821-.416-16.84-3.327-16.84-3.327-1.039-5.613.563-19.351,3.608-25.268,6.787,7.6,15.519,26.516,15.519,26.516l6.53,35.421a87.544,87.544,0,0,1-16.946-3.738c-3.158-8.829-5.627-15.959-6.943-19.566C952.182,1045.534,965.718,1036.584,965.718,1036.584Z" fill="#141212"/>
      <path id="Path_674" data-name="Path 674" d="M1017.961,1007.989c3.045,5.917,4.024,19.967,2.984,25.58,0,0-11.018,2.6-16.839,3.015,0,0,12.6,8.638,14.136,9.726-1.022,4-2.659,11.006-4.894,19.577a87.447,87.447,0,0,1-15.277,3.7l7.045-39.765S1011.174,1015.586,1017.961,1007.989Z" fill="#141212"/>
      <g id="Group_200" data-name="Group 200">
        <path id="Path_675" data-name="Path 675" d="M1008.682,1000.069c1.849,5.046,9.269,7.92,9.269,7.92,2.651,6.766,2.131,17.264,1.508,23.917l-14.606,4.054,12.215,7.068c-1.375,3.764-3.289,12.547-5.959,23.586a87.48,87.48,0,0,1-13.875,3.086Z" fill="#363131"/>
        <path id="Path_676" data-name="Path 676" d="M965.671,1034.921l-15.753-3.591c-.416-6.388.771-18.464,2.568-23.341,2.488-.963,7.625-3.379,9.466-7.92l12.918,69.9a87.553,87.553,0,0,1-15.095-3.092c-3.645-10.66-6.425-19.57-7.289-23.844C954.907,1040.742,965.671,1034.921,965.671,1034.921Z" fill="#363131"/>
      </g>
      <path id="Path_677" data-name="Path 677" d="M982.59,1027.637a12.182,12.182,0,0,1-4.417-5.032l-2.338-.78,6.08-5.067h6.637l6.081,5.067-2.339.78a12.174,12.174,0,0,1-4.417,5.032,112.906,112.906,0,0,1,2.871,14.893c.53,4.277,2.182,17.257,3.494,27.538a89.119,89.119,0,0,1-9.233.481q-4.357,0-8.608-.42c1.108-9.284,2.732-22.868,3.319-27.6A113.078,113.078,0,0,1,982.59,1027.637Z" fill="#de252d"/>
      <path id="Path_678" data-name="Path 678" d="M961.4,925.107c.048-.082.1-.164.145-.245,1.381-11.509,9.311-17.061,17.683-17.061,8.419,0,23.388,1.871,25.467,11.083,9.355,2.352,9.251,10.746,7.134,27.278,0,0-.008-.078-.024-.219-.944,8.408-2.276,17.834-2.276,17.834-.378-29.855-5.262-32.429-7-32.129l-7.5,1.291a57.1,57.1,0,0,1-19.377,0l-7.5-1.291c-1.739-.3-6.188-.428-7,32.129,0,0-2.291-14.833-2.9-23.895C957.487,932.911,957.609,926.586,961.4,925.107Z" fill="#3d2d2c"/>
    </g>
  </g>
</svg>
