<svg xmlns="http://www.w3.org/2000/svg" width="176.066" height="176.066" viewBox="0 0 176.066 176.066">
  <g id="Group_84" data-name="Group 84" transform="translate(-1524.124 -474.053)">
    <circle id="Ellipse_26" data-name="Ellipse 26" cx="88.033" cy="88.033" r="88.033" transform="translate(1524.124 474.053)" fill="#c2b59b"/>
    <g id="Group_83" data-name="Group 83">
      <path id="Path_266" data-name="Path 266" d="M1676.533,622.124c-1.24-10.9-5.272-20.237-14.141-23.673l-30.385-11.772h-39.638l-30.385,11.772c-8.885,3.442-12.915,12.808-14.147,23.732a88.014,88.014,0,0,0,128.7-.059Z" fill="#b56d57"/>
      <path id="Path_267" data-name="Path 267" d="M1687.922,606.929a38.132,38.132,0,0,0-9.289-4.98c-13.36-4.931-28.367-10.384-32.3-11.476-4.563,9.955-16.267,21.09-34.333,21.142-18.064-.052-29.457-11.187-34.021-21.142-3.932,1.092-18.939,6.545-32.3,11.476a38.126,38.126,0,0,0-9.288,4.98,88.049,88.049,0,0,0,151.529,0Z" fill="#231f20"/>
      <g id="Group_82" data-name="Group 82">
        <g id="Group_80" data-name="Group 80">
          <rect id="Rectangle_15" data-name="Rectangle 15" width="42.035" height="30.92" transform="translate(1591.605 557.368)" fill="#b56d57"/>
          <path id="Path_268" data-name="Path 268" d="M1591.605,587.487l42.035-14.659v-15.46h-42.035Z" fill="#9e5c4f"/>
          <path id="Path_269" data-name="Path 269" d="M1591.605,567.079l15.406,15.035,15.537-5.418,11.092-10.7v-8.623h-42.035Z" fill="#e07f57"/>
        </g>
        <path id="Path_270" data-name="Path 270" d="M1612.578,498.623c-14.192,0-26.321,11.505-26.321,25.7l2.806,31.177a15.425,15.425,0,0,0,6.154,12.327l8.109,7.738a12.4,12.4,0,0,0,7.45,2.488h3.6a12.4,12.4,0,0,0,7.451-2.488l8.108-7.738a15.423,15.423,0,0,0,6.154-12.327l2.807-31.177C1638.9,510.128,1626.77,498.623,1612.578,498.623Z" fill="#b56d57"/>
        <path id="Path_271" data-name="Path 271" d="M1590.413,551.045l-.467-.1c-2.987-.663-5.367-3.636-5.845-7.3l-.907-6.961c-.166-1.273.706-2.317,1.743-2.087l.32.071a5.121,5.121,0,0,1,3.608,4.508Z" fill="#9e5c4f"/>
        <path id="Path_272" data-name="Path 272" d="M1634.445,551.088l.467-.105c2.985-.672,5.355-3.653,5.821-7.322l.886-6.963c.162-1.273-.714-2.315-1.75-2.082l-.32.072a5.121,5.121,0,0,0-3.593,4.52Z" fill="#9e5c4f"/>
        <g id="Group_81" data-name="Group 81">
          <path id="Path_273" data-name="Path 273" d="M1612.673,497.915h-.1c-12.53.052-26.67,10.015-26.268,24.426.218,7.779,1.547,19.444,1.547,19.444l1.56,1.016-.728-12.456,3.742-4.989s-1.576-6.223,0-8.628c1.97-3.007,5.861-4.152,20.147-1.164v.021l.049-.011.05.011v-.021c14.286-2.988,18.176-1.843,20.146,1.164,1.576,2.4,0,8.628,0,8.628l3.743,4.989-.729,12.456,1.56-1.016s1.345-12.219,1.547-19.444C1639.343,507.93,1625.2,497.967,1612.673,497.915Z" fill="#705a57"/>
          <path id="Path_274" data-name="Path 274" d="M1616.647,487.779a52.521,52.521,0,0,1-8.859-5.3s-.029,1.871.226,4.678c0,0-3.529-4.834-4.28-7.016,0,0-2.679,5.457-5.288,7.64,0,0-.346-2.5,1.07-3.587-15.076,11.543-13.515,22.557-10.368,27.013a16.067,16.067,0,0,0,4.239,4.383h38.228s2.42-.89,2.88-2.394C1639.891,497.989,1620.7,489.494,1616.647,487.779Z" fill="#3d2d2c"/>
        </g>
        <path id="Path_275" data-name="Path 275" d="M1637.393,541.785l-1.56,1.016s-2.554,10.8-3.8,11.97l-3.7,3.533c-.89.836-5.9-4.514-7.122-4.6l-1.938-.433h-10.506l-4.744.433c-1.219.084-6.155,5.678-7.045,4.842l-4.634-4.468c-1.241-1.165-2.937-11.279-2.937-11.279l-1.56-1.016s-1.264,26.709-.536,29,11.459,13.929,13.11,14.864c1.6.906,11.556.74,12.2.728.641.012,10.6.178,12.2-.728,1.651-.935,12.383-12.577,13.11-14.864S1637.393,541.785,1637.393,541.785Zm-14.775,24.525-4.142,3.826a1.8,1.8,0,0,1-3-1.045l-.313-2.012h-5.083l-.313,2.012a1.8,1.8,0,0,1-3,1.045l-4.142-3.826a8.54,8.54,0,0,1-2.741-6.573l6.506-1.658a10.119,10.119,0,0,1,5.278.076l.937.267v-.509l.031.509.937-.267a10.115,10.115,0,0,1,5.277-.076l6.506,1.658A8.54,8.54,0,0,1,1622.618,566.31Z" fill="#3d2d2c"/>
      </g>
      <path id="Path_276" data-name="Path 276" d="M1648.4,591.173l-4.135-1.4c-3.213,9.484-13.6,19.615-32.265,19.66-18.659-.045-28.74-10.176-31.953-19.66l-4.135,1.4c3.691,10.9,15.077,22.53,35.963,22.623v0l.125,0,.125,0v0C1633.016,613.7,1644.71,602.068,1648.4,591.173Z" fill="#4f4d4f"/>
    </g>
  </g>
</svg>
