<svg xmlns="http://www.w3.org/2000/svg" width="248.995" height="248.995" viewBox="0 0 248.995 248.995">
  <g id="Group_62" data-name="Group 62" transform="translate(-1069.565 -437.588)">
    <circle id="Ellipse_19" data-name="Ellipse 19" cx="88.033" cy="88.033" r="88.033" transform="translate(1069.565 562.086) rotate(-45)" fill="#9b8579"/>
    <g id="Group_61" data-name="Group 61">
      <path id="Path_193" data-name="Path 193" d="M1259.022,621.492c-1.428-10.687-5.58-19.766-14.366-23.049l-30.525-11.4-19.78.238h-.074l-19.781.239-30.241,12.137c-8.678,3.482-12.613,12.612-13.8,23.288a88.014,88.014,0,0,0,128.564-1.448Z" fill="#fb9b67"/>
      <path id="Path_194" data-name="Path 194" d="M1264.971,600.7l-48.583-15.426L1206.337,614.4s-5.95-5.9-9.664-8.2c-.1-.5-.2-.77-.309-.768a2.509,2.509,0,0,0-.773.176,2.847,2.847,0,0,0-1.123-.316c-.125,0-.238.353-.339,1.018-4.065,2.308-11.079,8.369-11.079,8.369L1172.3,585.808l-48.2,16.59a28.8,28.8,0,0,0-6.559,3.239,88.053,88.053,0,0,0,154.061-1.854A28.827,28.827,0,0,0,1264.971,600.7Z" fill="#00a651"/>
      <g id="Group_59" data-name="Group 59">
        <rect id="Rectangle_11" data-name="Rectangle 11" width="42.035" height="30.92" transform="matrix(1, -0.012, 0.012, 1, 1173.158, 557.848)" fill="#fb9b67"/>
        <path id="Path_195" data-name="Path 195" d="M1173.52,587.964l41.856-15.164-.186-15.459-42.032.506Z" fill="#f28c63"/>
        <path id="Path_196" data-name="Path 196" d="M1173.275,567.558l15.586,14.849,15.471-5.6,10.962-10.838-.1-8.622-42.032.506Z" fill="#e07f57"/>
      </g>
      <path id="Path_197" data-name="Path 197" d="M1193.421,498.855c-14.191.171-26.18,11.821-26.009,26.012l3.181,31.14a15.421,15.421,0,0,0,6.3,12.252l8.2,7.64a12.4,12.4,0,0,0,7.48,2.4l1.8-.022,1.8-.021a12.4,12.4,0,0,0,7.42-2.579l8.015-7.835a15.423,15.423,0,0,0,6.005-12.4l2.431-31.207C1219.879,510.042,1207.613,498.684,1193.421,498.855Z" fill="#fb9b67"/>
      <path id="Path_198" data-name="Path 198" d="M1171.889,551.54l-.468-.1c-2.995-.627-5.41-3.572-5.932-7.233l-.991-6.949c-.182-1.271.678-2.326,1.718-2.109l.32.068a5.121,5.121,0,0,1,3.662,4.464Z" fill="#fb9b67"/>
      <path id="Path_199" data-name="Path 199" d="M1215.919,551.053l.465-.111c2.977-.708,5.311-3.717,5.733-7.391l.8-6.974c.147-1.275-.741-2.306-1.774-2.06l-.319.075a5.124,5.124,0,0,0-3.539,4.563Z" fill="#fb9b67"/>
      <path id="Path_200" data-name="Path 200" d="M1195.076,640.884a1.715,1.715,0,1,0-1.7,1.736A1.715,1.715,0,0,0,1195.076,640.884Z" fill="#00853d"/>
      <path id="Path_201" data-name="Path 201" d="M1194.742,613.141a1.715,1.715,0,1,0-1.695,1.735A1.717,1.717,0,0,0,1194.742,613.141Z" fill="#00853d"/>
      <path id="Path_202" data-name="Path 202" d="M1217.032,505.113c-1.608-7.206-10.53-14.012-23.344-13.857-15.076.181-23.189,6.922-24.377,14.156-2.863,3.261-4.136,7.719-3.877,13.584.888,20.039,4.176,29.777,4.176,29.777h0c.018-29.857,4.871-32.49,6.614-32.211l6.923,1.106c-3.671,1.178-6.126,2.042-6.126,2.042,6.267,2.16,16.141,3.7,22.914,2.363,5.068-1,9.557-2.04,12.673-5.411,2,1.718,4.52,8.253,5.381,31.528,0,0,3.515-18.178,4.125-27.173C1222.581,514.147,1220.813,508.864,1217.032,505.113Z" fill="#3d2d2c"/>
      <g id="Group_60" data-name="Group 60">
        <path id="Path_203" data-name="Path 203" d="M1188.391,604.742l-17.607-18.916-5.019,2.232,17.256,33.173,5.735-9.924a6.954,6.954,0,0,1,5.746-3.162l.312,0-.057-4.723Z" fill="#00853d"/>
        <path id="Path_204" data-name="Path 204" d="M1218.363,585.253l-17.147,19.334-6.4-1.17.057,4.723a7.441,7.441,0,0,1,1.458.132l.561,41.8q.468-.015.935-.034l-.557-41.526a7.125,7.125,0,0,1,3.735,2.65l5.972,9.784,16.454-33.579Z" fill="#00853d"/>
      </g>
      <path id="Path_205" data-name="Path 205" d="M1215.565,578.021l-20.935,25.248-21.223-24.74L1167.2,587.6l15.467,30.1,5.877-8.99a7.561,7.561,0,0,1,6.236-3.423h0v0h0a7.683,7.683,0,0,1,6.414,3.325l6.057,8.8,14.738-30.462Z" fill="#44ab76"/>
    </g>
  </g>
</svg>
