<svg xmlns="http://www.w3.org/2000/svg" width="176.066" height="176.066" viewBox="0 0 176.066 176.066">
  <g id="Group_211" data-name="Group 211" transform="translate(-1106.029 -1104.697)">
    <circle id="Ellipse_60" data-name="Ellipse 60" cx="88.033" cy="88.033" r="88.033" transform="translate(1106.029 1104.697)" fill="#c2b59b"/>
    <g id="Group_210" data-name="Group 210">
      <path id="Path_704" data-name="Path 704" d="M1244.049,1225.64l-30.384-11.772h-39.639l-30.384,11.772c-9.665,3.744-13.587,14.5-14.41,26.64a88.019,88.019,0,0,0,129.257.434C1257.731,1240.393,1253.829,1229.429,1244.049,1225.64Z" fill="#fb9b67"/>
      <path id="Path_705" data-name="Path 705" d="M1222.7,1276c-1.626-28.69-3.219-50.338-3.219-50.338-4.6,6.715-40.8,9.21-49.675-2.8-4.4,2.174-10.223,22.363-14.739,48.808A88.263,88.263,0,0,0,1222.7,1276Z" fill="#b02331"/>
      <path id="Path_706" data-name="Path 706" d="M1260.115,1250.918a88.333,88.333,0,0,0,10.059-13.932,39.236,39.236,0,0,0-13.384-7.82l-10.246-3.508h0c-11.505-4.622-26.2-10.551-26.2-10.551a57.593,57.593,0,0,1-10.984,23.349,14.511,14.511,0,0,0-3.159,9.354c.182,7.288.09,18.814-.156,32.139a87.6,87.6,0,0,0,42.4-18v.012a88.521,88.521,0,0,0,11.513-10.868c.052-.058.1-.115.157-.174Z" fill="#2f6196"/>
      <path id="Path_707" data-name="Path 707" d="M1179.237,1237.6c-5.289-8.826-14.624-20.088-14.624-20.088l-32.352,8.738a39.177,39.177,0,0,0-15.636,8.383,88.4,88.4,0,0,0,19.717,24.56v0l.118.1.017.015q2.675,2.315,5.533,4.413l.12.089q.492.36.991.713l.21.15q.474.335.952.662c.088.061.176.122.265.182q.463.317.932.626l.3.2c.306.2.614.4.922.6l.323.206q.458.289.917.572l.185.116v0a87.466,87.466,0,0,0,32.74,11.943c.617-13.211,1.076-24.308,1.277-31.071A20.415,20.415,0,0,0,1179.237,1237.6Z" fill="#2f6196"/>
      <g id="Group_209" data-name="Group 209">
        <rect id="Rectangle_33" data-name="Rectangle 33" width="42.035" height="30.92" transform="translate(1173.045 1184.187)" fill="#fb9b67"/>
        <path id="Path_708" data-name="Path 708" d="M1173.045,1214.306l42.035-14.659v-15.46h-42.035Z" fill="#f28c63"/>
        <path id="Path_709" data-name="Path 709" d="M1173.045,1193.9l15.407,15.035,15.537-5.418,11.092-10.7v-8.623h-42.035Z" fill="#e07f57"/>
      </g>
      <path id="Path_710" data-name="Path 710" d="M1194.018,1125.442c-14.193,0-26.322,11.505-26.322,25.7l2.807,31.177a15.422,15.422,0,0,0,6.154,12.327l8.108,7.738a12.4,12.4,0,0,0,7.451,2.488h3.6a12.4,12.4,0,0,0,7.451-2.488l8.108-7.738a15.422,15.422,0,0,0,6.154-12.327l2.807-31.177C1220.339,1136.947,1208.21,1125.442,1194.018,1125.442Z" fill="#fb9b67"/>
      <path id="Path_711" data-name="Path 711" d="M1171.853,1177.864l-.468-.1c-2.987-.663-5.366-3.636-5.844-7.3l-.907-6.961c-.166-1.273.706-2.317,1.743-2.087l.32.071a5.121,5.121,0,0,1,3.608,4.508Z" fill="#fb9b67"/>
      <path id="Path_712" data-name="Path 712" d="M1215.885,1177.907l.467-.1c2.985-.672,5.355-3.653,5.821-7.322l.885-6.963c.162-1.273-.714-2.315-1.75-2.082l-.319.072a5.122,5.122,0,0,0-3.594,4.52Z" fill="#fb9b67"/>
      <path id="Path_713" data-name="Path 713" d="M1194.014,1123.648v0h-.138v0c-19.454.08-28.111,13.425-27.061,25.914.754,8.984,2.939,24.434,2.939,24.434h0c.377-29.855,5.262-32.429,7-32.129l7.5,1.291a57.092,57.092,0,0,0,19.376,0l7.5-1.291c1.74-.3,6.188-.429,7,32.129h0s2.385-15.435,2.94-24.434C1221.9,1136.241,1213.468,1123.728,1194.014,1123.648Z" fill="#733c30"/>
      <path id="Path_714" data-name="Path 714" d="M1167.454,1156.381c-2.118-16.532-2.222-24.926,7.133-27.278,2.079-9.212,17.048-11.083,25.468-11.083s16.394,5.613,17.708,17.255c5.264,1.871,3.676,12.8,2.287,22.2-3.676-15.965-9.756-21.37-13.161-23.865s-32.943-1.871-35.325,2.495S1167.454,1156.381,1167.454,1156.381Z" fill="#733c30"/>
      <path id="Path_715" data-name="Path 715" d="M1218.064,1163.029l-1.459,11.192a6.92,6.92,0,0,1-2.194,4.215l-2.877,2.627a4.183,4.183,0,0,0-1.353,2.813l-.294,4.458a5.007,5.007,0,0,1-1.482,3.239l-1.538,1.516.56-6.631a4.612,4.612,0,0,0-2.644-4.567l-3.857-1.8h-13.837l-3.857,1.8a4.612,4.612,0,0,0-2.644,4.567l.56,6.631-1.538-1.516a5.009,5.009,0,0,1-1.483-3.239l-.294-4.458a4.186,4.186,0,0,0-1.352-2.813l-2.877-2.627a6.921,6.921,0,0,1-2.195-4.215l-1.458-11.192-1.418,1.5s.866,10.139,1.8,22.165,12.261,21.029,23.634,21.029v-.01l.074.01c11.374,0,22.7-9,23.634-21.029s1.8-22.165,1.8-22.165Zm-19.181,34.718h-.825v-1.454a1.771,1.771,0,0,0-1.771-1.771h-4.56a1.771,1.771,0,0,0-1.77,1.771v1.454h-.825a7.943,7.943,0,0,1-5.578-2.287l-.21-.207-1.1-8.556,8.274-1.524,3.409.493v.024l.08-.012.081.012v-.024l3.409-.493,8.274,1.524-1.1,8.556-.21.207A7.945,7.945,0,0,1,1198.883,1197.747Z" fill="#733c30"/>
      <path id="Path_716" data-name="Path 716" d="M1215.162,1203.372c5.952,4.989,13.343,15.376,13.078,21.877-19.513,12.5-21.859,19.91-21.859,19.91,0-5.847,8.7-9.9,8.7-30.052C1215.189,1211.792,1215.162,1203.372,1215.162,1203.372Z" fill="#1e3e69"/>
      <path id="Path_717" data-name="Path 717" d="M1173.045,1203.372c-6.955,2.495-13.306,11.538-13.491,19.49,5.886,2.5,20.873,14.423,22.471,22.994.507-7.48-10.251-18.316-8.98-31.55A44.922,44.922,0,0,0,1173.045,1203.372Z" fill="#1e3e69"/>
      <path id="Path_718" data-name="Path 718" d="M1177.049,1249.822a3.131,3.131,0,1,0-3.118,3.415A3.277,3.277,0,0,0,1177.049,1249.822Z" fill="#1e3e69"/>
      <rect id="Rectangle_34" data-name="Rectangle 34" width="7.276" height="1.559" transform="translate(1210.303 1249.042)" fill="#1e3e69"/>
    </g>
  </g>
</svg>
