<svg xmlns="http://www.w3.org/2000/svg" width="176.066" height="176.067" viewBox="0 0 176.066 176.067">
  <g id="Group_75" data-name="Group 75" transform="translate(-896.982 -53.623)">
    <circle id="Ellipse_24" data-name="Ellipse 24" cx="88.033" cy="88.033" r="88.033" transform="translate(896.982 53.623)" fill="#9b8579"/>
    <g id="Group_74" data-name="Group 74">
      <path id="Path_248" data-name="Path 248" d="M1049.608,201.461c-.925-11.854-4.88-22.266-14.358-25.938l-30.385-11.772H965.227l-30.385,11.772c-9.494,3.679-13.446,14.121-14.362,26a88.014,88.014,0,0,0,129.128-.062Z" fill="#fb9b67"/>
      <path id="Path_249" data-name="Path 249" d="M1061.785,184.761a38.175,38.175,0,0,0-10.294-5.74c-13.36-4.93-28.367-10.384-32.3-11.476-4.563,9.956-16.267,21.091-34.333,21.142-18.064-.051-29.458-11.186-34.021-21.142-3.932,1.092-18.939,6.546-32.3,11.476a38.175,38.175,0,0,0-10.294,5.74,88.053,88.053,0,0,0,153.54,0Z" fill="#2d456e"/>
      <g id="Group_73" data-name="Group 73">
        <rect id="Rectangle_13" data-name="Rectangle 13" width="42.035" height="30.92" transform="translate(964.463 134.441)" fill="#fb9b67"/>
        <path id="Path_250" data-name="Path 250" d="M964.463,164.559,1006.5,149.9v-15.46H964.463Z" fill="#f28c63"/>
        <path id="Path_251" data-name="Path 251" d="M964.463,144.151l15.407,15.035,15.537-5.418,11.092-10.7v-8.623H964.463Z" fill="#e07f57"/>
      </g>
      <path id="Path_252" data-name="Path 252" d="M985.436,75.7c-14.193,0-26.321,11.5-26.321,25.7l2.806,31.176a15.421,15.421,0,0,0,6.154,12.327l8.108,7.738a12.4,12.4,0,0,0,7.451,2.489h3.6a12.4,12.4,0,0,0,7.451-2.489l8.108-7.738a15.421,15.421,0,0,0,6.154-12.327l2.807-31.176C1011.757,87.2,999.628,75.7,985.436,75.7Z" fill="#fb9b67"/>
      <path id="Path_253" data-name="Path 253" d="M963.271,128.117l-.467-.1c-2.988-.663-5.367-3.637-5.845-7.3l-.907-6.96c-.166-1.273.706-2.318,1.743-2.088l.32.071a5.123,5.123,0,0,1,3.608,4.509Z" fill="#fb9b67"/>
      <path id="Path_254" data-name="Path 254" d="M1007.3,128.161l.467-.1c2.985-.673,5.355-3.654,5.821-7.322l.886-6.964c.161-1.273-.714-2.315-1.75-2.081l-.32.071a5.125,5.125,0,0,0-3.594,4.52Z" fill="#fb9b67"/>
      <path id="Path_255" data-name="Path 255" d="M1021.259,168.246l-4.135-1.4c-3.213,9.484-13.605,19.614-32.265,19.66-18.659-.046-28.74-10.176-31.953-19.66l-4.135,1.4c3.691,10.894,15.076,22.529,35.963,22.622v.005c.042,0,.083,0,.125,0s.083,0,.125,0v-.005C1005.873,190.775,1017.568,179.14,1021.259,168.246Z" fill="#202952"/>
      <path id="Path_256" data-name="Path 256" d="M1008.9,87.64c-.049-.083-.1-.166-.147-.248-1.418-11.507-12.428-17.058-20.8-17.058-8.42,0-20.27,1.871-22.349,11.083-9.355,2.352-9.251,10.746-7.134,27.278,0,0,.009-.077.024-.219.944,8.408,2.277,17.834,2.277,17.834h0c.377-29.855,5.261-32.429,7-32.129l7.5,1.291a57.1,57.1,0,0,0,19.377,0l7.5-1.291c1.739-.3,6.188-.428,7,32.129,0,0,2.291-14.833,2.9-23.895C1012.806,95.444,1012.684,89.12,1008.9,87.64Z" fill="#733c30"/>
    </g>
  </g>
</svg>
