<svg xmlns="http://www.w3.org/2000/svg" width="176.066" height="176.066" viewBox="0 0 176.066 176.066">
  <g id="Group_32" data-name="Group 32" transform="translate(-60.792 -474.053)">
    <circle id="Ellipse_10" data-name="Ellipse 10" cx="88.033" cy="88.033" r="88.033" transform="translate(60.792 474.053)" fill="#00a79d"/>
    <g id="Group_31" data-name="Group 31">
      <path id="Path_99" data-name="Path 99" d="M213.419,621.875c-.835-12.109-4.761-22.821-14.4-26.557l-30.385-11.772H128.993L98.608,595.318c-9.643,3.736-13.569,14.448-14.4,26.557a88.016,88.016,0,0,0,129.215,0Z" fill="#b56d57"/>
      <path id="Path_100" data-name="Path 100" d="M219.3,597.822l-48.394-16.01-10.4,29s-7.729,24.97-11.644,32.3c-3.916-7.331-11.645-32.3-11.645-32.3l-10.4-29-48.394,16.01a28.78,28.78,0,0,0-8.089,4.194,88.064,88.064,0,0,0,156.979-.056A28.809,28.809,0,0,0,219.3,597.822Z" fill="#231f20"/>
      <path id="Path_101" data-name="Path 101" d="M120.642,583.351c-1.079,15.717,0,41.288,0,41.288s4.214-7.037,10.607-7.173,14.35,18.295,14.35,18.295l-16.3-43.554Z" fill="#141212"/>
      <path id="Path_102" data-name="Path 102" d="M177.085,583.351c1.079,15.717,0,41.288,0,41.288s-4.214-7.037-10.607-7.173-14.35,18.295-14.35,18.295l16.3-43.554Z" fill="#141212"/>
      <g id="Group_30" data-name="Group 30">
        <path id="Path_103" data-name="Path 103" d="M126.756,547.764l-.467-.1c-2.987-.663-5.366-3.636-5.844-7.3l-.908-6.96c-.165-1.273.707-2.318,1.744-2.088l.32.071a5.123,5.123,0,0,1,3.607,4.509Z" fill="#9e5c4f"/>
        <path id="Path_104" data-name="Path 104" d="M170.789,547.807l.466-.1c2.985-.672,5.355-3.653,5.822-7.322l.885-6.963c.162-1.274-.714-2.316-1.75-2.082l-.319.072a5.122,5.122,0,0,0-3.594,4.52Z" fill="#9e5c4f"/>
        <g id="Group_28" data-name="Group 28">
          <rect id="Rectangle_5" data-name="Rectangle 5" width="42.035" height="30.92" transform="translate(127.949 554.087)" fill="#b56d57"/>
          <path id="Path_105" data-name="Path 105" d="M127.949,584.205l42.035-14.659v-15.46H127.949Z" fill="#9e5c4f"/>
          <path id="Path_106" data-name="Path 106" d="M127.949,563.8l15.407,15.035,15.537-5.418,11.092-10.7v-8.623H127.949Z" fill="#854e48"/>
        </g>
        <path id="Path_107" data-name="Path 107" d="M148.921,495.342c-14.192,0-26.321,11.5-26.321,25.7l2.807,31.177a15.421,15.421,0,0,0,6.154,12.326l8.108,7.738a12.393,12.393,0,0,0,7.451,2.489h3.6a12.4,12.4,0,0,0,7.451-2.489l8.108-7.738a15.421,15.421,0,0,0,6.154-12.326l2.806-31.177C175.242,506.847,163.114,495.342,148.921,495.342Z" fill="#b56d57"/>
        <path id="Path_108" data-name="Path 108" d="M173.453,505.35c2.52-6.473-1.572-16.074-1.572-16.074s-16.913-1.092-28.213,0c-10.448,1.009-17.9,7.484-18.6,15.267a23.531,23.531,0,0,0-3.219,14.084c.444,5.283,1.648,13.958,2.346,19.256l1.56,1.016c-1.371-27.419,4.427-28.244,6.035-27.967l7.5,1.291a57.091,57.091,0,0,0,19.376,0l2.6-.447a36.355,36.355,0,0,0,5.2-.885c1.761-.168,7.267-.762,5.707,28.008l1.512-.306s2.108-14.851,2.423-19.966A25.2,25.2,0,0,0,173.453,505.35Z" fill="#362724"/>
        <g id="Group_29" data-name="Group 29">
          <path id="Path_109" data-name="Path 109" d="M161.2,553.092l-8.43-3.1h-7.6l-8.431,3.1a3.106,3.106,0,0,0-1.846,3.026l.532,8.916,2.345,1.4-.531-9.906a1.206,1.206,0,0,1,.986-1.25l6.633-1.841a2.831,2.831,0,0,1,1.089.013l3,.625v-.831l.049.831,3-.625a2.835,2.835,0,0,1,1.09-.013l6.633,1.841a1.207,1.207,0,0,1,.986,1.25l-.531,9.906,2.345-1.4.531-8.916A3.106,3.106,0,0,0,161.2,553.092Z" fill="#362724"/>
          <path id="Path_110" data-name="Path 110" d="M172.177,538.9l-1.024,11.525-7.46,7.068a12.246,12.246,0,0,0-3.72,7.3,3.461,3.461,0,0,1-1.2,2.194l-1.614,1.388a4.357,4.357,0,0,1-2.811,1.029h-1.741a1.56,1.56,0,0,1-1.56-1.56v-2.962h-4.165v2.962a1.559,1.559,0,0,1-1.559,1.56h-1.742a4.352,4.352,0,0,1-2.81-1.029l-1.615-1.388a3.47,3.47,0,0,1-1.2-2.194,12.245,12.245,0,0,0-3.719-7.3l-7.46-7.068L125.757,538.9l-1.56-1.016,1.173,17.307a11.519,11.519,0,0,0,3.66,7.668l10.542,9.776a7.26,7.26,0,0,0,4.938,1.937h8.914a7.264,7.264,0,0,0,4.938-1.937l10.541-9.776a11.521,11.521,0,0,0,3.661-7.668l1.173-17.307Z" fill="#362724"/>
        </g>
      </g>
      <path id="Path_111" data-name="Path 111" d="M127.7,573.069l8.423,34.48,9.476,28.212-10.864-25.279a2.31,2.31,0,0,0-3.8-.329L121.7,621.416l-1.054-38.065S124.553,580.115,127.7,573.069Z" fill="#231f20"/>
      <path id="Path_112" data-name="Path 112" d="M170.028,573.069l-8.424,34.48-9.476,28.212,10.864-25.279a2.31,2.31,0,0,1,3.8-.329l9.243,11.263,1.054-38.065S173.174,580.115,170.028,573.069Z" fill="#231f20"/>
    </g>
  </g>
</svg>
