<svg xmlns="http://www.w3.org/2000/svg" width="176.066" height="176.067" viewBox="0 0 176.066 176.067">
  <g id="Group_47" data-name="Group 47" transform="translate(-1524.124 -263.838)">
    <circle id="Ellipse_15" data-name="Ellipse 15" cx="88.033" cy="88.033" r="88.033" transform="translate(1524.124 263.838)" fill="#00a79d"/>
    <g id="Group_46" data-name="Group 46">
      <path id="Path_143" data-name="Path 143" d="M1546.97,410.829c.708-12.455,4.59-23.581,14.457-27.4l30.384-11.772h39.639l30.384,11.772c10.252,3.972,14.043,15.829,14.526,28.868a88.022,88.022,0,0,1-129.39-1.464Z" fill="#fb9b67"/>
      <path id="Path_144" data-name="Path 144" d="M1541.244,385.929l48.394-16.01,10.4,29s10.618,34.3,13.269,34.3c.393,0,.669,2.463.855,6.658-.606.013-1.212.024-1.821.024a88.039,88.039,0,0,1-79.277-49.717A28.779,28.779,0,0,1,1541.244,385.929Z" fill="#e6e7e8"/>
      <path id="Path_145" data-name="Path 145" d="M1612.341,439.9c-1.05,0-2.095-.026-3.137-.062.186-4.171.462-6.62.854-6.62,2.651,0,13.269-34.3,13.269-34.3l10.4-29,48.394,16.01a28.794,28.794,0,0,1,9.129,5A88.028,88.028,0,0,1,1612.341,439.9Z" fill="#e6e7e8"/>
      <g id="Group_44" data-name="Group 44">
        <rect id="Rectangle_8" data-name="Rectangle 8" width="42.035" height="30.92" transform="translate(1590.83 341.972)" fill="#fb9b67"/>
        <path id="Path_146" data-name="Path 146" d="M1590.83,372.091l42.035-14.659v-15.46H1590.83Z" fill="#f28c63"/>
        <path id="Path_147" data-name="Path 147" d="M1590.83,351.683l15.407,15.035,15.537-5.418,11.092-10.7v-8.623H1590.83Z" fill="#e07f57"/>
      </g>
      <path id="Path_148" data-name="Path 148" d="M1611.8,283.227c-14.193,0-26.322,11.505-26.322,25.7l2.807,31.177a15.423,15.423,0,0,0,6.154,12.327l8.108,7.738a12.4,12.4,0,0,0,7.451,2.488h3.6a12.4,12.4,0,0,0,7.451-2.488l8.108-7.738a15.423,15.423,0,0,0,6.154-12.327l2.807-31.177C1638.124,294.732,1625.995,283.227,1611.8,283.227Z" fill="#fb9b67"/>
      <path id="Path_149" data-name="Path 149" d="M1589.638,335.649l-.468-.1c-2.987-.663-5.366-3.636-5.844-7.3l-.907-6.961c-.166-1.273.706-2.317,1.743-2.087l.32.071a5.121,5.121,0,0,1,3.608,4.508Z" fill="#fb9b67"/>
      <path id="Path_150" data-name="Path 150" d="M1633.67,335.692l.467-.1c2.985-.672,5.355-3.653,5.821-7.322l.885-6.963c.162-1.273-.714-2.315-1.75-2.082l-.319.072a5.122,5.122,0,0,0-3.594,4.52Z" fill="#fb9b67"/>
      <path id="Path_151" data-name="Path 151" d="M1583.461,371.458c-1.079,15.717,0,41.288,0,41.288s4.214-7.037,10.607-7.173,14.35,18.3,14.35,18.3l-16.3-43.554Z" fill="#bcbec0"/>
      <path id="Path_152" data-name="Path 152" d="M1590.518,361.176l8.424,34.48,9.476,28.212-10.864-25.279a2.309,2.309,0,0,0-3.8-.328l-9.243,11.262-1.054-38.065S1587.372,368.222,1590.518,361.176Z" fill="#fff"/>
      <path id="Path_153" data-name="Path 153" d="M1639.9,371.458c1.079,15.717,0,41.288,0,41.288s-4.214-7.037-10.607-7.173-14.35,18.3-14.35,18.3l16.3-43.554Z" fill="#bcbec0"/>
      <path id="Path_154" data-name="Path 154" d="M1632.846,361.176l-8.423,34.48-9.476,28.212,10.864-25.279a2.309,2.309,0,0,1,3.8-.328l9.243,11.262,1.054-38.065S1635.993,368.222,1632.846,361.176Z" fill="#fff"/>
      <rect id="Rectangle_9" data-name="Rectangle 9" width="4.756" height="0.624" transform="translate(1618.14 421.841)" fill="#939598"/>
      <path id="Path_155" data-name="Path 155" d="M1636.054,294.163c2.52-6.474-1.572-16.074-1.572-16.074s-16.913-1.092-28.213,0c-10.448,1.009-17.9,7.484-18.6,15.267a23.527,23.527,0,0,0-3.218,14.084c.444,5.283,1.648,13.957,2.345,19.256l1.56,1.016c-1.371-27.419,4.428-28.244,6.035-27.968l7.5,1.292a57.1,57.1,0,0,0,19.377,0l2.6-.448a36.222,36.222,0,0,0,5.2-.885c1.762-.167,7.267-.762,5.707,28.009l1.512-.307s2.108-14.851,2.424-19.965A25.2,25.2,0,0,0,1636.054,294.163Z" fill="#733c30"/>
      <g id="Group_45" data-name="Group 45">
        <path id="Path_156" data-name="Path 156" d="M1623.8,341.9l-8.431-3.721h-7.6l-8.43,3.721a3.1,3.1,0,0,0-1.846,3.025l.531,8.916,2.345,1.4-.531-9.906a1.205,1.205,0,0,1,.986-1.25l6.633-1.218a2.835,2.835,0,0,1,1.09.013l3,.625v-.83l.049.83,3-.625a2.83,2.83,0,0,1,1.089-.013l6.633,1.218a1.205,1.205,0,0,1,.986,1.25l-.531,9.906,2.345-1.4.532-8.916A3.1,3.1,0,0,0,1623.8,341.9Z" fill="#9c5f4f"/>
        <path id="Path_157" data-name="Path 157" d="M1634.778,327.712l-1.024,11.525-7.46,7.067a12.248,12.248,0,0,0-3.719,7.3,3.463,3.463,0,0,1-1.2,2.194l-1.614,1.389a4.353,4.353,0,0,1-2.81,1.028h-1.742a1.559,1.559,0,0,1-1.559-1.559V353.69h-4.165v2.963a1.56,1.56,0,0,1-1.56,1.559h-1.741a4.356,4.356,0,0,1-2.811-1.028l-1.614-1.389a3.458,3.458,0,0,1-1.2-2.194,12.249,12.249,0,0,0-3.72-7.3l-7.46-7.067-1.024-11.525-1.56-1.016L1587.971,344a11.521,11.521,0,0,0,3.661,7.668l10.541,9.775a7.261,7.261,0,0,0,4.938,1.938h8.914a7.259,7.259,0,0,0,4.938-1.938l10.542-9.775a11.52,11.52,0,0,0,3.66-7.668l1.173-17.307Z" fill="#733c30"/>
      </g>
    </g>
  </g>
</svg>
