<svg xmlns="http://www.w3.org/2000/svg" width="248.995" height="248.995" viewBox="0 0 248.995 248.995">
  <g id="Group_79" data-name="Group 79" transform="translate(-1278.612 -437.588)">
    <circle id="Ellipse_25" data-name="Ellipse 25" cx="88.033" cy="88.033" r="88.033" transform="translate(1278.612 562.086) rotate(-45)" fill="#00a79d"/>
    <g id="Group_78" data-name="Group 78">
      <path id="Path_257" data-name="Path 257" d="M1467.814,621.771c-.451-13.117-4.228-25.073-14.531-29.065L1422.9,580.934H1383.26l-30.385,11.772c-10.287,3.985-14.068,15.909-14.53,29a88.018,88.018,0,0,0,129.469.065Z" fill="#b56d57"/>
      <path id="Path_258" data-name="Path 258" d="M1481.1,602.938a38.182,38.182,0,0,0-11.518-6.734c-13.36-4.931-28.367-10.384-32.3-11.476-4.564,9.955-15.957,21.09-34.021,21.142-18.066-.052-29.77-11.187-34.333-21.142-3.932,1.092-18.939,6.545-32.3,11.476a38.158,38.158,0,0,0-11.518,6.734,88.056,88.056,0,0,0,155.988,0Z" fill="#abc5ce"/>
      <path id="Path_259" data-name="Path 259" d="M1439.354,585.428l-4.135-1.4c-3.213,9.484-13.294,19.615-31.953,19.66-18.661-.045-29.052-10.176-32.265-19.66l-4.135,1.4c3.691,10.9,15.385,22.53,36.275,22.623v0l.125,0,.125,0v0C1424.277,607.958,1435.663,596.323,1439.354,585.428Z" fill="#fff"/>
      <g id="Group_77" data-name="Group 77">
        <path id="Path_260" data-name="Path 260" d="M1380.651,545.544l-.467-.1c-2.987-.663-5.367-3.636-5.845-7.3l-.907-6.961c-.166-1.273.706-2.317,1.743-2.087l.32.071a5.121,5.121,0,0,1,3.608,4.508Z" fill="#9e5c4f"/>
        <path id="Path_261" data-name="Path 261" d="M1424.683,545.587l.467-.1c2.985-.672,5.355-3.653,5.821-7.322l.886-6.963c.162-1.273-.714-2.315-1.75-2.082l-.32.072a5.121,5.121,0,0,0-3.593,4.52Z" fill="#9e5c4f"/>
        <g id="Group_76" data-name="Group 76">
          <rect id="Rectangle_14" data-name="Rectangle 14" width="42.035" height="30.92" transform="translate(1381.844 551.867)" fill="#b56d57"/>
          <path id="Path_262" data-name="Path 262" d="M1381.844,581.986l42.035-14.659v-15.46h-42.035Z" fill="#9e5c4f"/>
          <path id="Path_263" data-name="Path 263" d="M1381.844,561.578l15.406,15.035,15.537-5.418,11.092-10.7v-8.623h-42.035Z" fill="#854e48"/>
        </g>
        <path id="Path_264" data-name="Path 264" d="M1402.816,493.122c-14.192,0-26.321,11.505-26.321,25.7L1379.3,550a15.426,15.426,0,0,0,6.154,12.327l8.109,7.738a12.4,12.4,0,0,0,7.45,2.488h3.6a12.4,12.4,0,0,0,7.451-2.488l8.108-7.738A15.423,15.423,0,0,0,1426.33,550l2.807-31.177C1429.137,504.627,1417.008,493.122,1402.816,493.122Z" fill="#b56d57"/>
        <path id="Path_265" data-name="Path 265" d="M1402.813,491.328v0h-.139v0c-19.453.08-28.11,13.425-27.061,25.914.755,8.984,2.939,24.434,2.939,24.434h0c.378-29.855,5.262-32.429,7-32.129l7.5,1.291a57.1,57.1,0,0,0,19.377,0l7.5-1.291c1.739-.3,6.188-.429,7,32.129h0s2.384-15.435,2.939-24.434C1430.695,503.921,1422.266,491.408,1402.813,491.328Z" fill="#362724"/>
      </g>
    </g>
  </g>
</svg>
