<svg xmlns="http://www.w3.org/2000/svg" width="176.066" height="176.066" viewBox="0 0 176.066 176.066">
  <g id="Group_110" data-name="Group 110" transform="translate(-1315.077 -1314.912)">
    <circle id="Ellipse_33" data-name="Ellipse 33" cx="88.033" cy="88.033" r="88.033" transform="translate(1315.077 1314.912)" fill="#00a79d"/>
    <g id="Group_109" data-name="Group 109">
      <path id="Path_361" data-name="Path 361" d="M1338.7,1462.942c1.111-11.3,5.117-21.084,14.241-24.619l30.385-11.772h39.638l30.385,11.772c9.108,3.529,13.116,13.282,14.236,24.558a88.015,88.015,0,0,1-128.885.061Z" fill="#fb9b67"/>
      <path id="Path_362" data-name="Path 362" d="M1326.938,1447.1a38.189,38.189,0,0,1,9.7-5.278c13.36-4.931,28.367-10.384,32.3-11.476,4.563,9.955,15.956,21.09,34.021,21.142,18.066-.052,29.769-11.187,34.333-21.142,3.932,1.092,18.939,6.545,32.3,11.476a38.19,38.19,0,0,1,9.7,5.278,88.055,88.055,0,0,1-152.344,0Z" fill="#fbb040"/>
      <g id="Group_107" data-name="Group 107">
        <rect id="Rectangle_18" data-name="Rectangle 18" width="42.035" height="30.92" transform="translate(1382.558 1397.24)" fill="#fb9b67"/>
        <path id="Path_363" data-name="Path 363" d="M1382.558,1427.359l42.035-14.659v-15.46h-42.035Z" fill="#f28c63"/>
        <path id="Path_364" data-name="Path 364" d="M1382.558,1406.951l15.407,15.035,15.537-5.418,11.092-10.7v-8.623h-42.035Z" fill="#e07f57"/>
      </g>
      <path id="Path_365" data-name="Path 365" d="M1403.53,1338.495c-14.192,0-26.321,11.505-26.321,25.7l2.807,31.177a15.419,15.419,0,0,0,6.154,12.326l8.108,7.739a12.4,12.4,0,0,0,7.451,2.488h3.6a12.4,12.4,0,0,0,7.451-2.488l8.108-7.739a15.419,15.419,0,0,0,6.154-12.326l2.807-31.177C1429.852,1350,1417.723,1338.495,1403.53,1338.495Z" fill="#fb9b67"/>
      <path id="Path_366" data-name="Path 366" d="M1381.365,1390.917l-.467-.1c-2.987-.663-5.366-3.636-5.844-7.3l-.908-6.961c-.165-1.273.707-2.318,1.744-2.087l.32.071a5.12,5.12,0,0,1,3.607,4.508Z" fill="#fb9b67"/>
      <path id="Path_367" data-name="Path 367" d="M1425.4,1390.96l.466-.1c2.985-.672,5.355-3.653,5.822-7.322l.885-6.963c.162-1.273-.714-2.315-1.75-2.082l-.319.072a5.122,5.122,0,0,0-3.594,4.52Z" fill="#fb9b67"/>
      <path id="Path_368" data-name="Path 368" d="M1366.866,1431.045l4.135-1.4c3.213,9.484,13.294,19.615,31.953,19.66,18.66-.045,29.052-10.176,32.265-19.66l4.135,1.4c-3.691,10.895-15.386,22.53-36.275,22.623v0l-.125,0-.125,0v0C1381.942,1453.575,1370.557,1441.94,1366.866,1431.045Z" fill="#fff"/>
      <path id="Path_369" data-name="Path 369" d="M1415.148,1397.459l-1.174-.568c-3.211-1.552-6.713-1.756-10.262-1.763h-.273c-3.549.007-7.05.211-10.262,1.763l-1.173.568a3.866,3.866,0,0,0-2.15,3.746c.227,3.421.627,9.794.85,11.38a5.5,5.5,0,0,0,1.945,2.955,12.224,12.224,0,0,0,7.448,3.111c1,.065,2.147.114,3.342.121v0h.273v0c1.2-.007,2.346-.056,3.343-.121a12.222,12.222,0,0,0,7.447-3.111,5.5,5.5,0,0,0,1.946-2.955c.223-1.586.622-7.959.849-11.38A3.867,3.867,0,0,0,1415.148,1397.459Zm-.726,13.759c-.742,2.128-5.194,2.855-7.454,3.089a1.22,1.22,0,0,1-1.333-1.216l-.085-3.748H1401.6l-.085,3.748a1.221,1.221,0,0,1-1.333,1.216c-2.26-.234-6.712-.961-7.455-3.089-.734-2.1-.975-7.777-1.051-10.321a2.015,2.015,0,0,1,1.377-1.985l3.889-.939a9,9,0,0,1,4.386.024l2.109.383v.049l.137-.025.136.025v-.049l2.109-.383a9,9,0,0,1,4.387-.024l3.888.939a2.015,2.015,0,0,1,1.378,1.985C1415.4,1403.441,1415.156,1409.113,1414.422,1411.218Z" fill="#733c30"/>
      <g id="Group_108" data-name="Group 108">
        <path id="Path_370" data-name="Path 370" d="M1403.537,1335.875v0h-.138v0c-19.454.08-28.111,13.425-27.061,25.915.754,8.984,2.939,24.433,2.939,24.433h0c.377-29.854,5.261-32.428,7-32.129l7.5,1.292a57.091,57.091,0,0,0,19.376,0l7.5-1.292c1.739-.3,6.188-.428,7,32.129h0s2.384-15.435,2.939-24.433C1431.42,1348.469,1422.991,1335.955,1403.537,1335.875Z" fill="#c4745d"/>
        <path id="Path_371" data-name="Path 371" d="M1427.834,1347.617c1.589-6.026-.185-13.488-3.627-17.37-.2,2.815-1.948,5-11.133,2.971-8.937-1.972-31.106-4.167-33.045,12.488-3.362,1.35-4.071,6.386-3.587,11.056l4.7,6.4c.41-2.325,2.253-7.038,4.6-8.469,5.693,2.579,23.9,4.739,34.369,1.449a11.618,11.618,0,0,0,1.946-.807c1.947,1.879,3.42,5.779,3.781,7.827l4.7-6.085C1430.731,1352.439,1429.81,1349.331,1427.834,1347.617Z" fill="#733c30"/>
      </g>
    </g>
  </g>
</svg>
