<svg xmlns="http://www.w3.org/2000/svg" width="176.066" height="176.067" viewBox="0 0 176.066 176.067">
  <g id="Group_135" data-name="Group 135" transform="translate(-269.84 -894.482)">
    <circle id="Ellipse_39" data-name="Ellipse 39" cx="88.033" cy="88.033" r="88.033" transform="translate(269.84 894.482)" fill="#9b8579"/>
    <g id="Group_134" data-name="Group 134">
      <path id="Path_441" data-name="Path 441" d="M422.59,1042.186c-.634-12.651-4.487-24.019-14.482-27.891l-30.385-11.773H338.085L307.7,1014.295c-10.012,3.879-13.862,15.278-14.486,27.955a88.017,88.017,0,0,0,129.376-.064Z" fill="#b56d57"/>
      <path id="Path_442" data-name="Path 442" d="M435.441,1024.174a38.161,38.161,0,0,0-11.092-6.381c-13.36-4.931-28.367-10.384-32.3-11.477-4.563,9.956-16.266,21.091-34.332,21.143-18.065-.052-29.458-11.187-34.021-21.143-3.932,1.093-18.939,6.546-32.3,11.477a38.161,38.161,0,0,0-11.092,6.381,88.059,88.059,0,0,0,155.136,0Z" fill="#edbaba"/>
      <path id="Path_443" data-name="Path 443" d="M357.842,1029.644c-21.048,0-32.508-11.689-36.213-22.627l4.135-1.4c3.22,9.5,13.338,19.662,32.078,19.662Z" fill="#fff"/>
      <path id="Path_444" data-name="Path 444" d="M357.592,1029.644c21.048,0,32.819-11.689,36.525-22.627l-4.135-1.4c-3.22,9.5-13.65,19.662-32.39,19.662Z" fill="#fff"/>
      <g id="Group_133" data-name="Group 133">
        <path id="Path_445" data-name="Path 445" d="M336.3,966.795l-.467-.1c-2.987-.663-5.367-3.636-5.845-7.3l-.907-6.961c-.166-1.273.707-2.317,1.744-2.087l.319.071a5.121,5.121,0,0,1,3.608,4.508Z" fill="#9e5c4f"/>
        <path id="Path_446" data-name="Path 446" d="M380.329,966.838l.467-.105c2.985-.672,5.355-3.653,5.822-7.322l.885-6.963c.162-1.273-.714-2.315-1.75-2.082l-.32.072a5.123,5.123,0,0,0-3.593,4.52Z" fill="#9e5c4f"/>
        <g id="Group_131" data-name="Group 131">
          <rect id="Rectangle_22" data-name="Rectangle 22" width="42.035" height="30.92" transform="translate(337.49 973.118)" fill="#b56d57"/>
          <path id="Path_447" data-name="Path 447" d="M337.49,1003.237l42.035-14.659v-15.46H337.49Z" fill="#9e5c4f"/>
          <path id="Path_448" data-name="Path 448" d="M337.49,982.829,352.9,997.864l15.537-5.418,11.092-10.7v-8.623H337.49Z" fill="#854e48"/>
        </g>
        <path id="Path_449" data-name="Path 449" d="M358.462,914.373c-14.192,0-26.321,11.505-26.321,25.7l2.807,31.177a15.423,15.423,0,0,0,6.154,12.327l8.108,7.738a12.4,12.4,0,0,0,7.451,2.488h3.6a12.4,12.4,0,0,0,7.45-2.488l8.109-7.738a15.425,15.425,0,0,0,6.154-12.327l2.806-31.177C384.783,925.878,372.654,914.373,358.462,914.373Z" fill="#b56d57"/>
        <g id="Group_132" data-name="Group 132">
          <path id="Path_450" data-name="Path 450" d="M358.543,913.681v0H358.4v0c-19.454.08-28.111,13.425-27.061,25.914.754,8.984,2.939,24.434,2.939,24.434h0c.377-29.855,5.262-32.429,7-32.129l7.5,1.291a57.091,57.091,0,0,0,19.376,0l7.5-1.291c1.74-.3,6.188-.428,7,32.129h0s2.385-15.435,2.939-24.434C386.426,926.274,378,913.761,358.543,913.681Z" fill="#705a57"/>
          <path id="Path_451" data-name="Path 451" d="M382.84,925.423c1.589-6.026-.185-13.489-3.627-17.37-.2,2.815-1.948,5-11.133,2.971-8.937-1.973-31.106-4.167-33.045,12.488-3.362,1.349-4.071,6.385-3.587,11.055l4.7,6.4c.41-2.325,2.253-7.037,4.6-8.468,5.693,2.579,23.9,4.739,34.369,1.449a11.607,11.607,0,0,0,1.946-.808c1.948,1.88,3.42,5.78,3.781,7.827l4.7-6.084C385.737,930.244,384.816,927.136,382.84,925.423Z" fill="#3d2d2c"/>
        </g>
        <path id="Path_452" data-name="Path 452" d="M370.079,971.776l-1.173-.567c-3.211-1.552-6.713-1.757-10.262-1.764h-.273c-3.549.007-7.051.212-10.262,1.764l-1.173.567c-1.4.677-2.255,2.786-2.15,4.37.227,3.421.626,9.794.85,11.379a5.493,5.493,0,0,0,1.945,2.956,12.224,12.224,0,0,0,7.448,3.111c1,.065,2.146.114,3.342.121v0h.273v0c1.2-.007,2.346-.056,3.342-.121a12.224,12.224,0,0,0,7.448-3.111,5.492,5.492,0,0,0,1.945-2.956c.224-1.585.623-7.958.85-11.379C372.334,974.562,371.481,972.453,370.079,971.776Zm-.725,14.383c-.743,2.128-5.194,2.855-7.454,3.089a1.221,1.221,0,0,1-1.334-1.216l-.085-3.748h-3.947l-.085,3.748a1.222,1.222,0,0,1-1.334,1.216c-2.26-.234-6.711-.961-7.454-3.089-.734-2.1-.975-7.777-1.051-10.321a2.013,2.013,0,0,1,1.377-1.985l3.888-1.563a8.988,8.988,0,0,1,4.387.025l2.109.382v.049l.137-.024.136.024V972.7l2.109-.382a8.988,8.988,0,0,1,4.387-.025l3.888,1.563a2.013,2.013,0,0,1,1.377,1.985C370.329,978.382,370.088,984.054,369.354,986.159Z" fill="#3d2d2c"/>
      </g>
    </g>
  </g>
</svg>
