<svg xmlns="http://www.w3.org/2000/svg" width="176.066" height="176.066" viewBox="0 0 176.066 176.066">
  <g id="Group_172" data-name="Group 172" transform="translate(-478.887 -1104.697)">
    <circle id="Ellipse_48" data-name="Ellipse 48" cx="88.033" cy="88.033" r="88.033" transform="translate(478.887 1104.697)" fill="#c2b59b"/>
    <g id="Group_171" data-name="Group 171">
      <path id="Path_564" data-name="Path 564" d="M616.907,1225.64l-30.385-11.772H546.884L516.5,1225.64c-9.664,3.744-13.587,14.5-14.409,26.64a88.019,88.019,0,0,0,129.257.434C630.589,1240.393,626.687,1229.429,616.907,1225.64Z" fill="#fb9b67"/>
      <path id="Path_565" data-name="Path 565" d="M595.557,1276c-1.625-28.69-3.218-50.338-3.218-50.338-4.6,6.715-40.8,9.21-49.676-2.8-4.4,2.174-10.222,22.363-14.738,48.808A88.261,88.261,0,0,0,595.557,1276Z" fill="#912427"/>
      <path id="Path_566" data-name="Path 566" d="M632.973,1250.918a88.34,88.34,0,0,0,10.059-13.932,39.231,39.231,0,0,0-13.385-7.82l-10.245-3.508h0c-11.505-4.622-26.206-10.551-26.206-10.551a57.583,57.583,0,0,1-10.983,23.349,14.507,14.507,0,0,0-3.16,9.354c.183,7.288.09,18.814-.156,32.139a87.6,87.6,0,0,0,42.405-18v.012a88.47,88.47,0,0,0,11.514-10.868c.052-.058.105-.115.157-.174Z" fill="#c95c2a"/>
      <path id="Path_567" data-name="Path 567" d="M552.094,1237.6c-5.289-8.826-14.623-20.088-14.623-20.088l-32.352,8.738a39.171,39.171,0,0,0-15.636,8.383A88.4,88.4,0,0,0,509.2,1259.2v0l.118.1.017.015q2.674,2.315,5.532,4.413c.041.029.08.059.121.089q.492.36.991.713c.07.05.14.1.21.15q.473.335.952.662l.264.182q.465.317.933.626l.3.2c.306.2.614.4.922.6l.323.206q.456.289.917.572l.185.116v0a87.466,87.466,0,0,0,32.74,11.943c.616-13.211,1.075-24.308,1.277-31.071A20.408,20.408,0,0,0,552.094,1237.6Z" fill="#c95c2a"/>
      <g id="Group_170" data-name="Group 170">
        <rect id="Rectangle_28" data-name="Rectangle 28" width="42.035" height="30.92" transform="translate(545.903 1184.187)" fill="#fb9b67"/>
        <path id="Path_568" data-name="Path 568" d="M545.9,1214.306l42.035-14.659v-15.46H545.9Z" fill="#f28c63"/>
        <path id="Path_569" data-name="Path 569" d="M545.9,1193.9l15.406,15.035,15.537-5.418,11.092-10.7v-8.623H545.9Z" fill="#e07f57"/>
      </g>
      <path id="Path_570" data-name="Path 570" d="M566.875,1125.442c-14.192,0-26.321,11.505-26.321,25.7l2.807,31.177a15.422,15.422,0,0,0,6.154,12.327l8.108,7.738a12.4,12.4,0,0,0,7.451,2.488h3.6a12.4,12.4,0,0,0,7.451-2.488l8.108-7.738a15.425,15.425,0,0,0,6.154-12.327l2.806-31.177C593.2,1136.947,581.068,1125.442,566.875,1125.442Z" fill="#fb9b67"/>
      <path id="Path_571" data-name="Path 571" d="M544.71,1177.864l-.467-.1c-2.987-.663-5.366-3.636-5.844-7.3l-.908-6.961c-.166-1.273.707-2.317,1.744-2.087l.32.071a5.122,5.122,0,0,1,3.607,4.508Z" fill="#fb9b67"/>
      <path id="Path_572" data-name="Path 572" d="M588.742,1177.907l.467-.1c2.985-.672,5.355-3.653,5.822-7.322l.885-6.963c.162-1.273-.714-2.315-1.75-2.082l-.319.072a5.122,5.122,0,0,0-3.594,4.52Z" fill="#fb9b67"/>
      <path id="Path_573" data-name="Path 573" d="M566.872,1123.648v0h-.138v0c-19.454.08-28.111,13.425-27.062,25.914.755,8.984,2.94,24.434,2.94,24.434h0c.377-29.855,5.261-32.429,7-32.129l7.5,1.291a57.1,57.1,0,0,0,19.377,0l7.5-1.291c1.739-.3,6.188-.429,7,32.129h0s2.384-15.435,2.939-24.434C594.755,1136.241,586.326,1123.728,566.872,1123.648Z" fill="#b07a5d"/>
      <path id="Path_574" data-name="Path 574" d="M590.922,1163.029l-1.459,11.192a6.92,6.92,0,0,1-2.194,4.215l-2.877,2.627a4.183,4.183,0,0,0-1.353,2.813l-.294,4.458a5.013,5.013,0,0,1-1.482,3.239l-1.539,1.516.561-6.631a4.611,4.611,0,0,0-2.645-4.567l-3.856-1.8H559.946l-3.856,1.8a4.613,4.613,0,0,0-2.645,4.567l.561,6.631-1.539-1.516a5.013,5.013,0,0,1-1.482-3.239l-.294-4.458a4.183,4.183,0,0,0-1.353-2.813l-2.877-2.627a6.92,6.92,0,0,1-2.194-4.215l-1.459-11.192-1.417,1.5s.866,10.139,1.8,22.165,12.26,21.029,23.634,21.029v-.01l.074.01c11.374,0,22.7-9,23.634-21.029s1.8-22.165,1.8-22.165Zm-19.182,34.718h-.825v-1.454a1.77,1.77,0,0,0-1.77-1.771h-4.56a1.77,1.77,0,0,0-1.77,1.771v1.454h-.825a7.941,7.941,0,0,1-5.578-2.287l-.211-.207-1.1-8.556,8.275-1.524,3.408.493v.024l.081-.012.081.012v-.024l3.408-.493,8.275,1.524-1.1,8.556-.211.207A7.941,7.941,0,0,1,571.74,1197.747Z" fill="#733c30"/>
      <path id="Path_575" data-name="Path 575" d="M588.02,1203.372c5.952,4.989,13.343,15.376,13.078,21.877-19.513,12.5-21.86,19.91-21.86,19.91,0-5.847,8.7-9.9,8.7-30.052C588.047,1211.792,588.02,1203.372,588.02,1203.372Z" fill="#994427"/>
      <path id="Path_576" data-name="Path 576" d="M545.9,1203.372c-6.955,2.495-13.306,11.538-13.491,19.49,5.886,2.5,20.873,14.423,22.471,22.994.507-7.48-10.252-18.316-8.98-31.55A44.982,44.982,0,0,0,545.9,1203.372Z" fill="#994427"/>
      <path id="Path_577" data-name="Path 577" d="M549.907,1249.822a3.131,3.131,0,1,0-3.119,3.415A3.277,3.277,0,0,0,549.907,1249.822Z" fill="#994427"/>
      <rect id="Rectangle_29" data-name="Rectangle 29" width="7.276" height="1.559" transform="translate(583.161 1249.042)" fill="#994427"/>
    </g>
  </g>
</svg>
