<svg xmlns="http://www.w3.org/2000/svg" width="176.066" height="176.066" viewBox="0 0 176.066 176.066">
  <g id="Group_103" data-name="Group 103" transform="translate(-1524.124 -1314.912)">
    <circle id="Ellipse_31" data-name="Ellipse 31" cx="88.033" cy="88.033" r="88.033" transform="translate(1524.124 1314.912)" fill="#c2b59b"/>
    <g id="Group_102" data-name="Group 102">
      <g id="Group_100" data-name="Group 100">
        <rect id="Rectangle_17" data-name="Rectangle 17" width="42.035" height="30.92" transform="translate(1591.56 1393.735)" fill="#fb9b67"/>
        <path id="Path_332" data-name="Path 332" d="M1591.56,1423.854l42.035-14.659v-15.46H1591.56Z" fill="#f28c63"/>
        <path id="Path_333" data-name="Path 333" d="M1591.56,1403.446l15.406,15.035,15.537-5.418,11.092-10.7v-8.623H1591.56Z" fill="#e07f57"/>
      </g>
      <path id="Path_334" data-name="Path 334" d="M1612.533,1334.99c-14.193,0-26.321,11.505-26.321,25.7l2.806,31.176a15.423,15.423,0,0,0,6.154,12.327l8.108,7.738a12.4,12.4,0,0,0,7.451,2.488h3.6a12.4,12.4,0,0,0,7.451-2.488l8.108-7.738a15.423,15.423,0,0,0,6.154-12.327l2.807-31.176C1638.854,1346.495,1626.725,1334.99,1612.533,1334.99Z" fill="#fb9b67"/>
      <path id="Path_335" data-name="Path 335" d="M1590.368,1387.412l-.468-.1c-2.987-.662-5.366-3.636-5.844-7.3l-.907-6.961c-.166-1.273.706-2.317,1.743-2.087l.32.071a5.122,5.122,0,0,1,3.608,4.508Z" fill="#fb9b67"/>
      <path id="Path_336" data-name="Path 336" d="M1634.4,1387.456l.467-.105c2.985-.673,5.355-3.654,5.821-7.322l.885-6.964c.162-1.273-.713-2.315-1.75-2.082l-.319.072a5.122,5.122,0,0,0-3.594,4.52Z" fill="#fb9b67"/>
      <path id="Path_337" data-name="Path 337" d="M1588.54,1344.771c.049-.083.1-.166.147-.248,1.418-11.507,12.428-17.058,20.8-17.058,8.42,0,20.27,1.871,22.349,11.083,9.356,2.352,9.252,10.746,7.134,27.278,0,0-.008-.078-.024-.219-.943,8.408-2.276,17.834-2.276,17.834h0c-.378-29.855-5.262-32.429-7-32.129l-7.5,1.291a57.1,57.1,0,0,1-19.377,0l-7.5-1.291c-1.739-.3-6.188-.428-7,32.129,0,0-2.291-14.833-2.9-23.9C1584.629,1352.575,1584.751,1346.251,1588.54,1344.771Z" fill="#965947"/>
      <path id="Path_338" data-name="Path 338" d="M1586.791,1373.977s.866,10.139,1.8,22.165,12.261,21.03,23.634,21.03l.074-.011v.011c11.374,0,22.7-9,23.634-21.03s1.8-22.165,1.8-22.165l-1.417-1.5-1.458,11.193a6.926,6.926,0,0,1-2.2,4.214l-2.877,2.627a4.187,4.187,0,0,0-1.353,2.813l-.294,4.458a5.006,5.006,0,0,1-1.482,3.239l-1.538,1.516.56-6.631a4.61,4.61,0,0,0-2.644-4.566l-3.857-1.8h-13.837l-3.857,1.8a4.61,4.61,0,0,0-2.644,4.566l.56,6.631-1.538-1.516a5.011,5.011,0,0,1-1.483-3.239l-.294-4.458a4.181,4.181,0,0,0-1.352-2.813l-2.877-2.627a6.921,6.921,0,0,1-2.2-4.214l-1.458-11.193Zm15.021,30.929-.21-.208-1.1-8.556,8.274-1.524,3.409.493v.024l.08-.012.081.012v-.024l3.409-.493,8.274,1.524-1.1,8.556-.21.208a7.949,7.949,0,0,1-5.578,2.287h-.825v-1.455a1.771,1.771,0,0,0-1.771-1.771h-4.559a1.771,1.771,0,0,0-1.771,1.771v1.455h-.825A7.949,7.949,0,0,1,1601.812,1404.906Z" fill="#965947"/>
      <path id="Path_339" data-name="Path 339" d="M1562.157,1438.307c24.033-9.312,30.385-14.891,30.385-14.891h39.638s6.352,5.579,30.385,14.891c9.319,3.61,13.3,13.269,14.309,24.3a88.016,88.016,0,0,1-129.064.41C1548.758,1451.816,1552.721,1441.962,1562.157,1438.307Z" fill="#fb9b67"/>
      <path id="Path_340" data-name="Path 340" d="M1537.14,1440.572l42.488-12.153,10.74,4.582,11.041,57.324a88.1,88.1,0,0,1-68.111-48.21A20.151,20.151,0,0,1,1537.14,1440.572Z" fill="#231f20"/>
      <path id="Path_341" data-name="Path 341" d="M1634.594,1433l9.492-4.582,42.489,12.153a20.194,20.194,0,0,1,4.305,1.793,88.108,88.108,0,0,1-66.145,47.714Z" fill="#231f20"/>
      <path id="Path_342" data-name="Path 342" d="M1591.56,1414.417c0,8.356,16.359,20.38,16.359,20.38h9.318s16.359-12.647,16.359-20.38l4.077,11.127-11.886,64.382a88.757,88.757,0,0,1-25.336.276l-13.4-64.658Z" fill="#fff"/>
      <path id="Path_343" data-name="Path 343" d="M1609.058,1437.187l-9.47,7.952-9.127-10.759.511,2.729,8.617,9.331,6.429-3.757Z" fill="#d1d3d4"/>
      <path id="Path_344" data-name="Path 344" d="M1615.694,1437.187l9.47,7.952,9.127-10.759-.511,2.729-8.617,9.331-6.429-3.757Z" fill="#d1d3d4"/>
      <path id="Path_345" data-name="Path 345" d="M1592.86,1457.013c-5.821-.416-16.839-3.326-16.839-3.326-1.04-5.613.562-19.352,3.607-25.268,6.787,7.6,15.519,26.515,15.519,26.515l6.53,35.421a87.544,87.544,0,0,1-16.946-3.738c-3.158-8.828-5.627-15.958-6.943-19.565C1579.324,1465.963,1592.86,1457.013,1592.86,1457.013Z" fill="#141212"/>
      <path id="Path_346" data-name="Path 346" d="M1645.1,1428.419c3.045,5.916,4.024,19.966,2.984,25.58,0,0-11.018,2.6-16.839,3.014,0,0,12.6,8.638,14.137,9.727-1.023,4-2.66,11.005-4.9,19.576a87.446,87.446,0,0,1-15.276,3.7l7.044-39.765S1638.316,1436.016,1645.1,1428.419Z" fill="#141212"/>
      <g id="Group_101" data-name="Group 101">
        <path id="Path_347" data-name="Path 347" d="M1635.824,1420.5c1.849,5.046,9.269,7.921,9.269,7.921,2.651,6.765,2.132,17.264,1.508,23.916l-14.606,4.054,12.215,7.069c-1.375,3.764-3.288,12.546-5.959,23.586a87.557,87.557,0,0,1-13.875,3.085Z" fill="#363131"/>
        <path id="Path_348" data-name="Path 348" d="M1592.813,1455.35l-15.753-3.59c-.416-6.389.771-18.464,2.568-23.341,2.488-.964,7.625-3.38,9.467-7.921l12.918,69.9a87.681,87.681,0,0,1-15.1-3.093c-3.645-10.659-6.425-19.569-7.289-23.843C1582.05,1461.171,1592.813,1455.35,1592.813,1455.35Z" fill="#363131"/>
      </g>
      <path id="Path_349" data-name="Path 349" d="M1609.733,1448.066a12.167,12.167,0,0,1-4.417-5.032l-2.339-.779,6.081-5.068h6.636l6.081,5.068-2.339.779a12.167,12.167,0,0,1-4.417,5.032,112.936,112.936,0,0,1,2.871,14.894c.53,4.277,2.183,17.257,3.494,27.537a89.1,89.1,0,0,1-9.233.481c-2.9,0-5.775-.145-8.608-.419,1.108-9.284,2.732-22.868,3.319-27.6A112.9,112.9,0,0,1,1609.733,1448.066Z" fill="#231f20"/>
    </g>
  </g>
</svg>
