<svg xmlns="http://www.w3.org/2000/svg" width="176.066" height="176.067" viewBox="0 0 176.066 176.067">
  <g id="Group_208" data-name="Group 208" transform="translate(-1524.124 -894.482)">
    <circle id="Ellipse_59" data-name="Ellipse 59" cx="88.033" cy="88.033" r="88.033" transform="translate(1524.124 894.482)" fill="#9b8579"/>
    <g id="Group_207" data-name="Group 207">
      <path id="Path_690" data-name="Path 690" d="M1676.79,1042.262c-.746-12.351-4.644-23.352-14.443-27.149l-30.385-11.772h-39.638l-30.385,11.772c-9.8,3.8-13.7,14.8-14.444,27.149a88.017,88.017,0,0,0,129.3,0Z" fill="#fb9b67"/>
      <path id="Path_691" data-name="Path 691" d="M1682.633,1017.617l-48.393-16.009-10.4,29s-5.878-5.968-9.564-8.315c-.092-.5-.191-.772-.3-.772a2.508,2.508,0,0,0-.776.167,2.836,2.836,0,0,0-1.119-.329c-.125,0-.242.35-.351,1.014-4.092,2.258-11.179,8.235-11.179,8.235l-10.4-29-48.394,16.009a28.792,28.792,0,0,0-8.319,4.365,88.058,88.058,0,0,0,157.441-.058A28.8,28.8,0,0,0,1682.633,1017.617Z" fill="#f9d328"/>
      <g id="Group_206" data-name="Group 206">
        <rect id="Rectangle_32" data-name="Rectangle 32" width="42.035" height="30.92" transform="translate(1591.342 973.66)" fill="#fb9b67"/>
        <path id="Path_692" data-name="Path 692" d="M1591.342,1003.779l42.035-14.659V973.66h-42.035Z" fill="#f28c63"/>
        <path id="Path_693" data-name="Path 693" d="M1591.342,983.371l15.407,15.035,15.537-5.418,11.092-10.7V973.66h-42.035Z" fill="#e07f57"/>
      </g>
      <path id="Path_694" data-name="Path 694" d="M1612.315,914.915c-14.193,0-26.321,11.506-26.321,25.7l2.806,31.176a15.421,15.421,0,0,0,6.154,12.327l8.108,7.738a12.4,12.4,0,0,0,7.451,2.489h3.6a12.4,12.4,0,0,0,7.451-2.489l8.108-7.738a15.421,15.421,0,0,0,6.154-12.327l2.807-31.176C1638.636,926.421,1626.507,914.915,1612.315,914.915Z" fill="#fb9b67"/>
      <path id="Path_695" data-name="Path 695" d="M1590.15,967.337l-.467-.1c-2.987-.663-5.367-3.637-5.845-7.3l-.907-6.961c-.166-1.272.706-2.317,1.743-2.087l.32.071a5.122,5.122,0,0,1,3.608,4.508Z" fill="#fb9b67"/>
      <path id="Path_696" data-name="Path 696" d="M1634.182,967.381l.467-.1c2.985-.673,5.355-3.654,5.821-7.322l.886-6.964c.161-1.273-.714-2.315-1.75-2.082l-.32.072a5.123,5.123,0,0,0-3.594,4.52Z" fill="#fb9b67"/>
      <path id="Path_697" data-name="Path 697" d="M1612.26,1056.954a1.716,1.716,0,1,0-1.715,1.716A1.715,1.715,0,0,0,1612.26,1056.954Z" fill="#fbb040"/>
      <path id="Path_698" data-name="Path 698" d="M1612.26,1029.209a1.716,1.716,0,1,0-1.715,1.715A1.715,1.715,0,0,0,1612.26,1029.209Z" fill="#fbb040"/>
      <path id="Path_699" data-name="Path 699" d="M1658.368,1009.385l-4.88,50.864q3.225-1.719,6.287-3.69l4.357-45.267Z" fill="#965947"/>
      <path id="Path_700" data-name="Path 700" d="M1560.876,1011.292l4.4,45.753q3.057,1.927,6.279,3.6l-4.918-51.265Z" fill="#965947"/>
      <path id="Path_701" data-name="Path 701" d="M1618.551,1027.3l5.853,9.855,16.856-33.379-5.046-2.171-17.378,19.126-6.132-1.2v-.049l-.128.024-.122-.024v.046l-6.443,1.2-17.378-19.126-5.047,2.171,16.856,33.379,5.854-9.855a6.957,6.957,0,0,1,5.784-3.092h.374a7.432,7.432,0,0,1,1.457.149l.064,46.165q.468-.009.935-.024l-.063-45.893A7.134,7.134,0,0,1,1618.551,1027.3Z" fill="#fbb040"/>
      <path id="Path_702" data-name="Path 702" d="M1591.342,994.343l21.236,25,20.926-25,6.316,9-15.1,30.282-6.124-9.126a7.092,7.092,0,0,0-5.888-3.139h-.312a7.557,7.557,0,0,0-6.276,3.347l-5.985,8.918-15.1-30.282Z" fill="#f9d843"/>
      <path id="Path_703" data-name="Path 703" d="M1636.909,925.544c2.52-6.473-1.572-16.074-1.572-16.074s-16.913-1.091-28.213,0c-10.448,1.009-17.9,7.484-18.6,15.268a23.532,23.532,0,0,0-3.218,14.083c.444,5.283,1.648,13.958,2.345,19.256l1.56,1.017c-1.371-27.42,4.428-28.245,6.035-27.968l7.5,1.291a57.1,57.1,0,0,0,19.377,0l2.6-.447a36.2,36.2,0,0,0,5.2-.885c1.762-.168,7.267-.762,5.707,28.009l1.512-.307s2.109-14.851,2.424-19.966A25.193,25.193,0,0,0,1636.909,925.544Z" fill="#3d2d2c"/>
    </g>
  </g>
</svg>
