<svg xmlns="http://www.w3.org/2000/svg" width="176.066" height="176.066" viewBox="0 0 176.066 176.066">
  <g id="Group_95" data-name="Group 95" transform="translate(-1106.029 -1314.912)">
    <circle id="Ellipse_29" data-name="Ellipse 29" cx="88.033" cy="88.033" r="88.033" transform="translate(1106.029 1314.912)" fill="#c2b59b"/>
    <g id="Group_94" data-name="Group 94">
      <path id="Path_305" data-name="Path 305" d="M1147.938,1422.576c6.962-7.588,6.63-17.671,4.973-25.1s1.466-17.366,4.776-22.251c7.986-11.789,1.478-17.492,9.986-32.137,10.255-17.652,36.61-15.09,42.531-2.265,12.309-2.473,16.491,6.3,15.244,21-.75,8.834-.9,15.763,4.4,21.47s7.485,17.456,4.99,25.926-2.807,13.772,4.678,18.45,12.353,19.41,1.5,24.829c-9.193,4.591-37.194,3.081-45.546,2.512l-.026.2s-32.784-2.911-46.044-2.911C1136.14,1442.638,1140.977,1430.164,1147.938,1422.576Z" fill="#965947"/>
      <path id="Path_306" data-name="Path 306" d="M1150.437,1440.18l29.065-9.2h14.554v.153c.022-.1.033-.153.033-.153h14.555l29.065,9.2a11.6,11.6,0,0,1,7.976,12.765c-.9,6.026-2.133,14.382-3.505,23.752a88.058,88.058,0,0,1-96.221-.047c-1.37-9.351-2.6-17.689-3.5-23.705A11.6,11.6,0,0,1,1150.437,1440.18Z" fill="#fb9b67"/>
      <path id="Path_307" data-name="Path 307" d="M1126.5,1459.383l.178-2.749a15.087,15.087,0,0,1,10.882-13.615l41.745-12.037c0,15.334,3.55,39.249,7.172,59.663A87.865,87.865,0,0,1,1126.5,1459.383Z" fill="#231f20"/>
      <path id="Path_308" data-name="Path 308" d="M1208.912,1430.982l42.838,12.318a15.087,15.087,0,0,1,10.9,13.791l.049,1.027a87.883,87.883,0,0,1-60.946,32.526C1205.372,1470.271,1208.912,1446.4,1208.912,1430.982Z" fill="#231f20"/>
      <path id="Path_309" data-name="Path 309" d="M1172.42,1392.145l-.456-.143c-1.695.083-3.794-3.975-3.957-7.669l-.931-7.066c-.056-1.283.281-2.3,1.294-1.984l.313.1a5.121,5.121,0,0,1,3.209,4.8Z" fill="#f28c63"/>
      <path id="Path_310" data-name="Path 310" d="M1215.523,1392.168l.455-.147c1.7.067,3.758-4.009,3.888-7.7l.867-7.074c.045-1.283-.3-2.3-1.312-1.972l-.312.1a5.121,5.121,0,0,0-3.166,4.828Z" fill="#f28c63"/>
      <g id="Group_92" data-name="Group 92">
        <path id="Path_311" data-name="Path 311" d="M1209,1396.966h-29.7v34.064l29.7-.048Z" fill="#e07f57"/>
        <path id="Path_312" data-name="Path 312" d="M1179.3,1410.526l13.754,11.007-13.754,9.448Z" fill="#f28c63"/>
        <path id="Path_313" data-name="Path 313" d="M1209,1410.526v20.456s-17.521,1.923-29.7,0Z" fill="#fb9b67"/>
      </g>
      <path id="Path_314" data-name="Path 314" d="M1194.132,1337.291c-13.653,0-24.722,10.313-24.722,23.034a21.607,21.607,0,0,0,.263,3.345l2.349,32.48a15.882,15.882,0,0,0,6.033,11.344L1188.9,1416a8.231,8.231,0,0,0,5.165,1.8h.139a8.225,8.225,0,0,0,5.164-1.8l10.791-8.469a16.03,16.03,0,0,0,6.091-11.452l2.344-32.413a21.622,21.622,0,0,0,.263-3.345h0C1218.855,1347.6,1207.786,1337.291,1194.132,1337.291Z" fill="#fb9b67"/>
      <path id="Path_315" data-name="Path 315" d="M1185.325,1471.018a22.154,22.154,0,0,0,17.565,0c.548,1.759.149,9.8-.8,19.6-2.631.236-5.293.364-7.986.364a88.751,88.751,0,0,1-11.386-.732C1182.2,1480.036,1183.009,1471.9,1185.325,1471.018Z" fill="#f1f2f2"/>
      <g id="Group_93" data-name="Group 93">
        <path id="Path_316" data-name="Path 316" d="M1208.912,1430.982l9.724,2.843,7.265,18.908-18.91,3.813,23.068,2.174-14.684,29.665a87.892,87.892,0,0,1-15.458,2.4Z" fill="#141212"/>
        <path id="Path_317" data-name="Path 317" d="M1181.932,1456.683l-19.283-3.529,7.328-19.4,9.326-2.774,9,59.8a87.907,87.907,0,0,1-15.172-2.326l-14.511-29.41Z" fill="#141212"/>
      </g>
      <path id="Path_318" data-name="Path 318" d="M1180.754,1454.927l-16.586-3.411,5.2-17.11a2.6,2.6,0,0,1,1.587-1.681c2.04-.757,5.817-2.457,7.64-4.526a.287.287,0,0,1,.5.152l9.28,62.436a87.984,87.984,0,0,1-13.086-1.833l-15.8-33.95Z" fill="#363131"/>
      <path id="Path_319" data-name="Path 319" d="M1209.707,1428.017a33.378,33.378,0,0,0,8,4.833,1.748,1.748,0,0,1,1.009,1.11l5.33,17.556-16.586,3.411,21.275.077-15.8,33.949a88.074,88.074,0,0,1-13.053,1.832l9.356-62.59A.288.288,0,0,1,1209.707,1428.017Z" fill="#363131"/>
      <path id="Path_320" data-name="Path 320" d="M1217.683,1376.121s-1.582-14.546-11.694-22.779c-19.554,6.784-33.37,10.3-35.648,22.92-8.2-24.548,2.96-39.516,23.868-39.516S1223.52,1354.832,1217.683,1376.121Z" fill="#965947"/>
    </g>
  </g>
</svg>
