<svg xmlns="http://www.w3.org/2000/svg" width="176.066" height="176.067" viewBox="0 0 176.066 176.067">
  <g id="Group_188" data-name="Group 188" transform="translate(-1315.077 -894.482)">
    <circle id="Ellipse_52" data-name="Ellipse 52" cx="88.033" cy="88.033" r="88.033" transform="translate(1315.077 894.482)" fill="#c2b59b"/>
    <g id="Group_187" data-name="Group 187">
      <path id="Path_616" data-name="Path 616" d="M1467.7,1042.305c-.834-12.11-4.76-22.822-14.4-26.558l-30.385-11.772h-39.638l-30.385,11.772c-9.642,3.736-13.569,14.448-14.4,26.558a88.015,88.015,0,0,0,129.214,0Z" fill="#b56d57"/>
      <path id="Path_617" data-name="Path 617" d="M1473.586,1018.251l-48.393-16.009-10.4,29s-7.728,24.969-11.644,32.3c-3.916-7.331-11.644-32.3-11.644-32.3l-10.4-29-48.393,16.009a28.8,28.8,0,0,0-8.09,4.194,88.063,88.063,0,0,0,156.979-.055A28.8,28.8,0,0,0,1473.586,1018.251Z" fill="#b02331"/>
      <path id="Path_618" data-name="Path 618" d="M1374.926,1003.78c-1.078,15.717,0,41.288,0,41.288s4.214-7.037,10.608-7.172,14.349,18.3,14.349,18.3l-16.3-43.554Z" fill="#7d1922"/>
      <path id="Path_619" data-name="Path 619" d="M1431.37,1003.78c1.078,15.717,0,41.288,0,41.288s-4.214-7.037-10.608-7.172-14.349,18.3-14.349,18.3l16.3-43.554Z" fill="#7d1922"/>
      <g id="Group_186" data-name="Group 186">
        <path id="Path_620" data-name="Path 620" d="M1381.041,968.193l-.467-.1c-2.987-.662-5.367-3.636-5.845-7.3l-.907-6.961c-.166-1.273.706-2.317,1.743-2.087l.32.071a5.122,5.122,0,0,1,3.608,4.508Z" fill="#9e5c4f"/>
        <path id="Path_621" data-name="Path 621" d="M1425.073,968.237l.467-.1c2.985-.673,5.355-3.654,5.821-7.322l.886-6.964c.162-1.273-.714-2.315-1.75-2.082l-.32.072a5.121,5.121,0,0,0-3.593,4.52Z" fill="#9e5c4f"/>
        <g id="Group_184" data-name="Group 184">
          <rect id="Rectangle_30" data-name="Rectangle 30" width="42.035" height="30.92" transform="translate(1382.234 974.516)" fill="#b56d57"/>
          <path id="Path_622" data-name="Path 622" d="M1382.234,1004.635l42.035-14.659v-15.46h-42.035Z" fill="#9e5c4f"/>
          <path id="Path_623" data-name="Path 623" d="M1382.234,984.227l15.407,15.035,15.537-5.418,11.092-10.7v-8.623h-42.035Z" fill="#854e48"/>
        </g>
        <path id="Path_624" data-name="Path 624" d="M1403.206,915.771c-14.192,0-26.321,11.505-26.321,25.7l2.806,31.176a15.425,15.425,0,0,0,6.154,12.327l8.109,7.738a12.4,12.4,0,0,0,7.45,2.489h3.6a12.4,12.4,0,0,0,7.451-2.489l8.108-7.738a15.422,15.422,0,0,0,6.154-12.327l2.807-31.176C1429.527,927.276,1417.4,915.771,1403.206,915.771Z" fill="#b56d57"/>
        <g id="Group_185" data-name="Group 185">
          <path id="Path_625" data-name="Path 625" d="M1415.48,973.522l-8.431-3.1h-7.6l-8.43,3.1a3.1,3.1,0,0,0-1.846,3.025l.531,8.916,2.345,1.4-.531-9.907a1.2,1.2,0,0,1,.986-1.249l6.633-1.842a2.854,2.854,0,0,1,1.09.013l3,.625v-.83l.048.83,3-.625a2.848,2.848,0,0,1,1.089-.013l6.633,1.842a1.2,1.2,0,0,1,.986,1.249l-.531,9.907,2.345-1.4.532-8.916A3.1,3.1,0,0,0,1415.48,973.522Z" fill="#362724"/>
          <path id="Path_626" data-name="Path 626" d="M1426.461,959.329l-1.024,11.525-7.46,7.067a12.242,12.242,0,0,0-3.719,7.3,3.464,3.464,0,0,1-1.2,2.194l-1.614,1.389a4.353,4.353,0,0,1-2.81,1.028h-1.742a1.559,1.559,0,0,1-1.559-1.559v-2.963h-4.166v2.963a1.559,1.559,0,0,1-1.559,1.559h-1.741a4.356,4.356,0,0,1-2.811-1.028l-1.614-1.389a3.459,3.459,0,0,1-1.2-2.194,12.248,12.248,0,0,0-3.72-7.3l-7.46-7.067-1.024-11.525-1.56-1.017,1.173,17.307a11.523,11.523,0,0,0,3.661,7.669l10.541,9.775a7.264,7.264,0,0,0,4.938,1.937h8.914a7.262,7.262,0,0,0,4.938-1.937l10.542-9.775a11.522,11.522,0,0,0,3.66-7.669l1.173-17.307Z" fill="#362724"/>
        </g>
      </g>
      <path id="Path_627" data-name="Path 627" d="M1381.984,993.5l8.424,34.479,9.475,28.213-10.863-25.28a2.311,2.311,0,0,0-3.8-.328l-9.243,11.263-1.054-38.066S1378.837,1000.545,1381.984,993.5Z" fill="#c74450"/>
      <path id="Path_628" data-name="Path 628" d="M1424.312,993.5l-8.424,34.479-9.475,28.213,10.863-25.28a2.311,2.311,0,0,1,3.8-.328l9.243,11.263,1.054-38.066S1427.459,1000.545,1424.312,993.5Z" fill="#c74450"/>
    </g>
    <path id="Path_629" data-name="Path 629" d="M1403.3,913.92v0h-.1v0c-15.615,0-27.294,10.015-26.891,24.426.175,6.278,1.712,16.942,2.146,20.392l1.584.588-.728-12.976,3.742-4.989s-1.576-6.223,0-8.628c1.97-3.007,5.861-4.152,20.147-1.164v.021l.049-.011.05.011v-.021c14.285-2.988,18.176-1.843,20.146,1.164,1.576,2.405,0,8.628,0,8.628l3.742,4.989-.728,12.976,1.494-.588c.479-3.495,2.041-13.4,2.237-20.392C1430.594,923.935,1419.083,913.92,1403.3,913.92Z" fill="#362724"/>
  </g>
</svg>
