<?xml version="1.0" encoding="UTF-8" standalone="no"?>
<!-- Generator: Adobe Illustrator 9.0, SVG Export Plug-In  -->
<svg
   xmlns:dc="http://purl.org/dc/elements/1.1/"
   xmlns:cc="http://web.resource.org/cc/"
   xmlns:rdf="http://www.w3.org/1999/02/22-rdf-syntax-ns#"
   xmlns:svg="http://www.w3.org/2000/svg"
   xmlns="http://www.w3.org/2000/svg"
   xmlns:sodipodi="http://sodipodi.sourceforge.net/DTD/sodipodi-0.dtd"
   xmlns:inkscape="http://www.inkscape.org/namespaces/inkscape"
   width="200"
   height="200"
   viewBox="0 0 150 150"
   xml:space="preserve"
   id="svg2"
   sodipodi:version="0.32"
   inkscape:version="0.43+devel"
   sodipodi:docname="firewall.svg"
   sodipodi:docbase="/home/jimmac/gfx/ximian/art/presentations/clipart/out"
   version="1.0"><metadata
   id="metadata77"><rdf:RDF><cc:Work
       rdf:about=""><dc:format>image/svg+xml</dc:format><dc:type
         rdf:resource="http://purl.org/dc/dcmitype/StillImage" /><dc:title>Firewall</dc:title><dc:creator><cc:Agent><dc:title>Jakub Steiner</dc:title></cc:Agent></dc:creator><dc:source>http://jimmac.musichall.cz/i.php?i=computer-clipart</dc:source><cc:license
         rdf:resource="http://creativecommons.org/licenses/by-sa/2.5/" /></cc:Work><cc:License
       rdf:about="http://creativecommons.org/licenses/by-sa/2.5/"><cc:permits
         rdf:resource="http://web.resource.org/cc/Reproduction" /><cc:permits
         rdf:resource="http://web.resource.org/cc/Distribution" /><cc:requires
         rdf:resource="http://web.resource.org/cc/Notice" /><cc:requires
         rdf:resource="http://web.resource.org/cc/Attribution" /><cc:permits
         rdf:resource="http://web.resource.org/cc/DerivativeWorks" /><cc:requires
         rdf:resource="http://web.resource.org/cc/ShareAlike" /></cc:License></rdf:RDF></metadata><defs
   id="defs75" /><sodipodi:namedview
   inkscape:cy="93.734838"
   inkscape:cx="-14.900148"
   inkscape:zoom="1"
   inkscape:window-height="959"
   inkscape:window-width="879"
   inkscape:pageshadow="2"
   inkscape:pageopacity="0.0"
   borderopacity="0.26666667"
   bordercolor="#666"
   pagecolor="#ffffff"
   id="base"
   width="200px"
   height="200px"
   inkscape:showpageshadow="false"
   inkscape:window-x="29"
   inkscape:window-y="47"
   inkscape:current-layer="svg2" />
	
	<g
   id="artwork2"
   style="fill:#d4acac;fill-rule:nonzero;stroke:black;stroke-miterlimit:4"
   transform="translate(1.5,0)">
		<g
   style="stroke:none"
   id="g6">
			<path
   style="opacity:0.31999996;fill:black"
   d="M 93.4,124.5 L 139.5,106.9 L 47.5,77.7 L 93.4,124.5"
   id="path8" />
			<path
   style="fill:black;stroke:black;stroke-width:4.8354001;stroke-linecap:round;stroke-linejoin:round"
   d="M 105.4,43.5 L 26,24.6 L 13.9,28.7 L 15.3,90.6 L 90.6,122.5 L 105.8,112.7 L 105.3,43.5 L 105.4,43.5 z "
   id="path10" />
			<linearGradient
   id="aigrd1"
   gradientUnits="userSpaceOnUse"
   x1="22.5835"
   y1="89.759804"
   x2="96.725899"
   y2="54.300301">
				<stop
   offset="0"
   style="stop-color:#D46262"
   id="stop13" />
				<stop
   offset="1"
   style="stop-color:#D90F0F"
   id="stop15" />
			</linearGradient>
			<path
   style="fill:url(#aigrd1)"
   d="M 15.3,90.6 L 90.6,122.5 L 90.6,48.6 L 13.9,28.7 L 15.3,90.6 z "
   id="path17" />
			<linearGradient
   id="aigrd2"
   gradientUnits="userSpaceOnUse"
   x1="86.088898"
   y1="51.478001"
   x2="112.9376"
   y2="122.695">
				<stop
   offset="0"
   style="stop-color:#B22F2F"
   id="stop20" />
				<stop
   offset="1"
   style="stop-color:#8C2525"
   id="stop22" />
			</linearGradient>
			<path
   style="fill:url(#aigrd2)"
   d="M 90.6,122.5 L 90.6,48.6 L 105.4,43.5 L 105.9,112.7 L 90.7,122.5 L 90.6,122.5 z "
   id="path24" />
			<linearGradient
   id="aigrd3"
   gradientUnits="userSpaceOnUse"
   x1="59.121601"
   y1="29.3755"
   x2="68.8451"
   y2="159.573">
				<stop
   offset="0"
   style="stop-color:#EB8888"
   id="stop27" />
				<stop
   offset="1"
   style="stop-color:#8C2525"
   id="stop29" />
			</linearGradient>
			<path
   style="fill:url(#aigrd3)"
   d="M 13.9,28.7 L 90.6,48.6 L 105.4,43.5 L 26,24.6 L 13.9,28.7 L 13.9,28.7 z "
   id="path31" />
			<path
   d="M 90.6,122.5 L 92,50.8 L 105.4,43.5 L 89.7,48.6 L 13.9,28.7 L 89,51 L 90.6,122.4 L 90.6,122.5 z "
   id="path33" />
			<path
   d="M 14.2,49.1 L 89.5,73.9 L 89.6,76.4 L 14.2,50.3 L 14.2,49.2 L 14.2,49.1 z "
   id="path35" />
			<path
   d="M 90,98.6 L 14.9,70.2 L 14.9,71.8 L 90.1,101.7 L 90,98.6 z "
   id="path37" />
			<path
   d="M 49.1,62.5 L 49.1,83.2 L 51.5,84.1 L 51.5,63.3 L 49.1,62.5 z "
   id="path39" />
			<path
   d="M 29.7,54.2 L 29.7,33.4 L 31.2,33.9 L 31.2,54.8 L 29.7,54.3 L 29.7,54.2 z "
   id="path41" />
			<path
   d="M 67.6,44.7 L 67.6,66.7 L 69.4,67.3 L 69.4,45.3 L 67.6,44.8 L 67.6,44.7 z "
   id="path43" />
			<path
   d="M 67.6,92.8 L 67.6,112.8 L 68.5,113.2 L 68.5,93.2 L 67.6,92.9 L 67.6,92.8 z "
   id="path45" />
			<path
   d="M 29.7,77.7 L 29.7,96.7 L 30.8,97.2 L 30.8,78.2 L 29.7,77.8 L 29.7,77.7 z "
   id="path47" />
			<linearGradient
   id="aigrd4"
   gradientUnits="userSpaceOnUse"
   x1="51.774899"
   y1="89.632797"
   x2="53.561798"
   y2="81.754097">
				<stop
   offset="0"
   style="stop-color:#FFFFFF"
   id="stop50" />
				<stop
   offset="1"
   style="stop-color:#D4ACAC"
   id="stop52" />
			</linearGradient>
			<path
   style="fill:url(#aigrd4)"
   d="M 14.9,71.8 L 90.1,101.7 L 90.1,100 L 14.9,71 L 14.9,71.7 L 14.9,71.8 z "
   id="path54" />
			<linearGradient
   id="aigrd5"
   gradientUnits="userSpaceOnUse"
   x1="51.3647"
   y1="65.387703"
   x2="52.639099"
   y2="59.768902">
				<stop
   offset="0"
   style="stop-color:#FFFFFF"
   id="stop57" />
				<stop
   offset="1"
   style="stop-color:#D4ACAC"
   id="stop59" />
			</linearGradient>
			<path
   style="fill:url(#aigrd5)"
   d="M 89.5,76.5 L 89.5,75.3 L 14.2,49.7 L 14.2,50.3 L 89.5,76.5 z "
   id="path61" />
			<path
   style="opacity:0.41999996"
   d="M 91.4,76.2 L 105.5,69.9 L 105.5,67.4 L 91.5,73.7 L 91.5,76.2 L 91.4,76.2 z "
   id="path63" />
			<path
   style="opacity:0.41999996"
   d="M 91,98.7 L 90.9,101.7 L 105.6,94.7 L 105.6,91.7 L 90.9,98.7 L 91,98.7 z "
   id="path65" />
			<path
   style="fill:white"
   d="M 31.7,33.3 L 44.4,29 L 29.6,32.8 L 31.7,33.3 z "
   id="path67" />
			<path
   style="fill:white"
   d="M 70.5,43.3 L 68.3,42.8 L 80.7,37.6 L 70.6,43.3 L 70.5,43.3 z "
   id="path69" />
		</g>
	</g>
	
</svg>