<svg 
 xmlns="http://www.w3.org/2000/svg"
 xmlns:xlink="http://www.w3.org/1999/xlink"
 width="108.5px" height="123.5px">
<path fill-rule="evenodd"  fill="rgb(0, 0, 0)"
 d="M34.687,0.007 C54.129,-0.288 65.321,9.780 71.000,23.329 C73.014,28.132 75.128,36.698 73.313,43.648 C70.754,53.450 66.124,61.024 61.749,69.048 C57.741,76.399 54.699,84.193 50.415,91.215 C49.156,93.280 48.527,95.531 47.408,97.680 C45.148,102.021 42.743,106.484 40.469,110.842 C39.647,112.418 37.874,117.322 36.537,118.000 C36.090,116.147 34.808,114.645 33.993,113.151 C31.698,108.943 29.668,104.564 27.517,100.451 C23.478,92.726 19.693,84.949 15.721,77.361 C14.042,74.153 12.973,70.752 11.095,67.663 C8.400,63.229 5.302,57.647 3.231,52.885 C-2.015,40.819 -0.703,25.776 6.006,16.171 C10.581,9.621 17.263,4.568 25.435,1.624 C27.594,1.162 29.753,0.700 31.912,0.238 C32.870,0.025 34.031,0.414 34.687,0.007 ZM34.687,14.785 C33.198,15.698 29.898,15.672 28.211,16.402 C22.389,18.919 18.100,23.605 15.721,29.563 C14.785,31.908 14.147,35.899 14.796,38.799 C15.217,40.683 14.942,42.002 15.490,43.648 C17.759,50.477 22.421,54.797 28.905,57.503 C31.132,58.432 35.222,59.931 38.850,59.119 C47.991,57.074 54.027,53.217 57.354,45.496 C63.257,31.798 53.496,18.987 43.476,15.709 C40.897,14.865 38.004,14.762 34.687,14.785 Z"/>
<path fill-rule="evenodd"  stroke="rgb(0, 0, 0)" stroke-width="9px" stroke-linecap="butt" stroke-linejoin="miter" fill="rgb(255, 255, 255)"
 d="M37.004,17.589 C48.232,17.589 57.334,26.691 57.334,37.919 C57.334,49.147 48.232,58.249 37.004,58.249 C25.776,58.249 16.674,49.147 16.674,37.919 C16.674,26.691 25.776,17.589 37.004,17.589 Z"/>
<path fill-rule="evenodd"  fill="rgb(255, 255, 255)"
 d="M75.125,64.250 C89.968,64.250 102.000,76.282 102.000,91.125 C102.000,105.968 89.968,118.000 75.125,118.000 C60.282,118.000 48.250,105.968 48.250,91.125 C48.250,76.282 60.282,64.250 75.125,64.250 Z"/>
<path fill-rule="evenodd"  fill="rgb(0, 0, 0)"
 d="M75.730,118.755 C60.554,118.755 48.207,106.408 48.207,91.232 C48.207,76.056 60.554,63.709 75.730,63.709 C90.908,63.709 103.257,76.056 103.257,91.232 C103.257,106.408 90.908,118.755 75.730,118.755 ZM75.730,66.234 C61.946,66.234 50.732,77.448 50.732,91.232 C50.732,105.016 61.946,116.230 75.730,116.230 C89.516,116.230 100.732,105.016 100.732,91.232 C100.732,77.448 89.516,66.234 75.730,66.234 ZM79.094,106.324 L72.367,106.324 L72.367,94.595 L60.638,94.595 L60.638,87.869 L72.367,87.869 L72.367,76.140 L79.094,76.140 L79.094,87.869 L90.820,87.869 L90.820,94.595 L79.094,94.595 L79.094,106.324 Z"/>
</svg>

