<svg 
 xmlns="http://www.w3.org/2000/svg"
 xmlns:xlink="http://www.w3.org/1999/xlink"
 width="31px" height="30px">
<path fill-rule="evenodd"  fill="rgb(255, 255, 255)"
 d="M4.750,4.875 L10.125,2.188 L13.750,2.688 L16.875,3.813 L21.750,4.750 L24.250,4.125 L30.125,15.750 L26.938,17.000 L22.500,15.812 L17.313,14.313 L11.437,15.812 L9.937,16.562 L4.750,4.875 Z"/>
<path fill-rule="evenodd"  fill="rgb(0, 0, 0)"
 d="M10.260,1.380 C12.574,1.333 14.263,1.699 15.814,2.389 C16.399,2.649 16.995,3.083 17.610,3.342 C18.326,3.645 19.142,3.713 19.966,3.903 C20.954,4.131 22.615,3.749 23.276,3.510 C23.615,3.388 24.168,3.068 24.566,3.342 C25.337,3.573 25.764,5.203 26.137,5.921 C27.442,8.430 28.585,11.091 29.896,13.600 C30.301,14.375 31.350,16.043 30.289,16.739 C29.868,17.015 29.302,17.029 28.774,17.187 C26.829,17.770 24.261,17.438 22.659,16.739 C21.939,16.425 21.257,15.929 20.527,15.618 C19.808,15.312 18.980,15.199 18.171,15.001 C16.171,14.514 13.430,15.508 12.336,16.178 C11.906,16.442 10.915,16.954 10.877,17.244 C11.003,17.456 11.651,18.900 11.999,19.598 C13.007,21.620 13.922,23.722 14.973,25.764 C15.257,26.317 15.511,26.918 15.814,27.501 C16.090,28.032 16.459,28.462 16.487,29.239 C16.338,29.389 16.188,29.538 16.039,29.687 C15.024,29.658 13.412,29.083 13.412,29.083 C13.412,29.083 2.818,4.997 2.484,4.476 C2.045,4.962 0.750,3.783 0.853,2.413 C0.994,0.544 2.901,0.193 4.123,1.346 C4.237,1.529 4.681,2.255 4.403,3.006 C4.621,3.392 4.343,3.659 4.425,3.678 C4.793,3.347 6.765,2.194 8.072,1.773 C8.614,1.661 9.157,1.548 9.699,1.436 C9.902,1.390 10.125,1.467 10.260,1.380 ZM12.841,2.894 C12.897,3.127 13.040,3.270 13.121,3.454 C13.490,4.293 13.852,5.069 14.243,5.865 C15.921,5.847 17.305,6.581 18.451,7.154 C18.451,7.116 18.451,7.079 18.451,7.042 C18.048,6.590 17.633,4.824 17.161,4.631 C16.912,4.442 16.549,4.387 16.263,4.239 C15.206,3.690 14.202,3.200 12.841,2.894 ZM8.184,3.174 C7.671,3.285 7.086,3.598 6.613,3.847 C6.021,4.158 5.523,4.611 4.986,4.968 C5.529,6.089 6.071,7.147 6.613,8.268 C7.620,7.434 9.057,6.711 9.930,6.376 C9.736,6.153 9.616,5.745 9.475,5.472 C9.088,4.729 8.724,3.944 8.352,3.174 C8.296,3.174 8.240,3.174 8.184,3.174 ZM23.949,4.687 C23.287,5.177 22.075,5.008 21.200,5.304 C21.599,6.363 22.665,8.456 22.665,8.456 C22.665,8.456 23.463,8.331 23.893,8.331 C24.353,8.058 25.120,8.253 25.520,7.939 C25.565,7.881 25.540,7.923 25.576,7.826 C25.104,7.201 24.816,6.277 24.454,5.584 C24.305,5.298 24.236,4.831 23.949,4.687 ZM10.036,6.481 C10.653,7.789 11.270,9.097 11.887,10.405 C13.120,9.966 14.853,9.766 16.039,9.844 C16.039,9.826 16.039,9.807 16.039,9.788 C16.631,10.440 15.154,8.008 14.187,5.921 C13.580,5.921 11.989,5.734 10.036,6.481 ZM18.732,7.434 C19.269,8.648 19.723,9.557 20.134,10.349 C20.270,10.611 20.353,11.134 20.583,11.302 C21.307,11.829 23.241,12.328 24.454,12.367 C24.454,12.348 24.454,12.329 24.454,12.311 C24.303,11.947 24.119,11.629 23.949,11.246 C23.684,10.645 23.365,9.985 23.058,9.396 C22.847,8.991 22.648,8.443 22.648,8.443 C22.648,8.443 20.724,8.340 18.732,7.434 ZM16.207,9.957 C16.961,12.011 18.004,13.587 18.002,13.600 C19.090,13.534 20.927,14.100 22.154,14.889 C22.154,14.852 22.029,14.815 22.029,14.777 C21.870,14.535 21.732,14.171 21.580,13.824 C21.419,13.456 21.249,13.071 21.088,12.703 C20.887,12.244 20.563,11.313 20.563,11.313 C20.563,11.313 18.675,9.875 16.207,9.957 ZM11.775,10.517 C11.101,10.768 9.334,11.669 8.577,12.423 C9.309,14.097 10.407,15.887 10.316,15.842 C11.281,15.076 12.519,14.536 13.570,14.105 C13.140,13.226 12.710,12.348 12.280,11.470 C12.135,11.193 12.050,10.659 11.775,10.517 ZM29.279,15.674 C29.246,15.414 28.075,13.035 27.596,12.031 C26.766,12.329 25.717,12.465 24.622,12.479 C24.622,12.516 24.622,12.554 24.622,12.591 C24.805,12.796 24.826,13.052 24.959,13.320 C25.624,14.652 26.538,16.285 26.306,16.122 C27.683,16.256 29.019,15.709 29.279,15.674 Z"/>
</svg> 

