<svg 
 xmlns="http://www.w3.org/2000/svg"
 xmlns:xlink="http://www.w3.org/1999/xlink"
 width="163px" height="127px">
<path fill-rule="evenodd"  fill="rgb(0, 0, 0)"
 d="M150.299,46.567 C104.437,46.567 58.563,46.567 12.701,46.567 C12.349,73.375 11.996,100.192 11.643,127.000 C7.762,126.647 3.881,126.294 -0.000,125.942 C0.353,83.965 0.706,41.976 1.058,0.000 C55.034,0.353 109.025,0.706 163.000,1.058 C162.647,43.035 162.294,85.024 161.942,127.000 C158.061,126.647 154.179,126.294 150.299,125.942 C150.299,99.486 150.299,73.022 150.299,46.567 ZM4.234,4.233 C4.234,43.740 4.234,83.260 4.234,122.767 C5.645,122.767 7.056,122.767 8.468,122.767 C8.468,83.260 8.468,43.740 8.468,4.233 C7.056,4.233 5.645,4.233 4.234,4.233 ZM25.403,4.233 C25.403,8.466 25.403,12.700 25.403,16.933 C21.169,16.933 16.935,16.933 12.701,16.933 C12.701,21.519 12.701,26.106 12.701,30.692 C16.935,30.692 21.169,30.692 25.403,30.692 C25.403,34.572 25.403,38.453 25.403,42.333 C29.989,42.333 34.576,42.333 39.162,42.333 C39.162,38.453 39.162,34.572 39.162,30.692 C43.748,30.692 48.336,30.692 52.922,30.692 C52.922,26.106 52.922,21.519 52.922,16.933 C48.336,16.933 43.748,16.933 39.162,16.933 C39.162,12.700 39.162,8.466 39.162,4.233 C34.576,4.233 29.989,4.233 25.403,4.233 ZM53.981,4.233 C53.981,8.466 53.981,12.700 53.981,16.933 C58.567,16.933 63.154,16.933 67.740,16.933 C67.740,21.519 67.740,26.106 67.740,30.692 C72.326,30.692 76.914,30.692 81.500,30.692 C81.500,26.106 81.500,21.519 81.500,16.933 C76.914,16.933 72.326,16.933 67.740,16.933 C67.740,12.700 67.740,8.466 67.740,4.233 C63.154,4.233 58.567,4.233 53.981,4.233 ZM81.500,4.233 C81.853,8.466 82.206,12.700 82.558,16.933 C87.145,16.581 91.732,16.228 96.318,15.875 C96.318,11.995 96.318,8.114 96.318,4.233 C91.379,4.233 86.439,4.233 81.500,4.233 ZM110.078,4.233 C110.078,8.466 110.078,12.700 110.078,16.933 C105.492,16.933 100.904,16.933 96.318,16.933 C96.318,21.519 96.318,26.106 96.318,30.692 C100.904,30.692 105.492,30.692 110.078,30.692 C110.078,26.106 110.078,21.519 110.078,16.933 C114.664,16.933 119.252,16.933 123.838,16.933 C123.838,21.519 123.838,26.106 123.838,30.692 C119.252,31.044 114.664,31.397 110.078,31.750 C110.078,35.277 110.078,38.806 110.078,42.333 C114.664,42.333 119.252,42.333 123.838,42.333 C123.838,38.453 123.838,34.572 123.838,30.692 C128.777,30.692 133.717,30.692 138.656,30.692 C138.656,34.572 138.656,38.453 138.656,42.333 C142.536,42.333 146.418,42.333 150.299,42.333 C150.299,38.453 150.299,34.572 150.299,30.692 C146.418,30.692 142.536,30.692 138.656,30.692 C138.656,26.106 138.656,21.519 138.656,16.933 C142.536,16.933 146.418,16.933 150.299,16.933 C150.299,12.700 150.299,8.466 150.299,4.233 C146.418,4.233 142.536,4.233 138.656,4.233 C138.656,8.466 138.656,12.700 138.656,16.933 C133.717,16.933 128.777,16.933 123.838,16.933 C123.838,12.700 123.838,8.466 123.838,4.233 C119.252,4.233 114.664,4.233 110.078,4.233 ZM154.532,4.233 C154.532,43.740 154.532,83.260 154.532,122.767 C155.944,122.767 157.355,122.767 158.766,122.767 C158.766,83.260 158.766,43.740 158.766,4.233 C157.355,4.233 155.944,4.233 154.532,4.233 ZM25.403,16.933 C29.989,16.933 34.576,16.933 39.162,16.933 C39.162,21.519 39.162,26.106 39.162,30.692 C34.576,30.692 29.989,30.692 25.403,30.692 C25.403,26.106 25.403,21.519 25.403,16.933 ZM53.981,30.692 C53.981,34.572 53.981,38.453 53.981,42.333 C58.567,42.333 63.154,42.333 67.740,42.333 C67.387,38.453 67.035,34.572 66.682,30.692 C62.448,30.692 58.214,30.692 53.981,30.692 ZM81.500,42.333 C86.439,42.333 91.379,42.333 96.318,42.333 C95.965,38.453 95.613,34.572 95.260,30.692 C90.674,31.044 86.086,31.397 81.500,31.750 C81.500,35.277 81.500,38.806 81.500,42.333 Z"/>
</svg>

