<svg height="800px" width="800px" version="1.1" id="Layer_1" viewBox="0 0 512 512" xmlns="http://www.w3.org/2000/svg">
  <defs></defs>
  <path style="stroke-dashoffset: 3px; stroke: rgb(0, 0, 0); stroke-width: 5px; fill: rgb(124, 81, 56);" d="M42.667,503.467V76.8c0-4.713,3.821-8.533,8.533-8.533H25.6c-4.713,0-8.533,3.821-8.533,8.533
		v426.667c0,4.713,3.821,8.533,8.533,8.533h25.6C46.487,512,42.667,508.179,42.667,503.467z"></path>
  <path style="stroke-dashoffset: 3px; stroke: rgb(0, 0, 0); stroke-width: 5.235; fill: rgb(124, 81, 56); transform-box: fill-box; transform-origin: 50% 50%;" d="M 400.41 68.267 C 395.475 68.267 457.881 68.267 457.881 68.267 L 391.475 503.467 C 391.475 508.18 395.475 512 400.41 512 L 373.606 512 C 368.671 512 364.671 508.179 364.671 503.467 L 364.671 76.8 C 364.671 72.087 368.671 68.267 373.606 68.267 L 400.41 68.267 Z" transform="matrix(-1, 0, 0, -1, -57.470985, 0.000002)"></path>
  <path style="fill: rgb(235, 235, 236); stroke: rgb(0, 0, 0); stroke-width: 7.464;" d="M 375.467 76.8 C 375.467 72.087 371.902 68.267 367.505 68.267 L 49.02 68.267 C 44.622 68.267 41.058 72.088 41.058 76.8 L 41.058 503.467 C 41.058 508.18 44.622 512 49.02 512 L 311.77 512 L 375.467 443.733 L 375.467 76.8 Z"></path>
  <g>
    <path style="fill: rgb(215, 216, 217); stroke: rgb(0, 0, 0); stroke-width: 4px;" d="M375.467,443.733h-59.733c-4.713,0-8.533,3.821-8.533,8.533V512L375.467,443.733z"></path>
  </g>
  <g>
    <path style="fill:#AFB0B4;" d="M 298.667 181.333 L 196.267 181.333 C 191.554 181.333 187.734 177.512 187.734 172.8 C 187.734 168.088 191.555 164.267 196.267 164.267 L 298.667 164.267 C 303.38 164.267 307.2 168.088 307.2 172.8 C 307.2 177.512 303.379 181.333 298.667 181.333 Z"></path>
    <path style="fill:#AFB0B4;" d="M 298.667 215.467 L 196.267 215.467 C 191.554 215.467 187.734 211.646 187.734 206.934 C 187.734 202.222 191.555 198.401 196.267 198.401 L 298.667 198.401 C 303.38 198.401 307.2 202.222 307.2 206.934 C 307.2 211.646 303.379 215.467 298.667 215.467 Z"></path>
    <path style="fill:#AFB0B4;" d="M 298.667 249.6 L 196.267 249.6 C 191.554 249.6 187.734 245.779 187.734 241.067 C 187.734 236.355 191.555 232.534 196.267 232.534 L 298.667 232.534 C 303.38 232.534 307.2 236.355 307.2 241.067 C 307.2 245.779 303.379 249.6 298.667 249.6 Z"></path>
  </g>
  <path style="fill: rgb(6, 151, 50);" d="M 145.067 198.4 L 110.934 198.4 C 106.229 198.4 102.401 194.572 102.401 189.867 L 102.401 172.8 C 102.401 168.095 106.229 164.267 110.934 164.267 L 162.134 164.267 C 166.847 164.267 170.667 160.446 170.667 155.734 C 170.667 151.021 166.846 147.201 162.134 147.201 L 136.534 147.201 L 136.534 138.668 C 136.534 133.955 132.713 130.135 128.001 130.135 C 123.288 130.135 119.468 133.956 119.468 138.668 L 119.468 147.201 L 110.935 147.201 C 96.82 147.201 85.335 158.685 85.335 172.801 L 85.335 189.868 C 85.335 203.984 96.82 215.468 110.935 215.468 L 145.068 215.468 C 149.773 215.468 153.601 219.296 153.601 224.001 L 153.601 241.068 C 153.601 245.773 149.773 249.601 145.068 249.601 L 93.868 249.601 C 89.155 249.601 85.335 253.422 85.335 258.134 C 85.335 262.846 89.156 266.667 93.868 266.667 L 119.468 266.667 L 119.468 275.2 C 119.468 279.913 123.289 283.733 128.001 283.733 C 132.714 283.733 136.534 279.912 136.534 275.2 L 136.534 266.667 L 145.067 266.667 C 159.182 266.667 170.667 255.183 170.667 241.067 L 170.667 224 C 170.667 209.884 159.182 198.4 145.067 198.4 Z"></path>
  <g></g>
  <path style="fill: rgb(200, 200, 200);" d="M273.067,34.133h-22.828C240.442,13.489,219.463,0,196.267,0s-44.175,13.489-53.972,34.133h-22.828
	c-4.713,0-8.533,3.821-8.533,8.533V102.4c0,4.713,3.821,8.533,8.533,8.533h153.6c4.713,0,8.533-3.821,8.533-8.533V42.667
	C281.6,37.954,277.779,34.133,273.067,34.133z M196.267,34.133c9.41,0,17.067,7.657,17.067,17.067s-7.657,17.067-17.067,17.067
	S179.2,60.61,179.2,51.2S186.857,34.133,196.267,34.133z"></path>
  <path style="fill: rgb(124, 124, 124);" d="M 121.267 100.867 L 122 34.133 L 119.467 34.133 C 114.754 34.133 110.934 37.954 110.934 42.666 L 110.934 102.4 C 110.934 107.113 114.755 110.933 119.467 110.933 L 273.067 110.933 C 277.78 110.933 281.6 107.112 281.6 102.4 L 281.6 93.867 L 281.6 43.845 C 281.6 38.119 281.6 33.413 274.06 34.007 L 271.578 33.817 L 271.283 101.529 L 121.267 100.867 Z"></path>
  <path style="" d="M426.667,136.533c-4.713,0-8.533-3.821-8.533-8.533V76.8c0-4.713,3.821-8.533,8.533-8.533
	s8.533,3.821,8.533,8.533V128C435.2,132.713,431.379,136.533,426.667,136.533z"></path>
  <path style="fill:#FDD042;" d="M459.584,166.276l-25.6-42.667c-3.257-5.424-11.379-5.424-14.636,0l-25.6,42.667
	c-3.353,5.59,0.817,12.924,7.318,12.924h51.2C458.767,179.2,462.938,171.868,459.584,166.276z"></path>
  <path style="fill:#F2C127;" d="M410.786,166.276l24.399-40.666l-1.201-2.001c-3.255-5.424-11.379-5.424-14.636,0l-25.6,42.667
	c-3.353,5.59,0.817,12.924,7.318,12.924h17.037C411.602,179.2,407.434,171.867,410.786,166.276z"></path>
  <path style="fill: rgb(215, 216, 217); stroke: rgb(0, 0, 0); stroke-width: 4.857;" d="M 451.555 162.133 L 401.821 162.133 C 397.244 162.133 393.533 165.954 393.533 170.666 L 393.533 486.4 C 393.533 500.516 404.688 512 418.399 512 L 434.978 512 C 448.688 512 459.843 500.516 459.843 486.4 L 459.843 170.667 C 459.843 165.954 456.132 162.133 451.555 162.133 Z"></path>
  <path style="fill: rgb(76, 78, 85); stroke: rgb(0, 0, 0); stroke-width: 4px;" d="M469.333,477.867H460.8c-4.713,0-8.533-3.821-8.533-8.533c0-4.713,3.821-8.533,8.533-8.533h8.533
	c4.705,0,8.533-3.828,8.533-8.533v-102.4c0-4.713,3.821-8.533,8.533-8.533s8.533,3.821,8.533,8.533v102.4
	C494.933,466.382,483.449,477.867,469.333,477.867z"></path>
  <path style="fill: rgb(229, 86, 60); stroke-width: 0.863;" d="M 398.533 366.578 L 398.533 486.4 C 398.533 500.516 408.448 512 420.634 512 L 435.369 512 C 447.555 512 457.47 500.516 457.47 486.4 L 457.47 366.578 L 398.533 366.578 Z"></path>
  <path style="fill: rgb(195, 196, 198); stroke-width: 0.969;" d="M 412.6 487.194 L 412.6 181.261 C 412.6 176.694 416.421 172.993 421.133 172.993 L 404.066 172.993 C 399.353 172.993 395.533 176.695 395.533 181.261 L 395.533 487.194 C 395.533 500.872 407.018 512 421.133 512 L 438.2 512 C 424.085 512 412.6 500.872 412.6 487.194 Z"></path>
  <path style="fill:#CF442B;" d="M 412.6 486.4 L 412.6 366.578 L 395.533 366.578 L 395.533 486.4 C 395.533 500.516 407.018 512 421.133 512 L 438.2 512 C 424.085 512 412.6 500.516 412.6 486.4 Z"></path>
  <g>
    <path style="fill:#74757B;" d="M426.667,332.8c-4.713,0-8.533-3.821-8.533-8.533V281.6c0-4.713,3.821-8.533,8.533-8.533
		s8.533,3.821,8.533,8.533v42.667C435.2,328.979,431.379,332.8,426.667,332.8z"></path>
    <path style="fill:#74757B;" d="M426.667,213.333c-3.529,0-6.788-2.267-8.004-5.58c-1.211-3.3-0.236-7.165,2.461-9.444
		c2.789-2.358,6.879-2.692,10-0.783c3.011,1.843,4.606,5.474,3.907,8.938C434.235,210.403,430.699,213.333,426.667,213.333z"></path>
    <path style="fill:#74757B;" d="M426.667,238.933c-3.53,0-6.788-2.266-8.004-5.58c-1.211-3.3-0.236-7.165,2.461-9.444
		c2.789-2.358,6.879-2.692,10-0.783c3.011,1.843,4.606,5.474,3.907,8.938C434.235,236.004,430.699,238.933,426.667,238.933z"></path>
    <path style="fill:#74757B;" d="M426.667,264.533c-3.53,0-6.788-2.266-8.004-5.58c-1.212-3.301-0.236-7.162,2.461-9.439
		c2.79-2.357,6.875-2.703,10-0.787c3.011,1.845,4.606,5.473,3.907,8.938C434.235,261.604,430.699,264.533,426.667,264.533z"></path>
  </g>
  <g transform="matrix(1.857139, 0, 0, 0.857139, -263.31321, 173.442037)">
    <path style="fill:#AFB0B4;" d="M 298.667 181.333 L 196.267 181.333 C 191.554 181.333 187.734 177.512 187.734 172.8 C 187.734 168.088 191.555 164.267 196.267 164.267 L 298.667 164.267 C 303.38 164.267 307.2 168.088 307.2 172.8 C 307.2 177.512 303.379 181.333 298.667 181.333 Z"></path>
    <path style="fill:#AFB0B4;" d="M 298.667 215.467 L 196.267 215.467 C 191.554 215.467 187.734 211.646 187.734 206.934 C 187.734 202.222 191.555 198.401 196.267 198.401 L 298.667 198.401 C 303.38 198.401 307.2 202.222 307.2 206.934 C 307.2 211.646 303.379 215.467 298.667 215.467 Z"></path>
    <path style="fill:#AFB0B4;" d="M 298.667 249.6 L 196.267 249.6 C 191.554 249.6 187.734 245.779 187.734 241.067 C 187.734 236.355 191.555 232.534 196.267 232.534 L 298.667 232.534 C 303.38 232.534 307.2 236.355 307.2 241.067 C 307.2 245.779 303.379 249.6 298.667 249.6 Z"></path>
  </g>
  <g transform="matrix(0.550474, 0, 0, 0.857139, 112.494419, 263.925087)">
    <path style="fill: rgb(175, 176, 180); stroke-width: 0.862;" d="M 339.661 178.688 L 251.383 178.688 C 247.32 178.688 244.027 174.867 244.027 170.155 C 244.027 165.443 247.321 161.622 251.383 161.622 L 339.661 161.622 C 343.724 161.622 347.017 165.443 347.017 170.155 C 347.017 174.867 343.723 178.688 339.661 178.688 Z"></path>
    <path style="fill: rgb(175, 176, 180); stroke-width: 0.862;" d="M 339.661 212.822 L 251.383 212.822 C 247.32 212.822 244.027 209.001 244.027 204.289 C 244.027 199.577 247.321 195.756 251.383 195.756 L 339.661 195.756 C 343.724 195.756 347.017 199.577 347.017 204.289 C 347.017 209.001 343.723 212.822 339.661 212.822 Z"></path>
  </g>
</svg>
