<svg 
 xmlns="http://www.w3.org/2000/svg"
 xmlns:xlink="http://www.w3.org/1999/xlink"
 width="20.28px" height="32.28px">
<path fill-rule="evenodd"  stroke="rgb(0, 0, 0)" stroke-width="2.56px" stroke-linecap="butt" stroke-linejoin="miter" fill="rgb(255, 255, 255)"
 d="M9.480,3.480 C12.838,3.480 15.560,6.202 15.560,9.560 C15.560,12.918 12.838,15.640 9.480,15.640 C6.122,15.640 3.400,12.918 3.400,9.560 C3.400,6.202 6.122,3.480 9.480,3.480 Z"/>
<path fill-rule="evenodd"  fill="rgb(0, 0, 0)"
 d="M8.815,0.282 C13.733,0.207 16.564,2.760 18.001,6.195 C18.511,7.413 19.045,9.585 18.586,11.347 C17.939,13.833 16.767,15.753 15.661,17.788 C14.647,19.652 13.877,21.628 12.794,23.408 C12.475,23.932 12.316,24.503 12.033,25.048 C11.461,26.148 10.853,27.280 10.278,28.385 C10.070,28.785 9.621,30.028 9.283,30.200 C9.170,29.730 8.846,29.349 8.639,28.970 C8.059,27.904 7.545,26.793 7.001,25.750 C5.979,23.792 5.022,21.820 4.017,19.896 C3.592,19.082 3.322,18.220 2.847,17.436 C2.165,16.312 1.381,14.897 0.857,13.689 C-0.470,10.630 -0.138,6.816 1.559,4.380 C2.717,2.720 4.407,1.438 6.474,0.692 C7.020,0.575 7.567,0.457 8.113,0.340 C8.355,0.286 8.649,0.385 8.815,0.282 ZM8.815,4.029 C8.438,4.260 7.603,4.254 7.177,4.439 C5.704,5.077 4.619,6.265 4.017,7.776 C3.780,8.371 3.619,9.383 3.783,10.118 C3.890,10.596 3.820,10.930 3.958,11.347 C4.533,13.079 5.712,14.174 7.352,14.860 C7.916,15.096 8.950,15.476 9.868,15.270 C12.180,14.752 13.707,13.774 14.549,11.816 C16.042,8.343 13.573,5.094 11.038,4.263 C10.386,4.049 9.654,4.023 8.815,4.029 Z"/>
</svg>

