<svg 
 xmlns="http://www.w3.org/2000/svg"
 xmlns:xlink="http://www.w3.org/1999/xlink"
 width="251px" height="220px">
<path fill-rule="evenodd"  fill="rgb(255, 255, 255)"
 d="M0.000,0.000 L251.000,0.000 L251.000,96.000 L0.000,96.000 L0.000,0.000 Z"/>
<path fill-rule="evenodd"  fill="rgb(255, 255, 255)"
 d="M116.000,154.000 L133.000,154.000 L133.000,220.000 L116.000,220.000 L116.000,154.000 Z"/>
<path fill-rule="evenodd"  fill="rgb(0, 0, 0)"
 d="M11.000,7.000 C18.861,7.000 26.725,7.000 34.586,7.000 C34.586,33.928 34.586,60.865 34.586,87.793 C26.725,87.793 18.861,87.793 11.000,87.793 C11.000,60.865 11.000,33.928 11.000,7.000 ZM215.414,7.000 C223.275,7.000 231.139,7.000 239.000,7.000 C239.000,33.928 239.000,60.865 239.000,87.793 C231.139,87.793 223.275,87.793 215.414,87.793 C215.414,60.865 215.414,33.928 215.414,7.000 ZM42.448,14.345 C97.477,14.345 152.523,14.345 207.552,14.345 C207.552,36.377 207.552,58.416 207.552,80.448 C152.523,80.448 97.477,80.448 42.448,80.448 C42.448,58.416 42.448,36.377 42.448,14.345 ZM50.310,58.414 C50.310,60.862 50.310,63.311 50.310,65.759 C55.551,65.606 60.794,65.453 66.034,65.300 C73.970,62.577 76.747,50.456 68.983,45.560 C65.543,44.489 62.103,43.418 58.664,42.347 C58.101,39.728 58.468,38.696 59.647,36.838 C64.396,36.685 69.147,36.532 73.897,36.379 C73.897,33.931 73.897,31.483 73.897,29.034 C68.656,29.187 63.413,29.341 58.172,29.494 C50.237,32.216 47.460,44.337 55.224,49.233 C58.663,50.304 62.104,51.375 65.543,52.446 C66.106,55.065 65.739,56.097 64.560,57.955 C59.811,58.108 55.060,58.261 50.310,58.414 ZM81.759,29.034 C81.759,31.483 81.759,33.931 81.759,36.379 C84.379,36.379 87.000,36.379 89.621,36.379 C89.621,46.171 89.621,55.966 89.621,65.759 C92.241,65.759 94.862,65.759 97.483,65.759 C97.483,55.966 97.483,46.171 97.483,36.379 C100.103,36.379 102.724,36.379 105.345,36.379 C105.345,33.931 105.345,31.483 105.345,29.034 C97.484,29.034 89.620,29.034 81.759,29.034 ZM113.207,65.759 C115.827,65.759 118.449,65.759 121.069,65.759 C121.069,63.311 121.069,60.862 121.069,58.414 C123.689,58.414 126.311,58.414 128.931,58.414 C128.931,60.862 128.931,63.311 128.931,65.759 C131.551,65.759 134.173,65.759 136.793,65.759 C137.247,51.844 140.836,25.574 123.034,29.034 C109.930,31.582 112.734,51.000 113.207,65.759 ZM144.655,65.759 C147.276,65.759 149.897,65.759 152.517,65.759 C152.517,62.087 152.517,58.413 152.517,54.741 C154.319,54.894 156.121,55.047 157.922,55.200 C158.578,55.506 159.233,55.813 159.888,56.119 C160.052,59.332 160.216,62.546 160.379,65.759 C163.000,65.759 165.621,65.759 168.241,65.759 C168.161,59.960 165.216,50.722 165.784,49.692 C170.625,37.223 164.164,25.932 146.621,29.494 C146.129,30.106 145.638,30.718 145.147,31.330 C144.983,42.805 144.819,54.283 144.655,65.759 ZM176.103,29.034 C176.103,31.483 176.103,33.931 176.103,36.379 C178.724,36.379 181.345,36.379 183.966,36.379 C183.966,46.171 183.966,55.966 183.966,65.759 C186.586,65.759 189.207,65.759 191.828,65.759 C191.828,55.966 191.828,46.171 191.828,36.379 C194.448,36.379 197.069,36.379 199.690,36.379 C199.690,33.931 199.690,31.483 199.690,29.034 C191.828,29.034 183.965,29.034 176.103,29.034 ZM128.931,51.069 C126.311,51.069 123.689,51.069 121.069,51.069 C120.448,43.457 120.103,33.060 128.440,37.756 C128.603,42.194 128.767,46.632 128.931,51.069 ZM152.517,36.379 C153.991,36.532 155.466,36.685 156.940,36.838 C157.922,37.909 158.905,38.981 159.888,40.052 C159.888,41.429 159.888,42.806 159.888,44.183 C158.741,45.101 157.595,46.019 156.448,46.938 C155.138,47.090 153.827,47.244 152.517,47.397 C152.517,43.725 152.517,40.051 152.517,36.379 ZM18.862,95.138 C21.482,95.138 24.104,95.138 26.724,95.138 C26.724,136.754 26.724,178.383 26.724,220.000 C24.104,220.000 21.482,220.000 18.862,220.000 C18.862,178.383 18.862,136.754 18.862,95.138 ZM223.276,95.138 C225.896,95.138 228.518,95.138 231.138,95.138 C231.138,136.754 231.138,178.383 231.138,220.000 C228.518,220.000 225.896,220.000 223.276,220.000 C223.276,178.383 223.276,136.754 223.276,95.138 ZM121.069,153.897 C121.069,156.345 121.069,158.793 121.069,161.241 C123.689,161.241 126.311,161.241 128.931,161.241 C128.931,158.793 128.931,156.345 128.931,153.897 C137.767,153.750 153.805,151.940 159.888,155.274 C177.084,176.847 194.286,198.427 211.483,220.000 C183.968,220.000 156.446,220.000 128.931,220.000 C128.931,217.552 128.931,215.103 128.931,212.655 C126.311,212.655 123.689,212.655 121.069,212.655 C121.069,215.103 121.069,217.552 121.069,220.000 C93.554,220.000 66.032,220.000 38.517,220.000 C39.009,219.541 39.500,219.082 39.991,218.623 C57.188,197.050 74.390,175.470 91.586,153.897 C101.413,153.897 111.242,153.897 121.069,153.897 ZM121.069,168.586 C121.069,171.034 121.069,173.483 121.069,175.931 C123.689,175.931 126.311,175.931 128.931,175.931 C128.931,173.483 128.931,171.034 128.931,168.586 C126.311,168.586 123.689,168.586 121.069,168.586 ZM121.069,183.276 C121.069,185.724 121.069,188.173 121.069,190.621 C123.689,190.621 126.311,190.621 128.931,190.621 C128.931,188.173 128.931,185.724 128.931,183.276 C126.311,183.276 123.689,183.276 121.069,183.276 ZM121.069,197.966 C121.069,200.414 121.069,202.862 121.069,205.310 C123.689,205.310 126.311,205.310 128.931,205.310 C128.931,202.862 128.931,200.414 128.931,197.966 C126.311,197.966 123.689,197.966 121.069,197.966 Z"/>
</svg>

