<svg 
 xmlns="http://www.w3.org/2000/svg"
 xmlns:xlink="http://www.w3.org/1999/xlink"
 width="183px" height="183px">
<path fill-rule="evenodd"  fill="rgb(0, 0, 0)"
 d="M0.000,0.000 C6.310,0.000 12.621,0.000 18.931,0.000 C18.931,23.136 18.931,46.278 18.931,69.414 C12.621,69.414 6.310,69.414 0.000,69.414 C0.000,46.278 0.000,23.136 0.000,0.000 ZM164.069,0.000 C170.379,0.000 176.690,0.000 183.000,0.000 C183.000,23.136 183.000,46.278 183.000,69.414 C176.690,69.414 170.379,69.414 164.069,69.414 C164.069,46.278 164.069,23.136 164.069,0.000 ZM25.241,6.310 C69.409,6.310 113.591,6.310 157.759,6.310 C157.759,25.239 157.759,44.174 157.759,63.103 C113.591,63.103 69.409,63.103 25.241,63.103 C25.241,44.174 25.241,25.239 25.241,6.310 ZM31.552,44.172 C31.552,46.276 31.552,48.380 31.552,50.483 C35.758,50.351 39.966,50.220 44.172,50.088 C50.542,47.749 52.771,37.336 46.539,33.129 C43.778,32.209 41.017,31.289 38.256,30.369 C37.805,28.118 38.100,27.232 39.045,25.636 C42.857,25.504 46.671,25.373 50.483,25.241 C50.483,23.138 50.483,21.034 50.483,18.931 C46.276,19.062 42.069,19.194 37.862,19.325 C31.492,21.665 29.264,32.078 35.496,36.284 C38.256,37.205 41.018,38.125 43.778,39.045 C44.230,41.296 43.935,42.182 42.989,43.778 C39.177,43.909 35.364,44.041 31.552,44.172 ZM56.793,18.931 C56.793,21.034 56.793,23.138 56.793,25.241 C58.896,25.241 61.000,25.241 63.103,25.241 C63.103,33.654 63.103,42.070 63.103,50.483 C65.207,50.483 67.311,50.483 69.414,50.483 C69.414,42.070 69.414,33.654 69.414,25.241 C71.517,25.241 73.621,25.241 75.724,25.241 C75.724,23.138 75.724,21.034 75.724,18.931 C69.414,18.931 63.103,18.931 56.793,18.931 ZM82.034,50.483 C84.138,50.483 86.242,50.483 88.345,50.483 C88.345,48.380 88.345,46.276 88.345,44.172 C90.448,44.172 92.552,44.172 94.655,44.172 C94.655,46.276 94.655,48.380 94.655,50.483 C96.758,50.483 98.862,50.483 100.966,50.483 C101.330,38.528 104.211,15.958 89.922,18.931 C79.404,21.120 81.655,37.803 82.034,50.483 ZM107.276,50.483 C109.379,50.483 111.483,50.483 113.586,50.483 C113.586,47.328 113.586,44.172 113.586,41.017 C115.032,41.149 116.479,41.280 117.925,41.412 C118.450,41.675 118.976,41.938 119.502,42.200 C119.634,44.961 119.765,47.722 119.897,50.483 C122.000,50.483 124.104,50.483 126.207,50.483 C126.142,45.500 123.779,37.564 124.235,36.679 C128.120,25.966 122.935,16.265 108.853,19.325 C108.459,19.851 108.065,20.377 107.670,20.903 C107.539,30.762 107.407,40.624 107.276,50.483 ZM132.517,18.931 C132.517,21.034 132.517,23.138 132.517,25.241 C134.620,25.241 136.724,25.241 138.828,25.241 C138.828,33.654 138.828,42.070 138.828,50.483 C140.931,50.483 143.035,50.483 145.138,50.483 C145.138,42.070 145.138,33.654 145.138,25.241 C147.241,25.241 149.345,25.241 151.448,25.241 C151.448,23.138 151.448,21.034 151.448,18.931 C145.139,18.931 138.827,18.931 132.517,18.931 ZM94.655,37.862 C92.552,37.862 90.448,37.862 88.345,37.862 C87.846,31.322 87.569,22.390 94.261,26.425 C94.392,30.237 94.524,34.050 94.655,37.862 ZM113.586,25.241 C114.769,25.373 115.953,25.504 117.136,25.636 C117.924,26.556 118.713,27.476 119.502,28.397 C119.502,29.580 119.502,30.763 119.502,31.946 C118.582,32.735 117.662,33.524 116.741,34.313 C115.690,34.444 114.638,34.575 113.586,34.707 C113.586,31.552 113.586,28.396 113.586,25.241 ZM6.310,75.724 C8.414,75.724 10.517,75.724 12.621,75.724 C12.621,111.479 12.621,147.245 12.621,183.000 C10.517,183.000 8.414,183.000 6.310,183.000 C6.310,147.245 6.310,111.479 6.310,75.724 ZM170.379,75.724 C172.483,75.724 174.586,75.724 176.690,75.724 C176.690,111.479 176.690,147.245 176.690,183.000 C174.586,183.000 172.483,183.000 170.379,183.000 C170.379,147.245 170.379,111.479 170.379,75.724 ZM88.345,126.207 C88.345,128.310 88.345,130.414 88.345,132.517 C90.448,132.517 92.552,132.517 94.655,132.517 C94.655,130.414 94.655,128.310 94.655,126.207 C101.747,126.081 114.620,124.526 119.502,127.390 C133.305,145.925 147.111,164.465 160.914,183.000 C138.830,183.000 116.739,183.000 94.655,183.000 C94.655,180.897 94.655,178.793 94.655,176.690 C92.552,176.690 90.448,176.690 88.345,176.690 C88.345,178.793 88.345,180.897 88.345,183.000 C66.261,183.000 44.170,183.000 22.086,183.000 C22.481,182.606 22.875,182.211 23.269,181.817 C37.072,163.282 50.879,144.742 64.681,126.207 C72.568,126.207 80.458,126.207 88.345,126.207 ZM88.345,138.828 C88.345,140.931 88.345,143.035 88.345,145.138 C90.448,145.138 92.552,145.138 94.655,145.138 C94.655,143.035 94.655,140.931 94.655,138.828 C92.552,138.828 90.448,138.828 88.345,138.828 ZM88.345,151.448 C88.345,153.552 88.345,155.655 88.345,157.759 C90.448,157.759 92.552,157.759 94.655,157.759 C94.655,155.655 94.655,153.552 94.655,151.448 C92.552,151.448 90.448,151.448 88.345,151.448 ZM88.345,164.069 C88.345,166.172 88.345,168.276 88.345,170.379 C90.448,170.379 92.552,170.379 94.655,170.379 C94.655,168.276 94.655,166.172 94.655,164.069 C92.552,164.069 90.448,164.069 88.345,164.069 Z"/>
</svg>
