<svg 
 xmlns="http://www.w3.org/2000/svg"
 xmlns:xlink="http://www.w3.org/1999/xlink"
 width="236px" height="222px">
<path fill-rule="evenodd"  fill="rgb(0, 0, 0)"
 d="M103.402,75.179 C97.549,73.701 90.596,79.520 88.804,83.139 C88.697,87.661 89.618,125.626 88.804,127.363 C89.840,128.618 91.237,127.363 92.454,127.363 C93.719,116.675 93.356,98.446 93.670,83.139 C100.189,76.432 111.076,76.530 114.351,83.139 C118.092,87.364 115.567,109.687 115.567,116.749 C115.567,150.435 118.318,168.663 94.887,185.737 C90.674,188.806 88.649,192.681 81.505,193.697 C72.621,182.866 57.917,174.641 47.443,164.510 C44.886,162.037 41.877,161.789 40.144,158.319 C60.805,147.727 56.934,123.742 60.825,102.598 C68.125,80.060 75.219,58.869 83.938,38.032 C88.784,26.450 89.810,1.658 107.052,0.000 C108.244,0.705 110.389,1.279 111.918,1.769 C112.956,3.060 114.121,4.305 115.567,5.307 C111.512,28.595 107.457,51.891 103.402,75.179 ZM148.412,127.363 C148.645,110.882 149.291,91.221 144.763,78.717 C140.645,77.269 137.158,75.706 132.598,74.295 C132.712,49.843 122.166,29.298 121.649,4.422 C127.136,1.489 131.147,-3.808 139.897,4.422 C147.575,16.018 152.349,36.134 156.928,49.530 C162.274,65.171 170.843,81.471 173.959,98.175 C179.031,114.277 178.999,127.312 181.258,139.745 C182.798,148.224 188.189,152.507 197.072,159.203 C187.063,166.153 162.989,190.870 152.062,193.697 C145.404,186.485 133.505,182.236 127.732,174.239 C117.927,160.658 120.433,134.625 120.433,114.980 C120.433,108.169 118.067,88.223 121.649,84.024 C123.746,79.068 128.113,78.412 137.464,78.717 C139.491,80.486 141.519,82.255 143.546,84.024 C143.546,98.174 143.546,112.328 143.546,126.478 C143.952,126.773 144.357,127.068 144.763,127.363 C145.979,127.363 147.196,127.363 148.412,127.363 ZM25.546,158.319 C36.607,158.932 38.768,163.203 43.794,168.048 C53.742,177.637 83.687,191.787 83.938,206.080 C76.136,211.323 66.923,216.389 59.608,222.000 C57.175,222.000 54.742,222.000 52.309,222.000 C38.958,211.667 25.236,201.583 13.381,190.159 C8.382,185.341 1.107,184.012 -0.000,176.008 C8.031,169.250 16.830,164.485 25.546,158.319 ZM205.588,158.319 C219.310,158.994 228.074,168.801 236.000,174.239 C235.840,185.615 225.602,187.326 218.969,193.697 C208.205,204.036 195.854,212.747 183.691,222.000 C181.258,222.000 178.824,222.000 176.392,222.000 C168.907,216.207 160.028,210.632 152.062,205.195 C152.062,203.721 152.062,202.247 152.062,200.773 C171.020,187.532 186.824,171.747 205.588,158.319 Z"/>
</svg>
