<svg viewBox="0 0 168 67.466" xmlns="http://www.w3.org/2000/svg" xmlns:xlink="http://www.w3.org/1999/xlink" xmlns:bx="https://boxy-svg.com">
  <defs>
    <linearGradient id="gradient-1" bx:pinned="true">
      <stop offset="0" style="stop-color: rgb(255, 255, 255);"></stop>
      <stop offset="1" style="stop-color: rgb(187, 187, 187);"></stop>
    </linearGradient>
    <radialGradient gradientUnits="userSpaceOnUse" cx="49.199" cy="46.849" r="2.174" id="gradient-1-0" xlink:href="#gradient-1"></radialGradient>
    <marker id="marker-0" viewBox="0 0 4.348 4.348" overflow="visible" orient="auto" refX="2.17" refY="2.17" bx:pinned="true">
      <circle cx="49.808" cy="47.516" r="2.174" style="fill: url(#gradient-1-0); fill-rule: nonzero; stroke: rgb(79, 79, 79); stroke-miterlimit: 4.13; stroke-dasharray: 0.25, 2.6; stroke-linejoin: round; stroke-linecap: round;" transform="matrix(1, 0, 0, 1, -47.63399887084961, -45.342002868652344)"></circle>
    </marker>
    <radialGradient gradientUnits="userSpaceOnUse" cx="49.199" cy="46.849" r="2.174" id="gradient-1-1" gradientTransform="matrix(1, 0, 0, 1, -0.088041, -0.227141)" xlink:href="#gradient-1"></radialGradient>
    <radialGradient gradientUnits="userSpaceOnUse" cx="49.199" cy="46.849" r="2.174" id="gradient-1-2" gradientTransform="matrix(1, 0, 0, 1, -0.088041, -0.227141)" xlink:href="#gradient-1"></radialGradient>
    <linearGradient id="gradient-1-3" gradientUnits="userSpaceOnUse" x1="79.793" y1="-0.244" x2="79.793" y2="53.845" spreadMethod="pad" gradientTransform="matrix(0.997977, 0.063568, 0, 0.547709, 5.145387, 28.00632)" xlink:href="#gradient-1"></linearGradient>
  </defs>
  <g transform="matrix(1.089447, 0, 0, 1.089447, -0.499282, -0.076654)">
    <title>Tire</title>
    <circle cx="49.722" cy="47.725" r="10.601" style="stroke-width: 0.875;"></circle>
    <circle cx="49.643" cy="47.353" r="6.492" style="fill: rgb(200, 200, 200);"></circle>
    <circle cx="49.71" cy="47.44" r="4.906" style="stroke-dasharray: 3; stroke-width: 2.03; fill: rgb(126, 126, 126); stroke: rgb(0, 0, 0);"></circle>
    <circle cx="49.72" cy="47.289" r="2.174" style="fill-rule: nonzero; stroke: rgb(79, 79, 79); stroke-miterlimit: 4.13; stroke-dasharray: 0.25, 2.6; stroke-linejoin: round; stroke-linecap: round; fill: url(#gradient-1-1);"></circle>
  </g>
  <g transform="matrix(1, 0, 0, 1, 97.38444, 4.244001)">
    <title>Tire</title>
    <circle cx="49.722" cy="47.725" r="10.601" style="stroke-width: 0.875;"></circle>
    <circle cx="49.643" cy="47.353" r="6.492" style="fill: rgb(200, 200, 200);"></circle>
    <circle cx="49.71" cy="47.44" r="4.906" style="stroke-dasharray: 3; stroke-width: 2.03; fill: rgb(126, 126, 126); stroke: rgb(0, 0, 0);"></circle>
    <circle cx="49.72" cy="47.289" r="2.174" style="fill-rule: nonzero; stroke: rgb(79, 79, 79); stroke-miterlimit: 4.13; stroke-dasharray: 0.25, 2.6; stroke-linejoin: round; stroke-linecap: round; fill: url(#gradient-1-2);"></circle>
  </g>
  <path style="stroke: rgb(0, 0, 0); fill: url(#gradient-1-3);" d="M 6.221 4 L 107.886 4.244 C 114.241 4.457 126.921 5.477 126.921 5.477 C 126.921 5.477 130.68 5.512 131.732 8.893 L 131.621 15.981 L 127.736 15.885 L 127.64 17.323 L 127.928 33.006 L 129.127 34.013 L 142.22 33.917 L 142.22 31.807 C 142.437 31.265 155.559 33.914 160.709 36.651 L 161.284 46.675 L 163.586 47.73 L 163.586 52.622 L 162.531 53.821 L 157.887 53.721 L 157.547 49.921 C 156.301 44.229 150.67 41.081 146.225 41.975 C 137.526 41.731 135.383 50.955 136.153 53.581 L 127.623 55.547 L 127.564 58.023 L 107.857 58.089 L 107.905 54.828 L 64.214 54.684 L 64.022 46.291 C 63.369 44.999 62.352 45.236 62.352 45.236 L 44.614 45.236 C 44.614 45.236 42.992 45.095 42.93 46.492 L 43.072 54.972 L 4.32 51.758 L 4 48.161 L 5.903 47.826 L 6.221 4 Z"></path>
  <rect x="16.297" y="10.98" width="15.256" height="21.965" rx="3" ry="3"></rect>
  <rect x="34.402" y="10.98" width="15.164" height="21.965" rx="3" ry="3"></rect>
  <rect x="52.691" y="10.98" width="14.797" height="21.965" rx="3" ry="3"></rect>
  <rect x="70.072" y="10.98" width="14.705" height="21.965" rx="3" ry="3"></rect>
  <rect x="87.983" y="10.98" width="14.889" height="21.965" rx="3" ry="3"></rect>
  <rect x="109.948" y="9.601" width="7.352" height="46.872" rx="1" ry="1"></rect>
  <rect x="118.679" y="9.601" width="7.352" height="46.872" rx="1" ry="1"></rect>
  <text style="font-family: Lexend; font-size: 5.2px; font-weight: 700; stroke-width: 0.368px; white-space: pre;" x="66.251" y="39.283">D Harris Tours</text>
  <line style="stroke: rgb(0, 0, 0); stroke-width: 0.25px; transform-box: fill-box; transform-origin: 50% 50%;" x1="71.135" y1="25.825" x2="99.7" y2="54.39" transform="matrix(0.707107, -0.707107, 0.707107, 0.707107, -0.000001, 0.000006)"></line>
  <text style="font-family: Arial, sans-serif; font-size: 6.2px; white-space: pre; stroke-width: 0.442;" x="62.576" y="43.258" transform="matrix(0.448251, 0, 0, 0.466995, 39.438245, 23.923789)">(415) 902-8542</text>
  <text style="font-family: Arial, sans-serif; font-size: 6.2px; white-space: pre; stroke-width: 0.442;" x="62.576" y="43.258" transform="matrix(0.448251, 0, 0, 0.466995, 60.976, 23.923789)">TCP 017270-B</text>
  <path style="stroke: rgb(0, 0, 0); stroke-width: 0px;" d="M 127.505 15.543 L 142.589 31.136 L 142.488 34.085 L 128.539 34.482 C 127.969 34.581 127.164 33.6 127.546 32.945 L 127.505 15.543 Z"></path>
  <rect x="4" y="47.247" width="7.399" height="6.77" rx="2" ry="2" style="stroke: rgb(0, 0, 0); stroke-width: 0.5px; fill: rgb(179, 179, 179);"></rect>
  <path style="stroke: rgb(0, 0, 0); stroke-width: 0.5px; fill: rgb(179, 179, 179);" d="M 160.629 46.217 C 159.952 46.188 158.597 46.266 158.597 46.266 C 158.597 46.266 157.707 46.678 157.707 47.275 L 158.289 53.838 L 162.63 54.116 C 164 53.901 163.752 53.391 164 52.811 C 164.614 51.377 164 48.131 164 48.131 C 164 48.131 162.395 46.292 160.629 46.217 Z"></path>
</svg>
