<svg 
 xmlns="http://www.w3.org/2000/svg"
 xmlns:xlink="http://www.w3.org/1999/xlink"
 width="51px" height="146px">
     <style>
@font-face {
    font-family: 'Helvetica','Arial';
    font-style: normal;
    font-weight: 400;
}                                                          
text {
    font-family: Helvetica, Arial, sans-serif;
    font-stretch: condensed;
    writing-mode: tb;           /* SVG 1 syntax */
    glyph-orientation-vertical: 0;                         
    writing-mode: vertical-rl;  /* CSS3 syntax */
    text-orientation: upright;
    font-size: 28px;
}
tspan {
    font-size: 100%; 
    font-size: 24px;
    font-family: "Arial";
    font-weight: 600;
    letter-spacing: -6px;
}                                  
    </style>
<path fill-rule="evenodd"  fill="rgb(0, 0, 0)"
 d="M4.489,143.250 C8.211,147.288 44.900,145.341 46.717,143.739 C48.535,142.138 47.533,132.815 47.533,132.815 L47.859,22.924 C47.859,22.924 48.167,6.397 46.228,3.522 C44.289,0.647 31.678,-0.173 24.543,0.098 C17.409,0.369 7.864,0.652 5.304,4.174 C2.294,9.799 2.964,23.817 2.964,23.817 L3.035,140.136 C3.035,140.136 4.243,142.983 4.489,143.250 Z"/>
<path fill-rule="evenodd"  fill="rgb(255, 255, 255)"
 d="M4.264,29.646 C2.968,29.791 2.084,30.330 0.721,30.416 C0.521,30.043 0.444,29.979 0.413,29.338 C0.583,29.124 0.643,28.895 0.721,28.567 C1.467,28.222 2.325,27.722 3.186,27.489 C3.706,27.348 4.096,27.591 4.264,27.489 C4.315,27.489 4.367,27.489 4.418,27.489 C4.012,24.921 4.362,12.395 4.572,11.470 C4.986,9.650 5.566,7.760 6.421,6.387 C6.865,5.673 7.144,4.856 7.807,4.385 C9.263,3.350 11.320,3.489 13.352,2.998 C18.534,1.748 30.035,1.436 35.534,2.690 C38.301,3.321 41.286,2.981 43.236,4.385 C45.045,5.686 46.244,9.726 46.471,11.316 C46.699,12.906 46.625,21.328 46.625,21.328 C46.625,21.328 46.625,25.538 46.625,27.643 C46.728,27.643 46.831,27.643 46.933,27.643 C47.828,27.048 50.029,28.202 50.322,28.875 C50.612,29.189 50.630,29.466 50.630,30.108 C50.258,30.308 50.194,30.385 49.552,30.416 C48.908,29.959 47.520,29.756 46.625,29.646 C46.625,58.292 46.625,86.948 46.625,115.594 C46.625,121.344 46.625,127.096 46.625,132.846 C46.626,137.966 46.901,141.720 42.928,142.858 C40.580,143.530 38.271,143.491 35.842,143.628 C34.559,143.628 33.275,143.628 31.991,143.628 C30.005,144.050 27.165,143.782 24.906,143.782 C21.196,143.782 16.721,144.200 13.507,143.474 C10.224,142.732 7.019,143.493 5.342,141.163 C4.085,139.416 4.284,136.405 4.418,134.386 C4.479,133.475 4.302,32.383 4.264,29.646 ZM5.496,36.423 L7.961,37.501 C7.961,37.501 7.961,37.039 7.961,36.885 C8.218,37.305 7.550,32.013 6.575,29.183 C6.164,29.183 5.753,29.183 5.342,29.183 C4.854,31.744 5.496,36.423 5.496,36.423 ZM5.496,37.809 C5.496,37.809 5.508,39.183 5.650,40.120 C5.894,41.722 5.359,49.623 6.883,50.748 C7.178,50.975 7.951,51.708 8.269,51.210 C8.588,50.711 8.540,49.426 8.577,47.359 C8.628,44.483 8.269,38.887 8.269,38.887 L5.496,37.809 ZM9.656,110.049 L5.959,110.049 L6.113,129.303 L8.269,130.227 L9.656,128.841 L9.656,110.049 ZM9.656,100.345 L5.959,100.345 C5.959,100.345 5.959,106.250 5.959,109.279 C6.010,109.279 6.113,109.279 6.113,109.279 L9.656,109.279 L9.656,100.345 ZM9.656,99.421 L9.656,90.641 L5.959,90.641 L5.959,99.421 L6.113,99.421 L9.656,99.421 ZM5.959,89.871 L9.656,89.871 L9.656,80.630 L9.347,80.630 L5.959,80.630 L5.959,89.871 ZM5.959,79.859 C7.191,79.859 8.423,79.859 9.656,79.859 C9.656,76.984 9.656,74.109 9.656,71.234 C8.423,71.234 7.191,71.234 5.959,71.234 C5.959,74.109 5.959,76.984 5.959,79.859 ZM5.959,61.530 L5.959,70.464 L6.113,70.464 L9.656,70.464 L9.656,61.376 L9.501,61.376 L5.959,61.530 ZM5.959,60.606 L9.656,60.606 L9.656,55.369 L5.959,55.369 L5.959,60.606 ZM6.267,11.624 C6.320,12.081 6.510,12.221 7.345,12.548 C10.674,13.852 13.535,8.826 14.893,5.463 C14.277,5.463 13.661,5.463 13.044,5.463 C12.241,5.562 11.361,5.753 10.580,6.079 C8.422,6.981 5.932,8.775 6.267,11.624 ZM7.653,25.487 C7.807,26.565 7.961,27.643 8.115,28.721 C8.826,31.375 9.656,36.731 9.656,36.731 C9.656,36.731 8.584,36.694 9.810,36.731 C12.415,36.060 32.441,34.991 41.388,36.731 C41.730,36.283 43.082,27.951 43.082,27.951 C43.082,27.951 43.711,24.561 43.236,23.022 C42.921,22.000 43.298,22.106 41.542,20.866 C41.325,20.713 34.125,18.413 24.135,18.709 C20.960,18.804 16.505,19.164 15.817,19.326 C10.844,20.497 7.571,19.189 7.653,25.487 ZM39.231,132.692 C31.918,133.628 17.404,133.360 12.890,133.000 C11.545,132.880 11.081,132.522 10.580,133.308 C10.147,133.985 10.262,134.719 10.734,135.310 C12.959,136.132 17.204,136.234 17.204,136.234 L31.991,136.388 C31.991,136.388 38.302,135.927 39.385,135.618 C41.041,135.309 40.618,133.308 40.618,133.308 C40.618,133.308 40.275,132.583 39.231,132.692 ZM23.981,15.937 C24.035,14.922 24.107,13.821 23.519,13.472 C22.965,13.159 16.926,13.949 16.279,14.089 C15.539,14.249 14.964,14.056 14.739,14.243 C14.585,14.294 14.431,14.345 14.277,14.397 C14.174,15.167 14.071,15.937 13.969,16.707 C14.020,16.758 14.071,16.810 14.123,16.861 C17.409,16.553 20.695,16.245 23.981,15.937 ZM15.817,6.079 C19.845,4.634 30.649,4.353 35.380,6.079 C35.380,5.976 35.380,5.874 35.380,5.771 C35.103,5.530 35.183,5.468 34.764,5.309 C33.354,4.072 28.545,4.342 26.138,4.077 C26.138,4.128 26.138,4.179 26.138,4.231 C26.458,4.288 26.434,4.268 26.600,4.385 C25.772,4.325 25.426,4.325 24.597,4.385 C24.597,4.333 24.597,4.282 24.597,4.231 C24.868,4.133 24.747,4.201 24.906,4.077 C21.944,4.588 19.097,4.505 16.279,5.155 C16.125,5.309 15.971,5.463 15.817,5.617 C15.817,5.771 15.817,5.925 15.817,6.079 ZM36.151,5.617 C36.603,6.234 36.668,7.107 37.075,7.773 C38.018,9.317 39.114,10.927 40.618,11.932 C41.321,12.402 42.714,13.072 43.699,12.394 C44.694,12.106 44.838,11.434 44.777,10.084 C44.452,9.730 44.446,9.277 44.161,8.852 C43.107,7.282 41.405,6.578 39.385,5.925 C38.726,5.712 37.028,5.064 36.151,5.617 ZM45.393,110.049 L41.542,109.895 L41.542,110.049 L41.542,129.303 C41.542,129.303 41.824,130.473 43.545,130.535 C45.265,130.597 45.393,129.303 45.393,129.303 L45.393,110.049 ZM41.542,109.125 L45.393,109.279 L45.393,100.191 L45.239,100.191 L41.542,100.191 L41.542,109.125 ZM45.393,90.487 L41.542,90.487 L41.542,90.641 L41.542,99.575 L45.239,99.575 L45.393,99.575 L45.393,90.487 ZM41.542,89.871 L45.393,89.871 L45.393,80.630 L45.239,80.630 L41.542,80.630 L41.542,80.784 L41.542,89.871 ZM45.393,80.013 L45.393,71.080 L41.542,71.080 L41.542,71.234 L41.542,80.013 L41.696,80.013 L45.393,80.013 ZM41.542,70.464 L45.393,70.464 L45.393,61.376 L45.239,61.376 L41.542,61.376 L41.542,61.530 L41.542,70.464 ZM45.393,60.606 C45.393,60.606 45.393,57.936 45.393,56.601 C45.186,55.465 44.811,55.745 44.623,55.215 C44.242,55.242 43.547,54.664 42.928,55.061 C41.932,55.144 41.542,56.293 41.542,56.293 L41.542,60.606 L45.393,60.606 ZM42.774,51.210 C43.897,51.785 42.877,51.210 42.928,51.210 C43.339,51.056 43.463,51.852 44.161,50.748 C45.744,48.644 45.335,43.063 45.393,39.966 C45.550,39.242 45.366,38.350 45.547,37.809 C45.125,37.948 42.774,38.887 42.774,38.887 C42.774,38.887 42.073,49.100 42.774,51.210 ZM45.547,36.423 C45.547,36.423 45.650,31.596 45.701,29.183 C45.290,29.183 44.880,29.183 44.469,29.183 C44.387,29.968 44.170,29.567 43.853,31.340 C43.535,33.113 43.395,34.785 43.082,37.347 C43.134,37.347 43.236,37.347 43.236,37.347 L45.547,36.423 Z"/>
<text kerning="auto" fill="rgb(0, 0, 0)" font-size="24px" x="24px" y="43.045px"><tspan >3501</tspan></text>
</svg>

