<svg xmlns="http://www.w3.org/2000/svg" viewBox="5.331 11 52.57 41.74">
	<path d="M17 11 15.9682 19.3991 7.1744 17.6464 12.9764 24.5965 5.331 29.8243 14.2759 30.5798 12.7347 39.4337 16.9351 35.898Q18 25 23.5528 23.9924L28 18 28.4483 12.5092 21.921 17.7371 17 11Z" fill="#ff0" stroke="#f00" stroke-width="2" />
	<path d="M 17 11 L 17 11 Z M 25.0945 26.0469 L 29 21 Q 32.9813 15.8937 38.7681 17.7436 L 49.4269 20.69 Q 55.8063 22.3378 55.4904 34.7845 Q 52.7104 33.8999 50.3095 32.9522 Q 50.7518 26.2551 47.6559 25.3705 L 37.0415 22.401 Q 35.0829 21.8324 33.5666 23.791 L 30.5339 27.5818 L 55.7431 34.4054 Q 58.2703 36.1745 57.8327 39.7546 L 56.694 44.0211 Q 56.3782 46.0426 54.7357 46.548 L 53.5986 50.6541 Q 52.9669 53.2441 50.1242 52.6124 L 47.85 52.107 Q 45.4495 51.0331 46.1444 48.8221 L 46.8393 46.3584 L 47.7823 41.1026 L 50.6886 42.0503 Q 52.5662 42.4215 53.3422 41.4185 Q 54.1678 40.3364 53.9865 38.7952 Q 53.6843 37.3749 52.3313 37.059 Q 50.3905 36.5892 48.035 38.5121 Q 46.6131 39.6716 47.7823 41.1658 L 47.0873 46.4729 L 27.0917 41.0316 L 26.7792 40.9459 L 28.1799 35.955 Q 30.5367 35.8943 29.6908 33.4468 Q 29.2375 31.0293 26.548 30.3645 Q 24.886 30.2738 24.1305 32.0265 Q 23.5866 34.8067 26.0038 35.4411 L 28.2101 35.9852 L 26.2454 43.7052 Q 25.5505 45.7267 23.15 45.2845 L 20.56 44.6528 Q 18.6017 43.4525 18.8544 41.6206 L 20.0546 37.2617 Q 18.9175 35.9983 19.9914 31.9553 L 20.8758 29.3021 Q 22.0761 26.4594 24.0672 26.4095 Z" fill="#fff" stroke="#000" stroke-width="1"/>
</svg>
