<svg viewBox="2.194 8.195 57.537 47.756" xmlns="http://www.w3.org/2000/svg">
  <defs></defs>
  <path d="M17 11 15.9682 19.3991 7.1744 17.6464 12.9764 24.5965 5.331 29.8243 14.2759 30.5798 12.7347 39.4337 16.9351 35.898Q18 25 23.5528 23.9924L28 18 28.4483 12.5092 21.921 17.7371 17 11Z" fill="#ff0" stroke="#f00" style=""></path>
  <g style="transform-origin: 92.6244px 32.4821px;" transform="matrix(0.948977, 0.245739, -0.241832, 0.933888, -53.52445, 1.862513)">
    <rect x="74.346" y="38.028" width="8.668" height="11.708" style="stroke: rgb(0, 0, 0); stroke-width: 0;" rx="2.796" ry="2.669"></rect>
    <rect x="101.979" y="38.509" width="8.779" height="11.708" rx="2.666" ry="2.666" style="stroke: rgb(0, 0, 0); stroke-width: 0;"></rect>
    <path style="fill: rgb(255, 255, 255); stroke: rgb(0, 0, 0);" d="M 77.482 26.937 L 108.4 26.64 C 108.4 26.64 111.149 28.419 111.758 29.84 C 113.29 33.415 113.914 39.122 111.758 40.509 C 109.056 42.247 102.151 42.247 102.151 42.247 C 102.151 42.247 88.453 42.247 81.841 42.247 C 78.81 42.247 74.346 42.153 73.346 40.028 C 71.486 36.075 71.833 33.154 73.544 29.84 C 74.292 28.391 76.263 26.352 77.482 26.937 Z"></path>
    <path d="M 84.836 37.173 C 83.706 38.032 81.818 37.077 80.652 36.383 C 79.455 35.67 78.058 34.642 78.058 33.104 C 78.058 31.566 79.219 30.541 80.652 30.814 C 81.382 30.953 84.292 32.413 85.124 33.785 C 85.924 35.106 85.739 36.487 84.836 37.173 Z" style="fill: rgb(255, 0, 0); stroke: rgb(0, 0, 0); stroke-width: 0.755; transform-box: fill-box; transform-origin: 50% 50%;" transform="matrix(0.886269, -0.46317, 0.46317, 0.886269, 0, 0)"></path>
    <path d="M 106.881 31.119 C 105.751 30.26 103.863 31.215 102.697 31.909 C 101.5 32.622 100.103 33.65 100.103 35.188 C 100.103 36.726 101.264 37.751 102.697 37.478 C 103.427 37.339 106.337 35.879 107.169 34.507 C 107.969 33.186 107.784 31.805 106.881 31.119 Z" style="fill: rgb(255, 0, 0); stroke: rgb(0, 0, 0); stroke-width: 0.755; transform-origin: 103.889px 34.15px;" transform="matrix(-0.888163, -0.459529, 0.459529, -0.888163, 0.000004, -0.000003)"></path>
    <path style="stroke: rgb(0, 0, 0); stroke-width: 0px;" d="M 76.297 26.937 L 81.532 17.1 C 83.014 15.523 83.014 14.5 86.762 14.799 L 98.976 14.966 C 100.618 14.966 103.588 17.1 102.979 17.1 L 108.801 26.64 L 101.979 26.64 L 98.976 20.22 L 85.762 20.121 L 83.014 26.64 L 76.297 26.937 Z"></path>
  </g>
</svg>
