<?xml version="1.0" encoding="utf-8"?>
<!-- Generator: Adobe Illustrator 13.0.2, SVG Export Plug-In . SVG Version: 6.00 Build 14948)  -->
<!DOCTYPE svg PUBLIC "-//W3C//DTD SVG 1.1//EN" "http://www.w3.org/Graphics/SVG/1.1/DTD/svg11.dtd">
<svg version="1.1" id="Layer_1" xmlns="http://www.w3.org/2000/svg" xmlns:xlink="http://www.w3.org/1999/xlink" x="0px" y="0px"
	 width="197.485px" height="616.682px" viewBox="0 0 197.485 616.682" enable-background="new 0 0 197.485 616.682"
	 xml:space="preserve">
<g>
	<path fill="#FAA74A" d="M145.725,59.769c0-6.741,5.462-12.203,12.202-12.203c3.662,0,6.949,1.615,9.186,4.169
		c-1.142-6.406-4.643-14.046-12.375-23.584c-9.713-11.978-25.051-19.08-43.267-17.196C95.385,12.62,82.03,23.109,72.551,31.063
		C59.802,41.761,51.046,53.569,46.284,66.477c-4.717,12.309-6.473,25.488-5.281,39.518c1.198,14.04,4.771,28.584,10.718,43.649
		c6.285,14.782,13.903,29.834,22.857,45.154c8.684,15,18.27,30.071,28.758,45.228l32.027,44.14c2.325,3.189,4.583,6.357,6.771,9.502
		c1.771-2.39,3.435-4.78,4.986-7.167c3.278-5.34,5.616-10.643,7.017-15.911c1.396-5.265,1.612-10.404,0.642-15.41
		c-4.745-21.863-25.081-30.542-24.93-30.481c5.028,2.036,13.604,6.623,18.622,12.175c6.532,7.227,10.126,15.536,11.593,24.215
		c1.361,8.559,0.525,17.449-2.511,26.677c-1.853,5.535-4.496,11.204-7.93,17.003c18.188,27.819,30.839,53.972,37.95,78.468
		c8.896,29.854,11.806,57.222,8.716,82.089c-3.078,24.867-11.098,47.188-24.029,66.95c-12.94,19.771-28.563,37.33-46.87,52.69
		c-14.71,12.342-32.564,22.156-51.244,28.278c-21.486,7.043-49.94,3.978-64.524-15.908c-15.675-21.374-11.049-52.15,5.569-71.488
		c-5.127,9.615-13.525,26.187-3.36,51.158c13.016,31.971,47.509,34.912,68.944,25.189c15.026-6.187,30.036-15.019,43.114-25.992
		c22.229-18.65,36.773-39.486,43.64-62.511c6.86-23.019,8.443-46.354,4.768-70.003c-3.962-23.974-11.911-47.379-23.846-70.234
		c-7.186-13.758-14.881-26.682-23.089-38.772c-3.354,3.264-6.933,6.527-10.738,9.792c-6.849,5.963-13.313,12.897-19.396,20.803
		c-6.082,7.906-10.684,16.292-13.804,25.159c-2.99,8.764-3.954,17.76-2.887,26.992c1.07,9.234,5.211,18.149,12.428,26.75
		c4.247,5.06,8.703,8.793,14.013,12.161c7.033,3.931,13.427,5.563,17.822,4.336c4.331-1.078,7.751-4.309,10.262-9.695
		c1.676-3.591,2.622-6.794,2.839-9.608c0.369-2.741,0.322-5.771-0.137-9.077c4.637,2.161,8.046,5.205,10.221,9.135
		c2.325,4,2.373,8.395,0.14,13.183c-2.859,6.134-7.632,9.92-14.313,11.357c-6.754,1.587-15.523,0.688-23.236-3.439
		c-6.707-3.588-13.994-9.424-18.77-15.115c-5.943-7.082-10.716-14.823-14.318-23.225c-3.599-8.398-5.155-17.44-4.657-27.122
		c0.494-9.685,3.44-19.914,8.835-30.691c5.416-11.013,14.264-22.423,26.551-34.241l10.274-9.935
		c-2.642-3.547-5.332-7.016-8.072-10.404c-24.092-29.367-43.25-57.851-57.495-85.448c-13.922-27.865-22.698-53.931-26.325-78.171
		c-3.586-24.849-1.726-47.854,5.583-69.031c7.629-21.433,21.088-40.248,40.376-56.432c17.32-14.534,34.946-22.08,52.865-22.633
		c17.645-0.883,32.093,5.379,43.335,18.78c8.777,10.459,12.628,20.832,8.713,34.735c-1.799,6.392-5.432,12.172-9.504,15.354
		c-2.146,1.881-4.959,3.022-8.038,3.022C151.187,71.973,145.725,66.508,145.725,59.769L145.725,59.769z"/>
</g>
</svg>
