<svg width="640" height="480" xmlns="http://www.w3.org/2000/svg">
 <defs>
  <radialGradient id="svg_6" cx="0.5" cy="0.5" r="0.5">
   <stop offset="0" stop-color="#d6d6d6"/>
   <stop offset="1" stop-color="#707070"/>
  </radialGradient>
  <filter height="200%" width="200%" y="-50%" x="-50%" id="svg_7_blur">
   <feGaussianBlur stdDeviation="6.7" in="SourceGraphic"/>
  </filter>
 </defs>
 <metadata id="metadata7">image/svg+xml</metadata>
 <g>
  <title>Layer 1</title>
  <g filter="url(#svg_7_blur)" id="svg_7">
   <g id="svg_8">
    <path id="svg_9" d="m230.81219,91.07263l16.4375,45.1875c-0.03551,0.03839 -0.05829,0.08658 -0.09375,0.125l0.125,0.375c-6.91243,7.53391 -13.13052,15.84741 -18.5,24.90625l-49.5,-1.34375c-0.98158,2.22409 -1.98515,4.44559 -2.875,6.6875c-1.21228,3.05432 -2.33096,6.10504 -3.375,9.1875c-1.04367,3.08258 -2.02916,6.20715 -2.90625,9.3125c-0.78569,2.7821 -1.47246,5.5499 -2.125,8.34375l40.5,27.09375c-0.04924,0.44421 -0.01741,0.89896 -0.0625,1.34375l0.28125,0.1875c-0.4657,4.72357 -0.62152,9.44803 -0.625,14.15625l88.9375,0c0.01782,-2.83725 0.25076,-5.67804 0.65625,-8.46875c0.40546,-2.79071 1.00079,-5.54474 1.78125,-8.25c0.78046,-2.70526 1.73221,-5.35654 2.875,-7.9375c1.14279,-2.58096 2.47629,-5.08221 3.96875,-7.5c1.49246,-2.41779 3.13928,-4.75302 4.96875,-6.96875c1.82947,-2.21573 3.84616,-4.30646 6,-6.28125c2.15384,-1.97476 4.4407,-3.83627 6.90625,-5.53125c2.46555,-1.69495 5.11041,-3.24875 7.875,-4.625c1.9729,-0.98215 3.94766,-1.82794 5.96875,-2.59375c2.02109,-0.76581 4.07019,-1.44589 6.125,-2c2.05481,-0.55411 4.11346,-0.99677 6.1875,-1.34375c0.97446,-0.16302 1.96115,-0.22571 2.9375,-0.34375c0.33383,-0.04297 0.66531,-0.08713 1,-0.125c0.76926,-0.08099 1.54321,-0.22778 2.3125,-0.28125c0.75201,-0.05225 1.49866,-0.0051 2.25,-0.03125c0.85345,-0.03687 1.70621,-0.05905 2.5625,-0.0625c0.46866,0.00208 0.93835,-0.04333 1.40625,-0.03125c0.34445,0.00891 0.68732,0.04819 1.03125,0.0625c1.71768,0.05716 3.43723,0.21198 5.15625,0.40625c7.37845,0.83383 14.74649,2.85727 21.75,6.34375c22.11658,11.01007 34.82608,32.86462 34.96875,55.5625l89.03119,0c-0.00098,-4.72623 -0.21802,-9.47733 -0.6875,-14.21875l41,-27.4375c-0.01196,-0.05289 -0.05042,-0.10336 -0.0625,-0.15625c-0.71204,-3.12265 -1.49792,-6.23837 -2.375,-9.34375c-0.87695,-3.10535 -1.83118,-6.19867 -2.875,-9.28125c-1.0437,-3.08258 -2.16272,-6.13318 -3.375,-9.1875c-0.88,-2.21738 -1.84045,-4.42917 -2.8125,-6.625l-49.12494,1.34375c-0.32849,-0.55521 -0.72672,-1.07364 -1.0625,-1.625l-0.3125,0c-2.40787,-3.95306 -4.96716,-7.77524 -7.6875,-11.4375c-2.72034,-3.66226 -5.58698,-7.16986 -8.59375,-10.53125l16.6875,-45.8125c-1.45001,-1.26463 -2.89124,-2.53091 -4.375,-3.75c-2.46719,-2.02713 -4.97525,-4.00641 -7.53125,-5.90625c-2.55603,-1.89984 -5.17328,-3.72925 -7.8125,-5.5c-2.63925,-1.77075 -5.31439,-3.48508 -8.03125,-5.125c-0.77728,-0.46918 -1.55521,-0.92767 -2.34375,-1.375l-39,29.34375c-0.56766,-0.2489 -1.14954,-0.4147 -1.71875,-0.65625l-0.09375,0.0625c-4.30518,-1.8309 -8.70319,-3.43739 -13.15625,-4.875c-4.45306,-1.43762 -8.95871,-2.68002 -13.53125,-3.71875l-0.0625,-0.15625c-0.02219,-0.00494 -0.04034,-0.02631 -0.0625,-0.03125l-14.03125,-46.5625c-1.97339,-0.20361 -3.92493,-0.44846 -5.90625,-0.59375c-3.18457,-0.23352 -6.39328,-0.3544 -9.59375,-0.4375c-2.14056,-0.05557 -4.28888,-0.0383 -6.4375,-0.03125c-1.07559,0.01141 -2.14496,-0.02786 -3.21875,0c-3.20038,0.0831 -6.37793,0.23523 -9.5625,0.46875c-1.01263,0.07422 -2.02094,0.22302 -3.03125,0.3125l-14,46.375c-10.15869,2.09682 -20.0712,5.18036 -29.59375,9.21875l-39.375,-29.59375c-1.31567,0.75378 -2.63879,1.46594 -3.9375,2.25c-2.71692,1.63989 -5.39172,3.35434 -8.03125,5.125c-2.63928,1.77077 -5.25652,3.60013 -7.8125,5.5c-2.55606,1.89981 -5.06396,3.87912 -7.53125,5.90625c-0.98041,0.80563 -1.91159,1.67136 -2.875,2.5zm181.78125,39.28125c1.3598,0.09421 2.74118,0.45154 4.03125,1.09375c5.16028,2.56891 7.22305,8.77075 4.59375,13.8125c-2.62933,5.04172 -8.96472,7.03766 -14.125,4.46875c-5.16028,-2.56888 -7.22308,-8.7395 -4.59375,-13.78125c1.97195,-3.78131 6.01437,-5.87637 10.09375,-5.59375zm-148.875,47.28125c1.35977,0.09421 2.74118,0.45154 4.03125,1.09375c5.16037,2.56894 7.22308,8.73956 4.59375,13.78125c-2.62939,5.04172 -8.96469,7.03766 -14.125,4.46875c-5.16031,-2.56888 -7.22314,-8.7395 -4.59375,-13.78125c1.97202,-3.78128 6.0144,-5.84512 10.09375,-5.5625z" stroke-dashoffset="0" stroke-miterlimit="4" marker-end="none" marker-mid="none" marker-start="none" stroke-linecap="round" stroke-width="33.80531" fill-rule="nonzero" fill="#000000"/>
    <path id="svg_10" d="m492.24969,380.92719l-16.4375,-45.1875c0.03549,-0.03839 0.05829,-0.08661 0.09375,-0.125l-0.125,-0.375c6.91241,-7.53387 13.13052,-15.84741 18.5,-24.90625l49.49994,1.34375c0.98169,-2.22412 1.98523,-4.44562 2.875,-6.6875c1.21228,-3.05432 2.33105,-6.10504 3.375,-9.1875c1.0437,-3.08258 2.02917,-6.20718 2.90625,-9.3125c0.78577,-2.7821 1.47253,-5.5499 2.125,-8.34375l-40.5,-27.09375c0.04932,-0.44421 0.01746,-0.89896 0.0625,-1.34375l-0.28125,-0.1875c0.4657,-4.72357 0.62158,-9.44806 0.625,-14.15625l-88.93744,0c-0.01782,2.83725 -0.25079,5.67804 -0.65625,8.46875c-0.40549,2.79068 -1.00079,5.54471 -1.78125,8.25c-0.78046,2.70526 -1.73221,5.35657 -2.875,7.9375c-1.14279,2.58096 -2.47629,5.08221 -3.96875,7.5c-1.49246,2.41776 -3.13928,4.75302 -4.96875,6.96875c-1.82947,2.2157 -3.84616,4.30646 -6,6.28125c-2.15384,1.97476 -4.4407,3.83627 -6.90625,5.53125c-2.46555,1.69495 -5.11041,3.24872 -7.875,4.625c-1.9729,0.98212 -3.94766,1.82791 -5.96875,2.59375c-2.02109,0.76581 -4.07019,1.44589 -6.125,2c-2.05481,0.55408 -4.11346,0.99677 -6.1875,1.34375c-0.97446,0.16302 -1.96115,0.22571 -2.9375,0.34375c-0.33383,0.04297 -0.66531,0.08716 -1,0.125c-0.76929,0.08099 -1.54321,0.22778 -2.3125,0.28125c-0.75201,0.05225 -1.49866,0.00507 -2.25,0.03125c-0.85345,0.03687 -1.70621,0.05902 -2.5625,0.0625c-0.46866,-0.00208 -0.93835,0.04333 -1.40625,0.03125c-0.34445,-0.00891 -0.68732,-0.04822 -1.03125,-0.0625c-1.71768,-0.05719 -3.43723,-0.21198 -5.15625,-0.40625c-7.37845,-0.83386 -14.74649,-2.85727 -21.75,-6.34375c-22.11658,-11.01007 -34.82608,-32.86462 -34.96875,-55.5625l-89.03125,0c0.00101,4.72621 0.21805,9.47729 0.6875,14.21875l-41,27.4375c0.01201,0.05289 0.05045,0.10336 0.0625,0.15625c0.71211,3.12265 1.49802,6.23837 2.375,9.34375c0.877,3.10532 1.83127,6.19867 2.875,9.28125c1.04373,3.08258 2.16275,6.13318 3.375,9.1875c0.88008,2.21735 1.84044,4.4292 2.8125,6.625l49.125,-1.34375c0.32849,0.55518 0.72672,1.07367 1.0625,1.625l0.3125,0c2.40785,3.95306 4.96716,7.77521 7.6875,11.4375c2.72032,3.66223 5.58696,7.16986 8.59375,10.53125l-16.6875,45.8125c1.45001,1.26459 2.89124,2.53088 4.375,3.75c2.46718,2.0271 4.97525,4.00641 7.53125,5.90619c2.55605,1.8999 5.17326,3.72931 7.8125,5.5c2.63925,1.77081 5.31439,3.48511 8.03125,5.125c0.77728,0.46924 1.55518,0.92773 2.34375,1.375l39,-29.34369c0.56766,0.2489 1.14954,0.41473 1.71875,0.65619l0.09375,-0.0625c4.30518,1.83093 8.70319,3.43744 13.15625,4.875c4.45306,1.43762 8.95871,2.68011 13.53125,3.71881l0.0625,0.15619c0.02216,0.005 0.04031,0.02631 0.0625,0.03131l14.03125,46.5625c1.97339,0.20361 3.9249,0.44843 5.90625,0.59369c3.18457,0.23364 6.39328,0.35443 9.59375,0.4375c2.14056,0.0556 4.28888,0.03833 6.4375,0.03131c1.07559,-0.01141 2.14496,0.02789 3.21875,0c3.20038,-0.08307 6.37793,-0.23529 9.5625,-0.46881c1.01263,-0.07416 2.0209,-0.22296 3.03125,-0.3125l14,-46.375c10.15869,-2.0968 20.0712,-5.1803 29.59375,-9.21869l39.375,29.59369c1.31567,-0.75366 2.63876,-1.46588 3.9375,-2.25c2.71692,-1.63989 5.39172,-3.35431 8.03125,-5.125c2.63928,-1.77069 5.25653,-3.6001 7.8125,-5.5c2.55606,-1.89978 5.06396,-3.87909 7.53125,-5.90619c0.98041,-0.80566 1.91156,-1.67139 2.875,-2.5zm-181.78125,-39.28131c-1.3598,-0.09418 -2.74118,-0.45148 -4.03125,-1.09369c-5.16028,-2.56891 -7.22305,-8.77081 -4.59375,-13.8125c2.6293,-5.04175 8.96472,-7.03766 14.125,-4.46875c5.16028,2.56885 7.22305,8.73956 4.59375,13.78125c-1.97198,3.78131 -6.0144,5.8764 -10.09375,5.59369zm148.875,-47.28119c-1.35977,-0.09421 -2.74118,-0.45154 -4.03125,-1.09375c-5.16037,-2.56894 -7.22308,-8.73956 -4.59375,-13.78125c2.62939,-5.04172 8.96469,-7.03766 14.125,-4.46875c5.16031,2.56888 7.22314,8.7395 4.59375,13.78125c-1.97202,3.78128 -6.01443,5.84512 -10.09375,5.5625z" stroke-dashoffset="0" stroke-miterlimit="4" marker-end="none" marker-mid="none" marker-start="none" stroke-linecap="round" stroke-width="33.80531" fill-rule="nonzero" fill="#000000"/>
   </g>
   <path id="svg_11" d="m361.73206,141.69958c-51.38983,0 -93.33093,41.89944 -93.33093,93.28929c0,51.38982 41.9411,93.33095 93.33093,93.33095c51.38986,0 93.28928,-41.94113 93.28928,-93.33095c0,-51.38983 -41.89941,-93.28929 -93.28928,-93.28929zm0,21.30063c39.86197,0 71.98865,32.12668 71.98865,71.98865c0,39.86194 -32.12668,72.0303 -71.98865,72.0303c-39.86194,0 -72.0303,-32.16837 -72.0303,-72.0303c0,-39.86197 32.16837,-71.98865 72.0303,-71.98865z" stroke-dashoffset="0" stroke-miterlimit="4" stroke-linejoin="round" stroke-width="15.97277" fill-rule="nonzero" fill="#000000"/>
   <path id="svg_12" d="m361.73206,144.8259c-49.68384,0 -90.16293,40.4791 -90.16293,90.16295c0,49.68388 40.4791,90.16295 90.16293,90.16295c49.68387,0 90.12128,-40.47906 90.12128,-90.16295c0,-49.68385 -40.43741,-90.16295 -90.12128,-90.16295zm0,15.00632c41.56793,0 75.15665,33.58871 75.15665,75.15665c0,41.56793 -33.58871,75.15665 -75.15665,75.15665c-41.5679,0 -75.15665,-33.58871 -75.15665,-75.15665c0,-41.56792 33.58875,-75.15665 75.15665,-75.15665z" stroke-dashoffset="0" stroke-miterlimit="4" stroke-linejoin="round" stroke-width="11.24526" fill-rule="nonzero" fill="#000000"/>
  </g>
  <g id="svg_4">
   <g id="g2290">
    <path stroke="#000000" id="path4850" d="m218.81219,81.07263l16.4375,45.1875c-0.03551,0.03839 -0.05829,0.08658 -0.09375,0.125l0.125,0.375c-6.91243,7.53391 -13.13052,15.84741 -18.5,24.90625l-49.5,-1.34375c-0.98158,2.22409 -1.98515,4.44559 -2.875,6.6875c-1.21228,3.05432 -2.33096,6.10504 -3.375,9.1875c-1.04367,3.08258 -2.02916,6.20715 -2.90625,9.3125c-0.78569,2.7821 -1.47246,5.5499 -2.125,8.34375l40.5,27.09375c-0.04924,0.44421 -0.01741,0.89896 -0.0625,1.34375l0.28125,0.1875c-0.4657,4.72357 -0.62152,9.44803 -0.625,14.15625l88.9375,0c0.01782,-2.83725 0.25076,-5.67804 0.65625,-8.46875c0.40546,-2.79071 1.00079,-5.54474 1.78125,-8.25c0.78046,-2.70526 1.73221,-5.35654 2.875,-7.9375c1.14279,-2.58096 2.47629,-5.08221 3.96875,-7.5c1.49246,-2.41779 3.13928,-4.75302 4.96875,-6.96875c1.82947,-2.21573 3.84616,-4.30646 6,-6.28125c2.15384,-1.97476 4.4407,-3.83627 6.90625,-5.53125c2.46555,-1.69495 5.11041,-3.24875 7.875,-4.625c1.9729,-0.98215 3.94766,-1.82794 5.96875,-2.59375c2.02109,-0.76581 4.07019,-1.44589 6.125,-2c2.05481,-0.55411 4.11346,-0.99677 6.1875,-1.34375c0.97446,-0.16302 1.96115,-0.22571 2.9375,-0.34375c0.33383,-0.04297 0.66531,-0.08713 1,-0.125c0.76926,-0.08099 1.54321,-0.22778 2.3125,-0.28125c0.75201,-0.05225 1.49866,-0.0051 2.25,-0.03125c0.85345,-0.03687 1.70621,-0.05905 2.5625,-0.0625c0.46866,0.00208 0.93835,-0.04333 1.40625,-0.03125c0.34445,0.00891 0.68732,0.04819 1.03125,0.0625c1.71768,0.05716 3.43723,0.21198 5.15625,0.40625c7.37845,0.83383 14.74649,2.85727 21.75,6.34375c22.11658,11.01007 34.82608,32.86462 34.96875,55.5625l89.03122,0c-0.00098,-4.72623 -0.21802,-9.47733 -0.6875,-14.21875l40.99997,-27.4375c-0.01196,-0.05289 -0.05042,-0.10336 -0.0625,-0.15625c-0.71204,-3.12265 -1.49792,-6.23837 -2.375,-9.34375c-0.87695,-3.10535 -1.83118,-6.19867 -2.875,-9.28125c-1.0437,-3.08258 -2.16272,-6.13318 -3.375,-9.1875c-0.88,-2.21738 -1.84045,-4.42917 -2.8125,-6.625l-49.12494,1.34375c-0.32849,-0.55521 -0.72672,-1.07364 -1.0625,-1.625l-0.3125,0c-2.40787,-3.95306 -4.96716,-7.77524 -7.6875,-11.4375c-2.72034,-3.66226 -5.58698,-7.16986 -8.59375,-10.53125l16.6875,-45.8125c-1.45001,-1.26463 -2.89124,-2.53091 -4.375,-3.75c-2.46719,-2.02713 -4.97525,-4.00641 -7.53125,-5.90625c-2.55603,-1.89984 -5.17328,-3.72925 -7.8125,-5.5c-2.63925,-1.77075 -5.31439,-3.48508 -8.03125,-5.125c-0.77728,-0.46918 -1.55521,-0.92767 -2.34375,-1.375l-39,29.34375c-0.56766,-0.2489 -1.14954,-0.4147 -1.71875,-0.65625l-0.09375,0.0625c-4.30518,-1.8309 -8.70319,-3.43739 -13.15625,-4.875c-4.45306,-1.43762 -8.95871,-2.68002 -13.53125,-3.71875l-0.0625,-0.15625c-0.02219,-0.00494 -0.04034,-0.02631 -0.0625,-0.03125l-14.03125,-46.5625c-1.97339,-0.20361 -3.92493,-0.44846 -5.90625,-0.59375c-3.18457,-0.23352 -6.39328,-0.3544 -9.59375,-0.4375c-2.14056,-0.05557 -4.28888,-0.0383 -6.4375,-0.03125c-1.07559,0.01141 -2.14496,-0.02786 -3.21875,0c-3.20038,0.0831 -6.37793,0.23523 -9.5625,0.46875c-1.01263,0.07422 -2.02094,0.22302 -3.03125,0.3125l-14,46.375c-10.15869,2.09682 -20.0712,5.18036 -29.59375,9.21875l-39.375,-29.59375c-1.31567,0.75378 -2.63879,1.46594 -3.9375,2.25c-2.71692,1.63989 -5.39171,3.35434 -8.03125,5.125c-2.63928,1.77077 -5.25652,3.60013 -7.8125,5.5c-2.55606,1.89981 -5.06396,3.87912 -7.53125,5.90625c-0.98041,0.80563 -1.91159,1.67136 -2.875,2.5zm181.78125,39.28125c1.3598,0.09421 2.74118,0.45154 4.03125,1.09375c5.16028,2.56891 7.22305,8.77075 4.59375,13.8125c-2.62933,5.04172 -8.96472,7.03766 -14.125,4.46875c-5.16028,-2.56888 -7.22308,-8.7395 -4.59375,-13.78125c1.97195,-3.78131 6.01437,-5.87637 10.09375,-5.59375zm-148.875,47.28125c1.35977,0.09421 2.74118,0.45154 4.03125,1.09375c5.16037,2.56894 7.22308,8.73956 4.59375,13.78125c-2.62939,5.04172 -8.96469,7.03766 -14.125,4.46875c-5.16031,-2.56888 -7.22313,-8.7395 -4.59375,-13.78125c1.97202,-3.78128 6.01439,-5.84512 10.09375,-5.5625z" stroke-dashoffset="0" stroke-miterlimit="4" marker-end="none" marker-mid="none" marker-start="none" stroke-linecap="round" stroke-width="2" fill-rule="nonzero" fill="url(#svg_6)"/>
    <path stroke="#000000" id="path3767" d="m480.24969,370.92719l-16.4375,-45.1875c0.03549,-0.03839 0.05829,-0.08661 0.09375,-0.125l-0.125,-0.375c6.91241,-7.53387 13.13052,-15.84741 18.5,-24.90625l49.49994,1.34375c0.98169,-2.22412 1.98523,-4.44562 2.875,-6.6875c1.21228,-3.05432 2.33105,-6.10504 3.375,-9.1875c1.0437,-3.08258 2.02917,-6.20718 2.90625,-9.3125c0.78577,-2.7821 1.47253,-5.5499 2.125,-8.34375l-40.49997,-27.09375c0.04926,-0.4442 0.01746,-0.89896 0.0625,-1.34375l-0.28125,-0.1875c0.4657,-4.72357 0.62152,-9.44806 0.625,-14.15625l-88.93747,0c-0.01782,2.83725 -0.25079,5.67804 -0.65625,8.46875c-0.40549,2.79068 -1.00079,5.54471 -1.78125,8.25c-0.78046,2.70526 -1.73221,5.35655 -2.875,7.9375c-1.14279,2.58096 -2.47629,5.08221 -3.96875,7.5c-1.49246,2.41776 -3.13928,4.75302 -4.96875,6.96875c-1.82947,2.2157 -3.84616,4.30646 -6,6.28125c-2.15384,1.97476 -4.4407,3.83627 -6.90625,5.53125c-2.46555,1.69495 -5.11041,3.24872 -7.875,4.625c-1.9729,0.98212 -3.94766,1.82791 -5.96875,2.59375c-2.02109,0.76581 -4.07019,1.44589 -6.125,2c-2.05481,0.55408 -4.11346,0.99677 -6.1875,1.34375c-0.97446,0.16302 -1.96115,0.22571 -2.9375,0.34375c-0.33383,0.04297 -0.66531,0.08716 -1,0.125c-0.76929,0.08099 -1.54321,0.22778 -2.3125,0.28125c-0.75201,0.05225 -1.49866,0.00507 -2.25,0.03125c-0.85345,0.03687 -1.70621,0.05902 -2.5625,0.0625c-0.46866,-0.00208 -0.93835,0.04333 -1.40625,0.03125c-0.34445,-0.00891 -0.68732,-0.04822 -1.03125,-0.0625c-1.71768,-0.05719 -3.43723,-0.21198 -5.15625,-0.40625c-7.37845,-0.83386 -14.74649,-2.85727 -21.75,-6.34375c-22.11658,-11.01007 -34.82608,-32.86462 -34.96875,-55.5625l-89.03125,0c0.00101,4.72621 0.21805,9.47729 0.6875,14.21875l-41,27.4375c0.01201,0.05289 0.05045,0.10336 0.0625,0.15625c0.71211,3.12265 1.49802,6.23837 2.375,9.34375c0.877,3.10532 1.83127,6.19867 2.875,9.28125c1.04373,3.08258 2.16275,6.13318 3.375,9.1875c0.88008,2.21735 1.84044,4.4292 2.8125,6.625l49.125,-1.34375c0.32849,0.55518 0.72672,1.07367 1.0625,1.625l0.3125,0c2.40785,3.95306 4.96716,7.77521 7.6875,11.4375c2.72032,3.66223 5.58696,7.16986 8.59375,10.53125l-16.6875,45.8125c1.45001,1.26459 2.89124,2.53088 4.375,3.75c2.46718,2.0271 4.97525,4.00641 7.53125,5.90619c2.55605,1.8999 5.17326,3.72931 7.8125,5.5c2.63925,1.77081 5.31439,3.48511 8.03125,5.125c0.77728,0.46924 1.55518,0.92773 2.34375,1.375l39,-29.34369c0.56766,0.2489 1.14954,0.41473 1.71875,0.65619l0.09375,-0.0625c4.30518,1.83093 8.70319,3.43744 13.15625,4.875c4.45306,1.43762 8.95871,2.68011 13.53125,3.71881l0.0625,0.15619c0.02216,0.005 0.04031,0.02631 0.0625,0.03131l14.03125,46.5625c1.97339,0.20361 3.9249,0.44843 5.90625,0.59369c3.18457,0.23364 6.39328,0.35443 9.59375,0.4375c2.14056,0.0556 4.28888,0.03833 6.4375,0.03131c1.07559,-0.01141 2.14496,0.02789 3.21875,0c3.20038,-0.08307 6.37793,-0.23529 9.5625,-0.46881c1.01263,-0.07416 2.0209,-0.22296 3.03125,-0.3125l14,-46.375c10.15869,-2.0968 20.0712,-5.1803 29.59375,-9.21869l39.375,29.59369c1.31567,-0.75366 2.63876,-1.46588 3.9375,-2.25c2.71692,-1.63989 5.39172,-3.35431 8.03125,-5.125c2.63928,-1.77069 5.25653,-3.6001 7.8125,-5.5c2.55606,-1.89978 5.06396,-3.87909 7.53125,-5.90619c0.98041,-0.80566 1.91156,-1.67139 2.875,-2.5zm-181.78125,-39.28131c-1.3598,-0.09418 -2.74118,-0.45148 -4.03125,-1.09369c-5.16028,-2.56891 -7.22305,-8.77081 -4.59375,-13.8125c2.6293,-5.04175 8.96472,-7.03766 14.125,-4.46875c5.16028,2.56885 7.22305,8.73956 4.59375,13.78125c-1.97198,3.78131 -6.0144,5.8764 -10.09375,5.59369zm148.875,-47.28119c-1.35977,-0.09421 -2.74118,-0.45154 -4.03125,-1.09375c-5.16037,-2.56894 -7.22308,-8.73956 -4.59375,-13.78125c2.62939,-5.04172 8.96469,-7.03766 14.125,-4.46875c5.16031,2.56888 7.22314,8.7395 4.59375,13.78125c-1.97202,3.78128 -6.01443,5.84512 -10.09375,5.5625z" stroke-dashoffset="0" stroke-miterlimit="4" marker-end="none" marker-mid="none" marker-start="none" stroke-linecap="round" stroke-width="2" fill-rule="nonzero" fill="url(#svg_6)"/>
   </g>
   <path stroke="#000000" d="m349.73206,131.69958c-51.38983,0 -93.33093,41.89944 -93.33093,93.28929c0,51.38982 41.9411,93.33095 93.33093,93.33095c51.38986,0 93.28928,-41.94113 93.28928,-93.33095c0,-51.38983 -41.89941,-93.28929 -93.28928,-93.28929zm0,21.30063c39.86197,0 71.98865,32.12668 71.98865,71.98865c0,39.86194 -32.12668,72.0303 -71.98865,72.0303c-39.86194,0 -72.0303,-32.16837 -72.0303,-72.0303c0,-39.86197 32.16837,-71.98865 72.0303,-71.98865z" id="path2327" stroke-dashoffset="0" stroke-miterlimit="4" stroke-width="2" fill-rule="nonzero" fill="url(#svg_6)"/>
   <path stroke="#000000" d="m349.73206,134.8259c-49.68384,0 -90.16293,40.4791 -90.16293,90.16295c0,49.68388 40.4791,90.16295 90.16293,90.16295c49.68387,0 90.12128,-40.47906 90.12128,-90.16295c0,-49.68385 -40.43741,-90.16295 -90.12128,-90.16295zm0,15.00632c41.56793,0 75.15665,33.58871 75.15665,75.15665c0,41.56793 -33.58871,75.15665 -75.15665,75.15665c-41.5679,0 -75.15665,-33.58871 -75.15665,-75.15665c0,-41.56792 33.58875,-75.15665 75.15665,-75.15665z" id="path3500" stroke-dashoffset="0" stroke-miterlimit="4" stroke-width="2" fill-rule="nonzero" fill="url(#svg_6)"/>
  </g>
 </g>
</svg>
