<svg 
 xmlns="http://www.w3.org/2000/svg"
 xmlns:xlink="http://www.w3.org/1999/xlink"
 width="262px" height="346px">
<path fill-rule="evenodd"  fill="rgb(255, 255, 255)"
 d="M27.000,6.000 L7.000,24.000 L6.000,282.000 L19.000,286.000 L19.000,328.000 L246.000,328.000 L246.000,283.000 L256.000,283.000 L256.000,24.000 L239.000,7.000 L27.000,6.000 Z"/>
<path fill-rule="evenodd"  fill="rgb(0, 0, 0)"
 d="M20.960,0.000 C94.313,0.000 167.687,0.000 241.040,0.000 C241.040,3.495 241.040,6.990 241.040,10.485 C167.687,10.485 94.313,10.485 20.960,10.485 C20.960,6.990 20.960,3.495 20.960,0.000 ZM10.480,10.485 C13.973,10.485 17.467,10.485 20.960,10.485 C20.960,13.979 20.960,17.475 20.960,20.970 C17.467,20.970 13.973,20.970 10.480,20.970 C10.480,17.475 10.480,13.979 10.480,10.485 ZM241.040,10.485 C244.533,10.485 248.027,10.485 251.520,10.485 C251.520,13.979 251.520,17.475 251.520,20.970 C248.027,20.970 244.533,20.970 241.040,20.970 C241.040,17.475 241.040,13.979 241.040,10.485 ZM0.000,20.970 C3.493,20.970 6.987,20.970 10.480,20.970 C10.480,108.335 10.480,195.726 10.480,283.091 C6.987,283.091 3.493,283.091 0.000,283.091 C0.000,195.726 0.000,108.335 0.000,20.970 ZM251.520,20.970 C255.013,20.970 258.507,20.970 262.000,20.970 C262.000,108.335 262.000,195.726 262.000,283.091 C258.507,283.091 255.013,283.091 251.520,283.091 C251.520,195.726 251.520,108.335 251.520,20.970 ZM41.920,31.455 C101.301,31.455 160.699,31.455 220.080,31.455 C220.080,34.949 220.080,38.445 220.080,41.939 C160.699,41.939 101.301,41.939 41.920,41.939 C41.920,38.445 41.920,34.949 41.920,31.455 ZM31.440,41.939 C34.933,41.939 38.427,41.939 41.920,41.939 C41.920,87.369 41.920,132.813 41.920,178.242 C38.427,178.242 34.933,178.242 31.440,178.242 C31.440,132.813 31.440,87.369 31.440,41.939 ZM220.080,41.939 C223.573,41.939 227.067,41.939 230.560,41.939 C230.560,87.369 230.560,132.813 230.560,178.242 C227.067,178.242 223.573,178.242 220.080,178.242 C220.080,132.813 220.080,87.369 220.080,41.939 ZM73.360,62.909 C76.853,62.909 80.347,62.909 83.840,62.909 C83.840,66.404 83.840,69.899 83.840,73.394 C80.347,73.394 76.853,73.394 73.360,73.394 C73.360,69.899 73.360,66.404 73.360,62.909 ZM94.320,62.909 C97.813,62.909 101.307,62.909 104.800,62.909 C104.800,66.404 104.800,69.899 104.800,73.394 C101.307,73.394 97.813,73.394 94.320,73.394 C94.320,69.899 94.320,66.404 94.320,62.909 ZM157.200,62.909 C160.693,62.909 164.187,62.909 167.680,62.909 C167.680,66.404 167.680,69.899 167.680,73.394 C164.187,73.394 160.693,73.394 157.200,73.394 C157.200,69.899 157.200,66.404 157.200,62.909 ZM178.160,62.909 C181.653,62.909 185.147,62.909 188.640,62.909 C188.640,66.404 188.640,69.899 188.640,73.394 C185.147,73.394 181.653,73.394 178.160,73.394 C178.160,69.899 178.160,66.404 178.160,62.909 ZM83.840,73.394 C87.333,73.394 90.827,73.394 94.320,73.394 C94.320,76.889 94.320,80.384 94.320,83.879 C90.827,83.879 87.333,83.879 83.840,83.879 C83.840,80.384 83.840,76.889 83.840,73.394 ZM167.680,73.394 C171.173,73.394 174.667,73.394 178.160,73.394 C178.160,76.889 178.160,80.384 178.160,83.879 C174.667,83.879 171.173,83.879 167.680,83.879 C167.680,80.384 167.680,76.889 167.680,73.394 ZM73.360,83.879 C76.853,83.879 80.347,83.879 83.840,83.879 C83.840,87.373 83.840,90.869 83.840,94.364 C80.347,94.364 76.853,94.364 73.360,94.364 C73.360,90.869 73.360,87.373 73.360,83.879 ZM94.320,83.879 C97.813,83.879 101.307,83.879 104.800,83.879 C104.800,87.373 104.800,90.869 104.800,94.364 C101.307,94.364 97.813,94.364 94.320,94.364 C94.320,90.869 94.320,87.373 94.320,83.879 ZM157.200,83.879 C160.693,83.879 164.187,83.879 167.680,83.879 C167.680,87.373 167.680,90.869 167.680,94.364 C164.187,94.364 160.693,94.364 157.200,94.364 C157.200,90.869 157.200,87.373 157.200,83.879 ZM178.160,83.879 C181.653,83.879 185.147,83.879 188.640,83.879 C188.640,87.373 188.640,90.869 188.640,94.364 C185.147,94.364 181.653,94.364 178.160,94.364 C178.160,90.869 178.160,87.373 178.160,83.879 ZM104.800,104.848 C108.293,104.848 111.787,104.848 115.280,104.848 C115.280,108.343 115.280,111.839 115.280,115.333 C111.787,115.333 108.293,115.333 104.800,115.333 C104.800,111.839 104.800,108.343 104.800,104.848 ZM136.240,104.848 C139.733,104.848 143.227,104.848 146.720,104.848 C146.720,108.343 146.720,111.839 146.720,115.333 C143.227,115.333 139.733,115.333 136.240,115.333 C136.240,111.839 136.240,108.343 136.240,104.848 ZM115.280,115.333 C122.266,115.333 129.254,115.333 136.240,115.333 C136.240,118.828 136.240,122.324 136.240,125.818 C129.254,125.818 122.266,125.818 115.280,125.818 C115.280,122.324 115.280,118.828 115.280,115.333 ZM94.320,136.303 C115.278,136.303 136.242,136.303 157.200,136.303 C157.200,139.798 157.200,143.293 157.200,146.788 C136.242,146.788 115.278,146.788 94.320,146.788 C94.320,143.293 94.320,139.798 94.320,136.303 ZM83.840,146.788 C87.333,146.788 90.827,146.788 94.320,146.788 C94.320,150.282 94.320,153.778 94.320,157.273 C90.827,157.273 87.333,157.273 83.840,157.273 C83.840,153.778 83.840,150.282 83.840,146.788 ZM157.200,146.788 C164.186,146.788 171.174,146.788 178.160,146.788 C178.160,150.282 178.160,153.778 178.160,157.273 C171.174,157.273 164.186,157.273 157.200,157.273 C157.200,153.778 157.200,150.282 157.200,146.788 ZM178.160,157.273 C181.653,157.273 185.147,157.273 188.640,157.273 C188.640,160.767 188.640,164.263 188.640,167.758 C185.147,167.758 181.653,167.758 178.160,167.758 C178.160,164.263 178.160,160.767 178.160,157.273 ZM41.920,178.242 C101.301,178.242 160.699,178.242 220.080,178.242 C220.080,181.737 220.080,185.233 220.080,188.727 C160.699,188.727 101.301,188.727 41.920,188.727 C41.920,185.233 41.920,181.737 41.920,178.242 ZM31.440,230.667 C38.426,230.667 45.414,230.667 52.400,230.667 C52.400,234.161 52.400,237.657 52.400,241.152 C45.414,241.152 38.426,241.152 31.440,241.152 C31.440,237.657 31.440,234.161 31.440,230.667 ZM157.200,230.667 C178.158,230.667 199.122,230.667 220.080,230.667 C220.080,234.161 220.080,237.657 220.080,241.152 C199.122,241.152 178.158,241.152 157.200,241.152 C157.200,237.657 157.200,234.161 157.200,230.667 ZM10.480,283.091 C90.819,283.091 171.181,283.091 251.520,283.091 C251.520,304.059 251.520,325.032 251.520,346.000 C171.181,346.000 90.819,346.000 10.480,346.000 C10.480,325.032 10.480,304.059 10.480,283.091 ZM20.960,293.576 C20.960,304.060 20.960,314.547 20.960,325.030 C94.313,325.030 167.687,325.030 241.040,325.030 C241.040,314.547 241.040,304.060 241.040,293.576 C167.687,293.576 94.313,293.576 20.960,293.576 Z"/>
</svg>
