<svg 
 xmlns="http://www.w3.org/2000/svg"
 xmlns:xlink="http://www.w3.org/1999/xlink"
 width="412px" height="425px">
<defs>
<filter id="Filter_0">
    <feFlood flood-color="rgb(50, 50, 50)" flood-opacity="1" result="floodOut" />
    <feComposite operator="atop" in="floodOut" in2="SourceGraphic" result="compOut" />
    <feBlend mode="normal" in="compOut" in2="SourceGraphic" />
</filter>
<filter id="Filter_1">
    <feFlood flood-color="rgb(50, 50, 50)" flood-opacity="1" result="floodOut" />
    <feComposite operator="atop" in="floodOut" in2="SourceGraphic" result="compOut" />
    <feBlend mode="normal" in="compOut" in2="SourceGraphic" />
</filter>
<filter filterUnits="userSpaceOnUse" id="Filter_2" x="71px" y="4px" width="241px" height="337px"  >
    <feOffset in="SourceAlpha" dx="0" dy="6" />
    <feGaussianBlur result="blurOut" stdDeviation="2" />
    <feFlood flood-color="rgb(0, 0, 0)" result="floodOut" />
    <feComposite operator="atop" in="floodOut" in2="blurOut" />
    <feComponentTransfer><feFuncA type="linear" slope="0.6"/></feComponentTransfer>
    <feMerge>
    <feMergeNode/>
    <feMergeNode in="SourceGraphic"/>
  </feMerge>
</filter>

</defs>
<path fill-rule="evenodd"  stroke="rgb(13, 13, 11)" stroke-width="4px" stroke-dasharray="16, 8" stroke-linecap="butt" stroke-linejoin="miter" fill="none"
 d="M130.000,333.000 C130.000,333.000 43.505,300.417 38.000,239.000 C32.495,177.583 69.428,141.957 61.000,98.000 C52.572,54.043 81.054,21.950 132.000,28.000 C184.352,34.217 199.913,140.112 203.000,162.000 C206.087,183.888 237.417,222.879 285.000,210.000 C311.002,202.962 389.191,214.734 399.000,272.000 C404.938,306.666 390.723,344.889 352.000,362.000 C313.277,379.111 167.066,315.066 149.000,256.000 C133.984,206.905 140.351,191.316 92.000,194.000 C58.644,195.852 4.716,182.656 17.000,133.000 C29.284,83.344 126.001,123.184 152.000,158.000 C177.999,192.816 278.079,99.087 266.000,61.000 C253.921,22.913 430.778,-10.482 371.000,201.000 C351.855,268.730 294.373,401.548 219.000,397.000 C150.110,392.843 197.530,362.828 130.000,333.000 Z"/>
<path fill-rule="evenodd"  fill="rgb(255, 255, 255)"
 d="M73.000,270.000 C91.778,270.000 107.000,285.222 107.000,304.000 C107.000,322.778 91.778,338.000 73.000,338.000 C54.222,338.000 39.000,322.778 39.000,304.000 C39.000,285.222 54.222,270.000 73.000,270.000 Z"/>
<path fill-rule="evenodd"  fill="rgb(255, 255, 255)"
 d="M354.000,20.000 C374.435,20.000 391.000,36.565 391.000,57.000 C391.000,77.435 374.435,94.000 354.000,94.000 C333.565,94.000 317.000,77.435 317.000,57.000 C317.000,36.565 333.565,20.000 354.000,20.000 Z"/>
<g filter="url(#Filter_0)">
<path fill-rule="evenodd"  fill="rgb(0, 0, 0)"
 d="M331.995,38.001 C333.117,38.001 334.238,38.001 335.360,38.001 C335.360,39.134 335.360,40.268 335.360,41.401 C334.238,41.401 333.117,41.401 331.995,41.401 C331.995,40.268 331.995,39.134 331.995,38.001 ZM338.724,38.001 C339.846,38.001 340.967,38.001 342.089,38.001 C342.089,39.134 342.089,40.268 342.089,41.401 C340.967,41.401 339.846,41.401 338.724,41.401 C338.724,40.268 338.724,39.134 338.724,38.001 ZM358.911,38.001 C360.033,38.001 361.154,38.001 362.276,38.001 C362.276,39.134 362.276,40.268 362.276,41.401 C361.154,41.401 360.033,41.401 358.911,41.401 C358.911,40.268 358.911,39.134 358.911,38.001 ZM365.640,38.001 C366.762,38.001 367.883,38.001 369.005,38.001 C369.005,39.134 369.005,40.268 369.005,41.401 C367.883,41.401 366.762,41.401 365.640,41.401 C365.640,40.268 365.640,39.134 365.640,38.001 ZM335.360,41.401 C336.481,41.401 337.603,41.401 338.724,41.401 C338.724,42.534 338.724,43.668 338.724,44.801 C337.603,44.801 336.481,44.801 335.360,44.801 C335.360,43.668 335.360,42.534 335.360,41.401 ZM362.276,41.401 C363.397,41.401 364.519,41.401 365.640,41.401 C365.640,42.534 365.640,43.668 365.640,44.801 C364.519,44.801 363.397,44.801 362.276,44.801 C362.276,43.668 362.276,42.534 362.276,41.401 ZM331.995,44.801 C333.117,44.801 334.238,44.801 335.360,44.801 C335.360,45.934 335.360,47.068 335.360,48.201 C334.238,48.201 333.117,48.201 331.995,48.201 C331.995,47.068 331.995,45.934 331.995,44.801 ZM338.724,44.801 C339.846,44.801 340.967,44.801 342.089,44.801 C342.089,45.934 342.089,47.068 342.089,48.201 C340.967,48.201 339.846,48.201 338.724,48.201 C338.724,47.068 338.724,45.934 338.724,44.801 ZM358.911,44.801 C360.033,44.801 361.154,44.801 362.276,44.801 C362.276,45.934 362.276,47.068 362.276,48.201 C361.154,48.201 360.033,48.201 358.911,48.201 C358.911,47.068 358.911,45.934 358.911,44.801 ZM365.640,44.801 C366.762,44.801 367.883,44.801 369.005,44.801 C369.005,45.934 369.005,47.068 369.005,48.201 C367.883,48.201 366.762,48.201 365.640,48.201 C365.640,47.068 365.640,45.934 365.640,44.801 ZM342.089,51.602 C343.210,51.602 344.332,51.602 345.453,51.602 C345.453,52.735 345.453,53.868 345.453,55.002 C344.332,55.002 343.210,55.002 342.089,55.002 C342.089,53.868 342.089,52.735 342.089,51.602 ZM352.182,51.602 C353.304,51.602 354.425,51.602 355.547,51.602 C355.547,52.735 355.547,53.868 355.547,55.002 C354.425,55.002 353.304,55.002 352.182,55.002 C352.182,53.868 352.182,52.735 352.182,51.602 ZM345.453,55.002 C347.696,55.002 349.939,55.002 352.182,55.002 C352.182,56.135 352.182,57.269 352.182,58.402 C349.939,58.402 347.696,58.402 345.453,58.402 C345.453,57.269 345.453,56.135 345.453,55.002 ZM338.724,61.802 C345.453,61.802 352.183,61.802 358.911,61.802 C358.911,62.935 358.911,64.069 358.911,65.202 C352.183,65.202 345.453,65.202 338.724,65.202 C338.724,64.069 338.724,62.935 338.724,61.802 ZM335.360,65.202 C336.481,65.202 337.603,65.202 338.724,65.202 C338.724,66.335 338.724,67.469 338.724,68.602 C337.603,68.602 336.481,68.602 335.360,68.602 C335.360,67.469 335.360,66.335 335.360,65.202 ZM358.911,65.202 C361.154,65.202 363.398,65.202 365.640,65.202 C365.640,66.335 365.640,67.469 365.640,68.602 C363.398,68.602 361.154,68.602 358.911,68.602 C358.911,67.469 358.911,66.335 358.911,65.202 ZM365.640,68.602 C366.762,68.602 367.883,68.602 369.005,68.602 C369.005,69.736 369.005,70.869 369.005,72.002 C367.883,72.002 366.762,72.002 365.640,72.002 C365.640,70.869 365.640,69.736 365.640,68.602 Z"/>
</g>
<g filter="url(#Filter_1)">
<path fill-rule="evenodd"  fill="rgb(0, 0, 0)"
 d="M49.994,284.001 C51.328,284.001 52.662,284.001 53.995,284.001 C53.995,285.334 53.995,286.668 53.995,288.001 C52.662,288.001 51.328,288.001 49.994,288.001 C49.994,286.668 49.994,285.334 49.994,284.001 ZM57.996,284.001 C59.330,284.001 60.664,284.001 61.997,284.001 C61.997,285.334 61.997,286.668 61.997,288.001 C60.664,288.001 59.330,288.001 57.996,288.001 C57.996,286.668 57.996,285.334 57.996,284.001 ZM82.003,284.001 C83.336,284.001 84.670,284.001 86.004,284.001 C86.004,285.334 86.004,286.668 86.004,288.001 C84.670,288.001 83.336,288.001 82.003,288.001 C82.003,286.668 82.003,285.334 82.003,284.001 ZM90.005,284.001 C91.338,284.001 92.672,284.001 94.006,284.001 C94.006,285.334 94.006,286.668 94.006,288.001 C92.672,288.001 91.338,288.001 90.005,288.001 C90.005,286.668 90.005,285.334 90.005,284.001 ZM53.995,288.001 C55.329,288.001 56.663,288.001 57.996,288.001 C57.996,289.335 57.996,290.668 57.996,292.001 C56.663,292.001 55.329,292.001 53.995,292.001 C53.995,290.668 53.995,289.335 53.995,288.001 ZM86.004,288.001 C87.337,288.001 88.671,288.001 90.005,288.001 C90.005,289.335 90.005,290.668 90.005,292.001 C88.671,292.001 87.337,292.001 86.004,292.001 C86.004,290.668 86.004,289.335 86.004,288.001 ZM49.994,292.001 C51.328,292.001 52.662,292.001 53.995,292.001 C53.995,293.335 53.995,294.668 53.995,296.002 C52.662,296.002 51.328,296.002 49.994,296.002 C49.994,294.668 49.994,293.335 49.994,292.001 ZM57.996,292.001 C59.330,292.001 60.664,292.001 61.997,292.001 C61.997,293.335 61.997,294.668 61.997,296.002 C60.664,296.002 59.330,296.002 57.996,296.002 C57.996,294.668 57.996,293.335 57.996,292.001 ZM82.003,292.001 C83.336,292.001 84.670,292.001 86.004,292.001 C86.004,293.335 86.004,294.668 86.004,296.002 C84.670,296.002 83.336,296.002 82.003,296.002 C82.003,294.668 82.003,293.335 82.003,292.001 ZM90.005,292.001 C91.338,292.001 92.672,292.001 94.006,292.001 C94.006,293.335 94.006,294.668 94.006,296.002 C92.672,296.002 91.338,296.002 90.005,296.002 C90.005,294.668 90.005,293.335 90.005,292.001 ZM61.997,300.002 C63.331,300.002 64.665,300.002 65.998,300.002 C65.998,301.335 65.998,302.669 65.998,304.002 C64.665,304.002 63.331,304.002 61.997,304.002 C61.997,302.669 61.997,301.335 61.997,300.002 ZM74.001,300.002 C75.334,300.002 76.668,300.002 78.002,300.002 C78.002,301.335 78.002,302.669 78.002,304.002 C76.668,304.002 75.334,304.002 74.001,304.002 C74.001,302.669 74.001,301.335 74.001,300.002 ZM65.998,304.002 C68.666,304.002 71.333,304.002 74.001,304.002 C74.001,305.335 74.001,306.669 74.001,308.002 C71.333,308.002 68.666,308.002 65.998,308.002 C65.998,306.669 65.998,305.335 65.998,304.002 ZM57.996,312.002 C65.998,312.002 74.001,312.002 82.003,312.002 C82.003,313.336 82.003,314.669 82.003,316.003 C74.001,316.003 65.998,316.003 57.996,316.003 C57.996,314.669 57.996,313.336 57.996,312.002 ZM53.995,316.003 C55.329,316.003 56.663,316.003 57.996,316.003 C57.996,317.336 57.996,318.669 57.996,320.003 C56.663,320.003 55.329,320.003 53.995,320.003 C53.995,318.669 53.995,317.336 53.995,316.003 ZM82.003,316.003 C84.670,316.003 87.338,316.003 90.005,316.003 C90.005,317.336 90.005,318.669 90.005,320.003 C87.338,320.003 84.670,320.003 82.003,320.003 C82.003,318.669 82.003,317.336 82.003,316.003 ZM90.005,320.003 C91.338,320.003 92.672,320.003 94.006,320.003 C94.006,321.336 94.006,322.670 94.006,324.003 C92.672,324.003 91.338,324.003 90.005,324.003 C90.005,322.670 90.005,321.336 90.005,320.003 Z"/>
</g>
<path fill-rule="evenodd"  stroke="rgb(13, 13, 11)" stroke-width="6px" stroke-dasharray="24, 12" stroke-linecap="butt" stroke-linejoin="miter" fill="none"
 d=""/>
<path fill-rule="evenodd"  fill="rgb(85, 85, 85)"
 d="M69.749,252.010 C97.073,251.594 112.803,265.759 120.784,284.818 C123.614,291.576 126.586,303.626 124.035,313.404 C120.438,327.193 113.931,337.847 107.782,349.135 C102.149,359.476 97.874,370.440 91.854,380.319 C90.084,383.224 89.200,386.392 87.628,389.415 C84.452,395.521 81.072,401.799 77.876,407.930 C76.720,410.148 74.228,417.046 72.350,418.000 C71.721,415.394 69.920,413.280 68.774,411.178 C65.549,405.259 62.695,399.099 59.672,393.313 C53.996,382.446 48.676,371.505 43.094,360.829 C40.735,356.317 39.233,351.533 36.593,347.186 C32.805,340.949 28.451,333.097 25.541,326.397 C18.168,309.423 20.012,288.262 29.441,274.748 C35.871,265.535 45.262,258.426 56.747,254.284 C59.780,253.634 62.815,252.985 65.849,252.335 C67.195,252.035 68.827,252.582 69.749,252.010 ZM69.749,272.799 C67.656,274.084 63.019,274.047 60.648,275.073 C52.466,278.615 46.438,285.207 43.094,293.589 C41.779,296.887 40.882,302.502 41.794,306.582 C42.386,309.232 42.000,311.087 42.769,313.404 C45.959,323.010 52.510,329.087 61.623,332.894 C64.754,334.202 70.502,336.310 75.601,335.167 C88.447,332.290 96.930,326.865 101.606,316.002 C109.901,296.732 96.184,278.711 82.102,274.099 C78.478,272.912 74.411,272.767 69.749,272.799 Z"/>
<path fill-rule="evenodd"  fill="rgb(85, 85, 85)"
 d="M349.749,2.010 C377.073,1.594 392.803,15.759 400.784,34.818 C403.614,41.576 406.586,53.626 404.035,63.404 C400.438,77.193 393.931,87.847 387.782,99.135 C382.149,109.476 377.874,120.440 371.854,130.319 C370.084,133.224 369.200,136.392 367.628,139.415 C364.452,145.521 361.072,151.799 357.876,157.930 C356.720,160.148 354.228,167.046 352.350,168.000 C351.721,165.394 349.920,163.280 348.774,161.178 C345.549,155.259 342.695,149.099 339.672,143.313 C333.996,132.446 328.676,121.505 323.094,110.829 C320.735,106.317 319.233,101.533 316.593,97.186 C312.805,90.949 308.451,83.097 305.541,76.397 C298.168,59.423 300.012,38.262 309.441,24.748 C315.871,15.535 325.262,8.426 336.747,4.284 C339.780,3.634 342.815,2.985 345.849,2.335 C347.195,2.035 348.827,2.582 349.749,2.010 ZM349.749,22.799 C347.656,24.084 343.019,24.047 340.648,25.073 C332.466,28.615 326.438,35.207 323.094,43.589 C321.779,46.887 320.882,52.502 321.794,56.582 C322.386,59.232 322.000,61.087 322.769,63.404 C325.959,73.010 332.510,79.087 341.623,82.894 C344.754,84.202 350.502,86.310 355.601,85.167 C368.447,82.290 376.930,76.865 381.606,66.002 C389.901,46.732 376.184,28.711 362.102,24.099 C358.478,22.912 354.411,22.767 349.749,22.799 Z"/>
<g filter="url(#Filter_2)">
<path fill-rule="evenodd"  stroke="rgb(255, 255, 255)" stroke-width="14px" stroke-linecap="butt" stroke-linejoin="miter" fill="rgb(61, 155, 209)"
 d="M165.602,233.874 C165.602,198.512 167.053,185.002 190.876,166.465 C203.857,156.363 211.672,150.015 211.672,134.912 C211.672,106.181 199.931,100.901 185.844,100.901 C167.053,100.901 157.639,114.913 156.320,128.529 L156.320,128.895 L93.364,128.895 C93.364,64.804 152.966,25.514 189.533,25.514 C229.673,25.514 284.358,48.967 284.358,121.162 C284.358,150.996 278.542,173.587 252.712,193.846 C238.286,205.265 232.250,207.352 232.250,233.874 L165.602,233.874 ZM233.368,310.486 L166.498,310.486 L166.498,258.549 L233.368,258.549 L233.368,310.486 Z"/>
</g>
</svg>
